%TF.GenerationSoftware,KiCad,Pcbnew,9.0.3*%
%TF.CreationDate,2026-01-07T19:03:45+01:00*%
%TF.ProjectId,Learning_Numbers,4c656172-6e69-46e6-975f-4e756d626572,rev?*%
%TF.SameCoordinates,Original*%
%TF.FileFunction,Soldermask,Top*%
%TF.FilePolarity,Negative*%
%FSLAX46Y46*%
G04 Gerber Fmt 4.6, Leading zero omitted, Abs format (unit mm)*
G04 Created by KiCad (PCBNEW 9.0.3) date 2026-01-07 19:03:45*
%MOMM*%
%LPD*%
G01*
G04 APERTURE LIST*
G04 Aperture macros list*
%AMRoundRect*
0 Rectangle with rounded corners*
0 $1 Rounding radius*
0 $2 $3 $4 $5 $6 $7 $8 $9 X,Y pos of 4 corners*
0 Add a 4 corners polygon primitive as box body*
4,1,4,$2,$3,$4,$5,$6,$7,$8,$9,$2,$3,0*
0 Add four circle primitives for the rounded corners*
1,1,$1+$1,$2,$3*
1,1,$1+$1,$4,$5*
1,1,$1+$1,$6,$7*
1,1,$1+$1,$8,$9*
0 Add four rect primitives between the rounded corners*
20,1,$1+$1,$2,$3,$4,$5,0*
20,1,$1+$1,$4,$5,$6,$7,0*
20,1,$1+$1,$6,$7,$8,$9,0*
20,1,$1+$1,$8,$9,$2,$3,0*%
G04 Aperture macros list end*
%ADD10C,3.200000*%
%ADD11RoundRect,0.250000X0.500000X-0.750000X0.500000X0.750000X-0.500000X0.750000X-0.500000X-0.750000X0*%
%ADD12R,1.800000X1.800000*%
%ADD13C,1.800000*%
%ADD14RoundRect,0.250000X0.250000X-1.150000X0.250000X1.150000X-0.250000X1.150000X-0.250000X-1.150000X0*%
%ADD15C,2.000000*%
%ADD16RoundRect,0.250000X-0.400000X-0.625000X0.400000X-0.625000X0.400000X0.625000X-0.400000X0.625000X0*%
%ADD17RoundRect,0.250000X-0.350000X-0.625000X0.350000X-0.625000X0.350000X0.625000X-0.350000X0.625000X0*%
%ADD18O,1.200000X1.750000*%
%ADD19R,1.440000X2.000000*%
%ADD20O,1.440000X2.000000*%
%ADD21RoundRect,0.250000X0.350000X0.625000X-0.350000X0.625000X-0.350000X-0.625000X0.350000X-0.625000X0*%
%ADD22O,1.600000X1.600000*%
G04 APERTURE END LIST*
D10*
%TO.C,H2*%
X180000000Y-65500000D03*
%TD*%
D11*
%TO.C,SW6*%
X128750000Y-125900000D03*
X128750000Y-111600000D03*
X133750000Y-125900000D03*
X133750000Y-111600000D03*
%TD*%
%TO.C,SW7*%
X146250000Y-125900000D03*
X146250000Y-111600000D03*
X151250000Y-125900000D03*
X151250000Y-111600000D03*
%TD*%
D12*
%TO.C,D8*%
X182480000Y-107000000D03*
D13*
X185020000Y-107000000D03*
%TD*%
D11*
%TO.C,SW2*%
X58750000Y-125900000D03*
X58750000Y-111600000D03*
X63750000Y-125900000D03*
X63750000Y-111600000D03*
%TD*%
D12*
%TO.C,D5*%
X129980000Y-107000000D03*
D13*
X132520000Y-107000000D03*
%TD*%
D14*
%TO.C,SW23*%
X90100000Y-77800000D03*
X90100000Y-72000000D03*
X94100000Y-77800000D03*
X94100000Y-72000000D03*
%TD*%
D11*
%TO.C,SW13*%
X111250000Y-155900000D03*
X111250000Y-141600000D03*
X116250000Y-155900000D03*
X116250000Y-141600000D03*
%TD*%
%TO.C,SW5*%
X111250000Y-125900000D03*
X111250000Y-111600000D03*
X116250000Y-125900000D03*
X116250000Y-111600000D03*
%TD*%
D14*
%TO.C,SW22*%
X90100000Y-89000000D03*
X90100000Y-83200000D03*
X94100000Y-89000000D03*
X94100000Y-83200000D03*
%TD*%
D11*
%TO.C,SW3*%
X76250000Y-125900000D03*
X76250000Y-111600000D03*
X81250000Y-125900000D03*
X81250000Y-111600000D03*
%TD*%
D14*
%TO.C,SW21*%
X57100000Y-100200000D03*
X57100000Y-94400000D03*
X61100000Y-100200000D03*
X61100000Y-94400000D03*
%TD*%
D11*
%TO.C,SW15*%
X146250000Y-155900000D03*
X146250000Y-141600000D03*
X151250000Y-155900000D03*
X151250000Y-141600000D03*
%TD*%
D10*
%TO.C,H3*%
X70000000Y-130000000D03*
%TD*%
D11*
%TO.C,SW11*%
X76250000Y-155900000D03*
X76250000Y-141600000D03*
X81250000Y-155900000D03*
X81250000Y-141600000D03*
%TD*%
D12*
%TO.C,D4*%
X112480000Y-107000000D03*
D13*
X115020000Y-107000000D03*
%TD*%
D12*
%TO.C,D16*%
X182480000Y-137000000D03*
D13*
X185020000Y-137000000D03*
%TD*%
D11*
%TO.C,SW9*%
X181250000Y-125900000D03*
X181250000Y-111600000D03*
X186250000Y-125900000D03*
X186250000Y-111600000D03*
%TD*%
%TO.C,SW8*%
X163750000Y-125900000D03*
X163750000Y-111600000D03*
X168750000Y-125900000D03*
X168750000Y-111600000D03*
%TD*%
D12*
%TO.C,D6*%
X147480000Y-107000000D03*
D13*
X150020000Y-107000000D03*
%TD*%
D11*
%TO.C,SW16*%
X163750000Y-155900000D03*
X163750000Y-141600000D03*
X168750000Y-155900000D03*
X168750000Y-141600000D03*
%TD*%
D12*
%TO.C,D7*%
X164980000Y-107000000D03*
D13*
X167520000Y-107000000D03*
%TD*%
D12*
%TO.C,D2*%
X77480000Y-107000000D03*
D13*
X80020000Y-107000000D03*
%TD*%
D12*
%TO.C,D1*%
X59980000Y-107000000D03*
D13*
X62520000Y-107000000D03*
%TD*%
D11*
%TO.C,SW14*%
X128750000Y-155900000D03*
X128750000Y-141600000D03*
X133750000Y-155900000D03*
X133750000Y-141600000D03*
%TD*%
D14*
%TO.C,SW19*%
X57100000Y-77800000D03*
X57100000Y-72000000D03*
X61100000Y-77800000D03*
X61100000Y-72000000D03*
%TD*%
D12*
%TO.C,D12*%
X112480000Y-137000000D03*
D13*
X115020000Y-137000000D03*
%TD*%
D15*
%TO.C,U9*%
X117310000Y-95890000D03*
X119850000Y-95890000D03*
X122390000Y-95890000D03*
X124930000Y-95890000D03*
X127470000Y-95890000D03*
X130010000Y-95890000D03*
X132550000Y-95890000D03*
X135090000Y-95890000D03*
X135090000Y-71890000D03*
X132550000Y-71890000D03*
X130010000Y-71890000D03*
X127470000Y-71890000D03*
X124930000Y-71890000D03*
X122390000Y-71890000D03*
X119850000Y-71890000D03*
X117310000Y-71890000D03*
%TD*%
D12*
%TO.C,D9*%
X59980000Y-137000000D03*
D13*
X62520000Y-137000000D03*
%TD*%
D11*
%TO.C,SW18*%
X181250000Y-85930000D03*
X181250000Y-71630000D03*
X186250000Y-85930000D03*
X186250000Y-71630000D03*
%TD*%
%TO.C,SW4*%
X93750000Y-125900000D03*
X93750000Y-111600000D03*
X98750000Y-125900000D03*
X98750000Y-111600000D03*
%TD*%
%TO.C,SW10*%
X58750000Y-155900000D03*
X58750000Y-141600000D03*
X63750000Y-155900000D03*
X63750000Y-141600000D03*
%TD*%
D12*
%TO.C,D15*%
X164980000Y-137000000D03*
D13*
X167520000Y-137000000D03*
%TD*%
D12*
%TO.C,D11*%
X94980000Y-137000000D03*
D13*
X97520000Y-137000000D03*
%TD*%
D11*
%TO.C,SW17*%
X181250000Y-155900000D03*
X181250000Y-141600000D03*
X186250000Y-155900000D03*
X186250000Y-141600000D03*
%TD*%
D12*
%TO.C,D14*%
X147480000Y-137000000D03*
D13*
X150020000Y-137000000D03*
%TD*%
D10*
%TO.C,H4*%
X175000000Y-130000000D03*
%TD*%
D16*
%TO.C,R33*%
X89000000Y-95250000D03*
X92100000Y-95250000D03*
%TD*%
D15*
%TO.C,U10*%
X149310000Y-95890000D03*
X151850000Y-95890000D03*
X154390000Y-95890000D03*
X156930000Y-95890000D03*
X159470000Y-95890000D03*
X162010000Y-95890000D03*
X164550000Y-95890000D03*
X167090000Y-95890000D03*
X167090000Y-71890000D03*
X164550000Y-71890000D03*
X162010000Y-71890000D03*
X159470000Y-71890000D03*
X156930000Y-71890000D03*
X154390000Y-71890000D03*
X151850000Y-71890000D03*
X149310000Y-71890000D03*
%TD*%
D10*
%TO.C,H1*%
X101000000Y-65500000D03*
%TD*%
D11*
%TO.C,SW12*%
X93750000Y-155900000D03*
X93750000Y-141600000D03*
X98750000Y-155900000D03*
X98750000Y-141600000D03*
%TD*%
D14*
%TO.C,SW20*%
X57100000Y-89000000D03*
X57100000Y-83200000D03*
X61100000Y-89000000D03*
X61100000Y-83200000D03*
%TD*%
D12*
%TO.C,D13*%
X129980000Y-137000000D03*
D13*
X132520000Y-137000000D03*
%TD*%
D12*
%TO.C,D3*%
X94980000Y-107000000D03*
D13*
X97520000Y-107000000D03*
%TD*%
D12*
%TO.C,D10*%
X77480000Y-137000000D03*
D13*
X80020000Y-137000000D03*
%TD*%
D17*
%TO.C,BT1*%
X173625000Y-158660000D03*
D18*
X175625000Y-158660000D03*
%TD*%
D19*
%TO.C,U1*%
X145415000Y-64135000D03*
D20*
X142875000Y-64135000D03*
X140335000Y-64135000D03*
X137795000Y-64135000D03*
X135255000Y-64135000D03*
X132715000Y-64135000D03*
X130175000Y-64135000D03*
X127635000Y-64135000D03*
X125095000Y-64135000D03*
X122555000Y-64135000D03*
X120015000Y-64135000D03*
X117475000Y-64135000D03*
X114935000Y-64135000D03*
X112395000Y-64135000D03*
X112395000Y-56515000D03*
X114935000Y-56515000D03*
X117475000Y-56515000D03*
X120015000Y-56515000D03*
X122555000Y-56515000D03*
X125095000Y-56515000D03*
X127635000Y-56515000D03*
X130175000Y-56515000D03*
X132715000Y-56515000D03*
X135255000Y-56515000D03*
X137795000Y-56515000D03*
X140335000Y-56515000D03*
X142875000Y-56515000D03*
X145415000Y-56515000D03*
%TD*%
D17*
%TO.C,SW1*%
X139335000Y-158660000D03*
D18*
X141335000Y-158660000D03*
%TD*%
D21*
%TO.C,LS1*%
X100965000Y-46990000D03*
D18*
X98965000Y-46990000D03*
%TD*%
D22*
%TO.C,U11*%
X84455000Y-74295000D03*
X84455000Y-76835000D03*
X84455000Y-79375000D03*
X84455000Y-81915000D03*
X84455000Y-84455000D03*
X84455000Y-86995000D03*
X84455000Y-89535000D03*
X84455000Y-92075000D03*
X66675000Y-92075000D03*
X66675000Y-89535000D03*
X66675000Y-86995000D03*
X66675000Y-84455000D03*
X66675000Y-81915000D03*
X66675000Y-79375000D03*
X66675000Y-76835000D03*
X66675000Y-74295000D03*
%TD*%
M02*
