%TF.GenerationSoftware,KiCad,Pcbnew,9.0.3*%
%TF.CreationDate,2026-01-12T23:46:14+01:00*%
%TF.ProjectId,Learning_Numbers,4c656172-6e69-46e6-975f-4e756d626572,rev?*%
%TF.SameCoordinates,Original*%
%TF.FileFunction,Legend,Bot*%
%TF.FilePolarity,Positive*%
%FSLAX46Y46*%
G04 Gerber Fmt 4.6, Leading zero omitted, Abs format (unit mm)*
G04 Created by KiCad (PCBNEW 9.0.3) date 2026-01-12 23:46:14*
%MOMM*%
%LPD*%
G01*
G04 APERTURE LIST*
%ADD10C,0.150000*%
%ADD11C,0.100000*%
%ADD12C,0.120000*%
G04 APERTURE END LIST*
D10*
X159747857Y-75459819D02*
X160081190Y-74983628D01*
X160319285Y-75459819D02*
X160319285Y-74459819D01*
X160319285Y-74459819D02*
X159938333Y-74459819D01*
X159938333Y-74459819D02*
X159843095Y-74507438D01*
X159843095Y-74507438D02*
X159795476Y-74555057D01*
X159795476Y-74555057D02*
X159747857Y-74650295D01*
X159747857Y-74650295D02*
X159747857Y-74793152D01*
X159747857Y-74793152D02*
X159795476Y-74888390D01*
X159795476Y-74888390D02*
X159843095Y-74936009D01*
X159843095Y-74936009D02*
X159938333Y-74983628D01*
X159938333Y-74983628D02*
X160319285Y-74983628D01*
X158890714Y-74793152D02*
X158890714Y-75459819D01*
X159128809Y-74412200D02*
X159366904Y-75126485D01*
X159366904Y-75126485D02*
X158747857Y-75126485D01*
X158414523Y-74555057D02*
X158366904Y-74507438D01*
X158366904Y-74507438D02*
X158271666Y-74459819D01*
X158271666Y-74459819D02*
X158033571Y-74459819D01*
X158033571Y-74459819D02*
X157938333Y-74507438D01*
X157938333Y-74507438D02*
X157890714Y-74555057D01*
X157890714Y-74555057D02*
X157843095Y-74650295D01*
X157843095Y-74650295D02*
X157843095Y-74745533D01*
X157843095Y-74745533D02*
X157890714Y-74888390D01*
X157890714Y-74888390D02*
X158462142Y-75459819D01*
X158462142Y-75459819D02*
X157843095Y-75459819D01*
X159319285Y-79119819D02*
X159890713Y-79119819D01*
X159604999Y-79119819D02*
X159604999Y-78119819D01*
X159604999Y-78119819D02*
X159700237Y-78262676D01*
X159700237Y-78262676D02*
X159795475Y-78357914D01*
X159795475Y-78357914D02*
X159890713Y-78405533D01*
X158890713Y-79119819D02*
X158890713Y-78119819D01*
X158319285Y-79119819D02*
X158747856Y-78548390D01*
X158319285Y-78119819D02*
X158890713Y-78691247D01*
X187854819Y-136162142D02*
X187378628Y-135828809D01*
X187854819Y-135590714D02*
X186854819Y-135590714D01*
X186854819Y-135590714D02*
X186854819Y-135971666D01*
X186854819Y-135971666D02*
X186902438Y-136066904D01*
X186902438Y-136066904D02*
X186950057Y-136114523D01*
X186950057Y-136114523D02*
X187045295Y-136162142D01*
X187045295Y-136162142D02*
X187188152Y-136162142D01*
X187188152Y-136162142D02*
X187283390Y-136114523D01*
X187283390Y-136114523D02*
X187331009Y-136066904D01*
X187331009Y-136066904D02*
X187378628Y-135971666D01*
X187378628Y-135971666D02*
X187378628Y-135590714D01*
X187854819Y-137114523D02*
X187854819Y-136543095D01*
X187854819Y-136828809D02*
X186854819Y-136828809D01*
X186854819Y-136828809D02*
X186997676Y-136733571D01*
X186997676Y-136733571D02*
X187092914Y-136638333D01*
X187092914Y-136638333D02*
X187140533Y-136543095D01*
X186854819Y-137971666D02*
X186854819Y-137781190D01*
X186854819Y-137781190D02*
X186902438Y-137685952D01*
X186902438Y-137685952D02*
X186950057Y-137638333D01*
X186950057Y-137638333D02*
X187092914Y-137543095D01*
X187092914Y-137543095D02*
X187283390Y-137495476D01*
X187283390Y-137495476D02*
X187664342Y-137495476D01*
X187664342Y-137495476D02*
X187759580Y-137543095D01*
X187759580Y-137543095D02*
X187807200Y-137590714D01*
X187807200Y-137590714D02*
X187854819Y-137685952D01*
X187854819Y-137685952D02*
X187854819Y-137876428D01*
X187854819Y-137876428D02*
X187807200Y-137971666D01*
X187807200Y-137971666D02*
X187759580Y-138019285D01*
X187759580Y-138019285D02*
X187664342Y-138066904D01*
X187664342Y-138066904D02*
X187426247Y-138066904D01*
X187426247Y-138066904D02*
X187331009Y-138019285D01*
X187331009Y-138019285D02*
X187283390Y-137971666D01*
X187283390Y-137971666D02*
X187235771Y-137876428D01*
X187235771Y-137876428D02*
X187235771Y-137685952D01*
X187235771Y-137685952D02*
X187283390Y-137590714D01*
X187283390Y-137590714D02*
X187331009Y-137543095D01*
X187331009Y-137543095D02*
X187426247Y-137495476D01*
X191514819Y-136590714D02*
X191514819Y-136019286D01*
X191514819Y-136305000D02*
X190514819Y-136305000D01*
X190514819Y-136305000D02*
X190657676Y-136209762D01*
X190657676Y-136209762D02*
X190752914Y-136114524D01*
X190752914Y-136114524D02*
X190800533Y-136019286D01*
X191514819Y-137019286D02*
X190514819Y-137019286D01*
X191514819Y-137590714D02*
X190943390Y-137162143D01*
X190514819Y-137590714D02*
X191086247Y-137019286D01*
X111066190Y-44083628D02*
X111066190Y-44559819D01*
X111399523Y-43559819D02*
X111066190Y-44083628D01*
X111066190Y-44083628D02*
X110732857Y-43559819D01*
X109875714Y-44559819D02*
X110447142Y-44559819D01*
X110161428Y-44559819D02*
X110161428Y-43559819D01*
X110161428Y-43559819D02*
X110256666Y-43702676D01*
X110256666Y-43702676D02*
X110351904Y-43797914D01*
X110351904Y-43797914D02*
X110447142Y-43845533D01*
X112113809Y-51028390D02*
X112209047Y-50980771D01*
X112209047Y-50980771D02*
X112256666Y-50933152D01*
X112256666Y-50933152D02*
X112304285Y-50837914D01*
X112304285Y-50837914D02*
X112304285Y-50790295D01*
X112304285Y-50790295D02*
X112256666Y-50695057D01*
X112256666Y-50695057D02*
X112209047Y-50647438D01*
X112209047Y-50647438D02*
X112113809Y-50599819D01*
X112113809Y-50599819D02*
X111923333Y-50599819D01*
X111923333Y-50599819D02*
X111828095Y-50647438D01*
X111828095Y-50647438D02*
X111780476Y-50695057D01*
X111780476Y-50695057D02*
X111732857Y-50790295D01*
X111732857Y-50790295D02*
X111732857Y-50837914D01*
X111732857Y-50837914D02*
X111780476Y-50933152D01*
X111780476Y-50933152D02*
X111828095Y-50980771D01*
X111828095Y-50980771D02*
X111923333Y-51028390D01*
X111923333Y-51028390D02*
X112113809Y-51028390D01*
X112113809Y-51028390D02*
X112209047Y-51076009D01*
X112209047Y-51076009D02*
X112256666Y-51123628D01*
X112256666Y-51123628D02*
X112304285Y-51218866D01*
X112304285Y-51218866D02*
X112304285Y-51409342D01*
X112304285Y-51409342D02*
X112256666Y-51504580D01*
X112256666Y-51504580D02*
X112209047Y-51552200D01*
X112209047Y-51552200D02*
X112113809Y-51599819D01*
X112113809Y-51599819D02*
X111923333Y-51599819D01*
X111923333Y-51599819D02*
X111828095Y-51552200D01*
X111828095Y-51552200D02*
X111780476Y-51504580D01*
X111780476Y-51504580D02*
X111732857Y-51409342D01*
X111732857Y-51409342D02*
X111732857Y-51218866D01*
X111732857Y-51218866D02*
X111780476Y-51123628D01*
X111780476Y-51123628D02*
X111828095Y-51076009D01*
X111828095Y-51076009D02*
X111923333Y-51028390D01*
X111304285Y-51599819D02*
X111304285Y-50599819D01*
X111304285Y-50599819D02*
X110970952Y-51314104D01*
X110970952Y-51314104D02*
X110637619Y-50599819D01*
X110637619Y-50599819D02*
X110637619Y-51599819D01*
X110161428Y-51599819D02*
X110161428Y-50599819D01*
X109732857Y-51599819D02*
X109732857Y-51076009D01*
X109732857Y-51076009D02*
X109780476Y-50980771D01*
X109780476Y-50980771D02*
X109875714Y-50933152D01*
X109875714Y-50933152D02*
X110018571Y-50933152D01*
X110018571Y-50933152D02*
X110113809Y-50980771D01*
X110113809Y-50980771D02*
X110161428Y-51028390D01*
X109351904Y-50933152D02*
X108828095Y-50933152D01*
X108828095Y-50933152D02*
X109351904Y-51599819D01*
X109351904Y-51599819D02*
X108828095Y-51599819D01*
X75944819Y-136237142D02*
X75468628Y-135903809D01*
X75944819Y-135665714D02*
X74944819Y-135665714D01*
X74944819Y-135665714D02*
X74944819Y-136046666D01*
X74944819Y-136046666D02*
X74992438Y-136141904D01*
X74992438Y-136141904D02*
X75040057Y-136189523D01*
X75040057Y-136189523D02*
X75135295Y-136237142D01*
X75135295Y-136237142D02*
X75278152Y-136237142D01*
X75278152Y-136237142D02*
X75373390Y-136189523D01*
X75373390Y-136189523D02*
X75421009Y-136141904D01*
X75421009Y-136141904D02*
X75468628Y-136046666D01*
X75468628Y-136046666D02*
X75468628Y-135665714D01*
X75040057Y-136618095D02*
X74992438Y-136665714D01*
X74992438Y-136665714D02*
X74944819Y-136760952D01*
X74944819Y-136760952D02*
X74944819Y-136999047D01*
X74944819Y-136999047D02*
X74992438Y-137094285D01*
X74992438Y-137094285D02*
X75040057Y-137141904D01*
X75040057Y-137141904D02*
X75135295Y-137189523D01*
X75135295Y-137189523D02*
X75230533Y-137189523D01*
X75230533Y-137189523D02*
X75373390Y-137141904D01*
X75373390Y-137141904D02*
X75944819Y-136570476D01*
X75944819Y-136570476D02*
X75944819Y-137189523D01*
X74944819Y-138046666D02*
X74944819Y-137856190D01*
X74944819Y-137856190D02*
X74992438Y-137760952D01*
X74992438Y-137760952D02*
X75040057Y-137713333D01*
X75040057Y-137713333D02*
X75182914Y-137618095D01*
X75182914Y-137618095D02*
X75373390Y-137570476D01*
X75373390Y-137570476D02*
X75754342Y-137570476D01*
X75754342Y-137570476D02*
X75849580Y-137618095D01*
X75849580Y-137618095D02*
X75897200Y-137665714D01*
X75897200Y-137665714D02*
X75944819Y-137760952D01*
X75944819Y-137760952D02*
X75944819Y-137951428D01*
X75944819Y-137951428D02*
X75897200Y-138046666D01*
X75897200Y-138046666D02*
X75849580Y-138094285D01*
X75849580Y-138094285D02*
X75754342Y-138141904D01*
X75754342Y-138141904D02*
X75516247Y-138141904D01*
X75516247Y-138141904D02*
X75421009Y-138094285D01*
X75421009Y-138094285D02*
X75373390Y-138046666D01*
X75373390Y-138046666D02*
X75325771Y-137951428D01*
X75325771Y-137951428D02*
X75325771Y-137760952D01*
X75325771Y-137760952D02*
X75373390Y-137665714D01*
X75373390Y-137665714D02*
X75421009Y-137618095D01*
X75421009Y-137618095D02*
X75516247Y-137570476D01*
X72284819Y-136189523D02*
X72284819Y-135618095D01*
X72284819Y-135903809D02*
X71284819Y-135903809D01*
X71284819Y-135903809D02*
X71427676Y-135808571D01*
X71427676Y-135808571D02*
X71522914Y-135713333D01*
X71522914Y-135713333D02*
X71570533Y-135618095D01*
X71284819Y-136808571D02*
X71284819Y-136903809D01*
X71284819Y-136903809D02*
X71332438Y-136999047D01*
X71332438Y-136999047D02*
X71380057Y-137046666D01*
X71380057Y-137046666D02*
X71475295Y-137094285D01*
X71475295Y-137094285D02*
X71665771Y-137141904D01*
X71665771Y-137141904D02*
X71903866Y-137141904D01*
X71903866Y-137141904D02*
X72094342Y-137094285D01*
X72094342Y-137094285D02*
X72189580Y-137046666D01*
X72189580Y-137046666D02*
X72237200Y-136999047D01*
X72237200Y-136999047D02*
X72284819Y-136903809D01*
X72284819Y-136903809D02*
X72284819Y-136808571D01*
X72284819Y-136808571D02*
X72237200Y-136713333D01*
X72237200Y-136713333D02*
X72189580Y-136665714D01*
X72189580Y-136665714D02*
X72094342Y-136618095D01*
X72094342Y-136618095D02*
X71903866Y-136570476D01*
X71903866Y-136570476D02*
X71665771Y-136570476D01*
X71665771Y-136570476D02*
X71475295Y-136618095D01*
X71475295Y-136618095D02*
X71380057Y-136665714D01*
X71380057Y-136665714D02*
X71332438Y-136713333D01*
X71332438Y-136713333D02*
X71284819Y-136808571D01*
X72284819Y-137570476D02*
X71284819Y-137570476D01*
X72284819Y-138141904D02*
X71713390Y-137713333D01*
X71284819Y-138141904D02*
X71856247Y-137570476D01*
D11*
X122046904Y-113122419D02*
X122046904Y-113931942D01*
X122046904Y-113931942D02*
X121999285Y-114027180D01*
X121999285Y-114027180D02*
X121951666Y-114074800D01*
X121951666Y-114074800D02*
X121856428Y-114122419D01*
X121856428Y-114122419D02*
X121665952Y-114122419D01*
X121665952Y-114122419D02*
X121570714Y-114074800D01*
X121570714Y-114074800D02*
X121523095Y-114027180D01*
X121523095Y-114027180D02*
X121475476Y-113931942D01*
X121475476Y-113931942D02*
X121475476Y-113122419D01*
X121094523Y-113122419D02*
X120427857Y-113122419D01*
X120427857Y-113122419D02*
X120856428Y-114122419D01*
D10*
X124546904Y-111214819D02*
X123880238Y-111214819D01*
X123880238Y-111214819D02*
X124308809Y-112214819D01*
X123070714Y-111548152D02*
X123070714Y-112214819D01*
X123308809Y-111167200D02*
X123546904Y-111881485D01*
X123546904Y-111881485D02*
X122927857Y-111881485D01*
X122546904Y-112214819D02*
X122546904Y-111214819D01*
X122546904Y-111691009D02*
X121975476Y-111691009D01*
X121975476Y-112214819D02*
X121975476Y-111214819D01*
X120927857Y-112119580D02*
X120975476Y-112167200D01*
X120975476Y-112167200D02*
X121118333Y-112214819D01*
X121118333Y-112214819D02*
X121213571Y-112214819D01*
X121213571Y-112214819D02*
X121356428Y-112167200D01*
X121356428Y-112167200D02*
X121451666Y-112071961D01*
X121451666Y-112071961D02*
X121499285Y-111976723D01*
X121499285Y-111976723D02*
X121546904Y-111786247D01*
X121546904Y-111786247D02*
X121546904Y-111643390D01*
X121546904Y-111643390D02*
X121499285Y-111452914D01*
X121499285Y-111452914D02*
X121451666Y-111357676D01*
X121451666Y-111357676D02*
X121356428Y-111262438D01*
X121356428Y-111262438D02*
X121213571Y-111214819D01*
X121213571Y-111214819D02*
X121118333Y-111214819D01*
X121118333Y-111214819D02*
X120975476Y-111262438D01*
X120975476Y-111262438D02*
X120927857Y-111310057D01*
X120023095Y-111214819D02*
X120499285Y-111214819D01*
X120499285Y-111214819D02*
X120546904Y-111691009D01*
X120546904Y-111691009D02*
X120499285Y-111643390D01*
X120499285Y-111643390D02*
X120404047Y-111595771D01*
X120404047Y-111595771D02*
X120165952Y-111595771D01*
X120165952Y-111595771D02*
X120070714Y-111643390D01*
X120070714Y-111643390D02*
X120023095Y-111691009D01*
X120023095Y-111691009D02*
X119975476Y-111786247D01*
X119975476Y-111786247D02*
X119975476Y-112024342D01*
X119975476Y-112024342D02*
X120023095Y-112119580D01*
X120023095Y-112119580D02*
X120070714Y-112167200D01*
X120070714Y-112167200D02*
X120165952Y-112214819D01*
X120165952Y-112214819D02*
X120404047Y-112214819D01*
X120404047Y-112214819D02*
X120499285Y-112167200D01*
X120499285Y-112167200D02*
X120546904Y-112119580D01*
X119499285Y-112214819D02*
X119308809Y-112214819D01*
X119308809Y-112214819D02*
X119213571Y-112167200D01*
X119213571Y-112167200D02*
X119165952Y-112119580D01*
X119165952Y-112119580D02*
X119070714Y-111976723D01*
X119070714Y-111976723D02*
X119023095Y-111786247D01*
X119023095Y-111786247D02*
X119023095Y-111405295D01*
X119023095Y-111405295D02*
X119070714Y-111310057D01*
X119070714Y-111310057D02*
X119118333Y-111262438D01*
X119118333Y-111262438D02*
X119213571Y-111214819D01*
X119213571Y-111214819D02*
X119404047Y-111214819D01*
X119404047Y-111214819D02*
X119499285Y-111262438D01*
X119499285Y-111262438D02*
X119546904Y-111310057D01*
X119546904Y-111310057D02*
X119594523Y-111405295D01*
X119594523Y-111405295D02*
X119594523Y-111643390D01*
X119594523Y-111643390D02*
X119546904Y-111738628D01*
X119546904Y-111738628D02*
X119499285Y-111786247D01*
X119499285Y-111786247D02*
X119404047Y-111833866D01*
X119404047Y-111833866D02*
X119213571Y-111833866D01*
X119213571Y-111833866D02*
X119118333Y-111786247D01*
X119118333Y-111786247D02*
X119070714Y-111738628D01*
X119070714Y-111738628D02*
X119023095Y-111643390D01*
X118118333Y-111214819D02*
X118594523Y-111214819D01*
X118594523Y-111214819D02*
X118642142Y-111691009D01*
X118642142Y-111691009D02*
X118594523Y-111643390D01*
X118594523Y-111643390D02*
X118499285Y-111595771D01*
X118499285Y-111595771D02*
X118261190Y-111595771D01*
X118261190Y-111595771D02*
X118165952Y-111643390D01*
X118165952Y-111643390D02*
X118118333Y-111691009D01*
X118118333Y-111691009D02*
X118070714Y-111786247D01*
X118070714Y-111786247D02*
X118070714Y-112024342D01*
X118070714Y-112024342D02*
X118118333Y-112119580D01*
X118118333Y-112119580D02*
X118165952Y-112167200D01*
X118165952Y-112167200D02*
X118261190Y-112214819D01*
X118261190Y-112214819D02*
X118499285Y-112214819D01*
X118499285Y-112214819D02*
X118594523Y-112167200D01*
X118594523Y-112167200D02*
X118642142Y-112119580D01*
X117369819Y-106793333D02*
X116893628Y-106460000D01*
X117369819Y-106221905D02*
X116369819Y-106221905D01*
X116369819Y-106221905D02*
X116369819Y-106602857D01*
X116369819Y-106602857D02*
X116417438Y-106698095D01*
X116417438Y-106698095D02*
X116465057Y-106745714D01*
X116465057Y-106745714D02*
X116560295Y-106793333D01*
X116560295Y-106793333D02*
X116703152Y-106793333D01*
X116703152Y-106793333D02*
X116798390Y-106745714D01*
X116798390Y-106745714D02*
X116846009Y-106698095D01*
X116846009Y-106698095D02*
X116893628Y-106602857D01*
X116893628Y-106602857D02*
X116893628Y-106221905D01*
X116703152Y-107650476D02*
X117369819Y-107650476D01*
X116322200Y-107412381D02*
X117036485Y-107174286D01*
X117036485Y-107174286D02*
X117036485Y-107793333D01*
X121029819Y-106745714D02*
X121029819Y-106174286D01*
X121029819Y-106460000D02*
X120029819Y-106460000D01*
X120029819Y-106460000D02*
X120172676Y-106364762D01*
X120172676Y-106364762D02*
X120267914Y-106269524D01*
X120267914Y-106269524D02*
X120315533Y-106174286D01*
X121029819Y-107174286D02*
X120029819Y-107174286D01*
X121029819Y-107745714D02*
X120458390Y-107317143D01*
X120029819Y-107745714D02*
X120601247Y-107174286D01*
X100224819Y-136162142D02*
X99748628Y-135828809D01*
X100224819Y-135590714D02*
X99224819Y-135590714D01*
X99224819Y-135590714D02*
X99224819Y-135971666D01*
X99224819Y-135971666D02*
X99272438Y-136066904D01*
X99272438Y-136066904D02*
X99320057Y-136114523D01*
X99320057Y-136114523D02*
X99415295Y-136162142D01*
X99415295Y-136162142D02*
X99558152Y-136162142D01*
X99558152Y-136162142D02*
X99653390Y-136114523D01*
X99653390Y-136114523D02*
X99701009Y-136066904D01*
X99701009Y-136066904D02*
X99748628Y-135971666D01*
X99748628Y-135971666D02*
X99748628Y-135590714D01*
X100224819Y-137114523D02*
X100224819Y-136543095D01*
X100224819Y-136828809D02*
X99224819Y-136828809D01*
X99224819Y-136828809D02*
X99367676Y-136733571D01*
X99367676Y-136733571D02*
X99462914Y-136638333D01*
X99462914Y-136638333D02*
X99510533Y-136543095D01*
X100224819Y-138066904D02*
X100224819Y-137495476D01*
X100224819Y-137781190D02*
X99224819Y-137781190D01*
X99224819Y-137781190D02*
X99367676Y-137685952D01*
X99367676Y-137685952D02*
X99462914Y-137590714D01*
X99462914Y-137590714D02*
X99510533Y-137495476D01*
X103884819Y-136590714D02*
X103884819Y-136019286D01*
X103884819Y-136305000D02*
X102884819Y-136305000D01*
X102884819Y-136305000D02*
X103027676Y-136209762D01*
X103027676Y-136209762D02*
X103122914Y-136114524D01*
X103122914Y-136114524D02*
X103170533Y-136019286D01*
X103884819Y-137019286D02*
X102884819Y-137019286D01*
X103884819Y-137590714D02*
X103313390Y-137162143D01*
X102884819Y-137590714D02*
X103456247Y-137019286D01*
X128632857Y-76094819D02*
X128966190Y-75618628D01*
X129204285Y-76094819D02*
X129204285Y-75094819D01*
X129204285Y-75094819D02*
X128823333Y-75094819D01*
X128823333Y-75094819D02*
X128728095Y-75142438D01*
X128728095Y-75142438D02*
X128680476Y-75190057D01*
X128680476Y-75190057D02*
X128632857Y-75285295D01*
X128632857Y-75285295D02*
X128632857Y-75428152D01*
X128632857Y-75428152D02*
X128680476Y-75523390D01*
X128680476Y-75523390D02*
X128728095Y-75571009D01*
X128728095Y-75571009D02*
X128823333Y-75618628D01*
X128823333Y-75618628D02*
X129204285Y-75618628D01*
X128299523Y-75094819D02*
X127680476Y-75094819D01*
X127680476Y-75094819D02*
X128013809Y-75475771D01*
X128013809Y-75475771D02*
X127870952Y-75475771D01*
X127870952Y-75475771D02*
X127775714Y-75523390D01*
X127775714Y-75523390D02*
X127728095Y-75571009D01*
X127728095Y-75571009D02*
X127680476Y-75666247D01*
X127680476Y-75666247D02*
X127680476Y-75904342D01*
X127680476Y-75904342D02*
X127728095Y-75999580D01*
X127728095Y-75999580D02*
X127775714Y-76047200D01*
X127775714Y-76047200D02*
X127870952Y-76094819D01*
X127870952Y-76094819D02*
X128156666Y-76094819D01*
X128156666Y-76094819D02*
X128251904Y-76047200D01*
X128251904Y-76047200D02*
X128299523Y-75999580D01*
X126823333Y-75428152D02*
X126823333Y-76094819D01*
X127061428Y-75047200D02*
X127299523Y-75761485D01*
X127299523Y-75761485D02*
X126680476Y-75761485D01*
X128204285Y-79754819D02*
X128775713Y-79754819D01*
X128489999Y-79754819D02*
X128489999Y-78754819D01*
X128489999Y-78754819D02*
X128585237Y-78897676D01*
X128585237Y-78897676D02*
X128680475Y-78992914D01*
X128680475Y-78992914D02*
X128775713Y-79040533D01*
X127775713Y-79754819D02*
X127775713Y-78754819D01*
X127204285Y-79754819D02*
X127632856Y-79183390D01*
X127204285Y-78754819D02*
X127775713Y-79326247D01*
X147047857Y-86889819D02*
X147381190Y-86413628D01*
X147619285Y-86889819D02*
X147619285Y-85889819D01*
X147619285Y-85889819D02*
X147238333Y-85889819D01*
X147238333Y-85889819D02*
X147143095Y-85937438D01*
X147143095Y-85937438D02*
X147095476Y-85985057D01*
X147095476Y-85985057D02*
X147047857Y-86080295D01*
X147047857Y-86080295D02*
X147047857Y-86223152D01*
X147047857Y-86223152D02*
X147095476Y-86318390D01*
X147095476Y-86318390D02*
X147143095Y-86366009D01*
X147143095Y-86366009D02*
X147238333Y-86413628D01*
X147238333Y-86413628D02*
X147619285Y-86413628D01*
X146190714Y-86223152D02*
X146190714Y-86889819D01*
X146428809Y-85842200D02*
X146666904Y-86556485D01*
X146666904Y-86556485D02*
X146047857Y-86556485D01*
X145619285Y-86889819D02*
X145428809Y-86889819D01*
X145428809Y-86889819D02*
X145333571Y-86842200D01*
X145333571Y-86842200D02*
X145285952Y-86794580D01*
X145285952Y-86794580D02*
X145190714Y-86651723D01*
X145190714Y-86651723D02*
X145143095Y-86461247D01*
X145143095Y-86461247D02*
X145143095Y-86080295D01*
X145143095Y-86080295D02*
X145190714Y-85985057D01*
X145190714Y-85985057D02*
X145238333Y-85937438D01*
X145238333Y-85937438D02*
X145333571Y-85889819D01*
X145333571Y-85889819D02*
X145524047Y-85889819D01*
X145524047Y-85889819D02*
X145619285Y-85937438D01*
X145619285Y-85937438D02*
X145666904Y-85985057D01*
X145666904Y-85985057D02*
X145714523Y-86080295D01*
X145714523Y-86080295D02*
X145714523Y-86318390D01*
X145714523Y-86318390D02*
X145666904Y-86413628D01*
X145666904Y-86413628D02*
X145619285Y-86461247D01*
X145619285Y-86461247D02*
X145524047Y-86508866D01*
X145524047Y-86508866D02*
X145333571Y-86508866D01*
X145333571Y-86508866D02*
X145238333Y-86461247D01*
X145238333Y-86461247D02*
X145190714Y-86413628D01*
X145190714Y-86413628D02*
X145143095Y-86318390D01*
X146619285Y-90549819D02*
X147190713Y-90549819D01*
X146904999Y-90549819D02*
X146904999Y-89549819D01*
X146904999Y-89549819D02*
X147000237Y-89692676D01*
X147000237Y-89692676D02*
X147095475Y-89787914D01*
X147095475Y-89787914D02*
X147190713Y-89835533D01*
X146190713Y-90549819D02*
X146190713Y-89549819D01*
X145619285Y-90549819D02*
X146047856Y-89978390D01*
X145619285Y-89549819D02*
X146190713Y-90121247D01*
X65299819Y-106793333D02*
X64823628Y-106460000D01*
X65299819Y-106221905D02*
X64299819Y-106221905D01*
X64299819Y-106221905D02*
X64299819Y-106602857D01*
X64299819Y-106602857D02*
X64347438Y-106698095D01*
X64347438Y-106698095D02*
X64395057Y-106745714D01*
X64395057Y-106745714D02*
X64490295Y-106793333D01*
X64490295Y-106793333D02*
X64633152Y-106793333D01*
X64633152Y-106793333D02*
X64728390Y-106745714D01*
X64728390Y-106745714D02*
X64776009Y-106698095D01*
X64776009Y-106698095D02*
X64823628Y-106602857D01*
X64823628Y-106602857D02*
X64823628Y-106221905D01*
X65299819Y-107745714D02*
X65299819Y-107174286D01*
X65299819Y-107460000D02*
X64299819Y-107460000D01*
X64299819Y-107460000D02*
X64442676Y-107364762D01*
X64442676Y-107364762D02*
X64537914Y-107269524D01*
X64537914Y-107269524D02*
X64585533Y-107174286D01*
X68959819Y-106745714D02*
X68959819Y-106174286D01*
X68959819Y-106460000D02*
X67959819Y-106460000D01*
X67959819Y-106460000D02*
X68102676Y-106364762D01*
X68102676Y-106364762D02*
X68197914Y-106269524D01*
X68197914Y-106269524D02*
X68245533Y-106174286D01*
X68959819Y-107174286D02*
X67959819Y-107174286D01*
X68959819Y-107745714D02*
X68388390Y-107317143D01*
X67959819Y-107745714D02*
X68531247Y-107174286D01*
X128014819Y-106317142D02*
X127538628Y-105983809D01*
X128014819Y-105745714D02*
X127014819Y-105745714D01*
X127014819Y-105745714D02*
X127014819Y-106126666D01*
X127014819Y-106126666D02*
X127062438Y-106221904D01*
X127062438Y-106221904D02*
X127110057Y-106269523D01*
X127110057Y-106269523D02*
X127205295Y-106317142D01*
X127205295Y-106317142D02*
X127348152Y-106317142D01*
X127348152Y-106317142D02*
X127443390Y-106269523D01*
X127443390Y-106269523D02*
X127491009Y-106221904D01*
X127491009Y-106221904D02*
X127538628Y-106126666D01*
X127538628Y-106126666D02*
X127538628Y-105745714D01*
X127110057Y-106698095D02*
X127062438Y-106745714D01*
X127062438Y-106745714D02*
X127014819Y-106840952D01*
X127014819Y-106840952D02*
X127014819Y-107079047D01*
X127014819Y-107079047D02*
X127062438Y-107174285D01*
X127062438Y-107174285D02*
X127110057Y-107221904D01*
X127110057Y-107221904D02*
X127205295Y-107269523D01*
X127205295Y-107269523D02*
X127300533Y-107269523D01*
X127300533Y-107269523D02*
X127443390Y-107221904D01*
X127443390Y-107221904D02*
X128014819Y-106650476D01*
X128014819Y-106650476D02*
X128014819Y-107269523D01*
X128014819Y-108221904D02*
X128014819Y-107650476D01*
X128014819Y-107936190D02*
X127014819Y-107936190D01*
X127014819Y-107936190D02*
X127157676Y-107840952D01*
X127157676Y-107840952D02*
X127252914Y-107745714D01*
X127252914Y-107745714D02*
X127300533Y-107650476D01*
X124354819Y-106269523D02*
X124354819Y-105698095D01*
X124354819Y-105983809D02*
X123354819Y-105983809D01*
X123354819Y-105983809D02*
X123497676Y-105888571D01*
X123497676Y-105888571D02*
X123592914Y-105793333D01*
X123592914Y-105793333D02*
X123640533Y-105698095D01*
X123354819Y-106888571D02*
X123354819Y-106983809D01*
X123354819Y-106983809D02*
X123402438Y-107079047D01*
X123402438Y-107079047D02*
X123450057Y-107126666D01*
X123450057Y-107126666D02*
X123545295Y-107174285D01*
X123545295Y-107174285D02*
X123735771Y-107221904D01*
X123735771Y-107221904D02*
X123973866Y-107221904D01*
X123973866Y-107221904D02*
X124164342Y-107174285D01*
X124164342Y-107174285D02*
X124259580Y-107126666D01*
X124259580Y-107126666D02*
X124307200Y-107079047D01*
X124307200Y-107079047D02*
X124354819Y-106983809D01*
X124354819Y-106983809D02*
X124354819Y-106888571D01*
X124354819Y-106888571D02*
X124307200Y-106793333D01*
X124307200Y-106793333D02*
X124259580Y-106745714D01*
X124259580Y-106745714D02*
X124164342Y-106698095D01*
X124164342Y-106698095D02*
X123973866Y-106650476D01*
X123973866Y-106650476D02*
X123735771Y-106650476D01*
X123735771Y-106650476D02*
X123545295Y-106698095D01*
X123545295Y-106698095D02*
X123450057Y-106745714D01*
X123450057Y-106745714D02*
X123402438Y-106793333D01*
X123402438Y-106793333D02*
X123354819Y-106888571D01*
X124354819Y-107650476D02*
X123354819Y-107650476D01*
X124354819Y-108221904D02*
X123783390Y-107793333D01*
X123354819Y-108221904D02*
X123926247Y-107650476D01*
X145794819Y-136162142D02*
X145318628Y-135828809D01*
X145794819Y-135590714D02*
X144794819Y-135590714D01*
X144794819Y-135590714D02*
X144794819Y-135971666D01*
X144794819Y-135971666D02*
X144842438Y-136066904D01*
X144842438Y-136066904D02*
X144890057Y-136114523D01*
X144890057Y-136114523D02*
X144985295Y-136162142D01*
X144985295Y-136162142D02*
X145128152Y-136162142D01*
X145128152Y-136162142D02*
X145223390Y-136114523D01*
X145223390Y-136114523D02*
X145271009Y-136066904D01*
X145271009Y-136066904D02*
X145318628Y-135971666D01*
X145318628Y-135971666D02*
X145318628Y-135590714D01*
X144794819Y-136495476D02*
X144794819Y-137114523D01*
X144794819Y-137114523D02*
X145175771Y-136781190D01*
X145175771Y-136781190D02*
X145175771Y-136924047D01*
X145175771Y-136924047D02*
X145223390Y-137019285D01*
X145223390Y-137019285D02*
X145271009Y-137066904D01*
X145271009Y-137066904D02*
X145366247Y-137114523D01*
X145366247Y-137114523D02*
X145604342Y-137114523D01*
X145604342Y-137114523D02*
X145699580Y-137066904D01*
X145699580Y-137066904D02*
X145747200Y-137019285D01*
X145747200Y-137019285D02*
X145794819Y-136924047D01*
X145794819Y-136924047D02*
X145794819Y-136638333D01*
X145794819Y-136638333D02*
X145747200Y-136543095D01*
X145747200Y-136543095D02*
X145699580Y-136495476D01*
X144794819Y-137733571D02*
X144794819Y-137828809D01*
X144794819Y-137828809D02*
X144842438Y-137924047D01*
X144842438Y-137924047D02*
X144890057Y-137971666D01*
X144890057Y-137971666D02*
X144985295Y-138019285D01*
X144985295Y-138019285D02*
X145175771Y-138066904D01*
X145175771Y-138066904D02*
X145413866Y-138066904D01*
X145413866Y-138066904D02*
X145604342Y-138019285D01*
X145604342Y-138019285D02*
X145699580Y-137971666D01*
X145699580Y-137971666D02*
X145747200Y-137924047D01*
X145747200Y-137924047D02*
X145794819Y-137828809D01*
X145794819Y-137828809D02*
X145794819Y-137733571D01*
X145794819Y-137733571D02*
X145747200Y-137638333D01*
X145747200Y-137638333D02*
X145699580Y-137590714D01*
X145699580Y-137590714D02*
X145604342Y-137543095D01*
X145604342Y-137543095D02*
X145413866Y-137495476D01*
X145413866Y-137495476D02*
X145175771Y-137495476D01*
X145175771Y-137495476D02*
X144985295Y-137543095D01*
X144985295Y-137543095D02*
X144890057Y-137590714D01*
X144890057Y-137590714D02*
X144842438Y-137638333D01*
X144842438Y-137638333D02*
X144794819Y-137733571D01*
X142134819Y-136114523D02*
X142134819Y-135543095D01*
X142134819Y-135828809D02*
X141134819Y-135828809D01*
X141134819Y-135828809D02*
X141277676Y-135733571D01*
X141277676Y-135733571D02*
X141372914Y-135638333D01*
X141372914Y-135638333D02*
X141420533Y-135543095D01*
X141134819Y-136733571D02*
X141134819Y-136828809D01*
X141134819Y-136828809D02*
X141182438Y-136924047D01*
X141182438Y-136924047D02*
X141230057Y-136971666D01*
X141230057Y-136971666D02*
X141325295Y-137019285D01*
X141325295Y-137019285D02*
X141515771Y-137066904D01*
X141515771Y-137066904D02*
X141753866Y-137066904D01*
X141753866Y-137066904D02*
X141944342Y-137019285D01*
X141944342Y-137019285D02*
X142039580Y-136971666D01*
X142039580Y-136971666D02*
X142087200Y-136924047D01*
X142087200Y-136924047D02*
X142134819Y-136828809D01*
X142134819Y-136828809D02*
X142134819Y-136733571D01*
X142134819Y-136733571D02*
X142087200Y-136638333D01*
X142087200Y-136638333D02*
X142039580Y-136590714D01*
X142039580Y-136590714D02*
X141944342Y-136543095D01*
X141944342Y-136543095D02*
X141753866Y-136495476D01*
X141753866Y-136495476D02*
X141515771Y-136495476D01*
X141515771Y-136495476D02*
X141325295Y-136543095D01*
X141325295Y-136543095D02*
X141230057Y-136590714D01*
X141230057Y-136590714D02*
X141182438Y-136638333D01*
X141182438Y-136638333D02*
X141134819Y-136733571D01*
X142134819Y-137495476D02*
X141134819Y-137495476D01*
X142134819Y-138066904D02*
X141563390Y-137638333D01*
X141134819Y-138066904D02*
X141706247Y-137495476D01*
X175410714Y-161141009D02*
X175267857Y-161188628D01*
X175267857Y-161188628D02*
X175220238Y-161236247D01*
X175220238Y-161236247D02*
X175172619Y-161331485D01*
X175172619Y-161331485D02*
X175172619Y-161474342D01*
X175172619Y-161474342D02*
X175220238Y-161569580D01*
X175220238Y-161569580D02*
X175267857Y-161617200D01*
X175267857Y-161617200D02*
X175363095Y-161664819D01*
X175363095Y-161664819D02*
X175744047Y-161664819D01*
X175744047Y-161664819D02*
X175744047Y-160664819D01*
X175744047Y-160664819D02*
X175410714Y-160664819D01*
X175410714Y-160664819D02*
X175315476Y-160712438D01*
X175315476Y-160712438D02*
X175267857Y-160760057D01*
X175267857Y-160760057D02*
X175220238Y-160855295D01*
X175220238Y-160855295D02*
X175220238Y-160950533D01*
X175220238Y-160950533D02*
X175267857Y-161045771D01*
X175267857Y-161045771D02*
X175315476Y-161093390D01*
X175315476Y-161093390D02*
X175410714Y-161141009D01*
X175410714Y-161141009D02*
X175744047Y-161141009D01*
X174886904Y-160664819D02*
X174315476Y-160664819D01*
X174601190Y-161664819D02*
X174601190Y-160664819D01*
X173458333Y-161664819D02*
X174029761Y-161664819D01*
X173744047Y-161664819D02*
X173744047Y-160664819D01*
X173744047Y-160664819D02*
X173839285Y-160807676D01*
X173839285Y-160807676D02*
X173934523Y-160902914D01*
X173934523Y-160902914D02*
X174029761Y-160950533D01*
X176696429Y-151141009D02*
X176553572Y-151188628D01*
X176553572Y-151188628D02*
X176505953Y-151236247D01*
X176505953Y-151236247D02*
X176458334Y-151331485D01*
X176458334Y-151331485D02*
X176458334Y-151474342D01*
X176458334Y-151474342D02*
X176505953Y-151569580D01*
X176505953Y-151569580D02*
X176553572Y-151617200D01*
X176553572Y-151617200D02*
X176648810Y-151664819D01*
X176648810Y-151664819D02*
X177029762Y-151664819D01*
X177029762Y-151664819D02*
X177029762Y-150664819D01*
X177029762Y-150664819D02*
X176696429Y-150664819D01*
X176696429Y-150664819D02*
X176601191Y-150712438D01*
X176601191Y-150712438D02*
X176553572Y-150760057D01*
X176553572Y-150760057D02*
X176505953Y-150855295D01*
X176505953Y-150855295D02*
X176505953Y-150950533D01*
X176505953Y-150950533D02*
X176553572Y-151045771D01*
X176553572Y-151045771D02*
X176601191Y-151093390D01*
X176601191Y-151093390D02*
X176696429Y-151141009D01*
X176696429Y-151141009D02*
X177029762Y-151141009D01*
X175601191Y-151664819D02*
X175601191Y-151141009D01*
X175601191Y-151141009D02*
X175648810Y-151045771D01*
X175648810Y-151045771D02*
X175744048Y-150998152D01*
X175744048Y-150998152D02*
X175934524Y-150998152D01*
X175934524Y-150998152D02*
X176029762Y-151045771D01*
X175601191Y-151617200D02*
X175696429Y-151664819D01*
X175696429Y-151664819D02*
X175934524Y-151664819D01*
X175934524Y-151664819D02*
X176029762Y-151617200D01*
X176029762Y-151617200D02*
X176077381Y-151521961D01*
X176077381Y-151521961D02*
X176077381Y-151426723D01*
X176077381Y-151426723D02*
X176029762Y-151331485D01*
X176029762Y-151331485D02*
X175934524Y-151283866D01*
X175934524Y-151283866D02*
X175696429Y-151283866D01*
X175696429Y-151283866D02*
X175601191Y-151236247D01*
X175267857Y-150998152D02*
X174886905Y-150998152D01*
X175125000Y-150664819D02*
X175125000Y-151521961D01*
X175125000Y-151521961D02*
X175077381Y-151617200D01*
X175077381Y-151617200D02*
X174982143Y-151664819D01*
X174982143Y-151664819D02*
X174886905Y-151664819D01*
X174696428Y-150998152D02*
X174315476Y-150998152D01*
X174553571Y-150664819D02*
X174553571Y-151521961D01*
X174553571Y-151521961D02*
X174505952Y-151617200D01*
X174505952Y-151617200D02*
X174410714Y-151664819D01*
X174410714Y-151664819D02*
X174315476Y-151664819D01*
X173601190Y-151617200D02*
X173696428Y-151664819D01*
X173696428Y-151664819D02*
X173886904Y-151664819D01*
X173886904Y-151664819D02*
X173982142Y-151617200D01*
X173982142Y-151617200D02*
X174029761Y-151521961D01*
X174029761Y-151521961D02*
X174029761Y-151141009D01*
X174029761Y-151141009D02*
X173982142Y-151045771D01*
X173982142Y-151045771D02*
X173886904Y-150998152D01*
X173886904Y-150998152D02*
X173696428Y-150998152D01*
X173696428Y-150998152D02*
X173601190Y-151045771D01*
X173601190Y-151045771D02*
X173553571Y-151141009D01*
X173553571Y-151141009D02*
X173553571Y-151236247D01*
X173553571Y-151236247D02*
X174029761Y-151331485D01*
X173124999Y-151664819D02*
X173124999Y-150998152D01*
X173124999Y-151188628D02*
X173077380Y-151093390D01*
X173077380Y-151093390D02*
X173029761Y-151045771D01*
X173029761Y-151045771D02*
X172934523Y-150998152D01*
X172934523Y-150998152D02*
X172839285Y-150998152D01*
X172601189Y-150998152D02*
X172363094Y-151664819D01*
X172124999Y-150998152D02*
X172363094Y-151664819D01*
X172363094Y-151664819D02*
X172458332Y-151902914D01*
X172458332Y-151902914D02*
X172505951Y-151950533D01*
X172505951Y-151950533D02*
X172601189Y-151998152D01*
X169272857Y-90064819D02*
X169606190Y-89588628D01*
X169844285Y-90064819D02*
X169844285Y-89064819D01*
X169844285Y-89064819D02*
X169463333Y-89064819D01*
X169463333Y-89064819D02*
X169368095Y-89112438D01*
X169368095Y-89112438D02*
X169320476Y-89160057D01*
X169320476Y-89160057D02*
X169272857Y-89255295D01*
X169272857Y-89255295D02*
X169272857Y-89398152D01*
X169272857Y-89398152D02*
X169320476Y-89493390D01*
X169320476Y-89493390D02*
X169368095Y-89541009D01*
X169368095Y-89541009D02*
X169463333Y-89588628D01*
X169463333Y-89588628D02*
X169844285Y-89588628D01*
X168415714Y-89398152D02*
X168415714Y-90064819D01*
X168653809Y-89017200D02*
X168891904Y-89731485D01*
X168891904Y-89731485D02*
X168272857Y-89731485D01*
X167463333Y-89064819D02*
X167653809Y-89064819D01*
X167653809Y-89064819D02*
X167749047Y-89112438D01*
X167749047Y-89112438D02*
X167796666Y-89160057D01*
X167796666Y-89160057D02*
X167891904Y-89302914D01*
X167891904Y-89302914D02*
X167939523Y-89493390D01*
X167939523Y-89493390D02*
X167939523Y-89874342D01*
X167939523Y-89874342D02*
X167891904Y-89969580D01*
X167891904Y-89969580D02*
X167844285Y-90017200D01*
X167844285Y-90017200D02*
X167749047Y-90064819D01*
X167749047Y-90064819D02*
X167558571Y-90064819D01*
X167558571Y-90064819D02*
X167463333Y-90017200D01*
X167463333Y-90017200D02*
X167415714Y-89969580D01*
X167415714Y-89969580D02*
X167368095Y-89874342D01*
X167368095Y-89874342D02*
X167368095Y-89636247D01*
X167368095Y-89636247D02*
X167415714Y-89541009D01*
X167415714Y-89541009D02*
X167463333Y-89493390D01*
X167463333Y-89493390D02*
X167558571Y-89445771D01*
X167558571Y-89445771D02*
X167749047Y-89445771D01*
X167749047Y-89445771D02*
X167844285Y-89493390D01*
X167844285Y-89493390D02*
X167891904Y-89541009D01*
X167891904Y-89541009D02*
X167939523Y-89636247D01*
X168844285Y-93724819D02*
X169415713Y-93724819D01*
X169129999Y-93724819D02*
X169129999Y-92724819D01*
X169129999Y-92724819D02*
X169225237Y-92867676D01*
X169225237Y-92867676D02*
X169320475Y-92962914D01*
X169320475Y-92962914D02*
X169415713Y-93010533D01*
X168415713Y-93724819D02*
X168415713Y-92724819D01*
X167844285Y-93724819D02*
X168272856Y-93153390D01*
X167844285Y-92724819D02*
X168415713Y-93296247D01*
X170074819Y-136162142D02*
X169598628Y-135828809D01*
X170074819Y-135590714D02*
X169074819Y-135590714D01*
X169074819Y-135590714D02*
X169074819Y-135971666D01*
X169074819Y-135971666D02*
X169122438Y-136066904D01*
X169122438Y-136066904D02*
X169170057Y-136114523D01*
X169170057Y-136114523D02*
X169265295Y-136162142D01*
X169265295Y-136162142D02*
X169408152Y-136162142D01*
X169408152Y-136162142D02*
X169503390Y-136114523D01*
X169503390Y-136114523D02*
X169551009Y-136066904D01*
X169551009Y-136066904D02*
X169598628Y-135971666D01*
X169598628Y-135971666D02*
X169598628Y-135590714D01*
X170074819Y-137114523D02*
X170074819Y-136543095D01*
X170074819Y-136828809D02*
X169074819Y-136828809D01*
X169074819Y-136828809D02*
X169217676Y-136733571D01*
X169217676Y-136733571D02*
X169312914Y-136638333D01*
X169312914Y-136638333D02*
X169360533Y-136543095D01*
X169074819Y-138019285D02*
X169074819Y-137543095D01*
X169074819Y-137543095D02*
X169551009Y-137495476D01*
X169551009Y-137495476D02*
X169503390Y-137543095D01*
X169503390Y-137543095D02*
X169455771Y-137638333D01*
X169455771Y-137638333D02*
X169455771Y-137876428D01*
X169455771Y-137876428D02*
X169503390Y-137971666D01*
X169503390Y-137971666D02*
X169551009Y-138019285D01*
X169551009Y-138019285D02*
X169646247Y-138066904D01*
X169646247Y-138066904D02*
X169884342Y-138066904D01*
X169884342Y-138066904D02*
X169979580Y-138019285D01*
X169979580Y-138019285D02*
X170027200Y-137971666D01*
X170027200Y-137971666D02*
X170074819Y-137876428D01*
X170074819Y-137876428D02*
X170074819Y-137638333D01*
X170074819Y-137638333D02*
X170027200Y-137543095D01*
X170027200Y-137543095D02*
X169979580Y-137495476D01*
X173734819Y-136590714D02*
X173734819Y-136019286D01*
X173734819Y-136305000D02*
X172734819Y-136305000D01*
X172734819Y-136305000D02*
X172877676Y-136209762D01*
X172877676Y-136209762D02*
X172972914Y-136114524D01*
X172972914Y-136114524D02*
X173020533Y-136019286D01*
X173734819Y-137019286D02*
X172734819Y-137019286D01*
X173734819Y-137590714D02*
X173163390Y-137162143D01*
X172734819Y-137590714D02*
X173306247Y-137019286D01*
D11*
X104266904Y-113122419D02*
X104266904Y-113931942D01*
X104266904Y-113931942D02*
X104219285Y-114027180D01*
X104219285Y-114027180D02*
X104171666Y-114074800D01*
X104171666Y-114074800D02*
X104076428Y-114122419D01*
X104076428Y-114122419D02*
X103885952Y-114122419D01*
X103885952Y-114122419D02*
X103790714Y-114074800D01*
X103790714Y-114074800D02*
X103743095Y-114027180D01*
X103743095Y-114027180D02*
X103695476Y-113931942D01*
X103695476Y-113931942D02*
X103695476Y-113122419D01*
X103266904Y-113217657D02*
X103219285Y-113170038D01*
X103219285Y-113170038D02*
X103124047Y-113122419D01*
X103124047Y-113122419D02*
X102885952Y-113122419D01*
X102885952Y-113122419D02*
X102790714Y-113170038D01*
X102790714Y-113170038D02*
X102743095Y-113217657D01*
X102743095Y-113217657D02*
X102695476Y-113312895D01*
X102695476Y-113312895D02*
X102695476Y-113408133D01*
X102695476Y-113408133D02*
X102743095Y-113550990D01*
X102743095Y-113550990D02*
X103314523Y-114122419D01*
X103314523Y-114122419D02*
X102695476Y-114122419D01*
D10*
X106766904Y-111214819D02*
X106100238Y-111214819D01*
X106100238Y-111214819D02*
X106528809Y-112214819D01*
X105290714Y-111548152D02*
X105290714Y-112214819D01*
X105528809Y-111167200D02*
X105766904Y-111881485D01*
X105766904Y-111881485D02*
X105147857Y-111881485D01*
X104766904Y-112214819D02*
X104766904Y-111214819D01*
X104766904Y-111691009D02*
X104195476Y-111691009D01*
X104195476Y-112214819D02*
X104195476Y-111214819D01*
X103147857Y-112119580D02*
X103195476Y-112167200D01*
X103195476Y-112167200D02*
X103338333Y-112214819D01*
X103338333Y-112214819D02*
X103433571Y-112214819D01*
X103433571Y-112214819D02*
X103576428Y-112167200D01*
X103576428Y-112167200D02*
X103671666Y-112071961D01*
X103671666Y-112071961D02*
X103719285Y-111976723D01*
X103719285Y-111976723D02*
X103766904Y-111786247D01*
X103766904Y-111786247D02*
X103766904Y-111643390D01*
X103766904Y-111643390D02*
X103719285Y-111452914D01*
X103719285Y-111452914D02*
X103671666Y-111357676D01*
X103671666Y-111357676D02*
X103576428Y-111262438D01*
X103576428Y-111262438D02*
X103433571Y-111214819D01*
X103433571Y-111214819D02*
X103338333Y-111214819D01*
X103338333Y-111214819D02*
X103195476Y-111262438D01*
X103195476Y-111262438D02*
X103147857Y-111310057D01*
X102195476Y-112214819D02*
X102766904Y-112214819D01*
X102481190Y-112214819D02*
X102481190Y-111214819D01*
X102481190Y-111214819D02*
X102576428Y-111357676D01*
X102576428Y-111357676D02*
X102671666Y-111452914D01*
X102671666Y-111452914D02*
X102766904Y-111500533D01*
X101338333Y-111214819D02*
X101528809Y-111214819D01*
X101528809Y-111214819D02*
X101624047Y-111262438D01*
X101624047Y-111262438D02*
X101671666Y-111310057D01*
X101671666Y-111310057D02*
X101766904Y-111452914D01*
X101766904Y-111452914D02*
X101814523Y-111643390D01*
X101814523Y-111643390D02*
X101814523Y-112024342D01*
X101814523Y-112024342D02*
X101766904Y-112119580D01*
X101766904Y-112119580D02*
X101719285Y-112167200D01*
X101719285Y-112167200D02*
X101624047Y-112214819D01*
X101624047Y-112214819D02*
X101433571Y-112214819D01*
X101433571Y-112214819D02*
X101338333Y-112167200D01*
X101338333Y-112167200D02*
X101290714Y-112119580D01*
X101290714Y-112119580D02*
X101243095Y-112024342D01*
X101243095Y-112024342D02*
X101243095Y-111786247D01*
X101243095Y-111786247D02*
X101290714Y-111691009D01*
X101290714Y-111691009D02*
X101338333Y-111643390D01*
X101338333Y-111643390D02*
X101433571Y-111595771D01*
X101433571Y-111595771D02*
X101624047Y-111595771D01*
X101624047Y-111595771D02*
X101719285Y-111643390D01*
X101719285Y-111643390D02*
X101766904Y-111691009D01*
X101766904Y-111691009D02*
X101814523Y-111786247D01*
X100338333Y-111214819D02*
X100814523Y-111214819D01*
X100814523Y-111214819D02*
X100862142Y-111691009D01*
X100862142Y-111691009D02*
X100814523Y-111643390D01*
X100814523Y-111643390D02*
X100719285Y-111595771D01*
X100719285Y-111595771D02*
X100481190Y-111595771D01*
X100481190Y-111595771D02*
X100385952Y-111643390D01*
X100385952Y-111643390D02*
X100338333Y-111691009D01*
X100338333Y-111691009D02*
X100290714Y-111786247D01*
X100290714Y-111786247D02*
X100290714Y-112024342D01*
X100290714Y-112024342D02*
X100338333Y-112119580D01*
X100338333Y-112119580D02*
X100385952Y-112167200D01*
X100385952Y-112167200D02*
X100481190Y-112214819D01*
X100481190Y-112214819D02*
X100719285Y-112214819D01*
X100719285Y-112214819D02*
X100814523Y-112167200D01*
X100814523Y-112167200D02*
X100862142Y-112119580D01*
X93369819Y-106317142D02*
X92893628Y-105983809D01*
X93369819Y-105745714D02*
X92369819Y-105745714D01*
X92369819Y-105745714D02*
X92369819Y-106126666D01*
X92369819Y-106126666D02*
X92417438Y-106221904D01*
X92417438Y-106221904D02*
X92465057Y-106269523D01*
X92465057Y-106269523D02*
X92560295Y-106317142D01*
X92560295Y-106317142D02*
X92703152Y-106317142D01*
X92703152Y-106317142D02*
X92798390Y-106269523D01*
X92798390Y-106269523D02*
X92846009Y-106221904D01*
X92846009Y-106221904D02*
X92893628Y-106126666D01*
X92893628Y-106126666D02*
X92893628Y-105745714D01*
X93369819Y-107269523D02*
X93369819Y-106698095D01*
X93369819Y-106983809D02*
X92369819Y-106983809D01*
X92369819Y-106983809D02*
X92512676Y-106888571D01*
X92512676Y-106888571D02*
X92607914Y-106793333D01*
X92607914Y-106793333D02*
X92655533Y-106698095D01*
X93369819Y-107745714D02*
X93369819Y-107936190D01*
X93369819Y-107936190D02*
X93322200Y-108031428D01*
X93322200Y-108031428D02*
X93274580Y-108079047D01*
X93274580Y-108079047D02*
X93131723Y-108174285D01*
X93131723Y-108174285D02*
X92941247Y-108221904D01*
X92941247Y-108221904D02*
X92560295Y-108221904D01*
X92560295Y-108221904D02*
X92465057Y-108174285D01*
X92465057Y-108174285D02*
X92417438Y-108126666D01*
X92417438Y-108126666D02*
X92369819Y-108031428D01*
X92369819Y-108031428D02*
X92369819Y-107840952D01*
X92369819Y-107840952D02*
X92417438Y-107745714D01*
X92417438Y-107745714D02*
X92465057Y-107698095D01*
X92465057Y-107698095D02*
X92560295Y-107650476D01*
X92560295Y-107650476D02*
X92798390Y-107650476D01*
X92798390Y-107650476D02*
X92893628Y-107698095D01*
X92893628Y-107698095D02*
X92941247Y-107745714D01*
X92941247Y-107745714D02*
X92988866Y-107840952D01*
X92988866Y-107840952D02*
X92988866Y-108031428D01*
X92988866Y-108031428D02*
X92941247Y-108126666D01*
X92941247Y-108126666D02*
X92893628Y-108174285D01*
X92893628Y-108174285D02*
X92798390Y-108221904D01*
X89709819Y-106269523D02*
X89709819Y-105698095D01*
X89709819Y-105983809D02*
X88709819Y-105983809D01*
X88709819Y-105983809D02*
X88852676Y-105888571D01*
X88852676Y-105888571D02*
X88947914Y-105793333D01*
X88947914Y-105793333D02*
X88995533Y-105698095D01*
X88709819Y-106888571D02*
X88709819Y-106983809D01*
X88709819Y-106983809D02*
X88757438Y-107079047D01*
X88757438Y-107079047D02*
X88805057Y-107126666D01*
X88805057Y-107126666D02*
X88900295Y-107174285D01*
X88900295Y-107174285D02*
X89090771Y-107221904D01*
X89090771Y-107221904D02*
X89328866Y-107221904D01*
X89328866Y-107221904D02*
X89519342Y-107174285D01*
X89519342Y-107174285D02*
X89614580Y-107126666D01*
X89614580Y-107126666D02*
X89662200Y-107079047D01*
X89662200Y-107079047D02*
X89709819Y-106983809D01*
X89709819Y-106983809D02*
X89709819Y-106888571D01*
X89709819Y-106888571D02*
X89662200Y-106793333D01*
X89662200Y-106793333D02*
X89614580Y-106745714D01*
X89614580Y-106745714D02*
X89519342Y-106698095D01*
X89519342Y-106698095D02*
X89328866Y-106650476D01*
X89328866Y-106650476D02*
X89090771Y-106650476D01*
X89090771Y-106650476D02*
X88900295Y-106698095D01*
X88900295Y-106698095D02*
X88805057Y-106745714D01*
X88805057Y-106745714D02*
X88757438Y-106793333D01*
X88757438Y-106793333D02*
X88709819Y-106888571D01*
X89709819Y-107650476D02*
X88709819Y-107650476D01*
X89709819Y-108221904D02*
X89138390Y-107793333D01*
X88709819Y-108221904D02*
X89281247Y-107650476D01*
X187600819Y-106793333D02*
X187124628Y-106460000D01*
X187600819Y-106221905D02*
X186600819Y-106221905D01*
X186600819Y-106221905D02*
X186600819Y-106602857D01*
X186600819Y-106602857D02*
X186648438Y-106698095D01*
X186648438Y-106698095D02*
X186696057Y-106745714D01*
X186696057Y-106745714D02*
X186791295Y-106793333D01*
X186791295Y-106793333D02*
X186934152Y-106793333D01*
X186934152Y-106793333D02*
X187029390Y-106745714D01*
X187029390Y-106745714D02*
X187077009Y-106698095D01*
X187077009Y-106698095D02*
X187124628Y-106602857D01*
X187124628Y-106602857D02*
X187124628Y-106221905D01*
X187029390Y-107364762D02*
X186981771Y-107269524D01*
X186981771Y-107269524D02*
X186934152Y-107221905D01*
X186934152Y-107221905D02*
X186838914Y-107174286D01*
X186838914Y-107174286D02*
X186791295Y-107174286D01*
X186791295Y-107174286D02*
X186696057Y-107221905D01*
X186696057Y-107221905D02*
X186648438Y-107269524D01*
X186648438Y-107269524D02*
X186600819Y-107364762D01*
X186600819Y-107364762D02*
X186600819Y-107555238D01*
X186600819Y-107555238D02*
X186648438Y-107650476D01*
X186648438Y-107650476D02*
X186696057Y-107698095D01*
X186696057Y-107698095D02*
X186791295Y-107745714D01*
X186791295Y-107745714D02*
X186838914Y-107745714D01*
X186838914Y-107745714D02*
X186934152Y-107698095D01*
X186934152Y-107698095D02*
X186981771Y-107650476D01*
X186981771Y-107650476D02*
X187029390Y-107555238D01*
X187029390Y-107555238D02*
X187029390Y-107364762D01*
X187029390Y-107364762D02*
X187077009Y-107269524D01*
X187077009Y-107269524D02*
X187124628Y-107221905D01*
X187124628Y-107221905D02*
X187219866Y-107174286D01*
X187219866Y-107174286D02*
X187410342Y-107174286D01*
X187410342Y-107174286D02*
X187505580Y-107221905D01*
X187505580Y-107221905D02*
X187553200Y-107269524D01*
X187553200Y-107269524D02*
X187600819Y-107364762D01*
X187600819Y-107364762D02*
X187600819Y-107555238D01*
X187600819Y-107555238D02*
X187553200Y-107650476D01*
X187553200Y-107650476D02*
X187505580Y-107698095D01*
X187505580Y-107698095D02*
X187410342Y-107745714D01*
X187410342Y-107745714D02*
X187219866Y-107745714D01*
X187219866Y-107745714D02*
X187124628Y-107698095D01*
X187124628Y-107698095D02*
X187077009Y-107650476D01*
X187077009Y-107650476D02*
X187029390Y-107555238D01*
X191260819Y-106745714D02*
X191260819Y-106174286D01*
X191260819Y-106460000D02*
X190260819Y-106460000D01*
X190260819Y-106460000D02*
X190403676Y-106364762D01*
X190403676Y-106364762D02*
X190498914Y-106269524D01*
X190498914Y-106269524D02*
X190546533Y-106174286D01*
X191260819Y-107174286D02*
X190260819Y-107174286D01*
X191260819Y-107745714D02*
X190689390Y-107317143D01*
X190260819Y-107745714D02*
X190832247Y-107174286D01*
X180719819Y-106317142D02*
X180243628Y-105983809D01*
X180719819Y-105745714D02*
X179719819Y-105745714D01*
X179719819Y-105745714D02*
X179719819Y-106126666D01*
X179719819Y-106126666D02*
X179767438Y-106221904D01*
X179767438Y-106221904D02*
X179815057Y-106269523D01*
X179815057Y-106269523D02*
X179910295Y-106317142D01*
X179910295Y-106317142D02*
X180053152Y-106317142D01*
X180053152Y-106317142D02*
X180148390Y-106269523D01*
X180148390Y-106269523D02*
X180196009Y-106221904D01*
X180196009Y-106221904D02*
X180243628Y-106126666D01*
X180243628Y-106126666D02*
X180243628Y-105745714D01*
X179815057Y-106698095D02*
X179767438Y-106745714D01*
X179767438Y-106745714D02*
X179719819Y-106840952D01*
X179719819Y-106840952D02*
X179719819Y-107079047D01*
X179719819Y-107079047D02*
X179767438Y-107174285D01*
X179767438Y-107174285D02*
X179815057Y-107221904D01*
X179815057Y-107221904D02*
X179910295Y-107269523D01*
X179910295Y-107269523D02*
X180005533Y-107269523D01*
X180005533Y-107269523D02*
X180148390Y-107221904D01*
X180148390Y-107221904D02*
X180719819Y-106650476D01*
X180719819Y-106650476D02*
X180719819Y-107269523D01*
X180053152Y-108126666D02*
X180719819Y-108126666D01*
X179672200Y-107888571D02*
X180386485Y-107650476D01*
X180386485Y-107650476D02*
X180386485Y-108269523D01*
X177059819Y-106269523D02*
X177059819Y-105698095D01*
X177059819Y-105983809D02*
X176059819Y-105983809D01*
X176059819Y-105983809D02*
X176202676Y-105888571D01*
X176202676Y-105888571D02*
X176297914Y-105793333D01*
X176297914Y-105793333D02*
X176345533Y-105698095D01*
X176059819Y-106888571D02*
X176059819Y-106983809D01*
X176059819Y-106983809D02*
X176107438Y-107079047D01*
X176107438Y-107079047D02*
X176155057Y-107126666D01*
X176155057Y-107126666D02*
X176250295Y-107174285D01*
X176250295Y-107174285D02*
X176440771Y-107221904D01*
X176440771Y-107221904D02*
X176678866Y-107221904D01*
X176678866Y-107221904D02*
X176869342Y-107174285D01*
X176869342Y-107174285D02*
X176964580Y-107126666D01*
X176964580Y-107126666D02*
X177012200Y-107079047D01*
X177012200Y-107079047D02*
X177059819Y-106983809D01*
X177059819Y-106983809D02*
X177059819Y-106888571D01*
X177059819Y-106888571D02*
X177012200Y-106793333D01*
X177012200Y-106793333D02*
X176964580Y-106745714D01*
X176964580Y-106745714D02*
X176869342Y-106698095D01*
X176869342Y-106698095D02*
X176678866Y-106650476D01*
X176678866Y-106650476D02*
X176440771Y-106650476D01*
X176440771Y-106650476D02*
X176250295Y-106698095D01*
X176250295Y-106698095D02*
X176155057Y-106745714D01*
X176155057Y-106745714D02*
X176107438Y-106793333D01*
X176107438Y-106793333D02*
X176059819Y-106888571D01*
X177059819Y-107650476D02*
X176059819Y-107650476D01*
X177059819Y-108221904D02*
X176488390Y-107793333D01*
X176059819Y-108221904D02*
X176631247Y-107650476D01*
X118004819Y-136162142D02*
X117528628Y-135828809D01*
X118004819Y-135590714D02*
X117004819Y-135590714D01*
X117004819Y-135590714D02*
X117004819Y-135971666D01*
X117004819Y-135971666D02*
X117052438Y-136066904D01*
X117052438Y-136066904D02*
X117100057Y-136114523D01*
X117100057Y-136114523D02*
X117195295Y-136162142D01*
X117195295Y-136162142D02*
X117338152Y-136162142D01*
X117338152Y-136162142D02*
X117433390Y-136114523D01*
X117433390Y-136114523D02*
X117481009Y-136066904D01*
X117481009Y-136066904D02*
X117528628Y-135971666D01*
X117528628Y-135971666D02*
X117528628Y-135590714D01*
X118004819Y-137114523D02*
X118004819Y-136543095D01*
X118004819Y-136828809D02*
X117004819Y-136828809D01*
X117004819Y-136828809D02*
X117147676Y-136733571D01*
X117147676Y-136733571D02*
X117242914Y-136638333D01*
X117242914Y-136638333D02*
X117290533Y-136543095D01*
X117100057Y-137495476D02*
X117052438Y-137543095D01*
X117052438Y-137543095D02*
X117004819Y-137638333D01*
X117004819Y-137638333D02*
X117004819Y-137876428D01*
X117004819Y-137876428D02*
X117052438Y-137971666D01*
X117052438Y-137971666D02*
X117100057Y-138019285D01*
X117100057Y-138019285D02*
X117195295Y-138066904D01*
X117195295Y-138066904D02*
X117290533Y-138066904D01*
X117290533Y-138066904D02*
X117433390Y-138019285D01*
X117433390Y-138019285D02*
X118004819Y-137447857D01*
X118004819Y-137447857D02*
X118004819Y-138066904D01*
X121664819Y-136590714D02*
X121664819Y-136019286D01*
X121664819Y-136305000D02*
X120664819Y-136305000D01*
X120664819Y-136305000D02*
X120807676Y-136209762D01*
X120807676Y-136209762D02*
X120902914Y-136114524D01*
X120902914Y-136114524D02*
X120950533Y-136019286D01*
X121664819Y-137019286D02*
X120664819Y-137019286D01*
X121664819Y-137590714D02*
X121093390Y-137162143D01*
X120664819Y-137590714D02*
X121236247Y-137019286D01*
X157939166Y-146989580D02*
X157986785Y-147037200D01*
X157986785Y-147037200D02*
X158129642Y-147084819D01*
X158129642Y-147084819D02*
X158224880Y-147084819D01*
X158224880Y-147084819D02*
X158367737Y-147037200D01*
X158367737Y-147037200D02*
X158462975Y-146941961D01*
X158462975Y-146941961D02*
X158510594Y-146846723D01*
X158510594Y-146846723D02*
X158558213Y-146656247D01*
X158558213Y-146656247D02*
X158558213Y-146513390D01*
X158558213Y-146513390D02*
X158510594Y-146322914D01*
X158510594Y-146322914D02*
X158462975Y-146227676D01*
X158462975Y-146227676D02*
X158367737Y-146132438D01*
X158367737Y-146132438D02*
X158224880Y-146084819D01*
X158224880Y-146084819D02*
X158129642Y-146084819D01*
X158129642Y-146084819D02*
X157986785Y-146132438D01*
X157986785Y-146132438D02*
X157939166Y-146180057D01*
X156986785Y-147084819D02*
X157558213Y-147084819D01*
X157272499Y-147084819D02*
X157272499Y-146084819D01*
X157272499Y-146084819D02*
X157367737Y-146227676D01*
X157367737Y-146227676D02*
X157462975Y-146322914D01*
X157462975Y-146322914D02*
X157558213Y-146370533D01*
X159177262Y-143384819D02*
X159748690Y-143384819D01*
X159462976Y-143384819D02*
X159462976Y-142384819D01*
X159462976Y-142384819D02*
X159558214Y-142527676D01*
X159558214Y-142527676D02*
X159653452Y-142622914D01*
X159653452Y-142622914D02*
X159748690Y-142670533D01*
X158558214Y-142384819D02*
X158462976Y-142384819D01*
X158462976Y-142384819D02*
X158367738Y-142432438D01*
X158367738Y-142432438D02*
X158320119Y-142480057D01*
X158320119Y-142480057D02*
X158272500Y-142575295D01*
X158272500Y-142575295D02*
X158224881Y-142765771D01*
X158224881Y-142765771D02*
X158224881Y-143003866D01*
X158224881Y-143003866D02*
X158272500Y-143194342D01*
X158272500Y-143194342D02*
X158320119Y-143289580D01*
X158320119Y-143289580D02*
X158367738Y-143337200D01*
X158367738Y-143337200D02*
X158462976Y-143384819D01*
X158462976Y-143384819D02*
X158558214Y-143384819D01*
X158558214Y-143384819D02*
X158653452Y-143337200D01*
X158653452Y-143337200D02*
X158701071Y-143289580D01*
X158701071Y-143289580D02*
X158748690Y-143194342D01*
X158748690Y-143194342D02*
X158796309Y-143003866D01*
X158796309Y-143003866D02*
X158796309Y-142765771D01*
X158796309Y-142765771D02*
X158748690Y-142575295D01*
X158748690Y-142575295D02*
X158701071Y-142480057D01*
X158701071Y-142480057D02*
X158653452Y-142432438D01*
X158653452Y-142432438D02*
X158558214Y-142384819D01*
X157605833Y-142384819D02*
X157510595Y-142384819D01*
X157510595Y-142384819D02*
X157415357Y-142432438D01*
X157415357Y-142432438D02*
X157367738Y-142480057D01*
X157367738Y-142480057D02*
X157320119Y-142575295D01*
X157320119Y-142575295D02*
X157272500Y-142765771D01*
X157272500Y-142765771D02*
X157272500Y-143003866D01*
X157272500Y-143003866D02*
X157320119Y-143194342D01*
X157320119Y-143194342D02*
X157367738Y-143289580D01*
X157367738Y-143289580D02*
X157415357Y-143337200D01*
X157415357Y-143337200D02*
X157510595Y-143384819D01*
X157510595Y-143384819D02*
X157605833Y-143384819D01*
X157605833Y-143384819D02*
X157701071Y-143337200D01*
X157701071Y-143337200D02*
X157748690Y-143289580D01*
X157748690Y-143289580D02*
X157796309Y-143194342D01*
X157796309Y-143194342D02*
X157843928Y-143003866D01*
X157843928Y-143003866D02*
X157843928Y-142765771D01*
X157843928Y-142765771D02*
X157796309Y-142575295D01*
X157796309Y-142575295D02*
X157748690Y-142480057D01*
X157748690Y-142480057D02*
X157701071Y-142432438D01*
X157701071Y-142432438D02*
X157605833Y-142384819D01*
X156843928Y-142718152D02*
X156843928Y-143384819D01*
X156843928Y-142813390D02*
X156796309Y-142765771D01*
X156796309Y-142765771D02*
X156701071Y-142718152D01*
X156701071Y-142718152D02*
X156558214Y-142718152D01*
X156558214Y-142718152D02*
X156462976Y-142765771D01*
X156462976Y-142765771D02*
X156415357Y-142861009D01*
X156415357Y-142861009D02*
X156415357Y-143384819D01*
X156082023Y-142718152D02*
X155701071Y-142718152D01*
X155939166Y-143384819D02*
X155939166Y-142527676D01*
X155939166Y-142527676D02*
X155891547Y-142432438D01*
X155891547Y-142432438D02*
X155796309Y-142384819D01*
X155796309Y-142384819D02*
X155701071Y-142384819D01*
X58164819Y-136162142D02*
X57688628Y-135828809D01*
X58164819Y-135590714D02*
X57164819Y-135590714D01*
X57164819Y-135590714D02*
X57164819Y-135971666D01*
X57164819Y-135971666D02*
X57212438Y-136066904D01*
X57212438Y-136066904D02*
X57260057Y-136114523D01*
X57260057Y-136114523D02*
X57355295Y-136162142D01*
X57355295Y-136162142D02*
X57498152Y-136162142D01*
X57498152Y-136162142D02*
X57593390Y-136114523D01*
X57593390Y-136114523D02*
X57641009Y-136066904D01*
X57641009Y-136066904D02*
X57688628Y-135971666D01*
X57688628Y-135971666D02*
X57688628Y-135590714D01*
X57260057Y-136543095D02*
X57212438Y-136590714D01*
X57212438Y-136590714D02*
X57164819Y-136685952D01*
X57164819Y-136685952D02*
X57164819Y-136924047D01*
X57164819Y-136924047D02*
X57212438Y-137019285D01*
X57212438Y-137019285D02*
X57260057Y-137066904D01*
X57260057Y-137066904D02*
X57355295Y-137114523D01*
X57355295Y-137114523D02*
X57450533Y-137114523D01*
X57450533Y-137114523D02*
X57593390Y-137066904D01*
X57593390Y-137066904D02*
X58164819Y-136495476D01*
X58164819Y-136495476D02*
X58164819Y-137114523D01*
X57164819Y-138019285D02*
X57164819Y-137543095D01*
X57164819Y-137543095D02*
X57641009Y-137495476D01*
X57641009Y-137495476D02*
X57593390Y-137543095D01*
X57593390Y-137543095D02*
X57545771Y-137638333D01*
X57545771Y-137638333D02*
X57545771Y-137876428D01*
X57545771Y-137876428D02*
X57593390Y-137971666D01*
X57593390Y-137971666D02*
X57641009Y-138019285D01*
X57641009Y-138019285D02*
X57736247Y-138066904D01*
X57736247Y-138066904D02*
X57974342Y-138066904D01*
X57974342Y-138066904D02*
X58069580Y-138019285D01*
X58069580Y-138019285D02*
X58117200Y-137971666D01*
X58117200Y-137971666D02*
X58164819Y-137876428D01*
X58164819Y-137876428D02*
X58164819Y-137638333D01*
X58164819Y-137638333D02*
X58117200Y-137543095D01*
X58117200Y-137543095D02*
X58069580Y-137495476D01*
X54504819Y-136114523D02*
X54504819Y-135543095D01*
X54504819Y-135828809D02*
X53504819Y-135828809D01*
X53504819Y-135828809D02*
X53647676Y-135733571D01*
X53647676Y-135733571D02*
X53742914Y-135638333D01*
X53742914Y-135638333D02*
X53790533Y-135543095D01*
X53504819Y-136733571D02*
X53504819Y-136828809D01*
X53504819Y-136828809D02*
X53552438Y-136924047D01*
X53552438Y-136924047D02*
X53600057Y-136971666D01*
X53600057Y-136971666D02*
X53695295Y-137019285D01*
X53695295Y-137019285D02*
X53885771Y-137066904D01*
X53885771Y-137066904D02*
X54123866Y-137066904D01*
X54123866Y-137066904D02*
X54314342Y-137019285D01*
X54314342Y-137019285D02*
X54409580Y-136971666D01*
X54409580Y-136971666D02*
X54457200Y-136924047D01*
X54457200Y-136924047D02*
X54504819Y-136828809D01*
X54504819Y-136828809D02*
X54504819Y-136733571D01*
X54504819Y-136733571D02*
X54457200Y-136638333D01*
X54457200Y-136638333D02*
X54409580Y-136590714D01*
X54409580Y-136590714D02*
X54314342Y-136543095D01*
X54314342Y-136543095D02*
X54123866Y-136495476D01*
X54123866Y-136495476D02*
X53885771Y-136495476D01*
X53885771Y-136495476D02*
X53695295Y-136543095D01*
X53695295Y-136543095D02*
X53600057Y-136590714D01*
X53600057Y-136590714D02*
X53552438Y-136638333D01*
X53552438Y-136638333D02*
X53504819Y-136733571D01*
X54504819Y-137495476D02*
X53504819Y-137495476D01*
X54504819Y-138066904D02*
X53933390Y-137638333D01*
X53504819Y-138066904D02*
X54076247Y-137495476D01*
X156429819Y-58293095D02*
X157239342Y-58293095D01*
X157239342Y-58293095D02*
X157334580Y-58340714D01*
X157334580Y-58340714D02*
X157382200Y-58388333D01*
X157382200Y-58388333D02*
X157429819Y-58483571D01*
X157429819Y-58483571D02*
X157429819Y-58674047D01*
X157429819Y-58674047D02*
X157382200Y-58769285D01*
X157382200Y-58769285D02*
X157334580Y-58816904D01*
X157334580Y-58816904D02*
X157239342Y-58864523D01*
X157239342Y-58864523D02*
X156429819Y-58864523D01*
X157429819Y-59864523D02*
X157429819Y-59293095D01*
X157429819Y-59578809D02*
X156429819Y-59578809D01*
X156429819Y-59578809D02*
X156572676Y-59483571D01*
X156572676Y-59483571D02*
X156667914Y-59388333D01*
X156667914Y-59388333D02*
X156715533Y-59293095D01*
X145794819Y-106317142D02*
X145318628Y-105983809D01*
X145794819Y-105745714D02*
X144794819Y-105745714D01*
X144794819Y-105745714D02*
X144794819Y-106126666D01*
X144794819Y-106126666D02*
X144842438Y-106221904D01*
X144842438Y-106221904D02*
X144890057Y-106269523D01*
X144890057Y-106269523D02*
X144985295Y-106317142D01*
X144985295Y-106317142D02*
X145128152Y-106317142D01*
X145128152Y-106317142D02*
X145223390Y-106269523D01*
X145223390Y-106269523D02*
X145271009Y-106221904D01*
X145271009Y-106221904D02*
X145318628Y-106126666D01*
X145318628Y-106126666D02*
X145318628Y-105745714D01*
X144890057Y-106698095D02*
X144842438Y-106745714D01*
X144842438Y-106745714D02*
X144794819Y-106840952D01*
X144794819Y-106840952D02*
X144794819Y-107079047D01*
X144794819Y-107079047D02*
X144842438Y-107174285D01*
X144842438Y-107174285D02*
X144890057Y-107221904D01*
X144890057Y-107221904D02*
X144985295Y-107269523D01*
X144985295Y-107269523D02*
X145080533Y-107269523D01*
X145080533Y-107269523D02*
X145223390Y-107221904D01*
X145223390Y-107221904D02*
X145794819Y-106650476D01*
X145794819Y-106650476D02*
X145794819Y-107269523D01*
X144890057Y-107650476D02*
X144842438Y-107698095D01*
X144842438Y-107698095D02*
X144794819Y-107793333D01*
X144794819Y-107793333D02*
X144794819Y-108031428D01*
X144794819Y-108031428D02*
X144842438Y-108126666D01*
X144842438Y-108126666D02*
X144890057Y-108174285D01*
X144890057Y-108174285D02*
X144985295Y-108221904D01*
X144985295Y-108221904D02*
X145080533Y-108221904D01*
X145080533Y-108221904D02*
X145223390Y-108174285D01*
X145223390Y-108174285D02*
X145794819Y-107602857D01*
X145794819Y-107602857D02*
X145794819Y-108221904D01*
X142134819Y-106269523D02*
X142134819Y-105698095D01*
X142134819Y-105983809D02*
X141134819Y-105983809D01*
X141134819Y-105983809D02*
X141277676Y-105888571D01*
X141277676Y-105888571D02*
X141372914Y-105793333D01*
X141372914Y-105793333D02*
X141420533Y-105698095D01*
X141134819Y-106888571D02*
X141134819Y-106983809D01*
X141134819Y-106983809D02*
X141182438Y-107079047D01*
X141182438Y-107079047D02*
X141230057Y-107126666D01*
X141230057Y-107126666D02*
X141325295Y-107174285D01*
X141325295Y-107174285D02*
X141515771Y-107221904D01*
X141515771Y-107221904D02*
X141753866Y-107221904D01*
X141753866Y-107221904D02*
X141944342Y-107174285D01*
X141944342Y-107174285D02*
X142039580Y-107126666D01*
X142039580Y-107126666D02*
X142087200Y-107079047D01*
X142087200Y-107079047D02*
X142134819Y-106983809D01*
X142134819Y-106983809D02*
X142134819Y-106888571D01*
X142134819Y-106888571D02*
X142087200Y-106793333D01*
X142087200Y-106793333D02*
X142039580Y-106745714D01*
X142039580Y-106745714D02*
X141944342Y-106698095D01*
X141944342Y-106698095D02*
X141753866Y-106650476D01*
X141753866Y-106650476D02*
X141515771Y-106650476D01*
X141515771Y-106650476D02*
X141325295Y-106698095D01*
X141325295Y-106698095D02*
X141230057Y-106745714D01*
X141230057Y-106745714D02*
X141182438Y-106793333D01*
X141182438Y-106793333D02*
X141134819Y-106888571D01*
X142134819Y-107650476D02*
X141134819Y-107650476D01*
X142134819Y-108221904D02*
X141563390Y-107793333D01*
X141134819Y-108221904D02*
X141706247Y-107650476D01*
X163320819Y-106317142D02*
X162844628Y-105983809D01*
X163320819Y-105745714D02*
X162320819Y-105745714D01*
X162320819Y-105745714D02*
X162320819Y-106126666D01*
X162320819Y-106126666D02*
X162368438Y-106221904D01*
X162368438Y-106221904D02*
X162416057Y-106269523D01*
X162416057Y-106269523D02*
X162511295Y-106317142D01*
X162511295Y-106317142D02*
X162654152Y-106317142D01*
X162654152Y-106317142D02*
X162749390Y-106269523D01*
X162749390Y-106269523D02*
X162797009Y-106221904D01*
X162797009Y-106221904D02*
X162844628Y-106126666D01*
X162844628Y-106126666D02*
X162844628Y-105745714D01*
X162416057Y-106698095D02*
X162368438Y-106745714D01*
X162368438Y-106745714D02*
X162320819Y-106840952D01*
X162320819Y-106840952D02*
X162320819Y-107079047D01*
X162320819Y-107079047D02*
X162368438Y-107174285D01*
X162368438Y-107174285D02*
X162416057Y-107221904D01*
X162416057Y-107221904D02*
X162511295Y-107269523D01*
X162511295Y-107269523D02*
X162606533Y-107269523D01*
X162606533Y-107269523D02*
X162749390Y-107221904D01*
X162749390Y-107221904D02*
X163320819Y-106650476D01*
X163320819Y-106650476D02*
X163320819Y-107269523D01*
X162320819Y-107602857D02*
X162320819Y-108221904D01*
X162320819Y-108221904D02*
X162701771Y-107888571D01*
X162701771Y-107888571D02*
X162701771Y-108031428D01*
X162701771Y-108031428D02*
X162749390Y-108126666D01*
X162749390Y-108126666D02*
X162797009Y-108174285D01*
X162797009Y-108174285D02*
X162892247Y-108221904D01*
X162892247Y-108221904D02*
X163130342Y-108221904D01*
X163130342Y-108221904D02*
X163225580Y-108174285D01*
X163225580Y-108174285D02*
X163273200Y-108126666D01*
X163273200Y-108126666D02*
X163320819Y-108031428D01*
X163320819Y-108031428D02*
X163320819Y-107745714D01*
X163320819Y-107745714D02*
X163273200Y-107650476D01*
X163273200Y-107650476D02*
X163225580Y-107602857D01*
X159660819Y-106269523D02*
X159660819Y-105698095D01*
X159660819Y-105983809D02*
X158660819Y-105983809D01*
X158660819Y-105983809D02*
X158803676Y-105888571D01*
X158803676Y-105888571D02*
X158898914Y-105793333D01*
X158898914Y-105793333D02*
X158946533Y-105698095D01*
X158660819Y-106888571D02*
X158660819Y-106983809D01*
X158660819Y-106983809D02*
X158708438Y-107079047D01*
X158708438Y-107079047D02*
X158756057Y-107126666D01*
X158756057Y-107126666D02*
X158851295Y-107174285D01*
X158851295Y-107174285D02*
X159041771Y-107221904D01*
X159041771Y-107221904D02*
X159279866Y-107221904D01*
X159279866Y-107221904D02*
X159470342Y-107174285D01*
X159470342Y-107174285D02*
X159565580Y-107126666D01*
X159565580Y-107126666D02*
X159613200Y-107079047D01*
X159613200Y-107079047D02*
X159660819Y-106983809D01*
X159660819Y-106983809D02*
X159660819Y-106888571D01*
X159660819Y-106888571D02*
X159613200Y-106793333D01*
X159613200Y-106793333D02*
X159565580Y-106745714D01*
X159565580Y-106745714D02*
X159470342Y-106698095D01*
X159470342Y-106698095D02*
X159279866Y-106650476D01*
X159279866Y-106650476D02*
X159041771Y-106650476D01*
X159041771Y-106650476D02*
X158851295Y-106698095D01*
X158851295Y-106698095D02*
X158756057Y-106745714D01*
X158756057Y-106745714D02*
X158708438Y-106793333D01*
X158708438Y-106793333D02*
X158660819Y-106888571D01*
X159660819Y-107650476D02*
X158660819Y-107650476D01*
X159660819Y-108221904D02*
X159089390Y-107793333D01*
X158660819Y-108221904D02*
X159232247Y-107650476D01*
X122282857Y-76094819D02*
X122616190Y-75618628D01*
X122854285Y-76094819D02*
X122854285Y-75094819D01*
X122854285Y-75094819D02*
X122473333Y-75094819D01*
X122473333Y-75094819D02*
X122378095Y-75142438D01*
X122378095Y-75142438D02*
X122330476Y-75190057D01*
X122330476Y-75190057D02*
X122282857Y-75285295D01*
X122282857Y-75285295D02*
X122282857Y-75428152D01*
X122282857Y-75428152D02*
X122330476Y-75523390D01*
X122330476Y-75523390D02*
X122378095Y-75571009D01*
X122378095Y-75571009D02*
X122473333Y-75618628D01*
X122473333Y-75618628D02*
X122854285Y-75618628D01*
X121949523Y-75094819D02*
X121330476Y-75094819D01*
X121330476Y-75094819D02*
X121663809Y-75475771D01*
X121663809Y-75475771D02*
X121520952Y-75475771D01*
X121520952Y-75475771D02*
X121425714Y-75523390D01*
X121425714Y-75523390D02*
X121378095Y-75571009D01*
X121378095Y-75571009D02*
X121330476Y-75666247D01*
X121330476Y-75666247D02*
X121330476Y-75904342D01*
X121330476Y-75904342D02*
X121378095Y-75999580D01*
X121378095Y-75999580D02*
X121425714Y-76047200D01*
X121425714Y-76047200D02*
X121520952Y-76094819D01*
X121520952Y-76094819D02*
X121806666Y-76094819D01*
X121806666Y-76094819D02*
X121901904Y-76047200D01*
X121901904Y-76047200D02*
X121949523Y-75999580D01*
X120854285Y-76094819D02*
X120663809Y-76094819D01*
X120663809Y-76094819D02*
X120568571Y-76047200D01*
X120568571Y-76047200D02*
X120520952Y-75999580D01*
X120520952Y-75999580D02*
X120425714Y-75856723D01*
X120425714Y-75856723D02*
X120378095Y-75666247D01*
X120378095Y-75666247D02*
X120378095Y-75285295D01*
X120378095Y-75285295D02*
X120425714Y-75190057D01*
X120425714Y-75190057D02*
X120473333Y-75142438D01*
X120473333Y-75142438D02*
X120568571Y-75094819D01*
X120568571Y-75094819D02*
X120759047Y-75094819D01*
X120759047Y-75094819D02*
X120854285Y-75142438D01*
X120854285Y-75142438D02*
X120901904Y-75190057D01*
X120901904Y-75190057D02*
X120949523Y-75285295D01*
X120949523Y-75285295D02*
X120949523Y-75523390D01*
X120949523Y-75523390D02*
X120901904Y-75618628D01*
X120901904Y-75618628D02*
X120854285Y-75666247D01*
X120854285Y-75666247D02*
X120759047Y-75713866D01*
X120759047Y-75713866D02*
X120568571Y-75713866D01*
X120568571Y-75713866D02*
X120473333Y-75666247D01*
X120473333Y-75666247D02*
X120425714Y-75618628D01*
X120425714Y-75618628D02*
X120378095Y-75523390D01*
X121854285Y-79754819D02*
X122425713Y-79754819D01*
X122139999Y-79754819D02*
X122139999Y-78754819D01*
X122139999Y-78754819D02*
X122235237Y-78897676D01*
X122235237Y-78897676D02*
X122330475Y-78992914D01*
X122330475Y-78992914D02*
X122425713Y-79040533D01*
X121425713Y-79754819D02*
X121425713Y-78754819D01*
X120854285Y-79754819D02*
X121282856Y-79183390D01*
X120854285Y-78754819D02*
X121425713Y-79326247D01*
X141668332Y-161617200D02*
X141525475Y-161664819D01*
X141525475Y-161664819D02*
X141287380Y-161664819D01*
X141287380Y-161664819D02*
X141192142Y-161617200D01*
X141192142Y-161617200D02*
X141144523Y-161569580D01*
X141144523Y-161569580D02*
X141096904Y-161474342D01*
X141096904Y-161474342D02*
X141096904Y-161379104D01*
X141096904Y-161379104D02*
X141144523Y-161283866D01*
X141144523Y-161283866D02*
X141192142Y-161236247D01*
X141192142Y-161236247D02*
X141287380Y-161188628D01*
X141287380Y-161188628D02*
X141477856Y-161141009D01*
X141477856Y-161141009D02*
X141573094Y-161093390D01*
X141573094Y-161093390D02*
X141620713Y-161045771D01*
X141620713Y-161045771D02*
X141668332Y-160950533D01*
X141668332Y-160950533D02*
X141668332Y-160855295D01*
X141668332Y-160855295D02*
X141620713Y-160760057D01*
X141620713Y-160760057D02*
X141573094Y-160712438D01*
X141573094Y-160712438D02*
X141477856Y-160664819D01*
X141477856Y-160664819D02*
X141239761Y-160664819D01*
X141239761Y-160664819D02*
X141096904Y-160712438D01*
X140763570Y-160664819D02*
X140525475Y-161664819D01*
X140525475Y-161664819D02*
X140334999Y-160950533D01*
X140334999Y-160950533D02*
X140144523Y-161664819D01*
X140144523Y-161664819D02*
X139906428Y-160664819D01*
X139001666Y-161664819D02*
X139573094Y-161664819D01*
X139287380Y-161664819D02*
X139287380Y-160664819D01*
X139287380Y-160664819D02*
X139382618Y-160807676D01*
X139382618Y-160807676D02*
X139477856Y-160902914D01*
X139477856Y-160902914D02*
X139573094Y-160950533D01*
X145096904Y-151664819D02*
X145096904Y-150664819D01*
X145096904Y-150664819D02*
X144715952Y-150664819D01*
X144715952Y-150664819D02*
X144620714Y-150712438D01*
X144620714Y-150712438D02*
X144573095Y-150760057D01*
X144573095Y-150760057D02*
X144525476Y-150855295D01*
X144525476Y-150855295D02*
X144525476Y-150998152D01*
X144525476Y-150998152D02*
X144573095Y-151093390D01*
X144573095Y-151093390D02*
X144620714Y-151141009D01*
X144620714Y-151141009D02*
X144715952Y-151188628D01*
X144715952Y-151188628D02*
X145096904Y-151188628D01*
X143954047Y-151664819D02*
X144049285Y-151617200D01*
X144049285Y-151617200D02*
X144096904Y-151569580D01*
X144096904Y-151569580D02*
X144144523Y-151474342D01*
X144144523Y-151474342D02*
X144144523Y-151188628D01*
X144144523Y-151188628D02*
X144096904Y-151093390D01*
X144096904Y-151093390D02*
X144049285Y-151045771D01*
X144049285Y-151045771D02*
X143954047Y-150998152D01*
X143954047Y-150998152D02*
X143811190Y-150998152D01*
X143811190Y-150998152D02*
X143715952Y-151045771D01*
X143715952Y-151045771D02*
X143668333Y-151093390D01*
X143668333Y-151093390D02*
X143620714Y-151188628D01*
X143620714Y-151188628D02*
X143620714Y-151474342D01*
X143620714Y-151474342D02*
X143668333Y-151569580D01*
X143668333Y-151569580D02*
X143715952Y-151617200D01*
X143715952Y-151617200D02*
X143811190Y-151664819D01*
X143811190Y-151664819D02*
X143954047Y-151664819D01*
X143287380Y-150998152D02*
X143096904Y-151664819D01*
X143096904Y-151664819D02*
X142906428Y-151188628D01*
X142906428Y-151188628D02*
X142715952Y-151664819D01*
X142715952Y-151664819D02*
X142525476Y-150998152D01*
X141763571Y-151617200D02*
X141858809Y-151664819D01*
X141858809Y-151664819D02*
X142049285Y-151664819D01*
X142049285Y-151664819D02*
X142144523Y-151617200D01*
X142144523Y-151617200D02*
X142192142Y-151521961D01*
X142192142Y-151521961D02*
X142192142Y-151141009D01*
X142192142Y-151141009D02*
X142144523Y-151045771D01*
X142144523Y-151045771D02*
X142049285Y-150998152D01*
X142049285Y-150998152D02*
X141858809Y-150998152D01*
X141858809Y-150998152D02*
X141763571Y-151045771D01*
X141763571Y-151045771D02*
X141715952Y-151141009D01*
X141715952Y-151141009D02*
X141715952Y-151236247D01*
X141715952Y-151236247D02*
X142192142Y-151331485D01*
X141287380Y-151664819D02*
X141287380Y-150998152D01*
X141287380Y-151188628D02*
X141239761Y-151093390D01*
X141239761Y-151093390D02*
X141192142Y-151045771D01*
X141192142Y-151045771D02*
X141096904Y-150998152D01*
X141096904Y-150998152D02*
X141001666Y-150998152D01*
X139954046Y-151617200D02*
X139811189Y-151664819D01*
X139811189Y-151664819D02*
X139573094Y-151664819D01*
X139573094Y-151664819D02*
X139477856Y-151617200D01*
X139477856Y-151617200D02*
X139430237Y-151569580D01*
X139430237Y-151569580D02*
X139382618Y-151474342D01*
X139382618Y-151474342D02*
X139382618Y-151379104D01*
X139382618Y-151379104D02*
X139430237Y-151283866D01*
X139430237Y-151283866D02*
X139477856Y-151236247D01*
X139477856Y-151236247D02*
X139573094Y-151188628D01*
X139573094Y-151188628D02*
X139763570Y-151141009D01*
X139763570Y-151141009D02*
X139858808Y-151093390D01*
X139858808Y-151093390D02*
X139906427Y-151045771D01*
X139906427Y-151045771D02*
X139954046Y-150950533D01*
X139954046Y-150950533D02*
X139954046Y-150855295D01*
X139954046Y-150855295D02*
X139906427Y-150760057D01*
X139906427Y-150760057D02*
X139858808Y-150712438D01*
X139858808Y-150712438D02*
X139763570Y-150664819D01*
X139763570Y-150664819D02*
X139525475Y-150664819D01*
X139525475Y-150664819D02*
X139382618Y-150712438D01*
X139049284Y-150998152D02*
X138858808Y-151664819D01*
X138858808Y-151664819D02*
X138668332Y-151188628D01*
X138668332Y-151188628D02*
X138477856Y-151664819D01*
X138477856Y-151664819D02*
X138287380Y-150998152D01*
X137906427Y-151664819D02*
X137906427Y-150998152D01*
X137906427Y-150664819D02*
X137954046Y-150712438D01*
X137954046Y-150712438D02*
X137906427Y-150760057D01*
X137906427Y-150760057D02*
X137858808Y-150712438D01*
X137858808Y-150712438D02*
X137906427Y-150664819D01*
X137906427Y-150664819D02*
X137906427Y-150760057D01*
X137573094Y-150998152D02*
X137192142Y-150998152D01*
X137430237Y-150664819D02*
X137430237Y-151521961D01*
X137430237Y-151521961D02*
X137382618Y-151617200D01*
X137382618Y-151617200D02*
X137287380Y-151664819D01*
X137287380Y-151664819D02*
X137192142Y-151664819D01*
X136430237Y-151617200D02*
X136525475Y-151664819D01*
X136525475Y-151664819D02*
X136715951Y-151664819D01*
X136715951Y-151664819D02*
X136811189Y-151617200D01*
X136811189Y-151617200D02*
X136858808Y-151569580D01*
X136858808Y-151569580D02*
X136906427Y-151474342D01*
X136906427Y-151474342D02*
X136906427Y-151188628D01*
X136906427Y-151188628D02*
X136858808Y-151093390D01*
X136858808Y-151093390D02*
X136811189Y-151045771D01*
X136811189Y-151045771D02*
X136715951Y-150998152D01*
X136715951Y-150998152D02*
X136525475Y-150998152D01*
X136525475Y-150998152D02*
X136430237Y-151045771D01*
X136001665Y-151664819D02*
X136001665Y-150664819D01*
X135573094Y-151664819D02*
X135573094Y-151141009D01*
X135573094Y-151141009D02*
X135620713Y-151045771D01*
X135620713Y-151045771D02*
X135715951Y-150998152D01*
X135715951Y-150998152D02*
X135858808Y-150998152D01*
X135858808Y-150998152D02*
X135954046Y-151045771D01*
X135954046Y-151045771D02*
X136001665Y-151093390D01*
X147047857Y-81174819D02*
X147381190Y-80698628D01*
X147619285Y-81174819D02*
X147619285Y-80174819D01*
X147619285Y-80174819D02*
X147238333Y-80174819D01*
X147238333Y-80174819D02*
X147143095Y-80222438D01*
X147143095Y-80222438D02*
X147095476Y-80270057D01*
X147095476Y-80270057D02*
X147047857Y-80365295D01*
X147047857Y-80365295D02*
X147047857Y-80508152D01*
X147047857Y-80508152D02*
X147095476Y-80603390D01*
X147095476Y-80603390D02*
X147143095Y-80651009D01*
X147143095Y-80651009D02*
X147238333Y-80698628D01*
X147238333Y-80698628D02*
X147619285Y-80698628D01*
X146190714Y-80508152D02*
X146190714Y-81174819D01*
X146428809Y-80127200D02*
X146666904Y-80841485D01*
X146666904Y-80841485D02*
X146047857Y-80841485D01*
X145524047Y-80603390D02*
X145619285Y-80555771D01*
X145619285Y-80555771D02*
X145666904Y-80508152D01*
X145666904Y-80508152D02*
X145714523Y-80412914D01*
X145714523Y-80412914D02*
X145714523Y-80365295D01*
X145714523Y-80365295D02*
X145666904Y-80270057D01*
X145666904Y-80270057D02*
X145619285Y-80222438D01*
X145619285Y-80222438D02*
X145524047Y-80174819D01*
X145524047Y-80174819D02*
X145333571Y-80174819D01*
X145333571Y-80174819D02*
X145238333Y-80222438D01*
X145238333Y-80222438D02*
X145190714Y-80270057D01*
X145190714Y-80270057D02*
X145143095Y-80365295D01*
X145143095Y-80365295D02*
X145143095Y-80412914D01*
X145143095Y-80412914D02*
X145190714Y-80508152D01*
X145190714Y-80508152D02*
X145238333Y-80555771D01*
X145238333Y-80555771D02*
X145333571Y-80603390D01*
X145333571Y-80603390D02*
X145524047Y-80603390D01*
X145524047Y-80603390D02*
X145619285Y-80651009D01*
X145619285Y-80651009D02*
X145666904Y-80698628D01*
X145666904Y-80698628D02*
X145714523Y-80793866D01*
X145714523Y-80793866D02*
X145714523Y-80984342D01*
X145714523Y-80984342D02*
X145666904Y-81079580D01*
X145666904Y-81079580D02*
X145619285Y-81127200D01*
X145619285Y-81127200D02*
X145524047Y-81174819D01*
X145524047Y-81174819D02*
X145333571Y-81174819D01*
X145333571Y-81174819D02*
X145238333Y-81127200D01*
X145238333Y-81127200D02*
X145190714Y-81079580D01*
X145190714Y-81079580D02*
X145143095Y-80984342D01*
X145143095Y-80984342D02*
X145143095Y-80793866D01*
X145143095Y-80793866D02*
X145190714Y-80698628D01*
X145190714Y-80698628D02*
X145238333Y-80651009D01*
X145238333Y-80651009D02*
X145333571Y-80603390D01*
X146619285Y-84834819D02*
X147190713Y-84834819D01*
X146904999Y-84834819D02*
X146904999Y-83834819D01*
X146904999Y-83834819D02*
X147000237Y-83977676D01*
X147000237Y-83977676D02*
X147095475Y-84072914D01*
X147095475Y-84072914D02*
X147190713Y-84120533D01*
X146190713Y-84834819D02*
X146190713Y-83834819D01*
X145619285Y-84834819D02*
X146047856Y-84263390D01*
X145619285Y-83834819D02*
X146190713Y-84406247D01*
X180719819Y-136237142D02*
X180243628Y-135903809D01*
X180719819Y-135665714D02*
X179719819Y-135665714D01*
X179719819Y-135665714D02*
X179719819Y-136046666D01*
X179719819Y-136046666D02*
X179767438Y-136141904D01*
X179767438Y-136141904D02*
X179815057Y-136189523D01*
X179815057Y-136189523D02*
X179910295Y-136237142D01*
X179910295Y-136237142D02*
X180053152Y-136237142D01*
X180053152Y-136237142D02*
X180148390Y-136189523D01*
X180148390Y-136189523D02*
X180196009Y-136141904D01*
X180196009Y-136141904D02*
X180243628Y-136046666D01*
X180243628Y-136046666D02*
X180243628Y-135665714D01*
X179719819Y-136570476D02*
X179719819Y-137189523D01*
X179719819Y-137189523D02*
X180100771Y-136856190D01*
X180100771Y-136856190D02*
X180100771Y-136999047D01*
X180100771Y-136999047D02*
X180148390Y-137094285D01*
X180148390Y-137094285D02*
X180196009Y-137141904D01*
X180196009Y-137141904D02*
X180291247Y-137189523D01*
X180291247Y-137189523D02*
X180529342Y-137189523D01*
X180529342Y-137189523D02*
X180624580Y-137141904D01*
X180624580Y-137141904D02*
X180672200Y-137094285D01*
X180672200Y-137094285D02*
X180719819Y-136999047D01*
X180719819Y-136999047D02*
X180719819Y-136713333D01*
X180719819Y-136713333D02*
X180672200Y-136618095D01*
X180672200Y-136618095D02*
X180624580Y-136570476D01*
X179815057Y-137570476D02*
X179767438Y-137618095D01*
X179767438Y-137618095D02*
X179719819Y-137713333D01*
X179719819Y-137713333D02*
X179719819Y-137951428D01*
X179719819Y-137951428D02*
X179767438Y-138046666D01*
X179767438Y-138046666D02*
X179815057Y-138094285D01*
X179815057Y-138094285D02*
X179910295Y-138141904D01*
X179910295Y-138141904D02*
X180005533Y-138141904D01*
X180005533Y-138141904D02*
X180148390Y-138094285D01*
X180148390Y-138094285D02*
X180719819Y-137522857D01*
X180719819Y-137522857D02*
X180719819Y-138141904D01*
X177059819Y-136189523D02*
X177059819Y-135618095D01*
X177059819Y-135903809D02*
X176059819Y-135903809D01*
X176059819Y-135903809D02*
X176202676Y-135808571D01*
X176202676Y-135808571D02*
X176297914Y-135713333D01*
X176297914Y-135713333D02*
X176345533Y-135618095D01*
X176059819Y-136808571D02*
X176059819Y-136903809D01*
X176059819Y-136903809D02*
X176107438Y-136999047D01*
X176107438Y-136999047D02*
X176155057Y-137046666D01*
X176155057Y-137046666D02*
X176250295Y-137094285D01*
X176250295Y-137094285D02*
X176440771Y-137141904D01*
X176440771Y-137141904D02*
X176678866Y-137141904D01*
X176678866Y-137141904D02*
X176869342Y-137094285D01*
X176869342Y-137094285D02*
X176964580Y-137046666D01*
X176964580Y-137046666D02*
X177012200Y-136999047D01*
X177012200Y-136999047D02*
X177059819Y-136903809D01*
X177059819Y-136903809D02*
X177059819Y-136808571D01*
X177059819Y-136808571D02*
X177012200Y-136713333D01*
X177012200Y-136713333D02*
X176964580Y-136665714D01*
X176964580Y-136665714D02*
X176869342Y-136618095D01*
X176869342Y-136618095D02*
X176678866Y-136570476D01*
X176678866Y-136570476D02*
X176440771Y-136570476D01*
X176440771Y-136570476D02*
X176250295Y-136618095D01*
X176250295Y-136618095D02*
X176155057Y-136665714D01*
X176155057Y-136665714D02*
X176107438Y-136713333D01*
X176107438Y-136713333D02*
X176059819Y-136808571D01*
X177059819Y-137570476D02*
X176059819Y-137570476D01*
X177059819Y-138141904D02*
X176488390Y-137713333D01*
X176059819Y-138141904D02*
X176631247Y-137570476D01*
X166732857Y-75459819D02*
X167066190Y-74983628D01*
X167304285Y-75459819D02*
X167304285Y-74459819D01*
X167304285Y-74459819D02*
X166923333Y-74459819D01*
X166923333Y-74459819D02*
X166828095Y-74507438D01*
X166828095Y-74507438D02*
X166780476Y-74555057D01*
X166780476Y-74555057D02*
X166732857Y-74650295D01*
X166732857Y-74650295D02*
X166732857Y-74793152D01*
X166732857Y-74793152D02*
X166780476Y-74888390D01*
X166780476Y-74888390D02*
X166828095Y-74936009D01*
X166828095Y-74936009D02*
X166923333Y-74983628D01*
X166923333Y-74983628D02*
X167304285Y-74983628D01*
X165875714Y-74793152D02*
X165875714Y-75459819D01*
X166113809Y-74412200D02*
X166351904Y-75126485D01*
X166351904Y-75126485D02*
X165732857Y-75126485D01*
X164875714Y-74459819D02*
X165351904Y-74459819D01*
X165351904Y-74459819D02*
X165399523Y-74936009D01*
X165399523Y-74936009D02*
X165351904Y-74888390D01*
X165351904Y-74888390D02*
X165256666Y-74840771D01*
X165256666Y-74840771D02*
X165018571Y-74840771D01*
X165018571Y-74840771D02*
X164923333Y-74888390D01*
X164923333Y-74888390D02*
X164875714Y-74936009D01*
X164875714Y-74936009D02*
X164828095Y-75031247D01*
X164828095Y-75031247D02*
X164828095Y-75269342D01*
X164828095Y-75269342D02*
X164875714Y-75364580D01*
X164875714Y-75364580D02*
X164923333Y-75412200D01*
X164923333Y-75412200D02*
X165018571Y-75459819D01*
X165018571Y-75459819D02*
X165256666Y-75459819D01*
X165256666Y-75459819D02*
X165351904Y-75412200D01*
X165351904Y-75412200D02*
X165399523Y-75364580D01*
X166304285Y-79119819D02*
X166875713Y-79119819D01*
X166589999Y-79119819D02*
X166589999Y-78119819D01*
X166589999Y-78119819D02*
X166685237Y-78262676D01*
X166685237Y-78262676D02*
X166780475Y-78357914D01*
X166780475Y-78357914D02*
X166875713Y-78405533D01*
X165875713Y-79119819D02*
X165875713Y-78119819D01*
X165304285Y-79119819D02*
X165732856Y-78548390D01*
X165304285Y-78119819D02*
X165875713Y-78691247D01*
X128014819Y-136162142D02*
X127538628Y-135828809D01*
X128014819Y-135590714D02*
X127014819Y-135590714D01*
X127014819Y-135590714D02*
X127014819Y-135971666D01*
X127014819Y-135971666D02*
X127062438Y-136066904D01*
X127062438Y-136066904D02*
X127110057Y-136114523D01*
X127110057Y-136114523D02*
X127205295Y-136162142D01*
X127205295Y-136162142D02*
X127348152Y-136162142D01*
X127348152Y-136162142D02*
X127443390Y-136114523D01*
X127443390Y-136114523D02*
X127491009Y-136066904D01*
X127491009Y-136066904D02*
X127538628Y-135971666D01*
X127538628Y-135971666D02*
X127538628Y-135590714D01*
X127110057Y-136543095D02*
X127062438Y-136590714D01*
X127062438Y-136590714D02*
X127014819Y-136685952D01*
X127014819Y-136685952D02*
X127014819Y-136924047D01*
X127014819Y-136924047D02*
X127062438Y-137019285D01*
X127062438Y-137019285D02*
X127110057Y-137066904D01*
X127110057Y-137066904D02*
X127205295Y-137114523D01*
X127205295Y-137114523D02*
X127300533Y-137114523D01*
X127300533Y-137114523D02*
X127443390Y-137066904D01*
X127443390Y-137066904D02*
X128014819Y-136495476D01*
X128014819Y-136495476D02*
X128014819Y-137114523D01*
X128014819Y-137590714D02*
X128014819Y-137781190D01*
X128014819Y-137781190D02*
X127967200Y-137876428D01*
X127967200Y-137876428D02*
X127919580Y-137924047D01*
X127919580Y-137924047D02*
X127776723Y-138019285D01*
X127776723Y-138019285D02*
X127586247Y-138066904D01*
X127586247Y-138066904D02*
X127205295Y-138066904D01*
X127205295Y-138066904D02*
X127110057Y-138019285D01*
X127110057Y-138019285D02*
X127062438Y-137971666D01*
X127062438Y-137971666D02*
X127014819Y-137876428D01*
X127014819Y-137876428D02*
X127014819Y-137685952D01*
X127014819Y-137685952D02*
X127062438Y-137590714D01*
X127062438Y-137590714D02*
X127110057Y-137543095D01*
X127110057Y-137543095D02*
X127205295Y-137495476D01*
X127205295Y-137495476D02*
X127443390Y-137495476D01*
X127443390Y-137495476D02*
X127538628Y-137543095D01*
X127538628Y-137543095D02*
X127586247Y-137590714D01*
X127586247Y-137590714D02*
X127633866Y-137685952D01*
X127633866Y-137685952D02*
X127633866Y-137876428D01*
X127633866Y-137876428D02*
X127586247Y-137971666D01*
X127586247Y-137971666D02*
X127538628Y-138019285D01*
X127538628Y-138019285D02*
X127443390Y-138066904D01*
X124354819Y-136114523D02*
X124354819Y-135543095D01*
X124354819Y-135828809D02*
X123354819Y-135828809D01*
X123354819Y-135828809D02*
X123497676Y-135733571D01*
X123497676Y-135733571D02*
X123592914Y-135638333D01*
X123592914Y-135638333D02*
X123640533Y-135543095D01*
X123354819Y-136733571D02*
X123354819Y-136828809D01*
X123354819Y-136828809D02*
X123402438Y-136924047D01*
X123402438Y-136924047D02*
X123450057Y-136971666D01*
X123450057Y-136971666D02*
X123545295Y-137019285D01*
X123545295Y-137019285D02*
X123735771Y-137066904D01*
X123735771Y-137066904D02*
X123973866Y-137066904D01*
X123973866Y-137066904D02*
X124164342Y-137019285D01*
X124164342Y-137019285D02*
X124259580Y-136971666D01*
X124259580Y-136971666D02*
X124307200Y-136924047D01*
X124307200Y-136924047D02*
X124354819Y-136828809D01*
X124354819Y-136828809D02*
X124354819Y-136733571D01*
X124354819Y-136733571D02*
X124307200Y-136638333D01*
X124307200Y-136638333D02*
X124259580Y-136590714D01*
X124259580Y-136590714D02*
X124164342Y-136543095D01*
X124164342Y-136543095D02*
X123973866Y-136495476D01*
X123973866Y-136495476D02*
X123735771Y-136495476D01*
X123735771Y-136495476D02*
X123545295Y-136543095D01*
X123545295Y-136543095D02*
X123450057Y-136590714D01*
X123450057Y-136590714D02*
X123402438Y-136638333D01*
X123402438Y-136638333D02*
X123354819Y-136733571D01*
X124354819Y-137495476D02*
X123354819Y-137495476D01*
X124354819Y-138066904D02*
X123783390Y-137638333D01*
X123354819Y-138066904D02*
X123926247Y-137495476D01*
X121159166Y-47404580D02*
X121206785Y-47452200D01*
X121206785Y-47452200D02*
X121349642Y-47499819D01*
X121349642Y-47499819D02*
X121444880Y-47499819D01*
X121444880Y-47499819D02*
X121587737Y-47452200D01*
X121587737Y-47452200D02*
X121682975Y-47356961D01*
X121682975Y-47356961D02*
X121730594Y-47261723D01*
X121730594Y-47261723D02*
X121778213Y-47071247D01*
X121778213Y-47071247D02*
X121778213Y-46928390D01*
X121778213Y-46928390D02*
X121730594Y-46737914D01*
X121730594Y-46737914D02*
X121682975Y-46642676D01*
X121682975Y-46642676D02*
X121587737Y-46547438D01*
X121587737Y-46547438D02*
X121444880Y-46499819D01*
X121444880Y-46499819D02*
X121349642Y-46499819D01*
X121349642Y-46499819D02*
X121206785Y-46547438D01*
X121206785Y-46547438D02*
X121159166Y-46595057D01*
X120778213Y-46595057D02*
X120730594Y-46547438D01*
X120730594Y-46547438D02*
X120635356Y-46499819D01*
X120635356Y-46499819D02*
X120397261Y-46499819D01*
X120397261Y-46499819D02*
X120302023Y-46547438D01*
X120302023Y-46547438D02*
X120254404Y-46595057D01*
X120254404Y-46595057D02*
X120206785Y-46690295D01*
X120206785Y-46690295D02*
X120206785Y-46785533D01*
X120206785Y-46785533D02*
X120254404Y-46928390D01*
X120254404Y-46928390D02*
X120825832Y-47499819D01*
X120825832Y-47499819D02*
X120206785Y-47499819D01*
X122492499Y-50295057D02*
X122444880Y-50247438D01*
X122444880Y-50247438D02*
X122349642Y-50199819D01*
X122349642Y-50199819D02*
X122111547Y-50199819D01*
X122111547Y-50199819D02*
X122016309Y-50247438D01*
X122016309Y-50247438D02*
X121968690Y-50295057D01*
X121968690Y-50295057D02*
X121921071Y-50390295D01*
X121921071Y-50390295D02*
X121921071Y-50485533D01*
X121921071Y-50485533D02*
X121968690Y-50628390D01*
X121968690Y-50628390D02*
X122540118Y-51199819D01*
X122540118Y-51199819D02*
X121921071Y-51199819D01*
X121540118Y-50295057D02*
X121492499Y-50247438D01*
X121492499Y-50247438D02*
X121397261Y-50199819D01*
X121397261Y-50199819D02*
X121159166Y-50199819D01*
X121159166Y-50199819D02*
X121063928Y-50247438D01*
X121063928Y-50247438D02*
X121016309Y-50295057D01*
X121016309Y-50295057D02*
X120968690Y-50390295D01*
X120968690Y-50390295D02*
X120968690Y-50485533D01*
X120968690Y-50485533D02*
X121016309Y-50628390D01*
X121016309Y-50628390D02*
X121587737Y-51199819D01*
X121587737Y-51199819D02*
X120968690Y-51199819D01*
X120540118Y-50533152D02*
X120540118Y-51533152D01*
X120540118Y-50580771D02*
X120444880Y-50533152D01*
X120444880Y-50533152D02*
X120254404Y-50533152D01*
X120254404Y-50533152D02*
X120159166Y-50580771D01*
X120159166Y-50580771D02*
X120111547Y-50628390D01*
X120111547Y-50628390D02*
X120063928Y-50723628D01*
X120063928Y-50723628D02*
X120063928Y-51009342D01*
X120063928Y-51009342D02*
X120111547Y-51104580D01*
X120111547Y-51104580D02*
X120159166Y-51152200D01*
X120159166Y-51152200D02*
X120254404Y-51199819D01*
X120254404Y-51199819D02*
X120444880Y-51199819D01*
X120444880Y-51199819D02*
X120540118Y-51152200D01*
X119778213Y-50533152D02*
X119397261Y-50533152D01*
X119635356Y-51199819D02*
X119635356Y-50342676D01*
X119635356Y-50342676D02*
X119587737Y-50247438D01*
X119587737Y-50247438D02*
X119492499Y-50199819D01*
X119492499Y-50199819D02*
X119397261Y-50199819D01*
D11*
X133257580Y-85216904D02*
X132448057Y-85216904D01*
X132448057Y-85216904D02*
X132352819Y-85169285D01*
X132352819Y-85169285D02*
X132305200Y-85121666D01*
X132305200Y-85121666D02*
X132257580Y-85026428D01*
X132257580Y-85026428D02*
X132257580Y-84835952D01*
X132257580Y-84835952D02*
X132305200Y-84740714D01*
X132305200Y-84740714D02*
X132352819Y-84693095D01*
X132352819Y-84693095D02*
X132448057Y-84645476D01*
X132448057Y-84645476D02*
X133257580Y-84645476D01*
X132924247Y-83740714D02*
X132257580Y-83740714D01*
X133305200Y-83978809D02*
X132590914Y-84216904D01*
X132590914Y-84216904D02*
X132590914Y-83597857D01*
D10*
X135165180Y-87716904D02*
X135165180Y-87050238D01*
X135165180Y-87050238D02*
X134165180Y-87478809D01*
X134831847Y-86240714D02*
X134165180Y-86240714D01*
X135212800Y-86478809D02*
X134498514Y-86716904D01*
X134498514Y-86716904D02*
X134498514Y-86097857D01*
X134165180Y-85716904D02*
X135165180Y-85716904D01*
X134688990Y-85716904D02*
X134688990Y-85145476D01*
X134165180Y-85145476D02*
X135165180Y-85145476D01*
X134260419Y-84097857D02*
X134212800Y-84145476D01*
X134212800Y-84145476D02*
X134165180Y-84288333D01*
X134165180Y-84288333D02*
X134165180Y-84383571D01*
X134165180Y-84383571D02*
X134212800Y-84526428D01*
X134212800Y-84526428D02*
X134308038Y-84621666D01*
X134308038Y-84621666D02*
X134403276Y-84669285D01*
X134403276Y-84669285D02*
X134593752Y-84716904D01*
X134593752Y-84716904D02*
X134736609Y-84716904D01*
X134736609Y-84716904D02*
X134927085Y-84669285D01*
X134927085Y-84669285D02*
X135022323Y-84621666D01*
X135022323Y-84621666D02*
X135117561Y-84526428D01*
X135117561Y-84526428D02*
X135165180Y-84383571D01*
X135165180Y-84383571D02*
X135165180Y-84288333D01*
X135165180Y-84288333D02*
X135117561Y-84145476D01*
X135117561Y-84145476D02*
X135069942Y-84097857D01*
X135165180Y-83193095D02*
X135165180Y-83669285D01*
X135165180Y-83669285D02*
X134688990Y-83716904D01*
X134688990Y-83716904D02*
X134736609Y-83669285D01*
X134736609Y-83669285D02*
X134784228Y-83574047D01*
X134784228Y-83574047D02*
X134784228Y-83335952D01*
X134784228Y-83335952D02*
X134736609Y-83240714D01*
X134736609Y-83240714D02*
X134688990Y-83193095D01*
X134688990Y-83193095D02*
X134593752Y-83145476D01*
X134593752Y-83145476D02*
X134355657Y-83145476D01*
X134355657Y-83145476D02*
X134260419Y-83193095D01*
X134260419Y-83193095D02*
X134212800Y-83240714D01*
X134212800Y-83240714D02*
X134165180Y-83335952D01*
X134165180Y-83335952D02*
X134165180Y-83574047D01*
X134165180Y-83574047D02*
X134212800Y-83669285D01*
X134212800Y-83669285D02*
X134260419Y-83716904D01*
X134165180Y-82669285D02*
X134165180Y-82478809D01*
X134165180Y-82478809D02*
X134212800Y-82383571D01*
X134212800Y-82383571D02*
X134260419Y-82335952D01*
X134260419Y-82335952D02*
X134403276Y-82240714D01*
X134403276Y-82240714D02*
X134593752Y-82193095D01*
X134593752Y-82193095D02*
X134974704Y-82193095D01*
X134974704Y-82193095D02*
X135069942Y-82240714D01*
X135069942Y-82240714D02*
X135117561Y-82288333D01*
X135117561Y-82288333D02*
X135165180Y-82383571D01*
X135165180Y-82383571D02*
X135165180Y-82574047D01*
X135165180Y-82574047D02*
X135117561Y-82669285D01*
X135117561Y-82669285D02*
X135069942Y-82716904D01*
X135069942Y-82716904D02*
X134974704Y-82764523D01*
X134974704Y-82764523D02*
X134736609Y-82764523D01*
X134736609Y-82764523D02*
X134641371Y-82716904D01*
X134641371Y-82716904D02*
X134593752Y-82669285D01*
X134593752Y-82669285D02*
X134546133Y-82574047D01*
X134546133Y-82574047D02*
X134546133Y-82383571D01*
X134546133Y-82383571D02*
X134593752Y-82288333D01*
X134593752Y-82288333D02*
X134641371Y-82240714D01*
X134641371Y-82240714D02*
X134736609Y-82193095D01*
X135165180Y-81288333D02*
X135165180Y-81764523D01*
X135165180Y-81764523D02*
X134688990Y-81812142D01*
X134688990Y-81812142D02*
X134736609Y-81764523D01*
X134736609Y-81764523D02*
X134784228Y-81669285D01*
X134784228Y-81669285D02*
X134784228Y-81431190D01*
X134784228Y-81431190D02*
X134736609Y-81335952D01*
X134736609Y-81335952D02*
X134688990Y-81288333D01*
X134688990Y-81288333D02*
X134593752Y-81240714D01*
X134593752Y-81240714D02*
X134355657Y-81240714D01*
X134355657Y-81240714D02*
X134260419Y-81288333D01*
X134260419Y-81288333D02*
X134212800Y-81335952D01*
X134212800Y-81335952D02*
X134165180Y-81431190D01*
X134165180Y-81431190D02*
X134165180Y-81669285D01*
X134165180Y-81669285D02*
X134212800Y-81764523D01*
X134212800Y-81764523D02*
X134260419Y-81812142D01*
D11*
X104013095Y-99602580D02*
X104013095Y-98793057D01*
X104013095Y-98793057D02*
X104060714Y-98697819D01*
X104060714Y-98697819D02*
X104108333Y-98650200D01*
X104108333Y-98650200D02*
X104203571Y-98602580D01*
X104203571Y-98602580D02*
X104394047Y-98602580D01*
X104394047Y-98602580D02*
X104489285Y-98650200D01*
X104489285Y-98650200D02*
X104536904Y-98697819D01*
X104536904Y-98697819D02*
X104584523Y-98793057D01*
X104584523Y-98793057D02*
X104584523Y-99602580D01*
X105489285Y-99602580D02*
X105298809Y-99602580D01*
X105298809Y-99602580D02*
X105203571Y-99554961D01*
X105203571Y-99554961D02*
X105155952Y-99507342D01*
X105155952Y-99507342D02*
X105060714Y-99364485D01*
X105060714Y-99364485D02*
X105013095Y-99174009D01*
X105013095Y-99174009D02*
X105013095Y-98793057D01*
X105013095Y-98793057D02*
X105060714Y-98697819D01*
X105060714Y-98697819D02*
X105108333Y-98650200D01*
X105108333Y-98650200D02*
X105203571Y-98602580D01*
X105203571Y-98602580D02*
X105394047Y-98602580D01*
X105394047Y-98602580D02*
X105489285Y-98650200D01*
X105489285Y-98650200D02*
X105536904Y-98697819D01*
X105536904Y-98697819D02*
X105584523Y-98793057D01*
X105584523Y-98793057D02*
X105584523Y-99031152D01*
X105584523Y-99031152D02*
X105536904Y-99126390D01*
X105536904Y-99126390D02*
X105489285Y-99174009D01*
X105489285Y-99174009D02*
X105394047Y-99221628D01*
X105394047Y-99221628D02*
X105203571Y-99221628D01*
X105203571Y-99221628D02*
X105108333Y-99174009D01*
X105108333Y-99174009D02*
X105060714Y-99126390D01*
X105060714Y-99126390D02*
X105013095Y-99031152D01*
D10*
X101513095Y-101510180D02*
X102179761Y-101510180D01*
X102179761Y-101510180D02*
X101751190Y-100510180D01*
X102989285Y-101176847D02*
X102989285Y-100510180D01*
X102751190Y-101557800D02*
X102513095Y-100843514D01*
X102513095Y-100843514D02*
X103132142Y-100843514D01*
X103513095Y-100510180D02*
X103513095Y-101510180D01*
X103513095Y-101033990D02*
X104084523Y-101033990D01*
X104084523Y-100510180D02*
X104084523Y-101510180D01*
X105132142Y-100605419D02*
X105084523Y-100557800D01*
X105084523Y-100557800D02*
X104941666Y-100510180D01*
X104941666Y-100510180D02*
X104846428Y-100510180D01*
X104846428Y-100510180D02*
X104703571Y-100557800D01*
X104703571Y-100557800D02*
X104608333Y-100653038D01*
X104608333Y-100653038D02*
X104560714Y-100748276D01*
X104560714Y-100748276D02*
X104513095Y-100938752D01*
X104513095Y-100938752D02*
X104513095Y-101081609D01*
X104513095Y-101081609D02*
X104560714Y-101272085D01*
X104560714Y-101272085D02*
X104608333Y-101367323D01*
X104608333Y-101367323D02*
X104703571Y-101462561D01*
X104703571Y-101462561D02*
X104846428Y-101510180D01*
X104846428Y-101510180D02*
X104941666Y-101510180D01*
X104941666Y-101510180D02*
X105084523Y-101462561D01*
X105084523Y-101462561D02*
X105132142Y-101414942D01*
X106036904Y-101510180D02*
X105560714Y-101510180D01*
X105560714Y-101510180D02*
X105513095Y-101033990D01*
X105513095Y-101033990D02*
X105560714Y-101081609D01*
X105560714Y-101081609D02*
X105655952Y-101129228D01*
X105655952Y-101129228D02*
X105894047Y-101129228D01*
X105894047Y-101129228D02*
X105989285Y-101081609D01*
X105989285Y-101081609D02*
X106036904Y-101033990D01*
X106036904Y-101033990D02*
X106084523Y-100938752D01*
X106084523Y-100938752D02*
X106084523Y-100700657D01*
X106084523Y-100700657D02*
X106036904Y-100605419D01*
X106036904Y-100605419D02*
X105989285Y-100557800D01*
X105989285Y-100557800D02*
X105894047Y-100510180D01*
X105894047Y-100510180D02*
X105655952Y-100510180D01*
X105655952Y-100510180D02*
X105560714Y-100557800D01*
X105560714Y-100557800D02*
X105513095Y-100605419D01*
X106560714Y-100510180D02*
X106751190Y-100510180D01*
X106751190Y-100510180D02*
X106846428Y-100557800D01*
X106846428Y-100557800D02*
X106894047Y-100605419D01*
X106894047Y-100605419D02*
X106989285Y-100748276D01*
X106989285Y-100748276D02*
X107036904Y-100938752D01*
X107036904Y-100938752D02*
X107036904Y-101319704D01*
X107036904Y-101319704D02*
X106989285Y-101414942D01*
X106989285Y-101414942D02*
X106941666Y-101462561D01*
X106941666Y-101462561D02*
X106846428Y-101510180D01*
X106846428Y-101510180D02*
X106655952Y-101510180D01*
X106655952Y-101510180D02*
X106560714Y-101462561D01*
X106560714Y-101462561D02*
X106513095Y-101414942D01*
X106513095Y-101414942D02*
X106465476Y-101319704D01*
X106465476Y-101319704D02*
X106465476Y-101081609D01*
X106465476Y-101081609D02*
X106513095Y-100986371D01*
X106513095Y-100986371D02*
X106560714Y-100938752D01*
X106560714Y-100938752D02*
X106655952Y-100891133D01*
X106655952Y-100891133D02*
X106846428Y-100891133D01*
X106846428Y-100891133D02*
X106941666Y-100938752D01*
X106941666Y-100938752D02*
X106989285Y-100986371D01*
X106989285Y-100986371D02*
X107036904Y-101081609D01*
X107941666Y-101510180D02*
X107465476Y-101510180D01*
X107465476Y-101510180D02*
X107417857Y-101033990D01*
X107417857Y-101033990D02*
X107465476Y-101081609D01*
X107465476Y-101081609D02*
X107560714Y-101129228D01*
X107560714Y-101129228D02*
X107798809Y-101129228D01*
X107798809Y-101129228D02*
X107894047Y-101081609D01*
X107894047Y-101081609D02*
X107941666Y-101033990D01*
X107941666Y-101033990D02*
X107989285Y-100938752D01*
X107989285Y-100938752D02*
X107989285Y-100700657D01*
X107989285Y-100700657D02*
X107941666Y-100605419D01*
X107941666Y-100605419D02*
X107894047Y-100557800D01*
X107894047Y-100557800D02*
X107798809Y-100510180D01*
X107798809Y-100510180D02*
X107560714Y-100510180D01*
X107560714Y-100510180D02*
X107465476Y-100557800D01*
X107465476Y-100557800D02*
X107417857Y-100605419D01*
X115297857Y-79269819D02*
X115631190Y-78793628D01*
X115869285Y-79269819D02*
X115869285Y-78269819D01*
X115869285Y-78269819D02*
X115488333Y-78269819D01*
X115488333Y-78269819D02*
X115393095Y-78317438D01*
X115393095Y-78317438D02*
X115345476Y-78365057D01*
X115345476Y-78365057D02*
X115297857Y-78460295D01*
X115297857Y-78460295D02*
X115297857Y-78603152D01*
X115297857Y-78603152D02*
X115345476Y-78698390D01*
X115345476Y-78698390D02*
X115393095Y-78746009D01*
X115393095Y-78746009D02*
X115488333Y-78793628D01*
X115488333Y-78793628D02*
X115869285Y-78793628D01*
X114440714Y-78603152D02*
X114440714Y-79269819D01*
X114678809Y-78222200D02*
X114916904Y-78936485D01*
X114916904Y-78936485D02*
X114297857Y-78936485D01*
X113393095Y-79269819D02*
X113964523Y-79269819D01*
X113678809Y-79269819D02*
X113678809Y-78269819D01*
X113678809Y-78269819D02*
X113774047Y-78412676D01*
X113774047Y-78412676D02*
X113869285Y-78507914D01*
X113869285Y-78507914D02*
X113964523Y-78555533D01*
X114869285Y-82929819D02*
X115440713Y-82929819D01*
X115154999Y-82929819D02*
X115154999Y-81929819D01*
X115154999Y-81929819D02*
X115250237Y-82072676D01*
X115250237Y-82072676D02*
X115345475Y-82167914D01*
X115345475Y-82167914D02*
X115440713Y-82215533D01*
X114440713Y-82929819D02*
X114440713Y-81929819D01*
X113869285Y-82929819D02*
X114297856Y-82358390D01*
X113869285Y-81929819D02*
X114440713Y-82501247D01*
X155302857Y-90064819D02*
X155636190Y-89588628D01*
X155874285Y-90064819D02*
X155874285Y-89064819D01*
X155874285Y-89064819D02*
X155493333Y-89064819D01*
X155493333Y-89064819D02*
X155398095Y-89112438D01*
X155398095Y-89112438D02*
X155350476Y-89160057D01*
X155350476Y-89160057D02*
X155302857Y-89255295D01*
X155302857Y-89255295D02*
X155302857Y-89398152D01*
X155302857Y-89398152D02*
X155350476Y-89493390D01*
X155350476Y-89493390D02*
X155398095Y-89541009D01*
X155398095Y-89541009D02*
X155493333Y-89588628D01*
X155493333Y-89588628D02*
X155874285Y-89588628D01*
X154445714Y-89398152D02*
X154445714Y-90064819D01*
X154683809Y-89017200D02*
X154921904Y-89731485D01*
X154921904Y-89731485D02*
X154302857Y-89731485D01*
X153493333Y-89398152D02*
X153493333Y-90064819D01*
X153731428Y-89017200D02*
X153969523Y-89731485D01*
X153969523Y-89731485D02*
X153350476Y-89731485D01*
X154874285Y-93724819D02*
X155445713Y-93724819D01*
X155159999Y-93724819D02*
X155159999Y-92724819D01*
X155159999Y-92724819D02*
X155255237Y-92867676D01*
X155255237Y-92867676D02*
X155350475Y-92962914D01*
X155350475Y-92962914D02*
X155445713Y-93010533D01*
X154445713Y-93724819D02*
X154445713Y-92724819D01*
X153874285Y-93724819D02*
X154302856Y-93153390D01*
X153874285Y-92724819D02*
X154445713Y-93296247D01*
X100224819Y-106793333D02*
X99748628Y-106460000D01*
X100224819Y-106221905D02*
X99224819Y-106221905D01*
X99224819Y-106221905D02*
X99224819Y-106602857D01*
X99224819Y-106602857D02*
X99272438Y-106698095D01*
X99272438Y-106698095D02*
X99320057Y-106745714D01*
X99320057Y-106745714D02*
X99415295Y-106793333D01*
X99415295Y-106793333D02*
X99558152Y-106793333D01*
X99558152Y-106793333D02*
X99653390Y-106745714D01*
X99653390Y-106745714D02*
X99701009Y-106698095D01*
X99701009Y-106698095D02*
X99748628Y-106602857D01*
X99748628Y-106602857D02*
X99748628Y-106221905D01*
X99224819Y-107126667D02*
X99224819Y-107745714D01*
X99224819Y-107745714D02*
X99605771Y-107412381D01*
X99605771Y-107412381D02*
X99605771Y-107555238D01*
X99605771Y-107555238D02*
X99653390Y-107650476D01*
X99653390Y-107650476D02*
X99701009Y-107698095D01*
X99701009Y-107698095D02*
X99796247Y-107745714D01*
X99796247Y-107745714D02*
X100034342Y-107745714D01*
X100034342Y-107745714D02*
X100129580Y-107698095D01*
X100129580Y-107698095D02*
X100177200Y-107650476D01*
X100177200Y-107650476D02*
X100224819Y-107555238D01*
X100224819Y-107555238D02*
X100224819Y-107269524D01*
X100224819Y-107269524D02*
X100177200Y-107174286D01*
X100177200Y-107174286D02*
X100129580Y-107126667D01*
X103884819Y-106745714D02*
X103884819Y-106174286D01*
X103884819Y-106460000D02*
X102884819Y-106460000D01*
X102884819Y-106460000D02*
X103027676Y-106364762D01*
X103027676Y-106364762D02*
X103122914Y-106269524D01*
X103122914Y-106269524D02*
X103170533Y-106174286D01*
X103884819Y-107174286D02*
X102884819Y-107174286D01*
X103884819Y-107745714D02*
X103313390Y-107317143D01*
X102884819Y-107745714D02*
X103456247Y-107174286D01*
X110234819Y-136162142D02*
X109758628Y-135828809D01*
X110234819Y-135590714D02*
X109234819Y-135590714D01*
X109234819Y-135590714D02*
X109234819Y-135971666D01*
X109234819Y-135971666D02*
X109282438Y-136066904D01*
X109282438Y-136066904D02*
X109330057Y-136114523D01*
X109330057Y-136114523D02*
X109425295Y-136162142D01*
X109425295Y-136162142D02*
X109568152Y-136162142D01*
X109568152Y-136162142D02*
X109663390Y-136114523D01*
X109663390Y-136114523D02*
X109711009Y-136066904D01*
X109711009Y-136066904D02*
X109758628Y-135971666D01*
X109758628Y-135971666D02*
X109758628Y-135590714D01*
X109330057Y-136543095D02*
X109282438Y-136590714D01*
X109282438Y-136590714D02*
X109234819Y-136685952D01*
X109234819Y-136685952D02*
X109234819Y-136924047D01*
X109234819Y-136924047D02*
X109282438Y-137019285D01*
X109282438Y-137019285D02*
X109330057Y-137066904D01*
X109330057Y-137066904D02*
X109425295Y-137114523D01*
X109425295Y-137114523D02*
X109520533Y-137114523D01*
X109520533Y-137114523D02*
X109663390Y-137066904D01*
X109663390Y-137066904D02*
X110234819Y-136495476D01*
X110234819Y-136495476D02*
X110234819Y-137114523D01*
X109663390Y-137685952D02*
X109615771Y-137590714D01*
X109615771Y-137590714D02*
X109568152Y-137543095D01*
X109568152Y-137543095D02*
X109472914Y-137495476D01*
X109472914Y-137495476D02*
X109425295Y-137495476D01*
X109425295Y-137495476D02*
X109330057Y-137543095D01*
X109330057Y-137543095D02*
X109282438Y-137590714D01*
X109282438Y-137590714D02*
X109234819Y-137685952D01*
X109234819Y-137685952D02*
X109234819Y-137876428D01*
X109234819Y-137876428D02*
X109282438Y-137971666D01*
X109282438Y-137971666D02*
X109330057Y-138019285D01*
X109330057Y-138019285D02*
X109425295Y-138066904D01*
X109425295Y-138066904D02*
X109472914Y-138066904D01*
X109472914Y-138066904D02*
X109568152Y-138019285D01*
X109568152Y-138019285D02*
X109615771Y-137971666D01*
X109615771Y-137971666D02*
X109663390Y-137876428D01*
X109663390Y-137876428D02*
X109663390Y-137685952D01*
X109663390Y-137685952D02*
X109711009Y-137590714D01*
X109711009Y-137590714D02*
X109758628Y-137543095D01*
X109758628Y-137543095D02*
X109853866Y-137495476D01*
X109853866Y-137495476D02*
X110044342Y-137495476D01*
X110044342Y-137495476D02*
X110139580Y-137543095D01*
X110139580Y-137543095D02*
X110187200Y-137590714D01*
X110187200Y-137590714D02*
X110234819Y-137685952D01*
X110234819Y-137685952D02*
X110234819Y-137876428D01*
X110234819Y-137876428D02*
X110187200Y-137971666D01*
X110187200Y-137971666D02*
X110139580Y-138019285D01*
X110139580Y-138019285D02*
X110044342Y-138066904D01*
X110044342Y-138066904D02*
X109853866Y-138066904D01*
X109853866Y-138066904D02*
X109758628Y-138019285D01*
X109758628Y-138019285D02*
X109711009Y-137971666D01*
X109711009Y-137971666D02*
X109663390Y-137876428D01*
X106574819Y-136114523D02*
X106574819Y-135543095D01*
X106574819Y-135828809D02*
X105574819Y-135828809D01*
X105574819Y-135828809D02*
X105717676Y-135733571D01*
X105717676Y-135733571D02*
X105812914Y-135638333D01*
X105812914Y-135638333D02*
X105860533Y-135543095D01*
X105574819Y-136733571D02*
X105574819Y-136828809D01*
X105574819Y-136828809D02*
X105622438Y-136924047D01*
X105622438Y-136924047D02*
X105670057Y-136971666D01*
X105670057Y-136971666D02*
X105765295Y-137019285D01*
X105765295Y-137019285D02*
X105955771Y-137066904D01*
X105955771Y-137066904D02*
X106193866Y-137066904D01*
X106193866Y-137066904D02*
X106384342Y-137019285D01*
X106384342Y-137019285D02*
X106479580Y-136971666D01*
X106479580Y-136971666D02*
X106527200Y-136924047D01*
X106527200Y-136924047D02*
X106574819Y-136828809D01*
X106574819Y-136828809D02*
X106574819Y-136733571D01*
X106574819Y-136733571D02*
X106527200Y-136638333D01*
X106527200Y-136638333D02*
X106479580Y-136590714D01*
X106479580Y-136590714D02*
X106384342Y-136543095D01*
X106384342Y-136543095D02*
X106193866Y-136495476D01*
X106193866Y-136495476D02*
X105955771Y-136495476D01*
X105955771Y-136495476D02*
X105765295Y-136543095D01*
X105765295Y-136543095D02*
X105670057Y-136590714D01*
X105670057Y-136590714D02*
X105622438Y-136638333D01*
X105622438Y-136638333D02*
X105574819Y-136733571D01*
X106574819Y-137495476D02*
X105574819Y-137495476D01*
X106574819Y-138066904D02*
X106003390Y-137638333D01*
X105574819Y-138066904D02*
X106146247Y-137495476D01*
X128144166Y-47404580D02*
X128191785Y-47452200D01*
X128191785Y-47452200D02*
X128334642Y-47499819D01*
X128334642Y-47499819D02*
X128429880Y-47499819D01*
X128429880Y-47499819D02*
X128572737Y-47452200D01*
X128572737Y-47452200D02*
X128667975Y-47356961D01*
X128667975Y-47356961D02*
X128715594Y-47261723D01*
X128715594Y-47261723D02*
X128763213Y-47071247D01*
X128763213Y-47071247D02*
X128763213Y-46928390D01*
X128763213Y-46928390D02*
X128715594Y-46737914D01*
X128715594Y-46737914D02*
X128667975Y-46642676D01*
X128667975Y-46642676D02*
X128572737Y-46547438D01*
X128572737Y-46547438D02*
X128429880Y-46499819D01*
X128429880Y-46499819D02*
X128334642Y-46499819D01*
X128334642Y-46499819D02*
X128191785Y-46547438D01*
X128191785Y-46547438D02*
X128144166Y-46595057D01*
X127810832Y-46499819D02*
X127191785Y-46499819D01*
X127191785Y-46499819D02*
X127525118Y-46880771D01*
X127525118Y-46880771D02*
X127382261Y-46880771D01*
X127382261Y-46880771D02*
X127287023Y-46928390D01*
X127287023Y-46928390D02*
X127239404Y-46976009D01*
X127239404Y-46976009D02*
X127191785Y-47071247D01*
X127191785Y-47071247D02*
X127191785Y-47309342D01*
X127191785Y-47309342D02*
X127239404Y-47404580D01*
X127239404Y-47404580D02*
X127287023Y-47452200D01*
X127287023Y-47452200D02*
X127382261Y-47499819D01*
X127382261Y-47499819D02*
X127667975Y-47499819D01*
X127667975Y-47499819D02*
X127763213Y-47452200D01*
X127763213Y-47452200D02*
X127810832Y-47404580D01*
X129477499Y-50295057D02*
X129429880Y-50247438D01*
X129429880Y-50247438D02*
X129334642Y-50199819D01*
X129334642Y-50199819D02*
X129096547Y-50199819D01*
X129096547Y-50199819D02*
X129001309Y-50247438D01*
X129001309Y-50247438D02*
X128953690Y-50295057D01*
X128953690Y-50295057D02*
X128906071Y-50390295D01*
X128906071Y-50390295D02*
X128906071Y-50485533D01*
X128906071Y-50485533D02*
X128953690Y-50628390D01*
X128953690Y-50628390D02*
X129525118Y-51199819D01*
X129525118Y-51199819D02*
X128906071Y-51199819D01*
X128525118Y-50295057D02*
X128477499Y-50247438D01*
X128477499Y-50247438D02*
X128382261Y-50199819D01*
X128382261Y-50199819D02*
X128144166Y-50199819D01*
X128144166Y-50199819D02*
X128048928Y-50247438D01*
X128048928Y-50247438D02*
X128001309Y-50295057D01*
X128001309Y-50295057D02*
X127953690Y-50390295D01*
X127953690Y-50390295D02*
X127953690Y-50485533D01*
X127953690Y-50485533D02*
X128001309Y-50628390D01*
X128001309Y-50628390D02*
X128572737Y-51199819D01*
X128572737Y-51199819D02*
X127953690Y-51199819D01*
X127525118Y-50533152D02*
X127525118Y-51533152D01*
X127525118Y-50580771D02*
X127429880Y-50533152D01*
X127429880Y-50533152D02*
X127239404Y-50533152D01*
X127239404Y-50533152D02*
X127144166Y-50580771D01*
X127144166Y-50580771D02*
X127096547Y-50628390D01*
X127096547Y-50628390D02*
X127048928Y-50723628D01*
X127048928Y-50723628D02*
X127048928Y-51009342D01*
X127048928Y-51009342D02*
X127096547Y-51104580D01*
X127096547Y-51104580D02*
X127144166Y-51152200D01*
X127144166Y-51152200D02*
X127239404Y-51199819D01*
X127239404Y-51199819D02*
X127429880Y-51199819D01*
X127429880Y-51199819D02*
X127525118Y-51152200D01*
X126763213Y-50533152D02*
X126382261Y-50533152D01*
X126620356Y-51199819D02*
X126620356Y-50342676D01*
X126620356Y-50342676D02*
X126572737Y-50247438D01*
X126572737Y-50247438D02*
X126477499Y-50199819D01*
X126477499Y-50199819D02*
X126382261Y-50199819D01*
X134982857Y-76094819D02*
X135316190Y-75618628D01*
X135554285Y-76094819D02*
X135554285Y-75094819D01*
X135554285Y-75094819D02*
X135173333Y-75094819D01*
X135173333Y-75094819D02*
X135078095Y-75142438D01*
X135078095Y-75142438D02*
X135030476Y-75190057D01*
X135030476Y-75190057D02*
X134982857Y-75285295D01*
X134982857Y-75285295D02*
X134982857Y-75428152D01*
X134982857Y-75428152D02*
X135030476Y-75523390D01*
X135030476Y-75523390D02*
X135078095Y-75571009D01*
X135078095Y-75571009D02*
X135173333Y-75618628D01*
X135173333Y-75618628D02*
X135554285Y-75618628D01*
X134649523Y-75094819D02*
X134030476Y-75094819D01*
X134030476Y-75094819D02*
X134363809Y-75475771D01*
X134363809Y-75475771D02*
X134220952Y-75475771D01*
X134220952Y-75475771D02*
X134125714Y-75523390D01*
X134125714Y-75523390D02*
X134078095Y-75571009D01*
X134078095Y-75571009D02*
X134030476Y-75666247D01*
X134030476Y-75666247D02*
X134030476Y-75904342D01*
X134030476Y-75904342D02*
X134078095Y-75999580D01*
X134078095Y-75999580D02*
X134125714Y-76047200D01*
X134125714Y-76047200D02*
X134220952Y-76094819D01*
X134220952Y-76094819D02*
X134506666Y-76094819D01*
X134506666Y-76094819D02*
X134601904Y-76047200D01*
X134601904Y-76047200D02*
X134649523Y-75999580D01*
X133697142Y-75094819D02*
X133030476Y-75094819D01*
X133030476Y-75094819D02*
X133459047Y-76094819D01*
X134554285Y-79754819D02*
X135125713Y-79754819D01*
X134839999Y-79754819D02*
X134839999Y-78754819D01*
X134839999Y-78754819D02*
X134935237Y-78897676D01*
X134935237Y-78897676D02*
X135030475Y-78992914D01*
X135030475Y-78992914D02*
X135125713Y-79040533D01*
X134125713Y-79754819D02*
X134125713Y-78754819D01*
X133554285Y-79754819D02*
X133982856Y-79183390D01*
X133554285Y-78754819D02*
X134125713Y-79326247D01*
X100607857Y-44894819D02*
X101084047Y-44894819D01*
X101084047Y-44894819D02*
X101084047Y-43894819D01*
X100322142Y-44847200D02*
X100179285Y-44894819D01*
X100179285Y-44894819D02*
X99941190Y-44894819D01*
X99941190Y-44894819D02*
X99845952Y-44847200D01*
X99845952Y-44847200D02*
X99798333Y-44799580D01*
X99798333Y-44799580D02*
X99750714Y-44704342D01*
X99750714Y-44704342D02*
X99750714Y-44609104D01*
X99750714Y-44609104D02*
X99798333Y-44513866D01*
X99798333Y-44513866D02*
X99845952Y-44466247D01*
X99845952Y-44466247D02*
X99941190Y-44418628D01*
X99941190Y-44418628D02*
X100131666Y-44371009D01*
X100131666Y-44371009D02*
X100226904Y-44323390D01*
X100226904Y-44323390D02*
X100274523Y-44275771D01*
X100274523Y-44275771D02*
X100322142Y-44180533D01*
X100322142Y-44180533D02*
X100322142Y-44085295D01*
X100322142Y-44085295D02*
X100274523Y-43990057D01*
X100274523Y-43990057D02*
X100226904Y-43942438D01*
X100226904Y-43942438D02*
X100131666Y-43894819D01*
X100131666Y-43894819D02*
X99893571Y-43894819D01*
X99893571Y-43894819D02*
X99750714Y-43942438D01*
X98798333Y-44894819D02*
X99369761Y-44894819D01*
X99084047Y-44894819D02*
X99084047Y-43894819D01*
X99084047Y-43894819D02*
X99179285Y-44037676D01*
X99179285Y-44037676D02*
X99274523Y-44132914D01*
X99274523Y-44132914D02*
X99369761Y-44180533D01*
X102726904Y-54847200D02*
X102584047Y-54894819D01*
X102584047Y-54894819D02*
X102345952Y-54894819D01*
X102345952Y-54894819D02*
X102250714Y-54847200D01*
X102250714Y-54847200D02*
X102203095Y-54799580D01*
X102203095Y-54799580D02*
X102155476Y-54704342D01*
X102155476Y-54704342D02*
X102155476Y-54609104D01*
X102155476Y-54609104D02*
X102203095Y-54513866D01*
X102203095Y-54513866D02*
X102250714Y-54466247D01*
X102250714Y-54466247D02*
X102345952Y-54418628D01*
X102345952Y-54418628D02*
X102536428Y-54371009D01*
X102536428Y-54371009D02*
X102631666Y-54323390D01*
X102631666Y-54323390D02*
X102679285Y-54275771D01*
X102679285Y-54275771D02*
X102726904Y-54180533D01*
X102726904Y-54180533D02*
X102726904Y-54085295D01*
X102726904Y-54085295D02*
X102679285Y-53990057D01*
X102679285Y-53990057D02*
X102631666Y-53942438D01*
X102631666Y-53942438D02*
X102536428Y-53894819D01*
X102536428Y-53894819D02*
X102298333Y-53894819D01*
X102298333Y-53894819D02*
X102155476Y-53942438D01*
X101726904Y-54228152D02*
X101726904Y-55228152D01*
X101726904Y-54275771D02*
X101631666Y-54228152D01*
X101631666Y-54228152D02*
X101441190Y-54228152D01*
X101441190Y-54228152D02*
X101345952Y-54275771D01*
X101345952Y-54275771D02*
X101298333Y-54323390D01*
X101298333Y-54323390D02*
X101250714Y-54418628D01*
X101250714Y-54418628D02*
X101250714Y-54704342D01*
X101250714Y-54704342D02*
X101298333Y-54799580D01*
X101298333Y-54799580D02*
X101345952Y-54847200D01*
X101345952Y-54847200D02*
X101441190Y-54894819D01*
X101441190Y-54894819D02*
X101631666Y-54894819D01*
X101631666Y-54894819D02*
X101726904Y-54847200D01*
X100441190Y-54847200D02*
X100536428Y-54894819D01*
X100536428Y-54894819D02*
X100726904Y-54894819D01*
X100726904Y-54894819D02*
X100822142Y-54847200D01*
X100822142Y-54847200D02*
X100869761Y-54751961D01*
X100869761Y-54751961D02*
X100869761Y-54371009D01*
X100869761Y-54371009D02*
X100822142Y-54275771D01*
X100822142Y-54275771D02*
X100726904Y-54228152D01*
X100726904Y-54228152D02*
X100536428Y-54228152D01*
X100536428Y-54228152D02*
X100441190Y-54275771D01*
X100441190Y-54275771D02*
X100393571Y-54371009D01*
X100393571Y-54371009D02*
X100393571Y-54466247D01*
X100393571Y-54466247D02*
X100869761Y-54561485D01*
X99536428Y-54894819D02*
X99536428Y-54371009D01*
X99536428Y-54371009D02*
X99584047Y-54275771D01*
X99584047Y-54275771D02*
X99679285Y-54228152D01*
X99679285Y-54228152D02*
X99869761Y-54228152D01*
X99869761Y-54228152D02*
X99964999Y-54275771D01*
X99536428Y-54847200D02*
X99631666Y-54894819D01*
X99631666Y-54894819D02*
X99869761Y-54894819D01*
X99869761Y-54894819D02*
X99964999Y-54847200D01*
X99964999Y-54847200D02*
X100012618Y-54751961D01*
X100012618Y-54751961D02*
X100012618Y-54656723D01*
X100012618Y-54656723D02*
X99964999Y-54561485D01*
X99964999Y-54561485D02*
X99869761Y-54513866D01*
X99869761Y-54513866D02*
X99631666Y-54513866D01*
X99631666Y-54513866D02*
X99536428Y-54466247D01*
X99060237Y-54894819D02*
X99060237Y-53894819D01*
X98964999Y-54513866D02*
X98679285Y-54894819D01*
X98679285Y-54228152D02*
X99060237Y-54609104D01*
X97869761Y-54847200D02*
X97964999Y-54894819D01*
X97964999Y-54894819D02*
X98155475Y-54894819D01*
X98155475Y-54894819D02*
X98250713Y-54847200D01*
X98250713Y-54847200D02*
X98298332Y-54751961D01*
X98298332Y-54751961D02*
X98298332Y-54371009D01*
X98298332Y-54371009D02*
X98250713Y-54275771D01*
X98250713Y-54275771D02*
X98155475Y-54228152D01*
X98155475Y-54228152D02*
X97964999Y-54228152D01*
X97964999Y-54228152D02*
X97869761Y-54275771D01*
X97869761Y-54275771D02*
X97822142Y-54371009D01*
X97822142Y-54371009D02*
X97822142Y-54466247D01*
X97822142Y-54466247D02*
X98298332Y-54561485D01*
X97393570Y-54894819D02*
X97393570Y-54228152D01*
X97393570Y-54418628D02*
X97345951Y-54323390D01*
X97345951Y-54323390D02*
X97298332Y-54275771D01*
X97298332Y-54275771D02*
X97203094Y-54228152D01*
X97203094Y-54228152D02*
X97107856Y-54228152D01*
D11*
X122681904Y-141697419D02*
X122681904Y-142506942D01*
X122681904Y-142506942D02*
X122634285Y-142602180D01*
X122634285Y-142602180D02*
X122586666Y-142649800D01*
X122586666Y-142649800D02*
X122491428Y-142697419D01*
X122491428Y-142697419D02*
X122300952Y-142697419D01*
X122300952Y-142697419D02*
X122205714Y-142649800D01*
X122205714Y-142649800D02*
X122158095Y-142602180D01*
X122158095Y-142602180D02*
X122110476Y-142506942D01*
X122110476Y-142506942D02*
X122110476Y-141697419D01*
X121491428Y-142125990D02*
X121586666Y-142078371D01*
X121586666Y-142078371D02*
X121634285Y-142030752D01*
X121634285Y-142030752D02*
X121681904Y-141935514D01*
X121681904Y-141935514D02*
X121681904Y-141887895D01*
X121681904Y-141887895D02*
X121634285Y-141792657D01*
X121634285Y-141792657D02*
X121586666Y-141745038D01*
X121586666Y-141745038D02*
X121491428Y-141697419D01*
X121491428Y-141697419D02*
X121300952Y-141697419D01*
X121300952Y-141697419D02*
X121205714Y-141745038D01*
X121205714Y-141745038D02*
X121158095Y-141792657D01*
X121158095Y-141792657D02*
X121110476Y-141887895D01*
X121110476Y-141887895D02*
X121110476Y-141935514D01*
X121110476Y-141935514D02*
X121158095Y-142030752D01*
X121158095Y-142030752D02*
X121205714Y-142078371D01*
X121205714Y-142078371D02*
X121300952Y-142125990D01*
X121300952Y-142125990D02*
X121491428Y-142125990D01*
X121491428Y-142125990D02*
X121586666Y-142173609D01*
X121586666Y-142173609D02*
X121634285Y-142221228D01*
X121634285Y-142221228D02*
X121681904Y-142316466D01*
X121681904Y-142316466D02*
X121681904Y-142506942D01*
X121681904Y-142506942D02*
X121634285Y-142602180D01*
X121634285Y-142602180D02*
X121586666Y-142649800D01*
X121586666Y-142649800D02*
X121491428Y-142697419D01*
X121491428Y-142697419D02*
X121300952Y-142697419D01*
X121300952Y-142697419D02*
X121205714Y-142649800D01*
X121205714Y-142649800D02*
X121158095Y-142602180D01*
X121158095Y-142602180D02*
X121110476Y-142506942D01*
X121110476Y-142506942D02*
X121110476Y-142316466D01*
X121110476Y-142316466D02*
X121158095Y-142221228D01*
X121158095Y-142221228D02*
X121205714Y-142173609D01*
X121205714Y-142173609D02*
X121300952Y-142125990D01*
D10*
X125181904Y-139789819D02*
X124515238Y-139789819D01*
X124515238Y-139789819D02*
X124943809Y-140789819D01*
X123705714Y-140123152D02*
X123705714Y-140789819D01*
X123943809Y-139742200D02*
X124181904Y-140456485D01*
X124181904Y-140456485D02*
X123562857Y-140456485D01*
X123181904Y-140789819D02*
X123181904Y-139789819D01*
X123181904Y-140266009D02*
X122610476Y-140266009D01*
X122610476Y-140789819D02*
X122610476Y-139789819D01*
X121562857Y-140694580D02*
X121610476Y-140742200D01*
X121610476Y-140742200D02*
X121753333Y-140789819D01*
X121753333Y-140789819D02*
X121848571Y-140789819D01*
X121848571Y-140789819D02*
X121991428Y-140742200D01*
X121991428Y-140742200D02*
X122086666Y-140646961D01*
X122086666Y-140646961D02*
X122134285Y-140551723D01*
X122134285Y-140551723D02*
X122181904Y-140361247D01*
X122181904Y-140361247D02*
X122181904Y-140218390D01*
X122181904Y-140218390D02*
X122134285Y-140027914D01*
X122134285Y-140027914D02*
X122086666Y-139932676D01*
X122086666Y-139932676D02*
X121991428Y-139837438D01*
X121991428Y-139837438D02*
X121848571Y-139789819D01*
X121848571Y-139789819D02*
X121753333Y-139789819D01*
X121753333Y-139789819D02*
X121610476Y-139837438D01*
X121610476Y-139837438D02*
X121562857Y-139885057D01*
X120658095Y-139789819D02*
X121134285Y-139789819D01*
X121134285Y-139789819D02*
X121181904Y-140266009D01*
X121181904Y-140266009D02*
X121134285Y-140218390D01*
X121134285Y-140218390D02*
X121039047Y-140170771D01*
X121039047Y-140170771D02*
X120800952Y-140170771D01*
X120800952Y-140170771D02*
X120705714Y-140218390D01*
X120705714Y-140218390D02*
X120658095Y-140266009D01*
X120658095Y-140266009D02*
X120610476Y-140361247D01*
X120610476Y-140361247D02*
X120610476Y-140599342D01*
X120610476Y-140599342D02*
X120658095Y-140694580D01*
X120658095Y-140694580D02*
X120705714Y-140742200D01*
X120705714Y-140742200D02*
X120800952Y-140789819D01*
X120800952Y-140789819D02*
X121039047Y-140789819D01*
X121039047Y-140789819D02*
X121134285Y-140742200D01*
X121134285Y-140742200D02*
X121181904Y-140694580D01*
X120134285Y-140789819D02*
X119943809Y-140789819D01*
X119943809Y-140789819D02*
X119848571Y-140742200D01*
X119848571Y-140742200D02*
X119800952Y-140694580D01*
X119800952Y-140694580D02*
X119705714Y-140551723D01*
X119705714Y-140551723D02*
X119658095Y-140361247D01*
X119658095Y-140361247D02*
X119658095Y-139980295D01*
X119658095Y-139980295D02*
X119705714Y-139885057D01*
X119705714Y-139885057D02*
X119753333Y-139837438D01*
X119753333Y-139837438D02*
X119848571Y-139789819D01*
X119848571Y-139789819D02*
X120039047Y-139789819D01*
X120039047Y-139789819D02*
X120134285Y-139837438D01*
X120134285Y-139837438D02*
X120181904Y-139885057D01*
X120181904Y-139885057D02*
X120229523Y-139980295D01*
X120229523Y-139980295D02*
X120229523Y-140218390D01*
X120229523Y-140218390D02*
X120181904Y-140313628D01*
X120181904Y-140313628D02*
X120134285Y-140361247D01*
X120134285Y-140361247D02*
X120039047Y-140408866D01*
X120039047Y-140408866D02*
X119848571Y-140408866D01*
X119848571Y-140408866D02*
X119753333Y-140361247D01*
X119753333Y-140361247D02*
X119705714Y-140313628D01*
X119705714Y-140313628D02*
X119658095Y-140218390D01*
X118753333Y-139789819D02*
X119229523Y-139789819D01*
X119229523Y-139789819D02*
X119277142Y-140266009D01*
X119277142Y-140266009D02*
X119229523Y-140218390D01*
X119229523Y-140218390D02*
X119134285Y-140170771D01*
X119134285Y-140170771D02*
X118896190Y-140170771D01*
X118896190Y-140170771D02*
X118800952Y-140218390D01*
X118800952Y-140218390D02*
X118753333Y-140266009D01*
X118753333Y-140266009D02*
X118705714Y-140361247D01*
X118705714Y-140361247D02*
X118705714Y-140599342D01*
X118705714Y-140599342D02*
X118753333Y-140694580D01*
X118753333Y-140694580D02*
X118800952Y-140742200D01*
X118800952Y-140742200D02*
X118896190Y-140789819D01*
X118896190Y-140789819D02*
X119134285Y-140789819D01*
X119134285Y-140789819D02*
X119229523Y-140742200D01*
X119229523Y-140742200D02*
X119277142Y-140694580D01*
X83079819Y-106793333D02*
X82603628Y-106460000D01*
X83079819Y-106221905D02*
X82079819Y-106221905D01*
X82079819Y-106221905D02*
X82079819Y-106602857D01*
X82079819Y-106602857D02*
X82127438Y-106698095D01*
X82127438Y-106698095D02*
X82175057Y-106745714D01*
X82175057Y-106745714D02*
X82270295Y-106793333D01*
X82270295Y-106793333D02*
X82413152Y-106793333D01*
X82413152Y-106793333D02*
X82508390Y-106745714D01*
X82508390Y-106745714D02*
X82556009Y-106698095D01*
X82556009Y-106698095D02*
X82603628Y-106602857D01*
X82603628Y-106602857D02*
X82603628Y-106221905D01*
X82175057Y-107174286D02*
X82127438Y-107221905D01*
X82127438Y-107221905D02*
X82079819Y-107317143D01*
X82079819Y-107317143D02*
X82079819Y-107555238D01*
X82079819Y-107555238D02*
X82127438Y-107650476D01*
X82127438Y-107650476D02*
X82175057Y-107698095D01*
X82175057Y-107698095D02*
X82270295Y-107745714D01*
X82270295Y-107745714D02*
X82365533Y-107745714D01*
X82365533Y-107745714D02*
X82508390Y-107698095D01*
X82508390Y-107698095D02*
X83079819Y-107126667D01*
X83079819Y-107126667D02*
X83079819Y-107745714D01*
X86739819Y-106745714D02*
X86739819Y-106174286D01*
X86739819Y-106460000D02*
X85739819Y-106460000D01*
X85739819Y-106460000D02*
X85882676Y-106364762D01*
X85882676Y-106364762D02*
X85977914Y-106269524D01*
X85977914Y-106269524D02*
X86025533Y-106174286D01*
X86739819Y-107174286D02*
X85739819Y-107174286D01*
X86739819Y-107745714D02*
X86168390Y-107317143D01*
X85739819Y-107745714D02*
X86311247Y-107174286D01*
X65299819Y-136638333D02*
X64823628Y-136305000D01*
X65299819Y-136066905D02*
X64299819Y-136066905D01*
X64299819Y-136066905D02*
X64299819Y-136447857D01*
X64299819Y-136447857D02*
X64347438Y-136543095D01*
X64347438Y-136543095D02*
X64395057Y-136590714D01*
X64395057Y-136590714D02*
X64490295Y-136638333D01*
X64490295Y-136638333D02*
X64633152Y-136638333D01*
X64633152Y-136638333D02*
X64728390Y-136590714D01*
X64728390Y-136590714D02*
X64776009Y-136543095D01*
X64776009Y-136543095D02*
X64823628Y-136447857D01*
X64823628Y-136447857D02*
X64823628Y-136066905D01*
X65299819Y-137114524D02*
X65299819Y-137305000D01*
X65299819Y-137305000D02*
X65252200Y-137400238D01*
X65252200Y-137400238D02*
X65204580Y-137447857D01*
X65204580Y-137447857D02*
X65061723Y-137543095D01*
X65061723Y-137543095D02*
X64871247Y-137590714D01*
X64871247Y-137590714D02*
X64490295Y-137590714D01*
X64490295Y-137590714D02*
X64395057Y-137543095D01*
X64395057Y-137543095D02*
X64347438Y-137495476D01*
X64347438Y-137495476D02*
X64299819Y-137400238D01*
X64299819Y-137400238D02*
X64299819Y-137209762D01*
X64299819Y-137209762D02*
X64347438Y-137114524D01*
X64347438Y-137114524D02*
X64395057Y-137066905D01*
X64395057Y-137066905D02*
X64490295Y-137019286D01*
X64490295Y-137019286D02*
X64728390Y-137019286D01*
X64728390Y-137019286D02*
X64823628Y-137066905D01*
X64823628Y-137066905D02*
X64871247Y-137114524D01*
X64871247Y-137114524D02*
X64918866Y-137209762D01*
X64918866Y-137209762D02*
X64918866Y-137400238D01*
X64918866Y-137400238D02*
X64871247Y-137495476D01*
X64871247Y-137495476D02*
X64823628Y-137543095D01*
X64823628Y-137543095D02*
X64728390Y-137590714D01*
X68959819Y-136590714D02*
X68959819Y-136019286D01*
X68959819Y-136305000D02*
X67959819Y-136305000D01*
X67959819Y-136305000D02*
X68102676Y-136209762D01*
X68102676Y-136209762D02*
X68197914Y-136114524D01*
X68197914Y-136114524D02*
X68245533Y-136019286D01*
X68959819Y-137019286D02*
X67959819Y-137019286D01*
X68959819Y-137590714D02*
X68388390Y-137162143D01*
X67959819Y-137590714D02*
X68531247Y-137019286D01*
X152127857Y-75459819D02*
X152461190Y-74983628D01*
X152699285Y-75459819D02*
X152699285Y-74459819D01*
X152699285Y-74459819D02*
X152318333Y-74459819D01*
X152318333Y-74459819D02*
X152223095Y-74507438D01*
X152223095Y-74507438D02*
X152175476Y-74555057D01*
X152175476Y-74555057D02*
X152127857Y-74650295D01*
X152127857Y-74650295D02*
X152127857Y-74793152D01*
X152127857Y-74793152D02*
X152175476Y-74888390D01*
X152175476Y-74888390D02*
X152223095Y-74936009D01*
X152223095Y-74936009D02*
X152318333Y-74983628D01*
X152318333Y-74983628D02*
X152699285Y-74983628D01*
X151270714Y-74793152D02*
X151270714Y-75459819D01*
X151508809Y-74412200D02*
X151746904Y-75126485D01*
X151746904Y-75126485D02*
X151127857Y-75126485D01*
X150842142Y-74459819D02*
X150175476Y-74459819D01*
X150175476Y-74459819D02*
X150604047Y-75459819D01*
X151699285Y-79119819D02*
X152270713Y-79119819D01*
X151984999Y-79119819D02*
X151984999Y-78119819D01*
X151984999Y-78119819D02*
X152080237Y-78262676D01*
X152080237Y-78262676D02*
X152175475Y-78357914D01*
X152175475Y-78357914D02*
X152270713Y-78405533D01*
X151270713Y-79119819D02*
X151270713Y-78119819D01*
X150699285Y-79119819D02*
X151127856Y-78548390D01*
X150699285Y-78119819D02*
X151270713Y-78691247D01*
X135149819Y-106793333D02*
X134673628Y-106460000D01*
X135149819Y-106221905D02*
X134149819Y-106221905D01*
X134149819Y-106221905D02*
X134149819Y-106602857D01*
X134149819Y-106602857D02*
X134197438Y-106698095D01*
X134197438Y-106698095D02*
X134245057Y-106745714D01*
X134245057Y-106745714D02*
X134340295Y-106793333D01*
X134340295Y-106793333D02*
X134483152Y-106793333D01*
X134483152Y-106793333D02*
X134578390Y-106745714D01*
X134578390Y-106745714D02*
X134626009Y-106698095D01*
X134626009Y-106698095D02*
X134673628Y-106602857D01*
X134673628Y-106602857D02*
X134673628Y-106221905D01*
X134149819Y-107698095D02*
X134149819Y-107221905D01*
X134149819Y-107221905D02*
X134626009Y-107174286D01*
X134626009Y-107174286D02*
X134578390Y-107221905D01*
X134578390Y-107221905D02*
X134530771Y-107317143D01*
X134530771Y-107317143D02*
X134530771Y-107555238D01*
X134530771Y-107555238D02*
X134578390Y-107650476D01*
X134578390Y-107650476D02*
X134626009Y-107698095D01*
X134626009Y-107698095D02*
X134721247Y-107745714D01*
X134721247Y-107745714D02*
X134959342Y-107745714D01*
X134959342Y-107745714D02*
X135054580Y-107698095D01*
X135054580Y-107698095D02*
X135102200Y-107650476D01*
X135102200Y-107650476D02*
X135149819Y-107555238D01*
X135149819Y-107555238D02*
X135149819Y-107317143D01*
X135149819Y-107317143D02*
X135102200Y-107221905D01*
X135102200Y-107221905D02*
X135054580Y-107174286D01*
X138809819Y-106745714D02*
X138809819Y-106174286D01*
X138809819Y-106460000D02*
X137809819Y-106460000D01*
X137809819Y-106460000D02*
X137952676Y-106364762D01*
X137952676Y-106364762D02*
X138047914Y-106269524D01*
X138047914Y-106269524D02*
X138095533Y-106174286D01*
X138809819Y-107174286D02*
X137809819Y-107174286D01*
X138809819Y-107745714D02*
X138238390Y-107317143D01*
X137809819Y-107745714D02*
X138381247Y-107174286D01*
X110869819Y-106317142D02*
X110393628Y-105983809D01*
X110869819Y-105745714D02*
X109869819Y-105745714D01*
X109869819Y-105745714D02*
X109869819Y-106126666D01*
X109869819Y-106126666D02*
X109917438Y-106221904D01*
X109917438Y-106221904D02*
X109965057Y-106269523D01*
X109965057Y-106269523D02*
X110060295Y-106317142D01*
X110060295Y-106317142D02*
X110203152Y-106317142D01*
X110203152Y-106317142D02*
X110298390Y-106269523D01*
X110298390Y-106269523D02*
X110346009Y-106221904D01*
X110346009Y-106221904D02*
X110393628Y-106126666D01*
X110393628Y-106126666D02*
X110393628Y-105745714D01*
X109965057Y-106698095D02*
X109917438Y-106745714D01*
X109917438Y-106745714D02*
X109869819Y-106840952D01*
X109869819Y-106840952D02*
X109869819Y-107079047D01*
X109869819Y-107079047D02*
X109917438Y-107174285D01*
X109917438Y-107174285D02*
X109965057Y-107221904D01*
X109965057Y-107221904D02*
X110060295Y-107269523D01*
X110060295Y-107269523D02*
X110155533Y-107269523D01*
X110155533Y-107269523D02*
X110298390Y-107221904D01*
X110298390Y-107221904D02*
X110869819Y-106650476D01*
X110869819Y-106650476D02*
X110869819Y-107269523D01*
X109869819Y-107888571D02*
X109869819Y-107983809D01*
X109869819Y-107983809D02*
X109917438Y-108079047D01*
X109917438Y-108079047D02*
X109965057Y-108126666D01*
X109965057Y-108126666D02*
X110060295Y-108174285D01*
X110060295Y-108174285D02*
X110250771Y-108221904D01*
X110250771Y-108221904D02*
X110488866Y-108221904D01*
X110488866Y-108221904D02*
X110679342Y-108174285D01*
X110679342Y-108174285D02*
X110774580Y-108126666D01*
X110774580Y-108126666D02*
X110822200Y-108079047D01*
X110822200Y-108079047D02*
X110869819Y-107983809D01*
X110869819Y-107983809D02*
X110869819Y-107888571D01*
X110869819Y-107888571D02*
X110822200Y-107793333D01*
X110822200Y-107793333D02*
X110774580Y-107745714D01*
X110774580Y-107745714D02*
X110679342Y-107698095D01*
X110679342Y-107698095D02*
X110488866Y-107650476D01*
X110488866Y-107650476D02*
X110250771Y-107650476D01*
X110250771Y-107650476D02*
X110060295Y-107698095D01*
X110060295Y-107698095D02*
X109965057Y-107745714D01*
X109965057Y-107745714D02*
X109917438Y-107793333D01*
X109917438Y-107793333D02*
X109869819Y-107888571D01*
X107209819Y-106269523D02*
X107209819Y-105698095D01*
X107209819Y-105983809D02*
X106209819Y-105983809D01*
X106209819Y-105983809D02*
X106352676Y-105888571D01*
X106352676Y-105888571D02*
X106447914Y-105793333D01*
X106447914Y-105793333D02*
X106495533Y-105698095D01*
X106209819Y-106888571D02*
X106209819Y-106983809D01*
X106209819Y-106983809D02*
X106257438Y-107079047D01*
X106257438Y-107079047D02*
X106305057Y-107126666D01*
X106305057Y-107126666D02*
X106400295Y-107174285D01*
X106400295Y-107174285D02*
X106590771Y-107221904D01*
X106590771Y-107221904D02*
X106828866Y-107221904D01*
X106828866Y-107221904D02*
X107019342Y-107174285D01*
X107019342Y-107174285D02*
X107114580Y-107126666D01*
X107114580Y-107126666D02*
X107162200Y-107079047D01*
X107162200Y-107079047D02*
X107209819Y-106983809D01*
X107209819Y-106983809D02*
X107209819Y-106888571D01*
X107209819Y-106888571D02*
X107162200Y-106793333D01*
X107162200Y-106793333D02*
X107114580Y-106745714D01*
X107114580Y-106745714D02*
X107019342Y-106698095D01*
X107019342Y-106698095D02*
X106828866Y-106650476D01*
X106828866Y-106650476D02*
X106590771Y-106650476D01*
X106590771Y-106650476D02*
X106400295Y-106698095D01*
X106400295Y-106698095D02*
X106305057Y-106745714D01*
X106305057Y-106745714D02*
X106257438Y-106793333D01*
X106257438Y-106793333D02*
X106209819Y-106888571D01*
X107209819Y-107650476D02*
X106209819Y-107650476D01*
X107209819Y-108221904D02*
X106638390Y-107793333D01*
X106209819Y-108221904D02*
X106781247Y-107650476D01*
X136252857Y-90064819D02*
X136586190Y-89588628D01*
X136824285Y-90064819D02*
X136824285Y-89064819D01*
X136824285Y-89064819D02*
X136443333Y-89064819D01*
X136443333Y-89064819D02*
X136348095Y-89112438D01*
X136348095Y-89112438D02*
X136300476Y-89160057D01*
X136300476Y-89160057D02*
X136252857Y-89255295D01*
X136252857Y-89255295D02*
X136252857Y-89398152D01*
X136252857Y-89398152D02*
X136300476Y-89493390D01*
X136300476Y-89493390D02*
X136348095Y-89541009D01*
X136348095Y-89541009D02*
X136443333Y-89588628D01*
X136443333Y-89588628D02*
X136824285Y-89588628D01*
X135919523Y-89064819D02*
X135300476Y-89064819D01*
X135300476Y-89064819D02*
X135633809Y-89445771D01*
X135633809Y-89445771D02*
X135490952Y-89445771D01*
X135490952Y-89445771D02*
X135395714Y-89493390D01*
X135395714Y-89493390D02*
X135348095Y-89541009D01*
X135348095Y-89541009D02*
X135300476Y-89636247D01*
X135300476Y-89636247D02*
X135300476Y-89874342D01*
X135300476Y-89874342D02*
X135348095Y-89969580D01*
X135348095Y-89969580D02*
X135395714Y-90017200D01*
X135395714Y-90017200D02*
X135490952Y-90064819D01*
X135490952Y-90064819D02*
X135776666Y-90064819D01*
X135776666Y-90064819D02*
X135871904Y-90017200D01*
X135871904Y-90017200D02*
X135919523Y-89969580D01*
X134729047Y-89493390D02*
X134824285Y-89445771D01*
X134824285Y-89445771D02*
X134871904Y-89398152D01*
X134871904Y-89398152D02*
X134919523Y-89302914D01*
X134919523Y-89302914D02*
X134919523Y-89255295D01*
X134919523Y-89255295D02*
X134871904Y-89160057D01*
X134871904Y-89160057D02*
X134824285Y-89112438D01*
X134824285Y-89112438D02*
X134729047Y-89064819D01*
X134729047Y-89064819D02*
X134538571Y-89064819D01*
X134538571Y-89064819D02*
X134443333Y-89112438D01*
X134443333Y-89112438D02*
X134395714Y-89160057D01*
X134395714Y-89160057D02*
X134348095Y-89255295D01*
X134348095Y-89255295D02*
X134348095Y-89302914D01*
X134348095Y-89302914D02*
X134395714Y-89398152D01*
X134395714Y-89398152D02*
X134443333Y-89445771D01*
X134443333Y-89445771D02*
X134538571Y-89493390D01*
X134538571Y-89493390D02*
X134729047Y-89493390D01*
X134729047Y-89493390D02*
X134824285Y-89541009D01*
X134824285Y-89541009D02*
X134871904Y-89588628D01*
X134871904Y-89588628D02*
X134919523Y-89683866D01*
X134919523Y-89683866D02*
X134919523Y-89874342D01*
X134919523Y-89874342D02*
X134871904Y-89969580D01*
X134871904Y-89969580D02*
X134824285Y-90017200D01*
X134824285Y-90017200D02*
X134729047Y-90064819D01*
X134729047Y-90064819D02*
X134538571Y-90064819D01*
X134538571Y-90064819D02*
X134443333Y-90017200D01*
X134443333Y-90017200D02*
X134395714Y-89969580D01*
X134395714Y-89969580D02*
X134348095Y-89874342D01*
X134348095Y-89874342D02*
X134348095Y-89683866D01*
X134348095Y-89683866D02*
X134395714Y-89588628D01*
X134395714Y-89588628D02*
X134443333Y-89541009D01*
X134443333Y-89541009D02*
X134538571Y-89493390D01*
X135824285Y-93724819D02*
X136395713Y-93724819D01*
X136109999Y-93724819D02*
X136109999Y-92724819D01*
X136109999Y-92724819D02*
X136205237Y-92867676D01*
X136205237Y-92867676D02*
X136300475Y-92962914D01*
X136300475Y-92962914D02*
X136395713Y-93010533D01*
X135395713Y-93724819D02*
X135395713Y-92724819D01*
X134824285Y-93724819D02*
X135252856Y-93153390D01*
X134824285Y-92724819D02*
X135395713Y-93296247D01*
D11*
X165642580Y-85216904D02*
X164833057Y-85216904D01*
X164833057Y-85216904D02*
X164737819Y-85169285D01*
X164737819Y-85169285D02*
X164690200Y-85121666D01*
X164690200Y-85121666D02*
X164642580Y-85026428D01*
X164642580Y-85026428D02*
X164642580Y-84835952D01*
X164642580Y-84835952D02*
X164690200Y-84740714D01*
X164690200Y-84740714D02*
X164737819Y-84693095D01*
X164737819Y-84693095D02*
X164833057Y-84645476D01*
X164833057Y-84645476D02*
X165642580Y-84645476D01*
X165642580Y-83693095D02*
X165642580Y-84169285D01*
X165642580Y-84169285D02*
X165166390Y-84216904D01*
X165166390Y-84216904D02*
X165214009Y-84169285D01*
X165214009Y-84169285D02*
X165261628Y-84074047D01*
X165261628Y-84074047D02*
X165261628Y-83835952D01*
X165261628Y-83835952D02*
X165214009Y-83740714D01*
X165214009Y-83740714D02*
X165166390Y-83693095D01*
X165166390Y-83693095D02*
X165071152Y-83645476D01*
X165071152Y-83645476D02*
X164833057Y-83645476D01*
X164833057Y-83645476D02*
X164737819Y-83693095D01*
X164737819Y-83693095D02*
X164690200Y-83740714D01*
X164690200Y-83740714D02*
X164642580Y-83835952D01*
X164642580Y-83835952D02*
X164642580Y-84074047D01*
X164642580Y-84074047D02*
X164690200Y-84169285D01*
X164690200Y-84169285D02*
X164737819Y-84216904D01*
D10*
X167550180Y-87716904D02*
X167550180Y-87050238D01*
X167550180Y-87050238D02*
X166550180Y-87478809D01*
X167216847Y-86240714D02*
X166550180Y-86240714D01*
X167597800Y-86478809D02*
X166883514Y-86716904D01*
X166883514Y-86716904D02*
X166883514Y-86097857D01*
X166550180Y-85716904D02*
X167550180Y-85716904D01*
X167073990Y-85716904D02*
X167073990Y-85145476D01*
X166550180Y-85145476D02*
X167550180Y-85145476D01*
X166645419Y-84097857D02*
X166597800Y-84145476D01*
X166597800Y-84145476D02*
X166550180Y-84288333D01*
X166550180Y-84288333D02*
X166550180Y-84383571D01*
X166550180Y-84383571D02*
X166597800Y-84526428D01*
X166597800Y-84526428D02*
X166693038Y-84621666D01*
X166693038Y-84621666D02*
X166788276Y-84669285D01*
X166788276Y-84669285D02*
X166978752Y-84716904D01*
X166978752Y-84716904D02*
X167121609Y-84716904D01*
X167121609Y-84716904D02*
X167312085Y-84669285D01*
X167312085Y-84669285D02*
X167407323Y-84621666D01*
X167407323Y-84621666D02*
X167502561Y-84526428D01*
X167502561Y-84526428D02*
X167550180Y-84383571D01*
X167550180Y-84383571D02*
X167550180Y-84288333D01*
X167550180Y-84288333D02*
X167502561Y-84145476D01*
X167502561Y-84145476D02*
X167454942Y-84097857D01*
X167550180Y-83193095D02*
X167550180Y-83669285D01*
X167550180Y-83669285D02*
X167073990Y-83716904D01*
X167073990Y-83716904D02*
X167121609Y-83669285D01*
X167121609Y-83669285D02*
X167169228Y-83574047D01*
X167169228Y-83574047D02*
X167169228Y-83335952D01*
X167169228Y-83335952D02*
X167121609Y-83240714D01*
X167121609Y-83240714D02*
X167073990Y-83193095D01*
X167073990Y-83193095D02*
X166978752Y-83145476D01*
X166978752Y-83145476D02*
X166740657Y-83145476D01*
X166740657Y-83145476D02*
X166645419Y-83193095D01*
X166645419Y-83193095D02*
X166597800Y-83240714D01*
X166597800Y-83240714D02*
X166550180Y-83335952D01*
X166550180Y-83335952D02*
X166550180Y-83574047D01*
X166550180Y-83574047D02*
X166597800Y-83669285D01*
X166597800Y-83669285D02*
X166645419Y-83716904D01*
X166550180Y-82669285D02*
X166550180Y-82478809D01*
X166550180Y-82478809D02*
X166597800Y-82383571D01*
X166597800Y-82383571D02*
X166645419Y-82335952D01*
X166645419Y-82335952D02*
X166788276Y-82240714D01*
X166788276Y-82240714D02*
X166978752Y-82193095D01*
X166978752Y-82193095D02*
X167359704Y-82193095D01*
X167359704Y-82193095D02*
X167454942Y-82240714D01*
X167454942Y-82240714D02*
X167502561Y-82288333D01*
X167502561Y-82288333D02*
X167550180Y-82383571D01*
X167550180Y-82383571D02*
X167550180Y-82574047D01*
X167550180Y-82574047D02*
X167502561Y-82669285D01*
X167502561Y-82669285D02*
X167454942Y-82716904D01*
X167454942Y-82716904D02*
X167359704Y-82764523D01*
X167359704Y-82764523D02*
X167121609Y-82764523D01*
X167121609Y-82764523D02*
X167026371Y-82716904D01*
X167026371Y-82716904D02*
X166978752Y-82669285D01*
X166978752Y-82669285D02*
X166931133Y-82574047D01*
X166931133Y-82574047D02*
X166931133Y-82383571D01*
X166931133Y-82383571D02*
X166978752Y-82288333D01*
X166978752Y-82288333D02*
X167026371Y-82240714D01*
X167026371Y-82240714D02*
X167121609Y-82193095D01*
X167550180Y-81288333D02*
X167550180Y-81764523D01*
X167550180Y-81764523D02*
X167073990Y-81812142D01*
X167073990Y-81812142D02*
X167121609Y-81764523D01*
X167121609Y-81764523D02*
X167169228Y-81669285D01*
X167169228Y-81669285D02*
X167169228Y-81431190D01*
X167169228Y-81431190D02*
X167121609Y-81335952D01*
X167121609Y-81335952D02*
X167073990Y-81288333D01*
X167073990Y-81288333D02*
X166978752Y-81240714D01*
X166978752Y-81240714D02*
X166740657Y-81240714D01*
X166740657Y-81240714D02*
X166645419Y-81288333D01*
X166645419Y-81288333D02*
X166597800Y-81335952D01*
X166597800Y-81335952D02*
X166550180Y-81431190D01*
X166550180Y-81431190D02*
X166550180Y-81669285D01*
X166550180Y-81669285D02*
X166597800Y-81764523D01*
X166597800Y-81764523D02*
X166645419Y-81812142D01*
D11*
X76803094Y-66434419D02*
X76803094Y-67243942D01*
X76803094Y-67243942D02*
X76755475Y-67339180D01*
X76755475Y-67339180D02*
X76707856Y-67386800D01*
X76707856Y-67386800D02*
X76612618Y-67434419D01*
X76612618Y-67434419D02*
X76422142Y-67434419D01*
X76422142Y-67434419D02*
X76326904Y-67386800D01*
X76326904Y-67386800D02*
X76279285Y-67339180D01*
X76279285Y-67339180D02*
X76231666Y-67243942D01*
X76231666Y-67243942D02*
X76231666Y-66434419D01*
X75231666Y-67434419D02*
X75803094Y-67434419D01*
X75517380Y-67434419D02*
X75517380Y-66434419D01*
X75517380Y-66434419D02*
X75612618Y-66577276D01*
X75612618Y-66577276D02*
X75707856Y-66672514D01*
X75707856Y-66672514D02*
X75803094Y-66720133D01*
X74279285Y-67434419D02*
X74850713Y-67434419D01*
X74564999Y-67434419D02*
X74564999Y-66434419D01*
X74564999Y-66434419D02*
X74660237Y-66577276D01*
X74660237Y-66577276D02*
X74755475Y-66672514D01*
X74755475Y-66672514D02*
X74850713Y-66720133D01*
D10*
X58164819Y-106317142D02*
X57688628Y-105983809D01*
X58164819Y-105745714D02*
X57164819Y-105745714D01*
X57164819Y-105745714D02*
X57164819Y-106126666D01*
X57164819Y-106126666D02*
X57212438Y-106221904D01*
X57212438Y-106221904D02*
X57260057Y-106269523D01*
X57260057Y-106269523D02*
X57355295Y-106317142D01*
X57355295Y-106317142D02*
X57498152Y-106317142D01*
X57498152Y-106317142D02*
X57593390Y-106269523D01*
X57593390Y-106269523D02*
X57641009Y-106221904D01*
X57641009Y-106221904D02*
X57688628Y-106126666D01*
X57688628Y-106126666D02*
X57688628Y-105745714D01*
X58164819Y-107269523D02*
X58164819Y-106698095D01*
X58164819Y-106983809D02*
X57164819Y-106983809D01*
X57164819Y-106983809D02*
X57307676Y-106888571D01*
X57307676Y-106888571D02*
X57402914Y-106793333D01*
X57402914Y-106793333D02*
X57450533Y-106698095D01*
X57164819Y-107602857D02*
X57164819Y-108269523D01*
X57164819Y-108269523D02*
X58164819Y-107840952D01*
X54504819Y-106269523D02*
X54504819Y-105698095D01*
X54504819Y-105983809D02*
X53504819Y-105983809D01*
X53504819Y-105983809D02*
X53647676Y-105888571D01*
X53647676Y-105888571D02*
X53742914Y-105793333D01*
X53742914Y-105793333D02*
X53790533Y-105698095D01*
X53504819Y-106888571D02*
X53504819Y-106983809D01*
X53504819Y-106983809D02*
X53552438Y-107079047D01*
X53552438Y-107079047D02*
X53600057Y-107126666D01*
X53600057Y-107126666D02*
X53695295Y-107174285D01*
X53695295Y-107174285D02*
X53885771Y-107221904D01*
X53885771Y-107221904D02*
X54123866Y-107221904D01*
X54123866Y-107221904D02*
X54314342Y-107174285D01*
X54314342Y-107174285D02*
X54409580Y-107126666D01*
X54409580Y-107126666D02*
X54457200Y-107079047D01*
X54457200Y-107079047D02*
X54504819Y-106983809D01*
X54504819Y-106983809D02*
X54504819Y-106888571D01*
X54504819Y-106888571D02*
X54457200Y-106793333D01*
X54457200Y-106793333D02*
X54409580Y-106745714D01*
X54409580Y-106745714D02*
X54314342Y-106698095D01*
X54314342Y-106698095D02*
X54123866Y-106650476D01*
X54123866Y-106650476D02*
X53885771Y-106650476D01*
X53885771Y-106650476D02*
X53695295Y-106698095D01*
X53695295Y-106698095D02*
X53600057Y-106745714D01*
X53600057Y-106745714D02*
X53552438Y-106793333D01*
X53552438Y-106793333D02*
X53504819Y-106888571D01*
X54504819Y-107650476D02*
X53504819Y-107650476D01*
X54504819Y-108221904D02*
X53933390Y-107793333D01*
X53504819Y-108221904D02*
X54076247Y-107650476D01*
X129267857Y-90064819D02*
X129601190Y-89588628D01*
X129839285Y-90064819D02*
X129839285Y-89064819D01*
X129839285Y-89064819D02*
X129458333Y-89064819D01*
X129458333Y-89064819D02*
X129363095Y-89112438D01*
X129363095Y-89112438D02*
X129315476Y-89160057D01*
X129315476Y-89160057D02*
X129267857Y-89255295D01*
X129267857Y-89255295D02*
X129267857Y-89398152D01*
X129267857Y-89398152D02*
X129315476Y-89493390D01*
X129315476Y-89493390D02*
X129363095Y-89541009D01*
X129363095Y-89541009D02*
X129458333Y-89588628D01*
X129458333Y-89588628D02*
X129839285Y-89588628D01*
X128934523Y-89064819D02*
X128315476Y-89064819D01*
X128315476Y-89064819D02*
X128648809Y-89445771D01*
X128648809Y-89445771D02*
X128505952Y-89445771D01*
X128505952Y-89445771D02*
X128410714Y-89493390D01*
X128410714Y-89493390D02*
X128363095Y-89541009D01*
X128363095Y-89541009D02*
X128315476Y-89636247D01*
X128315476Y-89636247D02*
X128315476Y-89874342D01*
X128315476Y-89874342D02*
X128363095Y-89969580D01*
X128363095Y-89969580D02*
X128410714Y-90017200D01*
X128410714Y-90017200D02*
X128505952Y-90064819D01*
X128505952Y-90064819D02*
X128791666Y-90064819D01*
X128791666Y-90064819D02*
X128886904Y-90017200D01*
X128886904Y-90017200D02*
X128934523Y-89969580D01*
X127410714Y-89064819D02*
X127886904Y-89064819D01*
X127886904Y-89064819D02*
X127934523Y-89541009D01*
X127934523Y-89541009D02*
X127886904Y-89493390D01*
X127886904Y-89493390D02*
X127791666Y-89445771D01*
X127791666Y-89445771D02*
X127553571Y-89445771D01*
X127553571Y-89445771D02*
X127458333Y-89493390D01*
X127458333Y-89493390D02*
X127410714Y-89541009D01*
X127410714Y-89541009D02*
X127363095Y-89636247D01*
X127363095Y-89636247D02*
X127363095Y-89874342D01*
X127363095Y-89874342D02*
X127410714Y-89969580D01*
X127410714Y-89969580D02*
X127458333Y-90017200D01*
X127458333Y-90017200D02*
X127553571Y-90064819D01*
X127553571Y-90064819D02*
X127791666Y-90064819D01*
X127791666Y-90064819D02*
X127886904Y-90017200D01*
X127886904Y-90017200D02*
X127934523Y-89969580D01*
X128839285Y-93724819D02*
X129410713Y-93724819D01*
X129124999Y-93724819D02*
X129124999Y-92724819D01*
X129124999Y-92724819D02*
X129220237Y-92867676D01*
X129220237Y-92867676D02*
X129315475Y-92962914D01*
X129315475Y-92962914D02*
X129410713Y-93010533D01*
X128410713Y-93724819D02*
X128410713Y-92724819D01*
X127839285Y-93724819D02*
X128267856Y-93153390D01*
X127839285Y-92724819D02*
X128410713Y-93296247D01*
X75944819Y-106317142D02*
X75468628Y-105983809D01*
X75944819Y-105745714D02*
X74944819Y-105745714D01*
X74944819Y-105745714D02*
X74944819Y-106126666D01*
X74944819Y-106126666D02*
X74992438Y-106221904D01*
X74992438Y-106221904D02*
X75040057Y-106269523D01*
X75040057Y-106269523D02*
X75135295Y-106317142D01*
X75135295Y-106317142D02*
X75278152Y-106317142D01*
X75278152Y-106317142D02*
X75373390Y-106269523D01*
X75373390Y-106269523D02*
X75421009Y-106221904D01*
X75421009Y-106221904D02*
X75468628Y-106126666D01*
X75468628Y-106126666D02*
X75468628Y-105745714D01*
X75944819Y-107269523D02*
X75944819Y-106698095D01*
X75944819Y-106983809D02*
X74944819Y-106983809D01*
X74944819Y-106983809D02*
X75087676Y-106888571D01*
X75087676Y-106888571D02*
X75182914Y-106793333D01*
X75182914Y-106793333D02*
X75230533Y-106698095D01*
X75373390Y-107840952D02*
X75325771Y-107745714D01*
X75325771Y-107745714D02*
X75278152Y-107698095D01*
X75278152Y-107698095D02*
X75182914Y-107650476D01*
X75182914Y-107650476D02*
X75135295Y-107650476D01*
X75135295Y-107650476D02*
X75040057Y-107698095D01*
X75040057Y-107698095D02*
X74992438Y-107745714D01*
X74992438Y-107745714D02*
X74944819Y-107840952D01*
X74944819Y-107840952D02*
X74944819Y-108031428D01*
X74944819Y-108031428D02*
X74992438Y-108126666D01*
X74992438Y-108126666D02*
X75040057Y-108174285D01*
X75040057Y-108174285D02*
X75135295Y-108221904D01*
X75135295Y-108221904D02*
X75182914Y-108221904D01*
X75182914Y-108221904D02*
X75278152Y-108174285D01*
X75278152Y-108174285D02*
X75325771Y-108126666D01*
X75325771Y-108126666D02*
X75373390Y-108031428D01*
X75373390Y-108031428D02*
X75373390Y-107840952D01*
X75373390Y-107840952D02*
X75421009Y-107745714D01*
X75421009Y-107745714D02*
X75468628Y-107698095D01*
X75468628Y-107698095D02*
X75563866Y-107650476D01*
X75563866Y-107650476D02*
X75754342Y-107650476D01*
X75754342Y-107650476D02*
X75849580Y-107698095D01*
X75849580Y-107698095D02*
X75897200Y-107745714D01*
X75897200Y-107745714D02*
X75944819Y-107840952D01*
X75944819Y-107840952D02*
X75944819Y-108031428D01*
X75944819Y-108031428D02*
X75897200Y-108126666D01*
X75897200Y-108126666D02*
X75849580Y-108174285D01*
X75849580Y-108174285D02*
X75754342Y-108221904D01*
X75754342Y-108221904D02*
X75563866Y-108221904D01*
X75563866Y-108221904D02*
X75468628Y-108174285D01*
X75468628Y-108174285D02*
X75421009Y-108126666D01*
X75421009Y-108126666D02*
X75373390Y-108031428D01*
X72284819Y-106269523D02*
X72284819Y-105698095D01*
X72284819Y-105983809D02*
X71284819Y-105983809D01*
X71284819Y-105983809D02*
X71427676Y-105888571D01*
X71427676Y-105888571D02*
X71522914Y-105793333D01*
X71522914Y-105793333D02*
X71570533Y-105698095D01*
X71284819Y-106888571D02*
X71284819Y-106983809D01*
X71284819Y-106983809D02*
X71332438Y-107079047D01*
X71332438Y-107079047D02*
X71380057Y-107126666D01*
X71380057Y-107126666D02*
X71475295Y-107174285D01*
X71475295Y-107174285D02*
X71665771Y-107221904D01*
X71665771Y-107221904D02*
X71903866Y-107221904D01*
X71903866Y-107221904D02*
X72094342Y-107174285D01*
X72094342Y-107174285D02*
X72189580Y-107126666D01*
X72189580Y-107126666D02*
X72237200Y-107079047D01*
X72237200Y-107079047D02*
X72284819Y-106983809D01*
X72284819Y-106983809D02*
X72284819Y-106888571D01*
X72284819Y-106888571D02*
X72237200Y-106793333D01*
X72237200Y-106793333D02*
X72189580Y-106745714D01*
X72189580Y-106745714D02*
X72094342Y-106698095D01*
X72094342Y-106698095D02*
X71903866Y-106650476D01*
X71903866Y-106650476D02*
X71665771Y-106650476D01*
X71665771Y-106650476D02*
X71475295Y-106698095D01*
X71475295Y-106698095D02*
X71380057Y-106745714D01*
X71380057Y-106745714D02*
X71332438Y-106793333D01*
X71332438Y-106793333D02*
X71284819Y-106888571D01*
X72284819Y-107650476D02*
X71284819Y-107650476D01*
X72284819Y-108221904D02*
X71713390Y-107793333D01*
X71284819Y-108221904D02*
X71856247Y-107650476D01*
X162939819Y-136162142D02*
X162463628Y-135828809D01*
X162939819Y-135590714D02*
X161939819Y-135590714D01*
X161939819Y-135590714D02*
X161939819Y-135971666D01*
X161939819Y-135971666D02*
X161987438Y-136066904D01*
X161987438Y-136066904D02*
X162035057Y-136114523D01*
X162035057Y-136114523D02*
X162130295Y-136162142D01*
X162130295Y-136162142D02*
X162273152Y-136162142D01*
X162273152Y-136162142D02*
X162368390Y-136114523D01*
X162368390Y-136114523D02*
X162416009Y-136066904D01*
X162416009Y-136066904D02*
X162463628Y-135971666D01*
X162463628Y-135971666D02*
X162463628Y-135590714D01*
X161939819Y-136495476D02*
X161939819Y-137114523D01*
X161939819Y-137114523D02*
X162320771Y-136781190D01*
X162320771Y-136781190D02*
X162320771Y-136924047D01*
X162320771Y-136924047D02*
X162368390Y-137019285D01*
X162368390Y-137019285D02*
X162416009Y-137066904D01*
X162416009Y-137066904D02*
X162511247Y-137114523D01*
X162511247Y-137114523D02*
X162749342Y-137114523D01*
X162749342Y-137114523D02*
X162844580Y-137066904D01*
X162844580Y-137066904D02*
X162892200Y-137019285D01*
X162892200Y-137019285D02*
X162939819Y-136924047D01*
X162939819Y-136924047D02*
X162939819Y-136638333D01*
X162939819Y-136638333D02*
X162892200Y-136543095D01*
X162892200Y-136543095D02*
X162844580Y-136495476D01*
X162939819Y-138066904D02*
X162939819Y-137495476D01*
X162939819Y-137781190D02*
X161939819Y-137781190D01*
X161939819Y-137781190D02*
X162082676Y-137685952D01*
X162082676Y-137685952D02*
X162177914Y-137590714D01*
X162177914Y-137590714D02*
X162225533Y-137495476D01*
X159279819Y-136114523D02*
X159279819Y-135543095D01*
X159279819Y-135828809D02*
X158279819Y-135828809D01*
X158279819Y-135828809D02*
X158422676Y-135733571D01*
X158422676Y-135733571D02*
X158517914Y-135638333D01*
X158517914Y-135638333D02*
X158565533Y-135543095D01*
X158279819Y-136733571D02*
X158279819Y-136828809D01*
X158279819Y-136828809D02*
X158327438Y-136924047D01*
X158327438Y-136924047D02*
X158375057Y-136971666D01*
X158375057Y-136971666D02*
X158470295Y-137019285D01*
X158470295Y-137019285D02*
X158660771Y-137066904D01*
X158660771Y-137066904D02*
X158898866Y-137066904D01*
X158898866Y-137066904D02*
X159089342Y-137019285D01*
X159089342Y-137019285D02*
X159184580Y-136971666D01*
X159184580Y-136971666D02*
X159232200Y-136924047D01*
X159232200Y-136924047D02*
X159279819Y-136828809D01*
X159279819Y-136828809D02*
X159279819Y-136733571D01*
X159279819Y-136733571D02*
X159232200Y-136638333D01*
X159232200Y-136638333D02*
X159184580Y-136590714D01*
X159184580Y-136590714D02*
X159089342Y-136543095D01*
X159089342Y-136543095D02*
X158898866Y-136495476D01*
X158898866Y-136495476D02*
X158660771Y-136495476D01*
X158660771Y-136495476D02*
X158470295Y-136543095D01*
X158470295Y-136543095D02*
X158375057Y-136590714D01*
X158375057Y-136590714D02*
X158327438Y-136638333D01*
X158327438Y-136638333D02*
X158279819Y-136733571D01*
X159279819Y-137495476D02*
X158279819Y-137495476D01*
X159279819Y-138066904D02*
X158708390Y-137638333D01*
X158279819Y-138066904D02*
X158851247Y-137495476D01*
X115297857Y-84984819D02*
X115631190Y-84508628D01*
X115869285Y-84984819D02*
X115869285Y-83984819D01*
X115869285Y-83984819D02*
X115488333Y-83984819D01*
X115488333Y-83984819D02*
X115393095Y-84032438D01*
X115393095Y-84032438D02*
X115345476Y-84080057D01*
X115345476Y-84080057D02*
X115297857Y-84175295D01*
X115297857Y-84175295D02*
X115297857Y-84318152D01*
X115297857Y-84318152D02*
X115345476Y-84413390D01*
X115345476Y-84413390D02*
X115393095Y-84461009D01*
X115393095Y-84461009D02*
X115488333Y-84508628D01*
X115488333Y-84508628D02*
X115869285Y-84508628D01*
X114440714Y-84318152D02*
X114440714Y-84984819D01*
X114678809Y-83937200D02*
X114916904Y-84651485D01*
X114916904Y-84651485D02*
X114297857Y-84651485D01*
X113726428Y-83984819D02*
X113631190Y-83984819D01*
X113631190Y-83984819D02*
X113535952Y-84032438D01*
X113535952Y-84032438D02*
X113488333Y-84080057D01*
X113488333Y-84080057D02*
X113440714Y-84175295D01*
X113440714Y-84175295D02*
X113393095Y-84365771D01*
X113393095Y-84365771D02*
X113393095Y-84603866D01*
X113393095Y-84603866D02*
X113440714Y-84794342D01*
X113440714Y-84794342D02*
X113488333Y-84889580D01*
X113488333Y-84889580D02*
X113535952Y-84937200D01*
X113535952Y-84937200D02*
X113631190Y-84984819D01*
X113631190Y-84984819D02*
X113726428Y-84984819D01*
X113726428Y-84984819D02*
X113821666Y-84937200D01*
X113821666Y-84937200D02*
X113869285Y-84889580D01*
X113869285Y-84889580D02*
X113916904Y-84794342D01*
X113916904Y-84794342D02*
X113964523Y-84603866D01*
X113964523Y-84603866D02*
X113964523Y-84365771D01*
X113964523Y-84365771D02*
X113916904Y-84175295D01*
X113916904Y-84175295D02*
X113869285Y-84080057D01*
X113869285Y-84080057D02*
X113821666Y-84032438D01*
X113821666Y-84032438D02*
X113726428Y-83984819D01*
X114869285Y-88644819D02*
X115440713Y-88644819D01*
X115154999Y-88644819D02*
X115154999Y-87644819D01*
X115154999Y-87644819D02*
X115250237Y-87787676D01*
X115250237Y-87787676D02*
X115345475Y-87882914D01*
X115345475Y-87882914D02*
X115440713Y-87930533D01*
X114440713Y-88644819D02*
X114440713Y-87644819D01*
X113869285Y-88644819D02*
X114297856Y-88073390D01*
X113869285Y-87644819D02*
X114440713Y-88216247D01*
X82444819Y-136237142D02*
X81968628Y-135903809D01*
X82444819Y-135665714D02*
X81444819Y-135665714D01*
X81444819Y-135665714D02*
X81444819Y-136046666D01*
X81444819Y-136046666D02*
X81492438Y-136141904D01*
X81492438Y-136141904D02*
X81540057Y-136189523D01*
X81540057Y-136189523D02*
X81635295Y-136237142D01*
X81635295Y-136237142D02*
X81778152Y-136237142D01*
X81778152Y-136237142D02*
X81873390Y-136189523D01*
X81873390Y-136189523D02*
X81921009Y-136141904D01*
X81921009Y-136141904D02*
X81968628Y-136046666D01*
X81968628Y-136046666D02*
X81968628Y-135665714D01*
X82444819Y-137189523D02*
X82444819Y-136618095D01*
X82444819Y-136903809D02*
X81444819Y-136903809D01*
X81444819Y-136903809D02*
X81587676Y-136808571D01*
X81587676Y-136808571D02*
X81682914Y-136713333D01*
X81682914Y-136713333D02*
X81730533Y-136618095D01*
X81444819Y-137808571D02*
X81444819Y-137903809D01*
X81444819Y-137903809D02*
X81492438Y-137999047D01*
X81492438Y-137999047D02*
X81540057Y-138046666D01*
X81540057Y-138046666D02*
X81635295Y-138094285D01*
X81635295Y-138094285D02*
X81825771Y-138141904D01*
X81825771Y-138141904D02*
X82063866Y-138141904D01*
X82063866Y-138141904D02*
X82254342Y-138094285D01*
X82254342Y-138094285D02*
X82349580Y-138046666D01*
X82349580Y-138046666D02*
X82397200Y-137999047D01*
X82397200Y-137999047D02*
X82444819Y-137903809D01*
X82444819Y-137903809D02*
X82444819Y-137808571D01*
X82444819Y-137808571D02*
X82397200Y-137713333D01*
X82397200Y-137713333D02*
X82349580Y-137665714D01*
X82349580Y-137665714D02*
X82254342Y-137618095D01*
X82254342Y-137618095D02*
X82063866Y-137570476D01*
X82063866Y-137570476D02*
X81825771Y-137570476D01*
X81825771Y-137570476D02*
X81635295Y-137618095D01*
X81635295Y-137618095D02*
X81540057Y-137665714D01*
X81540057Y-137665714D02*
X81492438Y-137713333D01*
X81492438Y-137713333D02*
X81444819Y-137808571D01*
X86104819Y-136665714D02*
X86104819Y-136094286D01*
X86104819Y-136380000D02*
X85104819Y-136380000D01*
X85104819Y-136380000D02*
X85247676Y-136284762D01*
X85247676Y-136284762D02*
X85342914Y-136189524D01*
X85342914Y-136189524D02*
X85390533Y-136094286D01*
X86104819Y-137094286D02*
X85104819Y-137094286D01*
X86104819Y-137665714D02*
X85533390Y-137237143D01*
X85104819Y-137665714D02*
X85676247Y-137094286D01*
X93089819Y-136162142D02*
X92613628Y-135828809D01*
X93089819Y-135590714D02*
X92089819Y-135590714D01*
X92089819Y-135590714D02*
X92089819Y-135971666D01*
X92089819Y-135971666D02*
X92137438Y-136066904D01*
X92137438Y-136066904D02*
X92185057Y-136114523D01*
X92185057Y-136114523D02*
X92280295Y-136162142D01*
X92280295Y-136162142D02*
X92423152Y-136162142D01*
X92423152Y-136162142D02*
X92518390Y-136114523D01*
X92518390Y-136114523D02*
X92566009Y-136066904D01*
X92566009Y-136066904D02*
X92613628Y-135971666D01*
X92613628Y-135971666D02*
X92613628Y-135590714D01*
X92185057Y-136543095D02*
X92137438Y-136590714D01*
X92137438Y-136590714D02*
X92089819Y-136685952D01*
X92089819Y-136685952D02*
X92089819Y-136924047D01*
X92089819Y-136924047D02*
X92137438Y-137019285D01*
X92137438Y-137019285D02*
X92185057Y-137066904D01*
X92185057Y-137066904D02*
X92280295Y-137114523D01*
X92280295Y-137114523D02*
X92375533Y-137114523D01*
X92375533Y-137114523D02*
X92518390Y-137066904D01*
X92518390Y-137066904D02*
X93089819Y-136495476D01*
X93089819Y-136495476D02*
X93089819Y-137114523D01*
X92089819Y-137447857D02*
X92089819Y-138114523D01*
X92089819Y-138114523D02*
X93089819Y-137685952D01*
X89429819Y-136114523D02*
X89429819Y-135543095D01*
X89429819Y-135828809D02*
X88429819Y-135828809D01*
X88429819Y-135828809D02*
X88572676Y-135733571D01*
X88572676Y-135733571D02*
X88667914Y-135638333D01*
X88667914Y-135638333D02*
X88715533Y-135543095D01*
X88429819Y-136733571D02*
X88429819Y-136828809D01*
X88429819Y-136828809D02*
X88477438Y-136924047D01*
X88477438Y-136924047D02*
X88525057Y-136971666D01*
X88525057Y-136971666D02*
X88620295Y-137019285D01*
X88620295Y-137019285D02*
X88810771Y-137066904D01*
X88810771Y-137066904D02*
X89048866Y-137066904D01*
X89048866Y-137066904D02*
X89239342Y-137019285D01*
X89239342Y-137019285D02*
X89334580Y-136971666D01*
X89334580Y-136971666D02*
X89382200Y-136924047D01*
X89382200Y-136924047D02*
X89429819Y-136828809D01*
X89429819Y-136828809D02*
X89429819Y-136733571D01*
X89429819Y-136733571D02*
X89382200Y-136638333D01*
X89382200Y-136638333D02*
X89334580Y-136590714D01*
X89334580Y-136590714D02*
X89239342Y-136543095D01*
X89239342Y-136543095D02*
X89048866Y-136495476D01*
X89048866Y-136495476D02*
X88810771Y-136495476D01*
X88810771Y-136495476D02*
X88620295Y-136543095D01*
X88620295Y-136543095D02*
X88525057Y-136590714D01*
X88525057Y-136590714D02*
X88477438Y-136638333D01*
X88477438Y-136638333D02*
X88429819Y-136733571D01*
X89429819Y-137495476D02*
X88429819Y-137495476D01*
X89429819Y-138066904D02*
X88858390Y-137638333D01*
X88429819Y-138066904D02*
X89001247Y-137495476D01*
X135149819Y-136162142D02*
X134673628Y-135828809D01*
X135149819Y-135590714D02*
X134149819Y-135590714D01*
X134149819Y-135590714D02*
X134149819Y-135971666D01*
X134149819Y-135971666D02*
X134197438Y-136066904D01*
X134197438Y-136066904D02*
X134245057Y-136114523D01*
X134245057Y-136114523D02*
X134340295Y-136162142D01*
X134340295Y-136162142D02*
X134483152Y-136162142D01*
X134483152Y-136162142D02*
X134578390Y-136114523D01*
X134578390Y-136114523D02*
X134626009Y-136066904D01*
X134626009Y-136066904D02*
X134673628Y-135971666D01*
X134673628Y-135971666D02*
X134673628Y-135590714D01*
X135149819Y-137114523D02*
X135149819Y-136543095D01*
X135149819Y-136828809D02*
X134149819Y-136828809D01*
X134149819Y-136828809D02*
X134292676Y-136733571D01*
X134292676Y-136733571D02*
X134387914Y-136638333D01*
X134387914Y-136638333D02*
X134435533Y-136543095D01*
X134149819Y-137447857D02*
X134149819Y-138066904D01*
X134149819Y-138066904D02*
X134530771Y-137733571D01*
X134530771Y-137733571D02*
X134530771Y-137876428D01*
X134530771Y-137876428D02*
X134578390Y-137971666D01*
X134578390Y-137971666D02*
X134626009Y-138019285D01*
X134626009Y-138019285D02*
X134721247Y-138066904D01*
X134721247Y-138066904D02*
X134959342Y-138066904D01*
X134959342Y-138066904D02*
X135054580Y-138019285D01*
X135054580Y-138019285D02*
X135102200Y-137971666D01*
X135102200Y-137971666D02*
X135149819Y-137876428D01*
X135149819Y-137876428D02*
X135149819Y-137590714D01*
X135149819Y-137590714D02*
X135102200Y-137495476D01*
X135102200Y-137495476D02*
X135054580Y-137447857D01*
X138809819Y-136590714D02*
X138809819Y-136019286D01*
X138809819Y-136305000D02*
X137809819Y-136305000D01*
X137809819Y-136305000D02*
X137952676Y-136209762D01*
X137952676Y-136209762D02*
X138047914Y-136114524D01*
X138047914Y-136114524D02*
X138095533Y-136019286D01*
X138809819Y-137019286D02*
X137809819Y-137019286D01*
X138809819Y-137590714D02*
X138238390Y-137162143D01*
X137809819Y-137590714D02*
X138381247Y-137019286D01*
X162287857Y-90064819D02*
X162621190Y-89588628D01*
X162859285Y-90064819D02*
X162859285Y-89064819D01*
X162859285Y-89064819D02*
X162478333Y-89064819D01*
X162478333Y-89064819D02*
X162383095Y-89112438D01*
X162383095Y-89112438D02*
X162335476Y-89160057D01*
X162335476Y-89160057D02*
X162287857Y-89255295D01*
X162287857Y-89255295D02*
X162287857Y-89398152D01*
X162287857Y-89398152D02*
X162335476Y-89493390D01*
X162335476Y-89493390D02*
X162383095Y-89541009D01*
X162383095Y-89541009D02*
X162478333Y-89588628D01*
X162478333Y-89588628D02*
X162859285Y-89588628D01*
X161430714Y-89398152D02*
X161430714Y-90064819D01*
X161668809Y-89017200D02*
X161906904Y-89731485D01*
X161906904Y-89731485D02*
X161287857Y-89731485D01*
X161002142Y-89064819D02*
X160383095Y-89064819D01*
X160383095Y-89064819D02*
X160716428Y-89445771D01*
X160716428Y-89445771D02*
X160573571Y-89445771D01*
X160573571Y-89445771D02*
X160478333Y-89493390D01*
X160478333Y-89493390D02*
X160430714Y-89541009D01*
X160430714Y-89541009D02*
X160383095Y-89636247D01*
X160383095Y-89636247D02*
X160383095Y-89874342D01*
X160383095Y-89874342D02*
X160430714Y-89969580D01*
X160430714Y-89969580D02*
X160478333Y-90017200D01*
X160478333Y-90017200D02*
X160573571Y-90064819D01*
X160573571Y-90064819D02*
X160859285Y-90064819D01*
X160859285Y-90064819D02*
X160954523Y-90017200D01*
X160954523Y-90017200D02*
X161002142Y-89969580D01*
X161859285Y-93724819D02*
X162430713Y-93724819D01*
X162144999Y-93724819D02*
X162144999Y-92724819D01*
X162144999Y-92724819D02*
X162240237Y-92867676D01*
X162240237Y-92867676D02*
X162335475Y-92962914D01*
X162335475Y-92962914D02*
X162430713Y-93010533D01*
X161430713Y-93724819D02*
X161430713Y-92724819D01*
X160859285Y-93724819D02*
X161287856Y-93153390D01*
X160859285Y-92724819D02*
X161430713Y-93296247D01*
D11*
X103631904Y-142332419D02*
X103631904Y-143141942D01*
X103631904Y-143141942D02*
X103584285Y-143237180D01*
X103584285Y-143237180D02*
X103536666Y-143284800D01*
X103536666Y-143284800D02*
X103441428Y-143332419D01*
X103441428Y-143332419D02*
X103250952Y-143332419D01*
X103250952Y-143332419D02*
X103155714Y-143284800D01*
X103155714Y-143284800D02*
X103108095Y-143237180D01*
X103108095Y-143237180D02*
X103060476Y-143141942D01*
X103060476Y-143141942D02*
X103060476Y-142332419D01*
X102679523Y-142332419D02*
X102060476Y-142332419D01*
X102060476Y-142332419D02*
X102393809Y-142713371D01*
X102393809Y-142713371D02*
X102250952Y-142713371D01*
X102250952Y-142713371D02*
X102155714Y-142760990D01*
X102155714Y-142760990D02*
X102108095Y-142808609D01*
X102108095Y-142808609D02*
X102060476Y-142903847D01*
X102060476Y-142903847D02*
X102060476Y-143141942D01*
X102060476Y-143141942D02*
X102108095Y-143237180D01*
X102108095Y-143237180D02*
X102155714Y-143284800D01*
X102155714Y-143284800D02*
X102250952Y-143332419D01*
X102250952Y-143332419D02*
X102536666Y-143332419D01*
X102536666Y-143332419D02*
X102631904Y-143284800D01*
X102631904Y-143284800D02*
X102679523Y-143237180D01*
D10*
X106131904Y-140424819D02*
X105465238Y-140424819D01*
X105465238Y-140424819D02*
X105893809Y-141424819D01*
X104655714Y-140758152D02*
X104655714Y-141424819D01*
X104893809Y-140377200D02*
X105131904Y-141091485D01*
X105131904Y-141091485D02*
X104512857Y-141091485D01*
X104131904Y-141424819D02*
X104131904Y-140424819D01*
X104131904Y-140901009D02*
X103560476Y-140901009D01*
X103560476Y-141424819D02*
X103560476Y-140424819D01*
X102512857Y-141329580D02*
X102560476Y-141377200D01*
X102560476Y-141377200D02*
X102703333Y-141424819D01*
X102703333Y-141424819D02*
X102798571Y-141424819D01*
X102798571Y-141424819D02*
X102941428Y-141377200D01*
X102941428Y-141377200D02*
X103036666Y-141281961D01*
X103036666Y-141281961D02*
X103084285Y-141186723D01*
X103084285Y-141186723D02*
X103131904Y-140996247D01*
X103131904Y-140996247D02*
X103131904Y-140853390D01*
X103131904Y-140853390D02*
X103084285Y-140662914D01*
X103084285Y-140662914D02*
X103036666Y-140567676D01*
X103036666Y-140567676D02*
X102941428Y-140472438D01*
X102941428Y-140472438D02*
X102798571Y-140424819D01*
X102798571Y-140424819D02*
X102703333Y-140424819D01*
X102703333Y-140424819D02*
X102560476Y-140472438D01*
X102560476Y-140472438D02*
X102512857Y-140520057D01*
X101560476Y-141424819D02*
X102131904Y-141424819D01*
X101846190Y-141424819D02*
X101846190Y-140424819D01*
X101846190Y-140424819D02*
X101941428Y-140567676D01*
X101941428Y-140567676D02*
X102036666Y-140662914D01*
X102036666Y-140662914D02*
X102131904Y-140710533D01*
X100703333Y-140424819D02*
X100893809Y-140424819D01*
X100893809Y-140424819D02*
X100989047Y-140472438D01*
X100989047Y-140472438D02*
X101036666Y-140520057D01*
X101036666Y-140520057D02*
X101131904Y-140662914D01*
X101131904Y-140662914D02*
X101179523Y-140853390D01*
X101179523Y-140853390D02*
X101179523Y-141234342D01*
X101179523Y-141234342D02*
X101131904Y-141329580D01*
X101131904Y-141329580D02*
X101084285Y-141377200D01*
X101084285Y-141377200D02*
X100989047Y-141424819D01*
X100989047Y-141424819D02*
X100798571Y-141424819D01*
X100798571Y-141424819D02*
X100703333Y-141377200D01*
X100703333Y-141377200D02*
X100655714Y-141329580D01*
X100655714Y-141329580D02*
X100608095Y-141234342D01*
X100608095Y-141234342D02*
X100608095Y-140996247D01*
X100608095Y-140996247D02*
X100655714Y-140901009D01*
X100655714Y-140901009D02*
X100703333Y-140853390D01*
X100703333Y-140853390D02*
X100798571Y-140805771D01*
X100798571Y-140805771D02*
X100989047Y-140805771D01*
X100989047Y-140805771D02*
X101084285Y-140853390D01*
X101084285Y-140853390D02*
X101131904Y-140901009D01*
X101131904Y-140901009D02*
X101179523Y-140996247D01*
X99703333Y-140424819D02*
X100179523Y-140424819D01*
X100179523Y-140424819D02*
X100227142Y-140901009D01*
X100227142Y-140901009D02*
X100179523Y-140853390D01*
X100179523Y-140853390D02*
X100084285Y-140805771D01*
X100084285Y-140805771D02*
X99846190Y-140805771D01*
X99846190Y-140805771D02*
X99750952Y-140853390D01*
X99750952Y-140853390D02*
X99703333Y-140901009D01*
X99703333Y-140901009D02*
X99655714Y-140996247D01*
X99655714Y-140996247D02*
X99655714Y-141234342D01*
X99655714Y-141234342D02*
X99703333Y-141329580D01*
X99703333Y-141329580D02*
X99750952Y-141377200D01*
X99750952Y-141377200D02*
X99846190Y-141424819D01*
X99846190Y-141424819D02*
X100084285Y-141424819D01*
X100084285Y-141424819D02*
X100179523Y-141377200D01*
X100179523Y-141377200D02*
X100227142Y-141329580D01*
X170074819Y-106793333D02*
X169598628Y-106460000D01*
X170074819Y-106221905D02*
X169074819Y-106221905D01*
X169074819Y-106221905D02*
X169074819Y-106602857D01*
X169074819Y-106602857D02*
X169122438Y-106698095D01*
X169122438Y-106698095D02*
X169170057Y-106745714D01*
X169170057Y-106745714D02*
X169265295Y-106793333D01*
X169265295Y-106793333D02*
X169408152Y-106793333D01*
X169408152Y-106793333D02*
X169503390Y-106745714D01*
X169503390Y-106745714D02*
X169551009Y-106698095D01*
X169551009Y-106698095D02*
X169598628Y-106602857D01*
X169598628Y-106602857D02*
X169598628Y-106221905D01*
X169074819Y-107126667D02*
X169074819Y-107793333D01*
X169074819Y-107793333D02*
X170074819Y-107364762D01*
X173734819Y-106745714D02*
X173734819Y-106174286D01*
X173734819Y-106460000D02*
X172734819Y-106460000D01*
X172734819Y-106460000D02*
X172877676Y-106364762D01*
X172877676Y-106364762D02*
X172972914Y-106269524D01*
X172972914Y-106269524D02*
X173020533Y-106174286D01*
X173734819Y-107174286D02*
X172734819Y-107174286D01*
X173734819Y-107745714D02*
X173163390Y-107317143D01*
X172734819Y-107745714D02*
X173306247Y-107174286D01*
X152929819Y-106793333D02*
X152453628Y-106460000D01*
X152929819Y-106221905D02*
X151929819Y-106221905D01*
X151929819Y-106221905D02*
X151929819Y-106602857D01*
X151929819Y-106602857D02*
X151977438Y-106698095D01*
X151977438Y-106698095D02*
X152025057Y-106745714D01*
X152025057Y-106745714D02*
X152120295Y-106793333D01*
X152120295Y-106793333D02*
X152263152Y-106793333D01*
X152263152Y-106793333D02*
X152358390Y-106745714D01*
X152358390Y-106745714D02*
X152406009Y-106698095D01*
X152406009Y-106698095D02*
X152453628Y-106602857D01*
X152453628Y-106602857D02*
X152453628Y-106221905D01*
X151929819Y-107650476D02*
X151929819Y-107460000D01*
X151929819Y-107460000D02*
X151977438Y-107364762D01*
X151977438Y-107364762D02*
X152025057Y-107317143D01*
X152025057Y-107317143D02*
X152167914Y-107221905D01*
X152167914Y-107221905D02*
X152358390Y-107174286D01*
X152358390Y-107174286D02*
X152739342Y-107174286D01*
X152739342Y-107174286D02*
X152834580Y-107221905D01*
X152834580Y-107221905D02*
X152882200Y-107269524D01*
X152882200Y-107269524D02*
X152929819Y-107364762D01*
X152929819Y-107364762D02*
X152929819Y-107555238D01*
X152929819Y-107555238D02*
X152882200Y-107650476D01*
X152882200Y-107650476D02*
X152834580Y-107698095D01*
X152834580Y-107698095D02*
X152739342Y-107745714D01*
X152739342Y-107745714D02*
X152501247Y-107745714D01*
X152501247Y-107745714D02*
X152406009Y-107698095D01*
X152406009Y-107698095D02*
X152358390Y-107650476D01*
X152358390Y-107650476D02*
X152310771Y-107555238D01*
X152310771Y-107555238D02*
X152310771Y-107364762D01*
X152310771Y-107364762D02*
X152358390Y-107269524D01*
X152358390Y-107269524D02*
X152406009Y-107221905D01*
X152406009Y-107221905D02*
X152501247Y-107174286D01*
X156589819Y-106745714D02*
X156589819Y-106174286D01*
X156589819Y-106460000D02*
X155589819Y-106460000D01*
X155589819Y-106460000D02*
X155732676Y-106364762D01*
X155732676Y-106364762D02*
X155827914Y-106269524D01*
X155827914Y-106269524D02*
X155875533Y-106174286D01*
X156589819Y-107174286D02*
X155589819Y-107174286D01*
X156589819Y-107745714D02*
X156018390Y-107317143D01*
X155589819Y-107745714D02*
X156161247Y-107174286D01*
X122917857Y-90064819D02*
X123251190Y-89588628D01*
X123489285Y-90064819D02*
X123489285Y-89064819D01*
X123489285Y-89064819D02*
X123108333Y-89064819D01*
X123108333Y-89064819D02*
X123013095Y-89112438D01*
X123013095Y-89112438D02*
X122965476Y-89160057D01*
X122965476Y-89160057D02*
X122917857Y-89255295D01*
X122917857Y-89255295D02*
X122917857Y-89398152D01*
X122917857Y-89398152D02*
X122965476Y-89493390D01*
X122965476Y-89493390D02*
X123013095Y-89541009D01*
X123013095Y-89541009D02*
X123108333Y-89588628D01*
X123108333Y-89588628D02*
X123489285Y-89588628D01*
X122584523Y-89064819D02*
X121965476Y-89064819D01*
X121965476Y-89064819D02*
X122298809Y-89445771D01*
X122298809Y-89445771D02*
X122155952Y-89445771D01*
X122155952Y-89445771D02*
X122060714Y-89493390D01*
X122060714Y-89493390D02*
X122013095Y-89541009D01*
X122013095Y-89541009D02*
X121965476Y-89636247D01*
X121965476Y-89636247D02*
X121965476Y-89874342D01*
X121965476Y-89874342D02*
X122013095Y-89969580D01*
X122013095Y-89969580D02*
X122060714Y-90017200D01*
X122060714Y-90017200D02*
X122155952Y-90064819D01*
X122155952Y-90064819D02*
X122441666Y-90064819D01*
X122441666Y-90064819D02*
X122536904Y-90017200D01*
X122536904Y-90017200D02*
X122584523Y-89969580D01*
X121108333Y-89064819D02*
X121298809Y-89064819D01*
X121298809Y-89064819D02*
X121394047Y-89112438D01*
X121394047Y-89112438D02*
X121441666Y-89160057D01*
X121441666Y-89160057D02*
X121536904Y-89302914D01*
X121536904Y-89302914D02*
X121584523Y-89493390D01*
X121584523Y-89493390D02*
X121584523Y-89874342D01*
X121584523Y-89874342D02*
X121536904Y-89969580D01*
X121536904Y-89969580D02*
X121489285Y-90017200D01*
X121489285Y-90017200D02*
X121394047Y-90064819D01*
X121394047Y-90064819D02*
X121203571Y-90064819D01*
X121203571Y-90064819D02*
X121108333Y-90017200D01*
X121108333Y-90017200D02*
X121060714Y-89969580D01*
X121060714Y-89969580D02*
X121013095Y-89874342D01*
X121013095Y-89874342D02*
X121013095Y-89636247D01*
X121013095Y-89636247D02*
X121060714Y-89541009D01*
X121060714Y-89541009D02*
X121108333Y-89493390D01*
X121108333Y-89493390D02*
X121203571Y-89445771D01*
X121203571Y-89445771D02*
X121394047Y-89445771D01*
X121394047Y-89445771D02*
X121489285Y-89493390D01*
X121489285Y-89493390D02*
X121536904Y-89541009D01*
X121536904Y-89541009D02*
X121584523Y-89636247D01*
X122489285Y-93724819D02*
X123060713Y-93724819D01*
X122774999Y-93724819D02*
X122774999Y-92724819D01*
X122774999Y-92724819D02*
X122870237Y-92867676D01*
X122870237Y-92867676D02*
X122965475Y-92962914D01*
X122965475Y-92962914D02*
X123060713Y-93010533D01*
X122060713Y-93724819D02*
X122060713Y-92724819D01*
X121489285Y-93724819D02*
X121917856Y-93153390D01*
X121489285Y-92724819D02*
X122060713Y-93296247D01*
X152929819Y-136162142D02*
X152453628Y-135828809D01*
X152929819Y-135590714D02*
X151929819Y-135590714D01*
X151929819Y-135590714D02*
X151929819Y-135971666D01*
X151929819Y-135971666D02*
X151977438Y-136066904D01*
X151977438Y-136066904D02*
X152025057Y-136114523D01*
X152025057Y-136114523D02*
X152120295Y-136162142D01*
X152120295Y-136162142D02*
X152263152Y-136162142D01*
X152263152Y-136162142D02*
X152358390Y-136114523D01*
X152358390Y-136114523D02*
X152406009Y-136066904D01*
X152406009Y-136066904D02*
X152453628Y-135971666D01*
X152453628Y-135971666D02*
X152453628Y-135590714D01*
X152929819Y-137114523D02*
X152929819Y-136543095D01*
X152929819Y-136828809D02*
X151929819Y-136828809D01*
X151929819Y-136828809D02*
X152072676Y-136733571D01*
X152072676Y-136733571D02*
X152167914Y-136638333D01*
X152167914Y-136638333D02*
X152215533Y-136543095D01*
X152263152Y-137971666D02*
X152929819Y-137971666D01*
X151882200Y-137733571D02*
X152596485Y-137495476D01*
X152596485Y-137495476D02*
X152596485Y-138114523D01*
X156589819Y-136590714D02*
X156589819Y-136019286D01*
X156589819Y-136305000D02*
X155589819Y-136305000D01*
X155589819Y-136305000D02*
X155732676Y-136209762D01*
X155732676Y-136209762D02*
X155827914Y-136114524D01*
X155827914Y-136114524D02*
X155875533Y-136019286D01*
X156589819Y-137019286D02*
X155589819Y-137019286D01*
X156589819Y-137590714D02*
X156018390Y-137162143D01*
X155589819Y-137590714D02*
X156161247Y-137019286D01*
D12*
%TO.C,R42*%
X159832064Y-75925000D02*
X158377936Y-75925000D01*
X159832064Y-77745000D02*
X158377936Y-77745000D01*
%TO.C,R16*%
X188320000Y-136077936D02*
X188320000Y-137532064D01*
X190140000Y-136077936D02*
X190140000Y-137532064D01*
%TO.C,Y1*%
X107390000Y-50060000D02*
X113790000Y-50060000D01*
X113790000Y-45190000D02*
X107390000Y-45190000D01*
X107390000Y-50060000D02*
G75*
G02*
X107390000Y-45190000I0J2435000D01*
G01*
X113790000Y-45190000D02*
G75*
G02*
X113790000Y-50060000I0J-2435000D01*
G01*
%TO.C,R26*%
X72750000Y-137607064D02*
X72750000Y-136152936D01*
X74570000Y-137607064D02*
X74570000Y-136152936D01*
%TO.C,U7*%
D11*
X123235000Y-114951190D02*
X119335000Y-114951190D01*
X119335000Y-125151190D01*
X123235000Y-125151190D01*
X123235000Y-114951190D01*
X124460000Y-114951190D02*
X118110000Y-114951190D01*
X118110000Y-125095000D01*
X124460000Y-125095000D01*
X124460000Y-114951190D01*
X121903810Y-114951190D02*
G75*
G02*
X120666190Y-114951190I-618810J0D01*
G01*
D12*
%TO.C,R4*%
X117835000Y-106232936D02*
X117835000Y-107687064D01*
X119655000Y-106232936D02*
X119655000Y-107687064D01*
%TO.C,R11*%
X100690000Y-136077936D02*
X100690000Y-137532064D01*
X102510000Y-136077936D02*
X102510000Y-137532064D01*
%TO.C,R34*%
X128717064Y-76560000D02*
X127262936Y-76560000D01*
X128717064Y-78380000D02*
X127262936Y-78380000D01*
%TO.C,R49*%
X147132064Y-87355000D02*
X145677936Y-87355000D01*
X147132064Y-89175000D02*
X145677936Y-89175000D01*
%TO.C,R1*%
X65765000Y-106232936D02*
X65765000Y-107687064D01*
X67585000Y-106232936D02*
X67585000Y-107687064D01*
%TO.C,R21*%
X124820000Y-107687064D02*
X124820000Y-106232936D01*
X126640000Y-107687064D02*
X126640000Y-106232936D01*
%TO.C,R30*%
X142600000Y-137532064D02*
X142600000Y-136077936D01*
X144420000Y-137532064D02*
X144420000Y-136077936D01*
%TO.C,BT1*%
X171565000Y-152300000D02*
X177685000Y-152300000D01*
X171565000Y-158520000D02*
X172485000Y-158520000D01*
X171565000Y-160120000D02*
X171565000Y-152300000D01*
X172325000Y-154560000D02*
X173325000Y-154560000D01*
X172325000Y-156160000D02*
X172325000Y-154560000D01*
X172485000Y-158520000D02*
X172485000Y-160120000D01*
X172485000Y-160120000D02*
X171565000Y-160120000D01*
X172765000Y-158520000D02*
X172485000Y-158520000D01*
X172765000Y-158520000D02*
X172765000Y-159735000D01*
X172825000Y-154560000D02*
X172825000Y-152300000D01*
X173325000Y-154560000D02*
X173325000Y-152300000D01*
X173325000Y-154560000D02*
X173325000Y-156160000D01*
X173325000Y-156160000D02*
X172325000Y-156160000D01*
X174125000Y-152300000D02*
X174125000Y-156660000D01*
X174125000Y-156660000D02*
X175125000Y-156660000D01*
X175125000Y-156660000D02*
X175125000Y-152300000D01*
X175925000Y-154560000D02*
X175925000Y-156160000D01*
X175925000Y-156160000D02*
X176925000Y-156160000D01*
X176765000Y-158520000D02*
X176485000Y-158520000D01*
X176765000Y-160120000D02*
X176765000Y-158520000D01*
X176925000Y-154560000D02*
X175925000Y-154560000D01*
X176925000Y-156160000D02*
X176925000Y-154560000D01*
X177685000Y-152300000D02*
X177685000Y-160120000D01*
X177685000Y-158520000D02*
X176765000Y-158520000D01*
X177685000Y-160120000D02*
X176765000Y-160120000D01*
%TO.C,R46*%
X169357064Y-90530000D02*
X167902936Y-90530000D01*
X169357064Y-92350000D02*
X167902936Y-92350000D01*
%TO.C,R15*%
X170540000Y-136077936D02*
X170540000Y-137532064D01*
X172360000Y-136077936D02*
X172360000Y-137532064D01*
%TO.C,U2*%
D11*
X105455000Y-114951190D02*
X101555000Y-114951190D01*
X101555000Y-125151190D01*
X105455000Y-125151190D01*
X105455000Y-114951190D01*
X106680000Y-114951190D02*
X100330000Y-114951190D01*
X100330000Y-125095000D01*
X106680000Y-125095000D01*
X106680000Y-114951190D01*
X104123810Y-114951190D02*
G75*
G02*
X102886190Y-114951190I-618810J0D01*
G01*
D12*
%TO.C,R19*%
X90175000Y-107687064D02*
X90175000Y-106232936D01*
X91995000Y-107687064D02*
X91995000Y-106232936D01*
%TO.C,R8*%
X188066000Y-106232936D02*
X188066000Y-107687064D01*
X189886000Y-106232936D02*
X189886000Y-107687064D01*
%TO.C,R24*%
X177525000Y-107687064D02*
X177525000Y-106232936D01*
X179345000Y-107687064D02*
X179345000Y-106232936D01*
%TO.C,R12*%
X118470000Y-136077936D02*
X118470000Y-137532064D01*
X120290000Y-136077936D02*
X120290000Y-137532064D01*
%TO.C,C1*%
X157061248Y-143870000D02*
X158483752Y-143870000D01*
X157061248Y-145690000D02*
X158483752Y-145690000D01*
%TO.C,R25*%
X54970000Y-137532064D02*
X54970000Y-136077936D01*
X56790000Y-137532064D02*
X56790000Y-136077936D01*
%TO.C,U1*%
X105375000Y-52605000D02*
X156075000Y-52605000D01*
X105375000Y-68055000D02*
X105375000Y-52705000D01*
X144145000Y-69085000D02*
X146685000Y-69085000D01*
X149315000Y-68055000D02*
X105375000Y-68055000D01*
D11*
X155165000Y-67635000D02*
X161275000Y-67635000D01*
D12*
X156075000Y-52605000D02*
X156075000Y-68055000D01*
X156075000Y-65785000D02*
X153815000Y-65785000D01*
X156075000Y-68055000D02*
X154215000Y-68055000D01*
D11*
X161275000Y-66035000D02*
X155975000Y-66035000D01*
X161275000Y-67635000D02*
X161275000Y-66035000D01*
X163275000Y-64535000D02*
X161275000Y-66035000D01*
X163275000Y-64535000D02*
X166875000Y-64535000D01*
X163275000Y-69135000D02*
X161275000Y-67635000D01*
X163275000Y-69135000D02*
X163275000Y-64535000D01*
X166875000Y-64535000D02*
X166875000Y-69135000D01*
X166875000Y-69135000D02*
X163275000Y-69135000D01*
X166875000Y-69135000D02*
X168275000Y-67835000D01*
X168275000Y-65835000D02*
X166875000Y-64535000D01*
X168275000Y-67835000D02*
X168275000Y-65835000D01*
D12*
X154315000Y-67335000D02*
G75*
G02*
X149215000Y-67335000I-2550000J0D01*
G01*
X149215000Y-67335000D02*
G75*
G02*
X154315000Y-67335000I2550000J0D01*
G01*
X152665000Y-67335000D02*
G75*
G02*
X150865000Y-67335000I-900000J0D01*
G01*
X150865000Y-67335000D02*
G75*
G02*
X152665000Y-67335000I900000J0D01*
G01*
%TO.C,R22*%
X142600000Y-107687064D02*
X142600000Y-106232936D01*
X144420000Y-107687064D02*
X144420000Y-106232936D01*
%TO.C,R23*%
X160126000Y-107687064D02*
X160126000Y-106232936D01*
X161946000Y-107687064D02*
X161946000Y-106232936D01*
%TO.C,R39*%
X122367064Y-76560000D02*
X120912936Y-76560000D01*
X122367064Y-78380000D02*
X120912936Y-78380000D01*
%TO.C,SW1*%
X137275000Y-152300000D02*
X143395000Y-152300000D01*
X137275000Y-158520000D02*
X138195000Y-158520000D01*
X137275000Y-160120000D02*
X137275000Y-152300000D01*
X138035000Y-154560000D02*
X139035000Y-154560000D01*
X138035000Y-156160000D02*
X138035000Y-154560000D01*
X138195000Y-158520000D02*
X138195000Y-160120000D01*
X138195000Y-160120000D02*
X137275000Y-160120000D01*
X138475000Y-158520000D02*
X138195000Y-158520000D01*
X138475000Y-158520000D02*
X138475000Y-159735000D01*
X138535000Y-154560000D02*
X138535000Y-152300000D01*
X139035000Y-154560000D02*
X139035000Y-152300000D01*
X139035000Y-154560000D02*
X139035000Y-156160000D01*
X139035000Y-156160000D02*
X138035000Y-156160000D01*
X139835000Y-152300000D02*
X139835000Y-156660000D01*
X139835000Y-156660000D02*
X140835000Y-156660000D01*
X140835000Y-156660000D02*
X140835000Y-152300000D01*
X141635000Y-154560000D02*
X141635000Y-156160000D01*
X141635000Y-156160000D02*
X142635000Y-156160000D01*
X142475000Y-158520000D02*
X142195000Y-158520000D01*
X142475000Y-160120000D02*
X142475000Y-158520000D01*
X142635000Y-154560000D02*
X141635000Y-154560000D01*
X142635000Y-156160000D02*
X142635000Y-154560000D01*
X143395000Y-152300000D02*
X143395000Y-160120000D01*
X143395000Y-158520000D02*
X142475000Y-158520000D01*
X143395000Y-160120000D02*
X142475000Y-160120000D01*
%TO.C,R48*%
X147132064Y-81640000D02*
X145677936Y-81640000D01*
X147132064Y-83460000D02*
X145677936Y-83460000D01*
%TO.C,R32*%
X177525000Y-137607064D02*
X177525000Y-136152936D01*
X179345000Y-137607064D02*
X179345000Y-136152936D01*
%TO.C,R45*%
X166817064Y-75925000D02*
X165362936Y-75925000D01*
X166817064Y-77745000D02*
X165362936Y-77745000D01*
%TO.C,R29*%
X124820000Y-137532064D02*
X124820000Y-136077936D01*
X126640000Y-137532064D02*
X126640000Y-136077936D01*
%TO.C,C2*%
X121703752Y-47985000D02*
X120281248Y-47985000D01*
X121703752Y-49805000D02*
X120281248Y-49805000D01*
%TO.C,U4*%
D11*
X131428810Y-86405000D02*
X121228810Y-86405000D01*
X121228810Y-82505000D01*
X131428810Y-82505000D01*
X131428810Y-86405000D01*
X131428810Y-87630000D02*
X121285000Y-87630000D01*
X121285000Y-81280000D01*
X131428810Y-81280000D01*
X131428810Y-87630000D01*
X131428810Y-85073810D02*
G75*
G02*
X131428810Y-83836190I0J618810D01*
G01*
%TO.C,U6*%
X101600000Y-97773810D02*
X107950000Y-97773810D01*
X107950000Y-87630000D01*
X101600000Y-87630000D01*
X101600000Y-97773810D01*
X102825000Y-97773810D02*
X106725000Y-97773810D01*
X106725000Y-87573810D01*
X102825000Y-87573810D01*
X102825000Y-97773810D01*
X104156190Y-97773810D02*
G75*
G02*
X105393810Y-97773810I618810J0D01*
G01*
D12*
%TO.C,R41*%
X115382064Y-79735000D02*
X113927936Y-79735000D01*
X115382064Y-81555000D02*
X113927936Y-81555000D01*
%TO.C,R44*%
X155387064Y-90530000D02*
X153932936Y-90530000D01*
X155387064Y-92350000D02*
X153932936Y-92350000D01*
%TO.C,R3*%
X100690000Y-106232936D02*
X100690000Y-107687064D01*
X102510000Y-106232936D02*
X102510000Y-107687064D01*
%TO.C,R28*%
X107040000Y-137532064D02*
X107040000Y-136077936D01*
X108860000Y-137532064D02*
X108860000Y-136077936D01*
%TO.C,C3*%
X128688752Y-47985000D02*
X127266248Y-47985000D01*
X128688752Y-49805000D02*
X127266248Y-49805000D01*
%TO.C,R37*%
X135067064Y-76560000D02*
X133612936Y-76560000D01*
X135067064Y-78380000D02*
X133612936Y-78380000D01*
%TO.C,LS1*%
X96905000Y-45530000D02*
X97825000Y-45530000D01*
X96905000Y-47130000D02*
X97825000Y-47130000D01*
X96905000Y-53350000D02*
X96905000Y-45530000D01*
X97665000Y-49490000D02*
X97665000Y-51090000D01*
X97665000Y-51090000D02*
X98665000Y-51090000D01*
X97825000Y-45530000D02*
X97825000Y-47130000D01*
X97825000Y-47130000D02*
X98105000Y-47130000D01*
X98665000Y-49490000D02*
X97665000Y-49490000D01*
X98665000Y-51090000D02*
X98665000Y-49490000D01*
X99465000Y-48990000D02*
X99465000Y-53350000D01*
X100465000Y-48990000D02*
X99465000Y-48990000D01*
X100465000Y-53350000D02*
X100465000Y-48990000D01*
X101265000Y-49490000D02*
X102265000Y-49490000D01*
X101265000Y-51090000D02*
X101265000Y-49490000D01*
X101265000Y-51090000D02*
X101265000Y-53350000D01*
X101765000Y-51090000D02*
X101765000Y-53350000D01*
X101825000Y-47130000D02*
X101825000Y-45915000D01*
X101825000Y-47130000D02*
X102105000Y-47130000D01*
X102105000Y-45530000D02*
X103025000Y-45530000D01*
X102105000Y-47130000D02*
X102105000Y-45530000D01*
X102265000Y-49490000D02*
X102265000Y-51090000D01*
X102265000Y-51090000D02*
X101265000Y-51090000D01*
X103025000Y-45530000D02*
X103025000Y-53350000D01*
X103025000Y-47130000D02*
X102105000Y-47130000D01*
X103025000Y-53350000D02*
X96905000Y-53350000D01*
%TO.C,U8*%
D11*
X123870000Y-143526190D02*
X119970000Y-143526190D01*
X119970000Y-153726190D01*
X123870000Y-153726190D01*
X123870000Y-143526190D01*
X125095000Y-143526190D02*
X118745000Y-143526190D01*
X118745000Y-153670000D01*
X125095000Y-153670000D01*
X125095000Y-143526190D01*
X122538810Y-143526190D02*
G75*
G02*
X121301190Y-143526190I-618810J0D01*
G01*
D12*
%TO.C,R2*%
X83545000Y-106232936D02*
X83545000Y-107687064D01*
X85365000Y-106232936D02*
X85365000Y-107687064D01*
%TO.C,R9*%
X65765000Y-136077936D02*
X65765000Y-137532064D01*
X67585000Y-136077936D02*
X67585000Y-137532064D01*
%TO.C,R47*%
X152212064Y-75925000D02*
X150757936Y-75925000D01*
X152212064Y-77745000D02*
X150757936Y-77745000D01*
%TO.C,R5*%
X135615000Y-106232936D02*
X135615000Y-107687064D01*
X137435000Y-106232936D02*
X137435000Y-107687064D01*
%TO.C,R20*%
X107675000Y-107687064D02*
X107675000Y-106232936D01*
X109495000Y-107687064D02*
X109495000Y-106232936D01*
%TO.C,R38*%
X136337064Y-90530000D02*
X134882936Y-90530000D01*
X136337064Y-92350000D02*
X134882936Y-92350000D01*
%TO.C,U5*%
D11*
X163813810Y-86405000D02*
X153613810Y-86405000D01*
X153613810Y-82505000D01*
X163813810Y-82505000D01*
X163813810Y-86405000D01*
X163813810Y-87630000D02*
X153670000Y-87630000D01*
X153670000Y-81280000D01*
X163813810Y-81280000D01*
X163813810Y-87630000D01*
X163813810Y-85073810D02*
G75*
G02*
X163813810Y-83836190I0J618810D01*
G01*
%TO.C,U11*%
X83185000Y-79375000D02*
X67945000Y-79375000D01*
X67945000Y-94615000D01*
X83185000Y-94615000D01*
X83185000Y-79375000D01*
X85725000Y-73025000D02*
X65405000Y-73025000D01*
X65405000Y-93345000D01*
X85725000Y-93345000D01*
X85725000Y-73025000D01*
X78105000Y-73025000D02*
G75*
G02*
X73025000Y-73025000I-2540000J0D01*
G01*
D12*
%TO.C,R17*%
X54970000Y-107687064D02*
X54970000Y-106232936D01*
X56790000Y-107687064D02*
X56790000Y-106232936D01*
%TO.C,R35*%
X129352064Y-90530000D02*
X127897936Y-90530000D01*
X129352064Y-92350000D02*
X127897936Y-92350000D01*
%TO.C,R18*%
X72750000Y-107687064D02*
X72750000Y-106232936D01*
X74570000Y-107687064D02*
X74570000Y-106232936D01*
%TO.C,R31*%
X159745000Y-137532064D02*
X159745000Y-136077936D01*
X161565000Y-137532064D02*
X161565000Y-136077936D01*
%TO.C,R40*%
X115382064Y-85450000D02*
X113927936Y-85450000D01*
X115382064Y-87270000D02*
X113927936Y-87270000D01*
%TO.C,R10*%
X82910000Y-136152936D02*
X82910000Y-137607064D01*
X84730000Y-136152936D02*
X84730000Y-137607064D01*
%TO.C,R27*%
X89895000Y-137532064D02*
X89895000Y-136077936D01*
X91715000Y-137532064D02*
X91715000Y-136077936D01*
%TO.C,R13*%
X135615000Y-136077936D02*
X135615000Y-137532064D01*
X137435000Y-136077936D02*
X137435000Y-137532064D01*
%TO.C,R43*%
X162372064Y-90530000D02*
X160917936Y-90530000D01*
X162372064Y-92350000D02*
X160917936Y-92350000D01*
%TO.C,U3*%
D11*
X104820000Y-144161190D02*
X100920000Y-144161190D01*
X100920000Y-154361190D01*
X104820000Y-154361190D01*
X104820000Y-144161190D01*
X106045000Y-144161190D02*
X99695000Y-144161190D01*
X99695000Y-154305000D01*
X106045000Y-154305000D01*
X106045000Y-144161190D01*
X103488810Y-144161190D02*
G75*
G02*
X102251190Y-144161190I-618810J0D01*
G01*
D12*
%TO.C,R7*%
X170540000Y-106232936D02*
X170540000Y-107687064D01*
X172360000Y-106232936D02*
X172360000Y-107687064D01*
%TO.C,R6*%
X153395000Y-106232936D02*
X153395000Y-107687064D01*
X155215000Y-106232936D02*
X155215000Y-107687064D01*
%TO.C,R36*%
X123002064Y-90530000D02*
X121547936Y-90530000D01*
X123002064Y-92350000D02*
X121547936Y-92350000D01*
%TO.C,R14*%
X153395000Y-136077936D02*
X153395000Y-137532064D01*
X155215000Y-136077936D02*
X155215000Y-137532064D01*
%TD*%
M02*
