%TF.GenerationSoftware,KiCad,Pcbnew,9.0.3*%
%TF.CreationDate,2026-01-07T19:03:45+01:00*%
%TF.ProjectId,Learning_Numbers,4c656172-6e69-46e6-975f-4e756d626572,rev?*%
%TF.SameCoordinates,Original*%
%TF.FileFunction,Copper,L1,Top*%
%TF.FilePolarity,Positive*%
%FSLAX46Y46*%
G04 Gerber Fmt 4.6, Leading zero omitted, Abs format (unit mm)*
G04 Created by KiCad (PCBNEW 9.0.3) date 2026-01-07 19:03:45*
%MOMM*%
%LPD*%
G01*
G04 APERTURE LIST*
G04 Aperture macros list*
%AMRoundRect*
0 Rectangle with rounded corners*
0 $1 Rounding radius*
0 $2 $3 $4 $5 $6 $7 $8 $9 X,Y pos of 4 corners*
0 Add a 4 corners polygon primitive as box body*
4,1,4,$2,$3,$4,$5,$6,$7,$8,$9,$2,$3,0*
0 Add four circle primitives for the rounded corners*
1,1,$1+$1,$2,$3*
1,1,$1+$1,$4,$5*
1,1,$1+$1,$6,$7*
1,1,$1+$1,$8,$9*
0 Add four rect primitives between the rounded corners*
20,1,$1+$1,$2,$3,$4,$5,0*
20,1,$1+$1,$4,$5,$6,$7,0*
20,1,$1+$1,$6,$7,$8,$9,0*
20,1,$1+$1,$8,$9,$2,$3,0*%
G04 Aperture macros list end*
%TA.AperFunction,SMDPad,CuDef*%
%ADD10RoundRect,0.250000X0.500000X-0.750000X0.500000X0.750000X-0.500000X0.750000X-0.500000X-0.750000X0*%
%TD*%
%TA.AperFunction,ComponentPad*%
%ADD11R,1.800000X1.800000*%
%TD*%
%TA.AperFunction,ComponentPad*%
%ADD12C,1.800000*%
%TD*%
%TA.AperFunction,SMDPad,CuDef*%
%ADD13RoundRect,0.250000X0.250000X-1.150000X0.250000X1.150000X-0.250000X1.150000X-0.250000X-1.150000X0*%
%TD*%
%TA.AperFunction,ComponentPad*%
%ADD14C,2.000000*%
%TD*%
%TA.AperFunction,SMDPad,CuDef*%
%ADD15RoundRect,0.250000X-0.400000X-0.625000X0.400000X-0.625000X0.400000X0.625000X-0.400000X0.625000X0*%
%TD*%
%TA.AperFunction,ComponentPad*%
%ADD16RoundRect,0.250000X-0.350000X-0.625000X0.350000X-0.625000X0.350000X0.625000X-0.350000X0.625000X0*%
%TD*%
%TA.AperFunction,ComponentPad*%
%ADD17O,1.200000X1.750000*%
%TD*%
%TA.AperFunction,ComponentPad*%
%ADD18R,1.440000X2.000000*%
%TD*%
%TA.AperFunction,ComponentPad*%
%ADD19O,1.440000X2.000000*%
%TD*%
%TA.AperFunction,ComponentPad*%
%ADD20RoundRect,0.250000X0.350000X0.625000X-0.350000X0.625000X-0.350000X-0.625000X0.350000X-0.625000X0*%
%TD*%
%TA.AperFunction,ComponentPad*%
%ADD21O,1.600000X1.600000*%
%TD*%
%TA.AperFunction,ViaPad*%
%ADD22C,0.600000*%
%TD*%
%TA.AperFunction,Conductor*%
%ADD23C,0.200000*%
%TD*%
G04 APERTURE END LIST*
D10*
%TO.P,SW6,1,1*%
%TO.N,Switch5*%
X128750000Y-125900000D03*
X128750000Y-111600000D03*
%TO.P,SW6,2,2*%
%TO.N,VCC*%
X133750000Y-125900000D03*
X133750000Y-111600000D03*
%TD*%
%TO.P,SW7,1,1*%
%TO.N,Switch6*%
X146250000Y-125900000D03*
X146250000Y-111600000D03*
%TO.P,SW7,2,2*%
%TO.N,VCC*%
X151250000Y-125900000D03*
X151250000Y-111600000D03*
%TD*%
D11*
%TO.P,D8,1,K*%
%TO.N,GND*%
X182480000Y-107000000D03*
D12*
%TO.P,D8,2,A*%
%TO.N,Net-(D8-A)*%
X185020000Y-107000000D03*
%TD*%
D10*
%TO.P,SW2,1,1*%
%TO.N,Switch1*%
X58750000Y-125900000D03*
X58750000Y-111600000D03*
%TO.P,SW2,2,2*%
%TO.N,VCC*%
X63750000Y-125900000D03*
X63750000Y-111600000D03*
%TD*%
D11*
%TO.P,D5,1,K*%
%TO.N,GND*%
X129980000Y-107000000D03*
D12*
%TO.P,D5,2,A*%
%TO.N,Net-(D5-A)*%
X132520000Y-107000000D03*
%TD*%
D13*
%TO.P,SW23,1,1*%
%TO.N,PC5*%
X90100000Y-77800000D03*
X90100000Y-72000000D03*
%TO.P,SW23,2,2*%
%TO.N,GND*%
X94100000Y-77800000D03*
X94100000Y-72000000D03*
%TD*%
D10*
%TO.P,SW13,1,1*%
%TO.N,Switch12*%
X111250000Y-155900000D03*
X111250000Y-141600000D03*
%TO.P,SW13,2,2*%
%TO.N,VCC*%
X116250000Y-155900000D03*
X116250000Y-141600000D03*
%TD*%
%TO.P,SW5,1,1*%
%TO.N,Switch4*%
X111250000Y-125900000D03*
X111250000Y-111600000D03*
%TO.P,SW5,2,2*%
%TO.N,VCC*%
X116250000Y-125900000D03*
X116250000Y-111600000D03*
%TD*%
D13*
%TO.P,SW22,1,1*%
%TO.N,PC4*%
X90100000Y-89000000D03*
X90100000Y-83200000D03*
%TO.P,SW22,2,2*%
%TO.N,GND*%
X94100000Y-89000000D03*
X94100000Y-83200000D03*
%TD*%
D10*
%TO.P,SW3,1,1*%
%TO.N,Switch2*%
X76250000Y-125900000D03*
X76250000Y-111600000D03*
%TO.P,SW3,2,2*%
%TO.N,VCC*%
X81250000Y-125900000D03*
X81250000Y-111600000D03*
%TD*%
D13*
%TO.P,SW21,1,1*%
%TO.N,PC3*%
X57100000Y-100200000D03*
X57100000Y-94400000D03*
%TO.P,SW21,2,2*%
%TO.N,GND*%
X61100000Y-100200000D03*
X61100000Y-94400000D03*
%TD*%
D10*
%TO.P,SW15,1,1*%
%TO.N,Switch14*%
X146250000Y-155900000D03*
X146250000Y-141600000D03*
%TO.P,SW15,2,2*%
%TO.N,VCC*%
X151250000Y-155900000D03*
X151250000Y-141600000D03*
%TD*%
%TO.P,SW11,1,1*%
%TO.N,Switch10*%
X76250000Y-155900000D03*
X76250000Y-141600000D03*
%TO.P,SW11,2,2*%
%TO.N,VCC*%
X81250000Y-155900000D03*
X81250000Y-141600000D03*
%TD*%
D11*
%TO.P,D4,1,K*%
%TO.N,GND*%
X112480000Y-107000000D03*
D12*
%TO.P,D4,2,A*%
%TO.N,Net-(D4-A)*%
X115020000Y-107000000D03*
%TD*%
D11*
%TO.P,D16,1,K*%
%TO.N,GND*%
X182480000Y-137000000D03*
D12*
%TO.P,D16,2,A*%
%TO.N,Net-(D16-A)*%
X185020000Y-137000000D03*
%TD*%
D10*
%TO.P,SW9,1,1*%
%TO.N,Switch8*%
X181250000Y-125900000D03*
X181250000Y-111600000D03*
%TO.P,SW9,2,2*%
%TO.N,VCC*%
X186250000Y-125900000D03*
X186250000Y-111600000D03*
%TD*%
%TO.P,SW8,1,1*%
%TO.N,Switch7*%
X163750000Y-125900000D03*
X163750000Y-111600000D03*
%TO.P,SW8,2,2*%
%TO.N,VCC*%
X168750000Y-125900000D03*
X168750000Y-111600000D03*
%TD*%
D11*
%TO.P,D6,1,K*%
%TO.N,GND*%
X147480000Y-107000000D03*
D12*
%TO.P,D6,2,A*%
%TO.N,Net-(D6-A)*%
X150020000Y-107000000D03*
%TD*%
D10*
%TO.P,SW16,1,1*%
%TO.N,Switch15*%
X163750000Y-155900000D03*
X163750000Y-141600000D03*
%TO.P,SW16,2,2*%
%TO.N,VCC*%
X168750000Y-155900000D03*
X168750000Y-141600000D03*
%TD*%
D11*
%TO.P,D7,1,K*%
%TO.N,GND*%
X164980000Y-107000000D03*
D12*
%TO.P,D7,2,A*%
%TO.N,Net-(D7-A)*%
X167520000Y-107000000D03*
%TD*%
D11*
%TO.P,D2,1,K*%
%TO.N,GND*%
X77480000Y-107000000D03*
D12*
%TO.P,D2,2,A*%
%TO.N,Net-(D2-A)*%
X80020000Y-107000000D03*
%TD*%
D11*
%TO.P,D1,1,K*%
%TO.N,GND*%
X59980000Y-107000000D03*
D12*
%TO.P,D1,2,A*%
%TO.N,Net-(D1-A)*%
X62520000Y-107000000D03*
%TD*%
D10*
%TO.P,SW14,1,1*%
%TO.N,Switch13*%
X128750000Y-155900000D03*
X128750000Y-141600000D03*
%TO.P,SW14,2,2*%
%TO.N,VCC*%
X133750000Y-155900000D03*
X133750000Y-141600000D03*
%TD*%
D13*
%TO.P,SW19,1,1*%
%TO.N,PC1*%
X57100000Y-77800000D03*
X57100000Y-72000000D03*
%TO.P,SW19,2,2*%
%TO.N,GND*%
X61100000Y-77800000D03*
X61100000Y-72000000D03*
%TD*%
D11*
%TO.P,D12,1,K*%
%TO.N,GND*%
X112480000Y-137000000D03*
D12*
%TO.P,D12,2,A*%
%TO.N,Net-(D12-A)*%
X115020000Y-137000000D03*
%TD*%
D14*
%TO.P,U9,1*%
%TO.N,row5*%
X117310000Y-95890000D03*
%TO.P,U9,2*%
%TO.N,row7*%
X119850000Y-95890000D03*
%TO.P,U9,3*%
%TO.N,Net-(R35-Pad2)*%
X122390000Y-95890000D03*
%TO.P,U9,4*%
%TO.N,Net-(R36-Pad2)*%
X124930000Y-95890000D03*
%TO.P,U9,5*%
%TO.N,row8*%
X127470000Y-95890000D03*
%TO.P,U9,6*%
%TO.N,Net-(R38-Pad2)*%
X130010000Y-95890000D03*
%TO.P,U9,7*%
%TO.N,row6*%
X132550000Y-95890000D03*
%TO.P,U9,8*%
%TO.N,row3*%
X135090000Y-95890000D03*
%TO.P,U9,9*%
%TO.N,row1*%
X135090000Y-71890000D03*
%TO.P,U9,10*%
%TO.N,Net-(R37-Pad2)*%
X132550000Y-71890000D03*
%TO.P,U9,11*%
%TO.N,Net-(R39-Pad2)*%
X130010000Y-71890000D03*
%TO.P,U9,12*%
%TO.N,row4*%
X127470000Y-71890000D03*
%TO.P,U9,13*%
%TO.N,Net-(R34-Pad2)*%
X124930000Y-71890000D03*
%TO.P,U9,14*%
%TO.N,row2*%
X122390000Y-71890000D03*
%TO.P,U9,15*%
%TO.N,Net-(R40-Pad2)*%
X119850000Y-71890000D03*
%TO.P,U9,16*%
%TO.N,Net-(R41-Pad2)*%
X117310000Y-71890000D03*
%TD*%
D11*
%TO.P,D9,1,K*%
%TO.N,GND*%
X59980000Y-137000000D03*
D12*
%TO.P,D9,2,A*%
%TO.N,Net-(D9-A)*%
X62520000Y-137000000D03*
%TD*%
D10*
%TO.P,SW18,1,1*%
%TO.N,PC0*%
X181250000Y-85930000D03*
X181250000Y-71630000D03*
%TO.P,SW18,2,2*%
%TO.N,GND*%
X186250000Y-85930000D03*
X186250000Y-71630000D03*
%TD*%
%TO.P,SW4,1,1*%
%TO.N,Switch3*%
X93750000Y-125900000D03*
X93750000Y-111600000D03*
%TO.P,SW4,2,2*%
%TO.N,VCC*%
X98750000Y-125900000D03*
X98750000Y-111600000D03*
%TD*%
%TO.P,SW10,1,1*%
%TO.N,Switch9*%
X58750000Y-155900000D03*
X58750000Y-141600000D03*
%TO.P,SW10,2,2*%
%TO.N,VCC*%
X63750000Y-155900000D03*
X63750000Y-141600000D03*
%TD*%
D11*
%TO.P,D15,1,K*%
%TO.N,GND*%
X164980000Y-137000000D03*
D12*
%TO.P,D15,2,A*%
%TO.N,Net-(D15-A)*%
X167520000Y-137000000D03*
%TD*%
D11*
%TO.P,D11,1,K*%
%TO.N,GND*%
X94980000Y-137000000D03*
D12*
%TO.P,D11,2,A*%
%TO.N,Net-(D11-A)*%
X97520000Y-137000000D03*
%TD*%
D10*
%TO.P,SW17,1,1*%
%TO.N,Switch16*%
X181250000Y-155900000D03*
X181250000Y-141600000D03*
%TO.P,SW17,2,2*%
%TO.N,VCC*%
X186250000Y-155900000D03*
X186250000Y-141600000D03*
%TD*%
D11*
%TO.P,D14,1,K*%
%TO.N,GND*%
X147480000Y-137000000D03*
D12*
%TO.P,D14,2,A*%
%TO.N,Net-(D14-A)*%
X150020000Y-137000000D03*
%TD*%
D15*
%TO.P,R33,1*%
%TO.N,Net-(U11-RX)*%
X89000000Y-95250000D03*
%TO.P,R33,2*%
%TO.N,DFPlayer_RX*%
X92100000Y-95250000D03*
%TD*%
D14*
%TO.P,U10,1*%
%TO.N,row5*%
X149310000Y-95890000D03*
%TO.P,U10,2*%
%TO.N,row7*%
X151850000Y-95890000D03*
%TO.P,U10,3*%
%TO.N,Net-(R43-Pad2)*%
X154390000Y-95890000D03*
%TO.P,U10,4*%
%TO.N,Net-(R44-Pad2)*%
X156930000Y-95890000D03*
%TO.P,U10,5*%
%TO.N,row8*%
X159470000Y-95890000D03*
%TO.P,U10,6*%
%TO.N,Net-(R46-Pad2)*%
X162010000Y-95890000D03*
%TO.P,U10,7*%
%TO.N,row6*%
X164550000Y-95890000D03*
%TO.P,U10,8*%
%TO.N,row3*%
X167090000Y-95890000D03*
%TO.P,U10,9*%
%TO.N,row1*%
X167090000Y-71890000D03*
%TO.P,U10,10*%
%TO.N,Net-(R45-Pad2)*%
X164550000Y-71890000D03*
%TO.P,U10,11*%
%TO.N,Net-(R47-Pad2)*%
X162010000Y-71890000D03*
%TO.P,U10,12*%
%TO.N,row4*%
X159470000Y-71890000D03*
%TO.P,U10,13*%
%TO.N,Net-(R42-Pad2)*%
X156930000Y-71890000D03*
%TO.P,U10,14*%
%TO.N,row2*%
X154390000Y-71890000D03*
%TO.P,U10,15*%
%TO.N,Net-(R48-Pad2)*%
X151850000Y-71890000D03*
%TO.P,U10,16*%
%TO.N,Net-(R49-Pad2)*%
X149310000Y-71890000D03*
%TD*%
D10*
%TO.P,SW12,1,1*%
%TO.N,Switch11*%
X93750000Y-155900000D03*
X93750000Y-141600000D03*
%TO.P,SW12,2,2*%
%TO.N,VCC*%
X98750000Y-155900000D03*
X98750000Y-141600000D03*
%TD*%
D13*
%TO.P,SW20,1,1*%
%TO.N,PC2*%
X57100000Y-89000000D03*
X57100000Y-83200000D03*
%TO.P,SW20,2,2*%
%TO.N,GND*%
X61100000Y-89000000D03*
X61100000Y-83200000D03*
%TD*%
D11*
%TO.P,D13,1,K*%
%TO.N,GND*%
X129980000Y-137000000D03*
D12*
%TO.P,D13,2,A*%
%TO.N,Net-(D13-A)*%
X132520000Y-137000000D03*
%TD*%
D11*
%TO.P,D3,1,K*%
%TO.N,GND*%
X94980000Y-107000000D03*
D12*
%TO.P,D3,2,A*%
%TO.N,Net-(D3-A)*%
X97520000Y-107000000D03*
%TD*%
D11*
%TO.P,D10,1,K*%
%TO.N,GND*%
X77480000Y-137000000D03*
D12*
%TO.P,D10,2,A*%
%TO.N,Net-(D10-A)*%
X80020000Y-137000000D03*
%TD*%
D16*
%TO.P,BT1,1,+*%
%TO.N,Net-(BT1-+)*%
X173625000Y-158660000D03*
D17*
%TO.P,BT1,2,-*%
%TO.N,GND*%
X175625000Y-158660000D03*
%TD*%
D18*
%TO.P,U1,1,~{RESET}/PC6*%
%TO.N,unconnected-(U1-~{RESET}{slash}PC6-Pad1)*%
X145415000Y-64135000D03*
D19*
%TO.P,U1,2,PD0*%
%TO.N,DFPlayer_TX*%
X142875000Y-64135000D03*
%TO.P,U1,3,PD1*%
%TO.N,DFPlayer_RX*%
X140335000Y-64135000D03*
%TO.P,U1,4,PD2*%
%TO.N,unconnected-(U1-PD2-Pad4)*%
X137795000Y-64135000D03*
%TO.P,U1,5,PD3*%
%TO.N,unconnected-(U1-PD3-Pad5)*%
X135255000Y-64135000D03*
%TO.P,U1,6,PD4*%
%TO.N,unconnected-(U1-PD4-Pad6)*%
X132715000Y-64135000D03*
%TO.P,U1,7,VCC*%
%TO.N,VCC*%
X130175000Y-64135000D03*
%TO.P,U1,8,GND*%
%TO.N,GND*%
X127635000Y-64135000D03*
%TO.P,U1,9,XTAL1/PB6*%
%TO.N,unconnected-(U1-XTAL1{slash}PB6-Pad9)*%
X125095000Y-64135000D03*
%TO.P,U1,10,XTAL2/PB7*%
%TO.N,unconnected-(U1-XTAL2{slash}PB7-Pad10)*%
X122555000Y-64135000D03*
%TO.P,U1,11,PD5*%
%TO.N,unconnected-(U1-PD5-Pad11)*%
X120015000Y-64135000D03*
%TO.P,U1,12,PD6*%
%TO.N,unconnected-(U1-PD6-Pad12)*%
X117475000Y-64135000D03*
%TO.P,U1,13,PD7*%
%TO.N,unconnected-(U1-PD7-Pad13)*%
X114935000Y-64135000D03*
%TO.P,U1,14,PB0*%
%TO.N,unconnected-(U1-PB0-Pad14)*%
X112395000Y-64135000D03*
%TO.P,U1,15,PB1*%
%TO.N,LATCH*%
X112395000Y-56515000D03*
%TO.P,U1,16,PB2*%
%TO.N,PL*%
X114935000Y-56515000D03*
%TO.P,U1,17,PB3*%
%TO.N,SER*%
X117475000Y-56515000D03*
%TO.P,U1,18,PB4*%
%TO.N,Net-(U1-PB4)*%
X120015000Y-56515000D03*
%TO.P,U1,19,PB5*%
%TO.N,CLOCK*%
X122555000Y-56515000D03*
%TO.P,U1,20,AVCC*%
%TO.N,unconnected-(U1-AVCC-Pad20)*%
X125095000Y-56515000D03*
%TO.P,U1,21,AREF*%
%TO.N,unconnected-(U1-AREF-Pad21)*%
X127635000Y-56515000D03*
%TO.P,U1,22,GND*%
%TO.N,GND*%
X130175000Y-56515000D03*
%TO.P,U1,23,PC0*%
%TO.N,PC0*%
X132715000Y-56515000D03*
%TO.P,U1,24,PC1*%
%TO.N,PC1*%
X135255000Y-56515000D03*
%TO.P,U1,25,PC2*%
%TO.N,PC2*%
X137795000Y-56515000D03*
%TO.P,U1,26,PC3*%
%TO.N,PC3*%
X140335000Y-56515000D03*
%TO.P,U1,27,PC4*%
%TO.N,PC4*%
X142875000Y-56515000D03*
%TO.P,U1,28,PC5*%
%TO.N,PC5*%
X145415000Y-56515000D03*
%TD*%
D16*
%TO.P,SW1,1*%
%TO.N,Net-(BT1-+)*%
X139335000Y-158660000D03*
D17*
%TO.P,SW1,2*%
%TO.N,VCC*%
X141335000Y-158660000D03*
%TD*%
D20*
%TO.P,LS1,1,1*%
%TO.N,Net-(U11-SPK_1)*%
X100965000Y-46990000D03*
D17*
%TO.P,LS1,2,2*%
%TO.N,GND*%
X98965000Y-46990000D03*
%TD*%
D21*
%TO.P,U11,1,VCC*%
%TO.N,VCC*%
X84455000Y-74295000D03*
%TO.P,U11,2,RX*%
%TO.N,Net-(U11-RX)*%
X84455000Y-76835000D03*
%TO.P,U11,3,TX*%
%TO.N,DFPlayer_TX*%
X84455000Y-79375000D03*
%TO.P,U11,4,DAC_R*%
%TO.N,unconnected-(U11-DAC_R-Pad4)*%
X84455000Y-81915000D03*
%TO.P,U11,5,DAC_L*%
%TO.N,unconnected-(U11-DAC_L-Pad5)*%
X84455000Y-84455000D03*
%TO.P,U11,6,SPK_1*%
%TO.N,Net-(U11-SPK_1)*%
X84455000Y-86995000D03*
%TO.P,U11,7,GND*%
%TO.N,GND*%
X84455000Y-89535000D03*
%TO.P,U11,8,SPK_2*%
%TO.N,unconnected-(U11-SPK_2-Pad8)*%
X84455000Y-92075000D03*
%TO.P,U11,9,IO_1*%
%TO.N,unconnected-(U11-IO_1-Pad9)*%
X66675000Y-92075000D03*
%TO.P,U11,10,GND*%
%TO.N,unconnected-(U11-GND-Pad10)*%
X66675000Y-89535000D03*
%TO.P,U11,11,IO_2*%
%TO.N,unconnected-(U11-IO_2-Pad11)*%
X66675000Y-86995000D03*
%TO.P,U11,12,KEY_1*%
%TO.N,unconnected-(U11-KEY_1-Pad12)*%
X66675000Y-84455000D03*
%TO.P,U11,13,KEY_2*%
%TO.N,unconnected-(U11-KEY_2-Pad13)*%
X66675000Y-81915000D03*
%TO.P,U11,14,USB+*%
%TO.N,unconnected-(U11-USB+-Pad14)*%
X66675000Y-79375000D03*
%TO.P,U11,15,USB-*%
%TO.N,unconnected-(U11-USB--Pad15)*%
X66675000Y-76835000D03*
%TO.P,U11,16,BUSY*%
%TO.N,unconnected-(U11-BUSY-Pad16)*%
X66675000Y-74295000D03*
%TD*%
D22*
%TO.N,DFPlayer_TX*%
X93345000Y-80645000D03*
%TO.N,DFPlayer_RX*%
X109220000Y-74930000D03*
X92075000Y-93345000D03*
%TO.N,LATCH*%
X122555000Y-79375000D03*
X109855000Y-83185000D03*
X105410000Y-83185000D03*
X173355000Y-61595000D03*
X173355000Y-57785000D03*
%TO.N,Net-(U5-QH')*%
X113030000Y-94615000D03*
X156845000Y-84455000D03*
%TO.N,VCC*%
X99060000Y-83185000D03*
X102235000Y-86360000D03*
X109961765Y-84983235D03*
X121391765Y-80116765D03*
%TO.N,GND*%
X140970000Y-80645000D03*
%TO.N,Net-(U4-QH')*%
X160655000Y-83185000D03*
X123190000Y-83820000D03*
%TO.N,GND*%
X92075000Y-90805000D03*
%TO.N,CLOCK*%
X156845000Y-80645000D03*
X124460000Y-80645000D03*
X109855000Y-88265000D03*
X111125000Y-83820000D03*
%TO.N,GND*%
X120650000Y-85725000D03*
X127000000Y-83185000D03*
X158750000Y-83820000D03*
X151765000Y-87630000D03*
X140335000Y-88900000D03*
%TO.N,row2*%
X138430000Y-70485000D03*
X135890000Y-69215000D03*
%TO.N,CLOCK*%
X108585000Y-91440000D03*
%TO.N,row4*%
X137148080Y-71120000D03*
X134513235Y-69321765D03*
%TO.N,VCC*%
X158750000Y-102870000D03*
X157480000Y-99695000D03*
%TO.N,LATCH*%
X106045000Y-91440000D03*
%TO.N,SER*%
X114935000Y-89535000D03*
X114935000Y-99060000D03*
%TO.N,LATCH*%
X109855000Y-63500000D03*
X109855000Y-66675000D03*
%TO.N,GND*%
X125730000Y-123825000D03*
X122555000Y-123190000D03*
X120650000Y-119380000D03*
%TO.N,SER*%
X120650000Y-118110000D03*
%TO.N,VCC*%
X120650000Y-123190000D03*
X120650000Y-120650000D03*
X116840000Y-123825000D03*
X131445000Y-123825000D03*
X135255000Y-124460000D03*
X147955000Y-123190000D03*
X160020000Y-120650000D03*
X184150000Y-122555000D03*
X166370000Y-122555000D03*
%TO.N,GND*%
X104775000Y-120015000D03*
X102870000Y-118110000D03*
%TO.N,VCC*%
X99695000Y-115570000D03*
%TO.N,led8*%
X155575000Y-114935000D03*
X160020000Y-113665000D03*
%TO.N,led7*%
X155575000Y-113030000D03*
X160020000Y-112395000D03*
%TO.N,led3*%
X102870000Y-112899997D03*
X108585000Y-114935000D03*
%TO.N,led2*%
X108691765Y-116098235D03*
X99695000Y-113499997D03*
%TO.N,led1*%
X109220000Y-117475000D03*
X99695000Y-114300000D03*
%TO.N,GND*%
X65405000Y-100330000D03*
X106045000Y-101600000D03*
X109243845Y-101623845D03*
%TO.N,Switch8*%
X109855000Y-127000000D03*
%TO.N,Switch7*%
X113485662Y-127115151D03*
%TO.N,Switch6*%
X114175735Y-126710425D03*
%TO.N,Switch5*%
X114300000Y-123190000D03*
%TO.N,LATCH*%
X125201765Y-130068235D03*
%TO.N,Switch4*%
X102235000Y-119380000D03*
%TO.N,Switch3*%
X95250000Y-117475000D03*
%TO.N,Switch2*%
X80010000Y-118745000D03*
%TO.N,Switch1*%
X61595000Y-123825000D03*
%TO.N,Switch8*%
X179070000Y-110490000D03*
%TO.N,Switch7*%
X161925000Y-110490000D03*
%TO.N,Switch6*%
X144780000Y-111125000D03*
%TO.N,Switch5*%
X127000000Y-111125000D03*
%TO.N,Switch4*%
X109855000Y-111125000D03*
%TO.N,Switch3*%
X92075000Y-110490000D03*
%TO.N,Switch2*%
X75565000Y-109855000D03*
%TO.N,Switch1*%
X58420000Y-109855000D03*
%TO.N,VCC*%
X159385000Y-129540000D03*
%TO.N,Net-(U7-QH')*%
X139065000Y-130810000D03*
X138430000Y-139065000D03*
%TO.N,CLOCK*%
X105410000Y-106045000D03*
X111125000Y-160655000D03*
%TO.N,PL*%
X105410000Y-126365000D03*
X188595000Y-130810000D03*
%TO.N,Net-(U1-PB4)*%
X62230000Y-158750000D03*
X98425000Y-60960000D03*
%TO.N,LATCH*%
X190500000Y-130810000D03*
%TO.N,Switch16*%
X116850000Y-151765000D03*
X122555000Y-157314997D03*
%TO.N,PL*%
X104140000Y-146050000D03*
X102235000Y-147320000D03*
X118110000Y-158115000D03*
X122555000Y-158115000D03*
%TO.N,Net-(U2-Q7)*%
X99695000Y-128270000D03*
X87630000Y-141605000D03*
X88265000Y-152400000D03*
X87630000Y-139065000D03*
%TO.N,PC5*%
X92710000Y-72390000D03*
%TO.N,PC4*%
X91440000Y-81280000D03*
%TO.N,PC3*%
X57150000Y-91440000D03*
%TO.N,PC2*%
X57150000Y-80645000D03*
%TO.N,PC1*%
X59055000Y-71120000D03*
%TO.N,GND*%
X93345000Y-139065000D03*
X175260000Y-155575000D03*
X184150000Y-91440000D03*
X110490000Y-153035000D03*
X101450735Y-145900735D03*
X113665000Y-149225000D03*
X104246765Y-150388235D03*
%TO.N,VCC*%
X117475000Y-153035000D03*
X118110000Y-143510000D03*
X100330000Y-142875000D03*
X152400000Y-144145000D03*
X156845000Y-79375000D03*
X165100000Y-80010000D03*
X156210000Y-147955000D03*
%TO.N,Net-(D13-A)*%
X135255000Y-135255000D03*
%TO.N,led9*%
X102870000Y-140335000D03*
X118110000Y-140335000D03*
X121920000Y-144780000D03*
X99766806Y-140300000D03*
%TO.N,led10*%
X123825000Y-142875000D03*
X89535000Y-139700000D03*
%TO.N,led11*%
X119380000Y-140335000D03*
X122555000Y-144145000D03*
%TO.N,led12*%
X122555000Y-140335000D03*
X126365000Y-142875000D03*
%TO.N,Switch9*%
X62230000Y-153670000D03*
%TO.N,Switch10*%
X97155000Y-148590000D03*
X74295000Y-141605000D03*
%TO.N,Switch11*%
X97979266Y-148565737D03*
%TO.N,Switch12*%
X109855000Y-142240000D03*
X107950000Y-144780000D03*
X101600000Y-148590000D03*
%TO.N,Switch13*%
X127000000Y-140970000D03*
%TO.N,Switch14*%
X143510000Y-141605000D03*
%TO.N,Switch15*%
X158750000Y-139700000D03*
X107315000Y-142875000D03*
X162560000Y-139700000D03*
%TO.N,Switch16*%
X179705000Y-139700000D03*
%TO.N,Net-(R34-Pad2)*%
X125730000Y-74930000D03*
%TO.N,Net-(R35-Pad2)*%
X124460000Y-93980000D03*
%TO.N,col5*%
X126365000Y-88900000D03*
X131445000Y-88900000D03*
%TO.N,Net-(R42-Pad2)*%
X156210000Y-73660000D03*
X156210000Y-75565000D03*
%TO.N,col12*%
X161925000Y-85725000D03*
X166370000Y-83185000D03*
%TO.N,CLOCK*%
X107315000Y-146050000D03*
X115570000Y-149860000D03*
%TO.N,row7*%
X100330000Y-91440000D03*
%TO.N,row6*%
X104140000Y-92075000D03*
%TO.N,row1*%
X110490000Y-95885000D03*
%TO.N,row5*%
X104140000Y-94615000D03*
%TO.N,row3*%
X104775000Y-98425000D03*
%TO.N,row8*%
X99695000Y-90805000D03*
%TD*%
D23*
%TO.N,Net-(U1-PB4)*%
X98425000Y-60960000D02*
X97322000Y-62063000D01*
X97322000Y-62063000D02*
X97322000Y-75398000D01*
%TO.N,DFPlayer_TX*%
X84455000Y-79375000D02*
X83354000Y-78274000D01*
X83354000Y-78274000D02*
X83354000Y-76378950D01*
X90758840Y-80645000D02*
X93345000Y-80645000D01*
X83354000Y-76378950D02*
X83998950Y-75734000D01*
X83998950Y-75734000D02*
X85847840Y-75734000D01*
X85847840Y-75734000D02*
X90758840Y-80645000D01*
%TO.N,DFPlayer_RX*%
X113561000Y-70589000D02*
X109220000Y-74930000D01*
X122904912Y-70589000D02*
X113561000Y-70589000D01*
X128656000Y-64837912D02*
X122904912Y-70589000D01*
X139034000Y-62834000D02*
X129752088Y-62834000D01*
X128656000Y-63930088D02*
X128656000Y-64837912D01*
X129752088Y-62834000D02*
X128656000Y-63930088D01*
X140335000Y-64135000D02*
X139034000Y-62834000D01*
X92075000Y-93345000D02*
X92075000Y-95225000D01*
X92075000Y-95225000D02*
X92100000Y-95250000D01*
%TO.N,LATCH*%
X122555000Y-79375000D02*
X116419943Y-79375000D01*
X111373943Y-84421000D02*
X110822000Y-84421000D01*
X109855000Y-83454000D02*
X109855000Y-83185000D01*
X110822000Y-84421000D02*
X109855000Y-83454000D01*
X116419943Y-79375000D02*
X111373943Y-84421000D01*
X104140000Y-73660000D02*
X104140000Y-84455000D01*
X105410000Y-83185000D02*
X104140000Y-84455000D01*
X173355000Y-62865000D02*
X173355000Y-57785000D01*
X173355000Y-61595000D02*
X173355000Y-62865000D01*
%TO.N,Net-(U5-QH')*%
X117876000Y-89769000D02*
X151531000Y-89769000D01*
X113030000Y-94615000D02*
X117876000Y-89769000D01*
X151531000Y-89769000D02*
X156845000Y-84455000D01*
%TO.N,VCC*%
X102235000Y-86360000D02*
X99060000Y-83185000D01*
X116525295Y-84983235D02*
X109961765Y-84983235D01*
X121391765Y-80116765D02*
X116525295Y-84983235D01*
%TO.N,GND*%
X127635000Y-64135000D02*
X127635000Y-63500000D01*
X127635000Y-63500000D02*
X130175000Y-60960000D01*
X130175000Y-60960000D02*
X130175000Y-56515000D01*
X140335000Y-81280000D02*
X140970000Y-80645000D01*
X140335000Y-88900000D02*
X140335000Y-81280000D01*
%TO.N,Net-(U4-QH')*%
X156210000Y-83185000D02*
X160655000Y-83185000D01*
X127635000Y-79375000D02*
X135255000Y-79375000D01*
X123190000Y-83820000D02*
X127635000Y-79375000D01*
X135255000Y-79375000D02*
X152400000Y-79375000D01*
X152400000Y-79375000D02*
X156210000Y-83185000D01*
%TO.N,CLOCK*%
X124460000Y-76200000D02*
X134620000Y-76200000D01*
X134620000Y-76200000D02*
X137160000Y-73660000D01*
X137160000Y-73660000D02*
X149860000Y-73660000D01*
X149860000Y-73660000D02*
X156845000Y-80645000D01*
X111125000Y-83820000D02*
X120650000Y-74295000D01*
X122555000Y-76200000D02*
X124460000Y-76200000D01*
X120650000Y-74295000D02*
X122555000Y-76200000D01*
X124460000Y-76200000D02*
X124460000Y-80645000D01*
%TO.N,GND*%
X92075000Y-90805000D02*
X92295000Y-90805000D01*
X92295000Y-90805000D02*
X94100000Y-89000000D01*
%TO.N,CLOCK*%
X109855000Y-90170000D02*
X109855000Y-88265000D01*
X108585000Y-91440000D02*
X109855000Y-90170000D01*
%TO.N,GND*%
X124460000Y-85725000D02*
X120650000Y-85725000D01*
X127000000Y-83185000D02*
X124460000Y-85725000D01*
X134620000Y-83185000D02*
X127000000Y-83185000D01*
X140335000Y-88900000D02*
X134620000Y-83185000D01*
X155575000Y-83820000D02*
X158750000Y-83820000D01*
X151765000Y-87630000D02*
X155575000Y-83820000D01*
X150495000Y-88900000D02*
X151765000Y-87630000D01*
X140335000Y-88900000D02*
X150495000Y-88900000D01*
%TO.N,row2*%
X122390000Y-71890000D02*
X125559235Y-68720765D01*
X125559235Y-68720765D02*
X135395765Y-68720765D01*
X135395765Y-68720765D02*
X135890000Y-69215000D01*
X138430000Y-70485000D02*
X152985000Y-70485000D01*
X152985000Y-70485000D02*
X154390000Y-71890000D01*
%TO.N,row4*%
X137148080Y-71120000D02*
X137148080Y-69226920D01*
X137148080Y-69226920D02*
X139299000Y-67076000D01*
X139299000Y-67076000D02*
X157246000Y-67076000D01*
X157246000Y-67076000D02*
X159470000Y-69300000D01*
X159470000Y-69300000D02*
X159470000Y-71890000D01*
%TO.N,row1*%
X167090000Y-71890000D02*
X161875000Y-66675000D01*
X136729000Y-69011000D02*
X136729000Y-70251000D01*
X161875000Y-66675000D02*
X139065000Y-66675000D01*
X139065000Y-66675000D02*
X136729000Y-69011000D01*
X136729000Y-70251000D02*
X135090000Y-71890000D01*
%TO.N,VCC*%
X130175000Y-64135000D02*
X132080000Y-66040000D01*
X132080000Y-66040000D02*
X168275000Y-66040000D01*
X168275000Y-66040000D02*
X169545000Y-67310000D01*
X169545000Y-67310000D02*
X169545000Y-75565000D01*
X169545000Y-75565000D02*
X165100000Y-80010000D01*
%TO.N,row1*%
X135090000Y-71890000D02*
X131449000Y-75531000D01*
X113030000Y-88900000D02*
X115149943Y-88900000D01*
X131449000Y-75531000D02*
X123791000Y-75531000D01*
X123791000Y-75531000D02*
X121920000Y-73660000D01*
X121920000Y-73660000D02*
X113030000Y-73660000D01*
X113030000Y-73660000D02*
X108986000Y-77704000D01*
X108986000Y-77704000D02*
X108986000Y-84923900D01*
X108986000Y-84923900D02*
X109053900Y-84923900D01*
X109053900Y-84923900D02*
X113030000Y-88900000D01*
X115149943Y-88900000D02*
X115570000Y-89320057D01*
X115570000Y-89320057D02*
X115570000Y-90805000D01*
X115570000Y-90805000D02*
X110490000Y-95885000D01*
%TO.N,CLOCK*%
X107984000Y-92041000D02*
X108585000Y-91440000D01*
X100750057Y-86995000D02*
X105796057Y-92041000D01*
X97790000Y-86995000D02*
X100750057Y-86995000D01*
X105796057Y-92041000D02*
X107984000Y-92041000D01*
X97790000Y-78740000D02*
X97790000Y-86995000D01*
%TO.N,row4*%
X127470000Y-71890000D02*
X130038235Y-69321765D01*
X130038235Y-69321765D02*
X134513235Y-69321765D01*
%TO.N,VCC*%
X158750000Y-102870000D02*
X158750000Y-100965000D01*
X158750000Y-100965000D02*
X157480000Y-99695000D01*
%TO.N,LATCH*%
X104140000Y-89535000D02*
X106045000Y-91440000D01*
X104140000Y-84455000D02*
X104140000Y-89535000D01*
X108698188Y-66675000D02*
X106736594Y-68636594D01*
X109855000Y-66675000D02*
X108698188Y-66675000D01*
X106736594Y-68636594D02*
X104140000Y-71233188D01*
X104140000Y-71233188D02*
X104140000Y-73660000D01*
%TO.N,SER*%
X108585000Y-85090000D02*
X111125000Y-87630000D01*
X123576000Y-55812088D02*
X123576000Y-65019000D01*
X121920000Y-66675000D02*
X113665000Y-66675000D01*
X111125000Y-87630000D02*
X113030000Y-89535000D01*
X113030000Y-89535000D02*
X114935000Y-89535000D01*
X113665000Y-66675000D02*
X108585000Y-71755000D01*
X108585000Y-71755000D02*
X108585000Y-85090000D01*
X122555000Y-66040000D02*
X121920000Y-66675000D01*
X123576000Y-65019000D02*
X122555000Y-66040000D01*
X114935000Y-99060000D02*
X114935000Y-100330000D01*
%TO.N,LATCH*%
X112395000Y-60960000D02*
X109855000Y-63500000D01*
X112395000Y-56515000D02*
X112395000Y-60960000D01*
%TO.N,GND*%
X125730000Y-111250000D02*
X125730000Y-123825000D01*
X129980000Y-107000000D02*
X125730000Y-111250000D01*
X122555000Y-121285000D02*
X122555000Y-123190000D01*
X120650000Y-119380000D02*
X122555000Y-121285000D01*
%TO.N,SER*%
X117475000Y-56515000D02*
X118776000Y-55214000D01*
X118776000Y-55214000D02*
X122977912Y-55214000D01*
X122977912Y-55214000D02*
X123576000Y-55812088D01*
X121920000Y-107315000D02*
X121920000Y-116840000D01*
X114935000Y-100330000D02*
X121920000Y-107315000D01*
X121920000Y-116840000D02*
X120650000Y-118110000D01*
%TO.N,VCC*%
X120650000Y-120650000D02*
X120650000Y-123190000D01*
X116250000Y-124415000D02*
X116840000Y-123825000D01*
X116250000Y-125900000D02*
X116250000Y-124415000D01*
X133750000Y-125900000D02*
X133520000Y-125900000D01*
X133520000Y-125900000D02*
X131445000Y-123825000D01*
X151250000Y-125900000D02*
X148540000Y-123190000D01*
X135190000Y-124460000D02*
X133750000Y-125900000D01*
X148540000Y-123190000D02*
X147955000Y-123190000D01*
X135255000Y-124460000D02*
X135190000Y-124460000D01*
X160020000Y-120650000D02*
X154770000Y-125900000D01*
X154770000Y-125900000D02*
X151250000Y-125900000D01*
X184150000Y-122555000D02*
X186250000Y-124655000D01*
X186250000Y-124655000D02*
X186250000Y-125900000D01*
X168750000Y-124935000D02*
X168750000Y-125900000D01*
X166370000Y-122555000D02*
X168750000Y-124935000D01*
%TO.N,GND*%
X102870000Y-118110000D02*
X104775000Y-120015000D01*
%TO.N,VCC*%
X98750000Y-116515000D02*
X99695000Y-115570000D01*
X98750000Y-125900000D02*
X98750000Y-116515000D01*
X81250000Y-125900000D02*
X82985000Y-127635000D01*
X82985000Y-127635000D02*
X97015000Y-127635000D01*
X97015000Y-127635000D02*
X98750000Y-125900000D01*
X63750000Y-125900000D02*
X65051000Y-127201000D01*
X65051000Y-127201000D02*
X79949000Y-127201000D01*
X79949000Y-127201000D02*
X81250000Y-125900000D01*
X63750000Y-141600000D02*
X63750000Y-125900000D01*
%TO.N,led8*%
X158750000Y-114935000D02*
X155575000Y-114935000D01*
X160020000Y-113665000D02*
X158750000Y-114935000D01*
%TO.N,led7*%
X160020000Y-112395000D02*
X156210000Y-112395000D01*
X156210000Y-112395000D02*
X155575000Y-113030000D01*
%TO.N,led3*%
X106549997Y-112899997D02*
X108585000Y-114935000D01*
X102870000Y-112899997D02*
X106549997Y-112899997D01*
%TO.N,led2*%
X106093527Y-113499997D02*
X108691765Y-116098235D01*
X99695000Y-113499997D02*
X106093527Y-113499997D01*
%TO.N,led1*%
X99695000Y-114300000D02*
X106045000Y-114300000D01*
X106045000Y-114300000D02*
X109220000Y-117475000D01*
%TO.N,GND*%
X65275000Y-100200000D02*
X61100000Y-100200000D01*
X65405000Y-100330000D02*
X65275000Y-100200000D01*
X109243845Y-101623845D02*
X106068845Y-101623845D01*
X106068845Y-101623845D02*
X106045000Y-101600000D01*
%TO.N,Switch8*%
X111259000Y-128404000D02*
X109855000Y-127000000D01*
X129540000Y-128404000D02*
X111259000Y-128404000D01*
X181250000Y-125900000D02*
X180044000Y-124694000D01*
X180044000Y-124694000D02*
X171992160Y-124694000D01*
X171992160Y-124694000D02*
X169038160Y-127648000D01*
X169038160Y-127648000D02*
X145636200Y-127648000D01*
X145636200Y-127648000D02*
X144880200Y-128404000D01*
X144880200Y-128404000D02*
X129540000Y-128404000D01*
%TO.N,Switch7*%
X143510000Y-128003000D02*
X114373511Y-128003000D01*
X163750000Y-125900000D02*
X162449000Y-127201000D01*
X162449000Y-127201000D02*
X145516100Y-127201000D01*
X145516100Y-127201000D02*
X144714100Y-128003000D01*
X114373511Y-128003000D02*
X113485662Y-127115151D01*
X144714100Y-128003000D02*
X143510000Y-128003000D01*
%TO.N,Switch6*%
X115067310Y-127602000D02*
X114175735Y-126710425D01*
X144548000Y-127602000D02*
X115067310Y-127602000D01*
X146250000Y-125900000D02*
X144548000Y-127602000D01*
%TO.N,Switch5*%
X114300000Y-125986160D02*
X114300000Y-123190000D01*
X115514840Y-127201000D02*
X114300000Y-125986160D01*
X117909000Y-127201000D02*
X115514840Y-127201000D01*
X119210000Y-125900000D02*
X117909000Y-127201000D01*
X128750000Y-125900000D02*
X119210000Y-125900000D01*
%TO.N,LATCH*%
X125095000Y-130175000D02*
X125201765Y-130068235D01*
X125095000Y-132949000D02*
X125095000Y-130175000D01*
X131913900Y-132949000D02*
X125095000Y-132949000D01*
X156611000Y-129774000D02*
X156210000Y-129774000D01*
X157480000Y-128905000D02*
X156611000Y-129774000D01*
X156210000Y-129774000D02*
X135088900Y-129774000D01*
X135088900Y-129774000D02*
X131913900Y-132949000D01*
X157480000Y-128049000D02*
X157480000Y-128905000D01*
X170815000Y-128049000D02*
X157480000Y-128049000D01*
%TO.N,PL*%
X163195000Y-128450000D02*
X158750000Y-128450000D01*
X105410000Y-126365000D02*
X112395000Y-133350000D01*
X112395000Y-133350000D02*
X132080000Y-133350000D01*
X132080000Y-133350000D02*
X135255000Y-130175000D01*
X135255000Y-130175000D02*
X156845000Y-130175000D01*
X156845000Y-130175000D02*
X158570000Y-128450000D01*
X158570000Y-128450000D02*
X158750000Y-128450000D01*
%TO.N,Switch4*%
X102870000Y-120015000D02*
X102235000Y-119380000D01*
X102870000Y-125730000D02*
X102870000Y-120015000D01*
X111250000Y-125900000D02*
X111080000Y-125730000D01*
X111080000Y-125730000D02*
X102870000Y-125730000D01*
%TO.N,Switch3*%
X95250000Y-124798000D02*
X95250000Y-117475000D01*
X94148000Y-125900000D02*
X95250000Y-124798000D01*
X93750000Y-125900000D02*
X94148000Y-125900000D01*
%TO.N,Switch2*%
X78740000Y-122555000D02*
X78740000Y-120015000D01*
X78740000Y-120015000D02*
X80010000Y-118745000D01*
X76250000Y-125045000D02*
X78740000Y-122555000D01*
X76250000Y-125900000D02*
X76250000Y-125045000D01*
%TO.N,Switch1*%
X59520000Y-125900000D02*
X61595000Y-123825000D01*
X58750000Y-125900000D02*
X59520000Y-125900000D01*
%TO.N,Switch8*%
X180180000Y-111600000D02*
X181250000Y-111600000D01*
X179070000Y-110490000D02*
X180180000Y-111600000D01*
%TO.N,Switch7*%
X161925000Y-110490000D02*
X162640000Y-110490000D01*
X162640000Y-110490000D02*
X163750000Y-111600000D01*
%TO.N,Switch6*%
X144780000Y-111125000D02*
X145775000Y-111125000D01*
X145775000Y-111125000D02*
X146250000Y-111600000D01*
%TO.N,Switch5*%
X128275000Y-111125000D02*
X128750000Y-111600000D01*
X127000000Y-111125000D02*
X128275000Y-111125000D01*
%TO.N,Switch4*%
X109855000Y-111125000D02*
X110775000Y-111125000D01*
X110775000Y-111125000D02*
X111250000Y-111600000D01*
%TO.N,Switch3*%
X92075000Y-110490000D02*
X93185000Y-111600000D01*
X93185000Y-111600000D02*
X93750000Y-111600000D01*
%TO.N,Switch2*%
X75565000Y-109855000D02*
X75565000Y-110915000D01*
X75565000Y-110915000D02*
X76250000Y-111600000D01*
%TO.N,Switch1*%
X58420000Y-111270000D02*
X58750000Y-111600000D01*
X58420000Y-109855000D02*
X58420000Y-111270000D01*
%TO.N,Switch8*%
X181250000Y-125900000D02*
X181250000Y-111600000D01*
%TO.N,Switch7*%
X163750000Y-125900000D02*
X163750000Y-111600000D01*
%TO.N,Switch6*%
X146250000Y-125900000D02*
X146250000Y-111600000D01*
%TO.N,Switch5*%
X128750000Y-125900000D02*
X128750000Y-111600000D01*
%TO.N,Switch4*%
X111250000Y-125900000D02*
X111250000Y-111600000D01*
%TO.N,Switch3*%
X93750000Y-125900000D02*
X93750000Y-111600000D01*
%TO.N,Switch2*%
X76250000Y-125900000D02*
X76250000Y-111600000D01*
%TO.N,Switch1*%
X58750000Y-125900000D02*
X58750000Y-111600000D01*
%TO.N,VCC*%
X63750000Y-125900000D02*
X63750000Y-111600000D01*
X81250000Y-125900000D02*
X81250000Y-111600000D01*
X98750000Y-125900000D02*
X98750000Y-111600000D01*
X116250000Y-125900000D02*
X116250000Y-111600000D01*
X133750000Y-125900000D02*
X133750000Y-111600000D01*
X186250000Y-125900000D02*
X186250000Y-111600000D01*
X168750000Y-125900000D02*
X168750000Y-111600000D01*
X151250000Y-125900000D02*
X151250000Y-111600000D01*
X168750000Y-130650000D02*
X168275000Y-130175000D01*
X168750000Y-141600000D02*
X168750000Y-130650000D01*
X160020000Y-130175000D02*
X159385000Y-129540000D01*
X168275000Y-130175000D02*
X160020000Y-130175000D01*
%TO.N,Net-(U7-QH')*%
X139065000Y-138430000D02*
X138430000Y-139065000D01*
X139065000Y-130810000D02*
X139065000Y-138430000D01*
%TO.N,CLOCK*%
X87728200Y-103271000D02*
X102636000Y-103271000D01*
X102636000Y-103271000D02*
X105410000Y-106045000D01*
X62865000Y-158535057D02*
X62865000Y-159317100D01*
X111972088Y-62834000D02*
X97790000Y-77016088D01*
X97790000Y-86995000D02*
X97790000Y-93209200D01*
X58420000Y-158115000D02*
X62444943Y-158115000D01*
X57316100Y-129373900D02*
X55880000Y-130810000D01*
X62865000Y-159317100D02*
X64202900Y-160655000D01*
X62444943Y-158115000D02*
X62865000Y-158535057D01*
X97790000Y-93209200D02*
X87728200Y-103271000D01*
X55880000Y-130810000D02*
X55880000Y-155575000D01*
X64202900Y-160655000D02*
X111125000Y-160655000D01*
X122555000Y-56515000D02*
X116236000Y-62834000D01*
X97790000Y-77016088D02*
X97790000Y-78740000D01*
X87728200Y-103271000D02*
X85090000Y-103271000D01*
X55880000Y-155575000D02*
X58420000Y-158115000D01*
X116236000Y-62834000D02*
X111972088Y-62834000D01*
X85090000Y-103271000D02*
X60559000Y-103271000D01*
X60559000Y-103271000D02*
X57316100Y-106513900D01*
X57316100Y-106513900D02*
X57316100Y-129373900D01*
%TO.N,Net-(U1-PB4)*%
X62230000Y-158750000D02*
X57150000Y-158750000D01*
X97322000Y-93110100D02*
X97322000Y-75398000D01*
X57150000Y-158750000D02*
X54610000Y-156210000D01*
X54610000Y-156210000D02*
X54610000Y-129540000D01*
X54610000Y-129540000D02*
X55880000Y-128270000D01*
X55880000Y-128270000D02*
X55880000Y-102870000D01*
X55880000Y-102870000D02*
X87562100Y-102870000D01*
X87562100Y-102870000D02*
X97322000Y-93110100D01*
%TO.N,PL*%
X170981100Y-128450000D02*
X163195000Y-128450000D01*
X173935100Y-125496000D02*
X170981100Y-128450000D01*
X179538900Y-128450000D02*
X176584900Y-125496000D01*
X176584900Y-125496000D02*
X173935100Y-125496000D01*
X188595000Y-130810000D02*
X186235000Y-128450000D01*
X186235000Y-128450000D02*
X182880000Y-128450000D01*
X182880000Y-128450000D02*
X179538900Y-128450000D01*
%TO.N,LATCH*%
X190500000Y-130810000D02*
X187739000Y-128049000D01*
X179705000Y-128049000D02*
X176751000Y-125095000D01*
X173769000Y-125095000D02*
X170815000Y-128049000D01*
X187739000Y-128049000D02*
X179705000Y-128049000D01*
X176751000Y-125095000D02*
X173769000Y-125095000D01*
%TO.N,Switch16*%
X122555000Y-157314997D02*
X122555000Y-157265057D01*
X122555000Y-157265057D02*
X117054943Y-151765000D01*
X117054943Y-151765000D02*
X116850000Y-151765000D01*
%TO.N,PL*%
X102870000Y-147320000D02*
X104140000Y-146050000D01*
X102235000Y-147320000D02*
X102870000Y-147320000D01*
X122555000Y-158115000D02*
X118110000Y-158115000D01*
%TO.N,Net-(U2-Q7)*%
X88265000Y-152400000D02*
X88265000Y-142240000D01*
X87630000Y-133985000D02*
X88900000Y-132715000D01*
X87630000Y-139065000D02*
X87630000Y-133985000D01*
X88265000Y-142240000D02*
X87630000Y-141605000D01*
X88900000Y-132715000D02*
X93345000Y-128270000D01*
X93345000Y-128270000D02*
X99695000Y-128270000D01*
%TO.N,VCC*%
X146685000Y-159295000D02*
X144055000Y-159295000D01*
X144055000Y-159295000D02*
X143420000Y-158660000D01*
X143420000Y-158660000D02*
X141335000Y-158660000D01*
X140335000Y-156845000D02*
X141335000Y-157845000D01*
X141335000Y-157845000D02*
X141335000Y-158660000D01*
%TO.N,PC5*%
X92710000Y-72390000D02*
X92075000Y-72390000D01*
X92075000Y-72390000D02*
X91685000Y-72000000D01*
X91685000Y-72000000D02*
X90100000Y-72000000D01*
%TO.N,PC4*%
X91440000Y-81280000D02*
X91440000Y-81860000D01*
X91440000Y-81860000D02*
X90100000Y-83200000D01*
%TO.N,PC3*%
X57150000Y-91440000D02*
X57100000Y-91490000D01*
X57100000Y-91490000D02*
X57100000Y-94400000D01*
%TO.N,PC2*%
X57150000Y-80645000D02*
X57100000Y-80695000D01*
X57100000Y-80695000D02*
X57100000Y-83200000D01*
%TO.N,PC1*%
X59055000Y-71120000D02*
X57980000Y-71120000D01*
X57980000Y-71120000D02*
X57100000Y-72000000D01*
%TO.N,GND*%
X94100000Y-77800000D02*
X94100000Y-83200000D01*
X61100000Y-94400000D02*
X61100000Y-100200000D01*
X61100000Y-89000000D02*
X61100000Y-94400000D01*
X61100000Y-77800000D02*
X61100000Y-83200000D01*
%TO.N,Net-(BT1-+)*%
X171630000Y-160655000D02*
X140335000Y-160655000D01*
X173625000Y-158660000D02*
X171630000Y-160655000D01*
X140335000Y-160655000D02*
X139335000Y-159655000D01*
X139335000Y-159655000D02*
X139335000Y-158660000D01*
%TO.N,GND*%
X175625000Y-158660000D02*
X175625000Y-155940000D01*
X186250000Y-85930000D02*
X186250000Y-71630000D01*
X94100000Y-77800000D02*
X94100000Y-72000000D01*
X113665000Y-149860000D02*
X113665000Y-149225000D01*
X98965000Y-53435000D02*
X96520000Y-55880000D01*
X61100000Y-89000000D02*
X61100000Y-83200000D01*
X93345000Y-138635000D02*
X93345000Y-139065000D01*
X101450735Y-145900735D02*
X101450735Y-147592205D01*
X175625000Y-155940000D02*
X175260000Y-155575000D01*
X94980000Y-137000000D02*
X93345000Y-138635000D01*
X186250000Y-89340000D02*
X186250000Y-85930000D01*
X96520000Y-69580000D02*
X94100000Y-72000000D01*
X184150000Y-91440000D02*
X186250000Y-89340000D01*
X110490000Y-153035000D02*
X113665000Y-149860000D01*
X101450735Y-147592205D02*
X104246765Y-150388235D01*
X98965000Y-46990000D02*
X98965000Y-53435000D01*
X96520000Y-55880000D02*
X96520000Y-69580000D01*
X94100000Y-89000000D02*
X94100000Y-83200000D01*
X61100000Y-77800000D02*
X61100000Y-72000000D01*
%TO.N,VCC*%
X135255000Y-160020000D02*
X138430000Y-156845000D01*
X99055000Y-141600000D02*
X100330000Y-142875000D01*
X116250000Y-158795000D02*
X117475000Y-160020000D01*
X63750000Y-155900000D02*
X63750000Y-141600000D01*
X168750000Y-155900000D02*
X170345000Y-154305000D01*
X98750000Y-141600000D02*
X99055000Y-141600000D01*
X98826000Y-141676000D02*
X98750000Y-141600000D01*
X116250000Y-155900000D02*
X116250000Y-158795000D01*
X133750000Y-155900000D02*
X133750000Y-141600000D01*
X98750000Y-155900000D02*
X98750000Y-159075000D01*
X116250000Y-141600000D02*
X118110000Y-143460000D01*
X116250000Y-141600000D02*
X116250000Y-155900000D01*
X64135000Y-160020000D02*
X81915000Y-160020000D01*
X165355000Y-159295000D02*
X168750000Y-155900000D01*
X183515000Y-159385000D02*
X186250000Y-156650000D01*
X146685000Y-159295000D02*
X147855000Y-159295000D01*
X151250000Y-142995000D02*
X151250000Y-141600000D01*
X176530000Y-154940000D02*
X180975000Y-159385000D01*
X156845000Y-79375000D02*
X164465000Y-79375000D01*
X180975000Y-159385000D02*
X183515000Y-159385000D01*
X81250000Y-159355000D02*
X81915000Y-160020000D01*
X186250000Y-156650000D02*
X186250000Y-155900000D01*
X81250000Y-155900000D02*
X81250000Y-159355000D01*
X141335000Y-158660000D02*
X141515000Y-158480000D01*
X176530000Y-154305000D02*
X176530000Y-154940000D01*
X135255000Y-160020000D02*
X133750000Y-158515000D01*
X63750000Y-155900000D02*
X63750000Y-159635000D01*
X147855000Y-159295000D02*
X151250000Y-155900000D01*
X81915000Y-160020000D02*
X99695000Y-160020000D01*
X149860000Y-156120000D02*
X149860000Y-154305000D01*
X149860000Y-154305000D02*
X156210000Y-147955000D01*
X116250000Y-155900000D02*
X116250000Y-154260000D01*
X118110000Y-143460000D02*
X118110000Y-143510000D01*
X133750000Y-158515000D02*
X133750000Y-155900000D01*
X152400000Y-144145000D02*
X151250000Y-142995000D01*
X170345000Y-154305000D02*
X176530000Y-154305000D01*
X98750000Y-155900000D02*
X98826000Y-155824000D01*
X117475000Y-160020000D02*
X135255000Y-160020000D01*
X98826000Y-155824000D02*
X98826000Y-141676000D01*
X63750000Y-159635000D02*
X64135000Y-160020000D01*
X168750000Y-155900000D02*
X168750000Y-141600000D01*
X164465000Y-79375000D02*
X165100000Y-80010000D01*
X98750000Y-159075000D02*
X99695000Y-160020000D01*
X116250000Y-154260000D02*
X117475000Y-153035000D01*
X99695000Y-160020000D02*
X117475000Y-160020000D01*
X146685000Y-159295000D02*
X149860000Y-156120000D01*
X186250000Y-155900000D02*
X186250000Y-141600000D01*
X81250000Y-155900000D02*
X81250000Y-141600000D01*
X147855000Y-159295000D02*
X165355000Y-159295000D01*
X138430000Y-156845000D02*
X140335000Y-156845000D01*
%TO.N,Net-(D13-A)*%
X135255000Y-135255000D02*
X134265000Y-135255000D01*
X134265000Y-135255000D02*
X132520000Y-137000000D01*
%TO.N,Net-(U11-SPK_1)*%
X100965000Y-46990000D02*
X100965000Y-52002100D01*
X90805000Y-99060000D02*
X86360000Y-99060000D01*
X80010000Y-92710000D02*
X80010000Y-89535000D01*
X96921000Y-92944000D02*
X90805000Y-99060000D01*
X80010000Y-89535000D02*
X82550000Y-86995000D01*
X86360000Y-99060000D02*
X80010000Y-92710000D01*
X96921000Y-56046100D02*
X96921000Y-92944000D01*
X100965000Y-52002100D02*
X96921000Y-56046100D01*
X82550000Y-86995000D02*
X84455000Y-86995000D01*
%TO.N,led9*%
X99766806Y-140300000D02*
X99801806Y-140335000D01*
X121920000Y-144145000D02*
X121920000Y-144780000D01*
X118110000Y-140335000D02*
X121920000Y-144145000D01*
X99801806Y-140335000D02*
X102870000Y-140335000D01*
%TO.N,led10*%
X89535000Y-139700000D02*
X103290057Y-139700000D01*
X122168943Y-145381000D02*
X123825000Y-143724943D01*
X115514840Y-140299000D02*
X116985160Y-140299000D01*
X107066057Y-143476000D02*
X112337840Y-143476000D01*
X116985160Y-140299000D02*
X121319000Y-144632840D01*
X123825000Y-143724943D02*
X123825000Y-142875000D01*
X103290057Y-139700000D02*
X107066057Y-143476000D01*
X121671057Y-145381000D02*
X122168943Y-145381000D01*
X121319000Y-144632840D02*
X121319000Y-145028943D01*
X121319000Y-145028943D02*
X121671057Y-145381000D01*
X112337840Y-143476000D02*
X115514840Y-140299000D01*
%TO.N,led11*%
X119450000Y-140335000D02*
X122555000Y-143440000D01*
X122555000Y-143440000D02*
X122555000Y-144145000D01*
X119380000Y-140335000D02*
X119450000Y-140335000D01*
%TO.N,led12*%
X123825000Y-140335000D02*
X122555000Y-140335000D01*
X126365000Y-142875000D02*
X123825000Y-140335000D01*
%TO.N,Switch9*%
X60000000Y-155900000D02*
X62230000Y-153670000D01*
X58750000Y-155900000D02*
X60000000Y-155900000D01*
X58750000Y-141600000D02*
X58750000Y-155900000D01*
%TO.N,Switch10*%
X76245000Y-141605000D02*
X76250000Y-141600000D01*
X74295000Y-141605000D02*
X76245000Y-141605000D01*
X76250000Y-141600000D02*
X76250000Y-146635000D01*
X80010000Y-140335000D02*
X80046000Y-140299000D01*
X78740000Y-141605000D02*
X80010000Y-140335000D01*
X80046000Y-140299000D02*
X88864000Y-140299000D01*
X76250000Y-155900000D02*
X76250000Y-146635000D01*
X78740000Y-144145000D02*
X78740000Y-141605000D01*
X76250000Y-146635000D02*
X78740000Y-144145000D01*
X88864000Y-140299000D02*
X97155000Y-148590000D01*
%TO.N,Switch11*%
X93750000Y-155900000D02*
X97979266Y-151670734D01*
X98425000Y-148120003D02*
X97979266Y-148565737D01*
X98200000Y-146050000D02*
X98425000Y-146050000D01*
X98425000Y-146050000D02*
X98425000Y-148120003D01*
X93750000Y-141600000D02*
X98200000Y-146050000D01*
X97979266Y-151670734D02*
X97979266Y-148565737D01*
%TO.N,Switch12*%
X107735057Y-144780000D02*
X107950000Y-144780000D01*
X111250000Y-155900000D02*
X108910000Y-155900000D01*
X108910000Y-155900000D02*
X101600000Y-148590000D01*
X111250000Y-155900000D02*
X106714000Y-151364000D01*
X106714000Y-145801057D02*
X107735057Y-144780000D01*
X110610000Y-142240000D02*
X111250000Y-141600000D01*
X106714000Y-151364000D02*
X106714000Y-145801057D01*
X109855000Y-142240000D02*
X110610000Y-142240000D01*
%TO.N,Switch13*%
X127630000Y-141600000D02*
X128750000Y-141600000D01*
X128750000Y-155900000D02*
X128750000Y-141600000D01*
X127000000Y-140970000D02*
X127630000Y-141600000D01*
%TO.N,Switch14*%
X146250000Y-141600000D02*
X146250000Y-155900000D01*
X143515000Y-141600000D02*
X146250000Y-141600000D01*
X143510000Y-141605000D02*
X143515000Y-141600000D01*
%TO.N,Switch15*%
X107315000Y-141605000D02*
X107315000Y-142875000D01*
X163750000Y-141600000D02*
X162560000Y-140410000D01*
X162560000Y-140410000D02*
X162560000Y-139700000D01*
X158750000Y-139700000D02*
X109220000Y-139700000D01*
X163750000Y-155900000D02*
X163750000Y-141600000D01*
X109220000Y-139700000D02*
X107315000Y-141605000D01*
%TO.N,Switch16*%
X181250000Y-141600000D02*
X181250000Y-155900000D01*
X181250000Y-141245000D02*
X181250000Y-141600000D01*
X179705000Y-139700000D02*
X181250000Y-141245000D01*
%TO.N,Net-(U11-RX)*%
X89000000Y-92175000D02*
X87630000Y-90805000D01*
X87630000Y-80010000D02*
X84455000Y-76835000D01*
X87630000Y-90805000D02*
X87630000Y-80010000D01*
X89000000Y-95250000D02*
X89000000Y-92175000D01*
%TO.N,Net-(R34-Pad2)*%
X125730000Y-74930000D02*
X124930000Y-74130000D01*
X124930000Y-74130000D02*
X124930000Y-71890000D01*
%TO.N,Net-(R35-Pad2)*%
X123665000Y-94615000D02*
X122390000Y-95890000D01*
X123825000Y-94615000D02*
X123665000Y-94615000D01*
X124460000Y-93980000D02*
X123825000Y-94615000D01*
%TO.N,col5*%
X131445000Y-88900000D02*
X126365000Y-88900000D01*
%TO.N,Net-(R42-Pad2)*%
X156210000Y-75565000D02*
X156210000Y-73660000D01*
%TO.N,col12*%
X163830000Y-85725000D02*
X161925000Y-85725000D01*
X166370000Y-83185000D02*
X163830000Y-85725000D01*
%TO.N,PC0*%
X178945000Y-71630000D02*
X161290000Y-53975000D01*
X181250000Y-85930000D02*
X181250000Y-71630000D01*
X161290000Y-53975000D02*
X135255000Y-53975000D01*
X135255000Y-53975000D02*
X132715000Y-56515000D01*
X181250000Y-71630000D02*
X178945000Y-71630000D01*
%TO.N,PC1*%
X57100000Y-77800000D02*
X57100000Y-72000000D01*
%TO.N,PC2*%
X57100000Y-89000000D02*
X57100000Y-83200000D01*
%TO.N,PC3*%
X57100000Y-100200000D02*
X57100000Y-94400000D01*
%TO.N,PC4*%
X90100000Y-89000000D02*
X90100000Y-83200000D01*
%TO.N,PC5*%
X90100000Y-77800000D02*
X90100000Y-72000000D01*
%TO.N,CLOCK*%
X107315000Y-146050000D02*
X111760000Y-146050000D01*
X111760000Y-146050000D02*
X115570000Y-149860000D01*
%TO.N,row7*%
X119850000Y-95890000D02*
X118549000Y-97191000D01*
X100330000Y-91654943D02*
X100330000Y-91440000D01*
X147955000Y-95250000D02*
X143276000Y-90571000D01*
X123196100Y-92543900D02*
X119850000Y-95890000D01*
X123196100Y-90571000D02*
X123196100Y-92543900D01*
X143276000Y-90571000D02*
X123196100Y-90571000D01*
X105866057Y-97191000D02*
X100330000Y-91654943D01*
X151850000Y-95890000D02*
X150549000Y-97191000D01*
X148771108Y-97191000D02*
X147955000Y-96374892D01*
X150549000Y-97191000D02*
X148771108Y-97191000D01*
X118549000Y-97191000D02*
X105866057Y-97191000D01*
X147955000Y-96374892D02*
X147955000Y-95250000D01*
%TO.N,row6*%
X130447000Y-97993000D02*
X105465957Y-97993000D01*
X132550000Y-95890000D02*
X130447000Y-97993000D01*
X105465957Y-97993000D02*
X99094000Y-91621043D01*
X135890000Y-93980000D02*
X134460000Y-93980000D01*
X134460000Y-93980000D02*
X132550000Y-95890000D01*
X162447000Y-97993000D02*
X139903000Y-97993000D01*
X139903000Y-97993000D02*
X135890000Y-93980000D01*
X99094000Y-91621043D02*
X99094000Y-90556057D01*
X164550000Y-95890000D02*
X162447000Y-97993000D01*
X99446057Y-90204000D02*
X102269000Y-90204000D01*
X99094000Y-90556057D02*
X99446057Y-90204000D01*
X102269000Y-90204000D02*
X104140000Y-92075000D01*
%TO.N,row5*%
X116714000Y-96486000D02*
X106011000Y-96486000D01*
X146799000Y-93379000D02*
X149310000Y-95890000D01*
X117310000Y-95890000D02*
X123030000Y-90170000D01*
X143510000Y-90170000D02*
X146719000Y-93379000D01*
X117310000Y-95890000D02*
X116714000Y-96486000D01*
X146719000Y-93379000D02*
X146799000Y-93379000D01*
X123030000Y-90170000D02*
X143510000Y-90170000D01*
X106011000Y-96486000D02*
X104140000Y-94615000D01*
%TO.N,row3*%
X163920000Y-99060000D02*
X167090000Y-95890000D01*
X138260000Y-99060000D02*
X163920000Y-99060000D01*
X135090000Y-95890000D02*
X132555000Y-98425000D01*
X135090000Y-95890000D02*
X138260000Y-99060000D01*
X132555000Y-98425000D02*
X104775000Y-98425000D01*
%TO.N,row8*%
X143042000Y-90972000D02*
X132388000Y-90972000D01*
X125768000Y-97592000D02*
X105632057Y-97592000D01*
X132388000Y-90972000D02*
X127470000Y-95890000D01*
X127470000Y-95890000D02*
X125768000Y-97592000D01*
X147320000Y-96306992D02*
X147320000Y-95250000D01*
X148605008Y-97592000D02*
X147320000Y-96306992D01*
X157768000Y-97592000D02*
X148605008Y-97592000D01*
X147320000Y-95250000D02*
X143042000Y-90972000D01*
X105632057Y-97592000D02*
X99695000Y-91654943D01*
X99695000Y-91654943D02*
X99695000Y-90805000D01*
X159470000Y-95890000D02*
X157768000Y-97592000D01*
%TD*%
M02*
