%TF.GenerationSoftware,KiCad,Pcbnew,9.0.3*%
%TF.CreationDate,2026-01-12T23:46:14+01:00*%
%TF.ProjectId,Learning_Numbers,4c656172-6e69-46e6-975f-4e756d626572,rev?*%
%TF.SameCoordinates,Original*%
%TF.FileFunction,Paste,Top*%
%TF.FilePolarity,Positive*%
%FSLAX46Y46*%
G04 Gerber Fmt 4.6, Leading zero omitted, Abs format (unit mm)*
G04 Created by KiCad (PCBNEW 9.0.3) date 2026-01-12 23:46:14*
%MOMM*%
%LPD*%
G01*
G04 APERTURE LIST*
G04 Aperture macros list*
%AMRoundRect*
0 Rectangle with rounded corners*
0 $1 Rounding radius*
0 $2 $3 $4 $5 $6 $7 $8 $9 X,Y pos of 4 corners*
0 Add a 4 corners polygon primitive as box body*
4,1,4,$2,$3,$4,$5,$6,$7,$8,$9,$2,$3,0*
0 Add four circle primitives for the rounded corners*
1,1,$1+$1,$2,$3*
1,1,$1+$1,$4,$5*
1,1,$1+$1,$6,$7*
1,1,$1+$1,$8,$9*
0 Add four rect primitives between the rounded corners*
20,1,$1+$1,$2,$3,$4,$5,0*
20,1,$1+$1,$4,$5,$6,$7,0*
20,1,$1+$1,$6,$7,$8,$9,0*
20,1,$1+$1,$8,$9,$2,$3,0*%
G04 Aperture macros list end*
%ADD10RoundRect,0.250000X0.500000X-0.750000X0.500000X0.750000X-0.500000X0.750000X-0.500000X-0.750000X0*%
%ADD11RoundRect,0.250000X0.250000X-1.150000X0.250000X1.150000X-0.250000X1.150000X-0.250000X-1.150000X0*%
%ADD12RoundRect,0.250000X-0.400000X-0.625000X0.400000X-0.625000X0.400000X0.625000X-0.400000X0.625000X0*%
G04 APERTURE END LIST*
D10*
%TO.C,SW6*%
X128750000Y-125900000D03*
X128750000Y-111600000D03*
X133750000Y-125900000D03*
X133750000Y-111600000D03*
%TD*%
%TO.C,SW7*%
X146250000Y-125900000D03*
X146250000Y-111600000D03*
X151250000Y-125900000D03*
X151250000Y-111600000D03*
%TD*%
%TO.C,SW2*%
X58750000Y-125900000D03*
X58750000Y-111600000D03*
X63750000Y-125900000D03*
X63750000Y-111600000D03*
%TD*%
D11*
%TO.C,SW23*%
X90100000Y-77800000D03*
X90100000Y-72000000D03*
X94100000Y-77800000D03*
X94100000Y-72000000D03*
%TD*%
D10*
%TO.C,SW13*%
X111250000Y-155900000D03*
X111250000Y-141600000D03*
X116250000Y-155900000D03*
X116250000Y-141600000D03*
%TD*%
%TO.C,SW5*%
X111250000Y-125900000D03*
X111250000Y-111600000D03*
X116250000Y-125900000D03*
X116250000Y-111600000D03*
%TD*%
D11*
%TO.C,SW22*%
X90100000Y-89000000D03*
X90100000Y-83200000D03*
X94100000Y-89000000D03*
X94100000Y-83200000D03*
%TD*%
D10*
%TO.C,SW3*%
X76250000Y-125900000D03*
X76250000Y-111600000D03*
X81250000Y-125900000D03*
X81250000Y-111600000D03*
%TD*%
D11*
%TO.C,SW21*%
X57100000Y-100200000D03*
X57100000Y-94400000D03*
X61100000Y-100200000D03*
X61100000Y-94400000D03*
%TD*%
D10*
%TO.C,SW15*%
X146250000Y-155900000D03*
X146250000Y-141600000D03*
X151250000Y-155900000D03*
X151250000Y-141600000D03*
%TD*%
%TO.C,SW11*%
X76250000Y-155900000D03*
X76250000Y-141600000D03*
X81250000Y-155900000D03*
X81250000Y-141600000D03*
%TD*%
%TO.C,SW9*%
X181250000Y-125900000D03*
X181250000Y-111600000D03*
X186250000Y-125900000D03*
X186250000Y-111600000D03*
%TD*%
%TO.C,SW8*%
X163750000Y-125900000D03*
X163750000Y-111600000D03*
X168750000Y-125900000D03*
X168750000Y-111600000D03*
%TD*%
%TO.C,SW16*%
X163750000Y-155900000D03*
X163750000Y-141600000D03*
X168750000Y-155900000D03*
X168750000Y-141600000D03*
%TD*%
%TO.C,SW14*%
X128750000Y-155900000D03*
X128750000Y-141600000D03*
X133750000Y-155900000D03*
X133750000Y-141600000D03*
%TD*%
D11*
%TO.C,SW19*%
X57100000Y-77800000D03*
X57100000Y-72000000D03*
X61100000Y-77800000D03*
X61100000Y-72000000D03*
%TD*%
D10*
%TO.C,SW18*%
X181250000Y-85930000D03*
X181250000Y-71630000D03*
X186250000Y-85930000D03*
X186250000Y-71630000D03*
%TD*%
%TO.C,SW4*%
X93750000Y-125900000D03*
X93750000Y-111600000D03*
X98750000Y-125900000D03*
X98750000Y-111600000D03*
%TD*%
%TO.C,SW10*%
X58750000Y-155900000D03*
X58750000Y-141600000D03*
X63750000Y-155900000D03*
X63750000Y-141600000D03*
%TD*%
%TO.C,SW17*%
X181250000Y-155900000D03*
X181250000Y-141600000D03*
X186250000Y-155900000D03*
X186250000Y-141600000D03*
%TD*%
D12*
%TO.C,R33*%
X89000000Y-95250000D03*
X92100000Y-95250000D03*
%TD*%
D10*
%TO.C,SW12*%
X93750000Y-155900000D03*
X93750000Y-141600000D03*
X98750000Y-155900000D03*
X98750000Y-141600000D03*
%TD*%
D11*
%TO.C,SW20*%
X57100000Y-89000000D03*
X57100000Y-83200000D03*
X61100000Y-89000000D03*
X61100000Y-83200000D03*
%TD*%
M02*
