M48
; DRILL file {KiCad 9.0.3} date 2026-01-07T19:03:35+0100
; FORMAT={-:-/ absolute / metric / decimal}
; #@! TF.CreationDate,2026-01-07T19:03:35+01:00
; #@! TF.GenerationSoftware,Kicad,Pcbnew,9.0.3
; #@! TF.FileFunction,Plated,1,2,PTH
FMAT,2
METRIC
; #@! TA.AperFunction,Plated,PTH,ViaDrill
T1C0.300
; #@! TA.AperFunction,Plated,PTH,ComponentDrill
T2C0.750
; #@! TA.AperFunction,Plated,PTH,ComponentDrill
T3C0.900
; #@! TA.AperFunction,Plated,PTH,ComponentDrill
T4C1.000
; #@! TA.AperFunction,Plated,PTH,ComponentDrill
T5C1.100
%
G90
G05
T1
X57.15Y-80.645
X57.15Y-91.44
X58.42Y-109.855
X59.055Y-71.12
X61.595Y-123.825
X62.23Y-153.67
X62.23Y-158.75
X65.405Y-100.33
X74.295Y-141.605
X75.565Y-109.855
X80.01Y-118.745
X87.63Y-139.065
X87.63Y-141.605
X88.265Y-152.4
X89.535Y-139.7
X91.44Y-81.28
X92.075Y-90.805
X92.075Y-93.345
X92.075Y-110.49
X92.71Y-72.39
X93.345Y-80.645
X93.345Y-139.065
X95.25Y-117.475
X97.155Y-148.59
X97.979Y-148.566
X98.425Y-60.96
X99.06Y-83.185
X99.695Y-90.805
X99.695Y-113.5
X99.695Y-114.3
X99.695Y-115.57
X99.695Y-128.27
X99.767Y-140.3
X100.33Y-91.44
X100.33Y-142.875
X101.451Y-145.901
X101.6Y-148.59
X102.235Y-86.36
X102.235Y-119.38
X102.235Y-147.32
X102.87Y-112.9
X102.87Y-118.11
X102.87Y-140.335
X104.14Y-92.075
X104.14Y-94.615
X104.14Y-146.05
X104.247Y-150.388
X104.775Y-98.425
X104.775Y-120.015
X105.41Y-83.185
X105.41Y-106.045
X105.41Y-126.365
X106.045Y-91.44
X106.045Y-101.6
X107.315Y-142.875
X107.315Y-146.05
X107.95Y-144.78
X108.585Y-91.44
X108.585Y-114.935
X108.692Y-116.098
X109.22Y-74.93
X109.22Y-117.475
X109.244Y-101.624
X109.855Y-63.5
X109.855Y-66.675
X109.855Y-83.185
X109.855Y-88.265
X109.855Y-111.125
X109.855Y-127.0
X109.855Y-142.24
X109.962Y-84.983
X110.49Y-95.885
X110.49Y-153.035
X111.125Y-83.82
X111.125Y-160.655
X113.03Y-94.615
X113.486Y-127.115
X113.665Y-149.225
X114.176Y-126.71
X114.3Y-123.19
X114.935Y-89.535
X114.935Y-99.06
X115.57Y-149.86
X116.84Y-123.825
X116.85Y-151.765
X117.475Y-153.035
X118.11Y-140.335
X118.11Y-143.51
X118.11Y-158.115
X119.38Y-140.335
X120.65Y-85.725
X120.65Y-118.11
X120.65Y-119.38
X120.65Y-120.65
X120.65Y-123.19
X121.392Y-80.117
X121.92Y-144.78
X122.555Y-79.375
X122.555Y-123.19
X122.555Y-140.335
X122.555Y-144.145
X122.555Y-157.315
X122.555Y-158.115
X123.19Y-83.82
X123.825Y-142.875
X124.46Y-80.645
X124.46Y-93.98
X125.202Y-130.068
X125.73Y-74.93
X125.73Y-123.825
X126.365Y-88.9
X126.365Y-142.875
X127.0Y-83.185
X127.0Y-111.125
X127.0Y-140.97
X131.445Y-88.9
X131.445Y-123.825
X134.513Y-69.322
X135.255Y-124.46
X135.255Y-135.255
X135.89Y-69.215
X137.148Y-71.12
X138.43Y-70.485
X138.43Y-139.065
X139.065Y-130.81
X140.335Y-88.9
X140.97Y-80.645
X143.51Y-141.605
X144.78Y-111.125
X147.955Y-123.19
X151.765Y-87.63
X152.4Y-144.145
X155.575Y-113.03
X155.575Y-114.935
X156.21Y-73.66
X156.21Y-75.565
X156.21Y-147.955
X156.845Y-79.375
X156.845Y-80.645
X156.845Y-84.455
X157.48Y-99.695
X158.75Y-83.82
X158.75Y-102.87
X158.75Y-139.7
X159.385Y-129.54
X160.02Y-112.395
X160.02Y-113.665
X160.02Y-120.65
X160.655Y-83.185
X161.925Y-85.725
X161.925Y-110.49
X162.56Y-139.7
X165.1Y-80.01
X166.37Y-83.185
X166.37Y-122.555
X173.355Y-57.785
X173.355Y-61.595
X175.26Y-155.575
X179.07Y-110.49
X179.705Y-139.7
X184.15Y-91.44
X184.15Y-122.555
X188.595Y-130.81
X190.5Y-130.81
T2
X98.965Y-46.99
X100.965Y-46.99
X139.335Y-158.66
X141.335Y-158.66
X173.625Y-158.66
X175.625Y-158.66
T3
X59.98Y-107.0
X59.98Y-137.0
X62.52Y-107.0
X62.52Y-137.0
X66.675Y-74.295
X66.675Y-76.835
X66.675Y-79.375
X66.675Y-81.915
X66.675Y-84.455
X66.675Y-86.995
X66.675Y-89.535
X66.675Y-92.075
X77.48Y-107.0
X77.48Y-137.0
X80.02Y-107.0
X80.02Y-137.0
X84.455Y-74.295
X84.455Y-76.835
X84.455Y-79.375
X84.455Y-81.915
X84.455Y-84.455
X84.455Y-86.995
X84.455Y-89.535
X84.455Y-92.075
X94.98Y-107.0
X94.98Y-137.0
X97.52Y-107.0
X97.52Y-137.0
X112.48Y-107.0
X112.48Y-137.0
X115.02Y-107.0
X115.02Y-137.0
X129.98Y-107.0
X129.98Y-137.0
X132.52Y-107.0
X132.52Y-137.0
X147.48Y-107.0
X147.48Y-137.0
X150.02Y-107.0
X150.02Y-137.0
X164.98Y-107.0
X164.98Y-137.0
X167.52Y-107.0
X167.52Y-137.0
X182.48Y-107.0
X182.48Y-137.0
X185.02Y-107.0
X185.02Y-137.0
T4
X117.31Y-71.89
X117.31Y-95.89
X119.85Y-71.89
X119.85Y-95.89
X122.39Y-71.89
X122.39Y-95.89
X124.93Y-71.89
X124.93Y-95.89
X127.47Y-71.89
X127.47Y-95.89
X130.01Y-71.89
X130.01Y-95.89
X132.55Y-71.89
X132.55Y-95.89
X135.09Y-71.89
X135.09Y-95.89
X149.31Y-71.89
X149.31Y-95.89
X151.85Y-71.89
X151.85Y-95.89
X154.39Y-71.89
X154.39Y-95.89
X156.93Y-71.89
X156.93Y-95.89
X159.47Y-71.89
X159.47Y-95.89
X162.01Y-71.89
X162.01Y-95.89
X164.55Y-71.89
X164.55Y-95.89
X167.09Y-71.89
X167.09Y-95.89
T5
X112.395Y-56.515
X112.395Y-64.135
X114.935Y-56.515
X114.935Y-64.135
X117.475Y-56.515
X117.475Y-64.135
X120.015Y-56.515
X120.015Y-64.135
X122.555Y-56.515
X122.555Y-64.135
X125.095Y-56.515
X125.095Y-64.135
X127.635Y-56.515
X127.635Y-64.135
X130.175Y-56.515
X130.175Y-64.135
X132.715Y-56.515
X132.715Y-64.135
X135.255Y-56.515
X135.255Y-64.135
X137.795Y-56.515
X137.795Y-64.135
X140.335Y-56.515
X140.335Y-64.135
X142.875Y-56.515
X142.875Y-64.135
X145.415Y-56.515
X145.415Y-64.135
M30
