%TF.GenerationSoftware,KiCad,Pcbnew,9.0.3*%
%TF.CreationDate,2026-01-12T23:46:14+01:00*%
%TF.ProjectId,Learning_Numbers,4c656172-6e69-46e6-975f-4e756d626572,rev?*%
%TF.SameCoordinates,Original*%
%TF.FileFunction,Legend,Top*%
%TF.FilePolarity,Positive*%
%FSLAX46Y46*%
G04 Gerber Fmt 4.6, Leading zero omitted, Abs format (unit mm)*
G04 Created by KiCad (PCBNEW 9.0.3) date 2026-01-12 23:46:14*
%MOMM*%
%LPD*%
G01*
G04 APERTURE LIST*
%ADD10C,0.150000*%
%ADD11C,0.100000*%
%ADD12C,0.187500*%
%ADD13C,0.120000*%
G04 APERTURE END LIST*
D10*
X179238095Y-61804819D02*
X179238095Y-60804819D01*
X179238095Y-61281009D02*
X179809523Y-61281009D01*
X179809523Y-61804819D02*
X179809523Y-60804819D01*
X180238095Y-60900057D02*
X180285714Y-60852438D01*
X180285714Y-60852438D02*
X180380952Y-60804819D01*
X180380952Y-60804819D02*
X180619047Y-60804819D01*
X180619047Y-60804819D02*
X180714285Y-60852438D01*
X180714285Y-60852438D02*
X180761904Y-60900057D01*
X180761904Y-60900057D02*
X180809523Y-60995295D01*
X180809523Y-60995295D02*
X180809523Y-61090533D01*
X180809523Y-61090533D02*
X180761904Y-61233390D01*
X180761904Y-61233390D02*
X180190476Y-61804819D01*
X180190476Y-61804819D02*
X180809523Y-61804819D01*
X124357200Y-120083332D02*
X124404819Y-119940475D01*
X124404819Y-119940475D02*
X124404819Y-119702380D01*
X124404819Y-119702380D02*
X124357200Y-119607142D01*
X124357200Y-119607142D02*
X124309580Y-119559523D01*
X124309580Y-119559523D02*
X124214342Y-119511904D01*
X124214342Y-119511904D02*
X124119104Y-119511904D01*
X124119104Y-119511904D02*
X124023866Y-119559523D01*
X124023866Y-119559523D02*
X123976247Y-119607142D01*
X123976247Y-119607142D02*
X123928628Y-119702380D01*
X123928628Y-119702380D02*
X123881009Y-119892856D01*
X123881009Y-119892856D02*
X123833390Y-119988094D01*
X123833390Y-119988094D02*
X123785771Y-120035713D01*
X123785771Y-120035713D02*
X123690533Y-120083332D01*
X123690533Y-120083332D02*
X123595295Y-120083332D01*
X123595295Y-120083332D02*
X123500057Y-120035713D01*
X123500057Y-120035713D02*
X123452438Y-119988094D01*
X123452438Y-119988094D02*
X123404819Y-119892856D01*
X123404819Y-119892856D02*
X123404819Y-119654761D01*
X123404819Y-119654761D02*
X123452438Y-119511904D01*
X123404819Y-119178570D02*
X124404819Y-118940475D01*
X124404819Y-118940475D02*
X123690533Y-118749999D01*
X123690533Y-118749999D02*
X124404819Y-118559523D01*
X124404819Y-118559523D02*
X123404819Y-118321428D01*
X123404819Y-117511904D02*
X123404819Y-117702380D01*
X123404819Y-117702380D02*
X123452438Y-117797618D01*
X123452438Y-117797618D02*
X123500057Y-117845237D01*
X123500057Y-117845237D02*
X123642914Y-117940475D01*
X123642914Y-117940475D02*
X123833390Y-117988094D01*
X123833390Y-117988094D02*
X124214342Y-117988094D01*
X124214342Y-117988094D02*
X124309580Y-117940475D01*
X124309580Y-117940475D02*
X124357200Y-117892856D01*
X124357200Y-117892856D02*
X124404819Y-117797618D01*
X124404819Y-117797618D02*
X124404819Y-117607142D01*
X124404819Y-117607142D02*
X124357200Y-117511904D01*
X124357200Y-117511904D02*
X124309580Y-117464285D01*
X124309580Y-117464285D02*
X124214342Y-117416666D01*
X124214342Y-117416666D02*
X123976247Y-117416666D01*
X123976247Y-117416666D02*
X123881009Y-117464285D01*
X123881009Y-117464285D02*
X123833390Y-117511904D01*
X123833390Y-117511904D02*
X123785771Y-117607142D01*
X123785771Y-117607142D02*
X123785771Y-117797618D01*
X123785771Y-117797618D02*
X123833390Y-117892856D01*
X123833390Y-117892856D02*
X123881009Y-117940475D01*
X123881009Y-117940475D02*
X123976247Y-117988094D01*
X141857200Y-120083332D02*
X141904819Y-119940475D01*
X141904819Y-119940475D02*
X141904819Y-119702380D01*
X141904819Y-119702380D02*
X141857200Y-119607142D01*
X141857200Y-119607142D02*
X141809580Y-119559523D01*
X141809580Y-119559523D02*
X141714342Y-119511904D01*
X141714342Y-119511904D02*
X141619104Y-119511904D01*
X141619104Y-119511904D02*
X141523866Y-119559523D01*
X141523866Y-119559523D02*
X141476247Y-119607142D01*
X141476247Y-119607142D02*
X141428628Y-119702380D01*
X141428628Y-119702380D02*
X141381009Y-119892856D01*
X141381009Y-119892856D02*
X141333390Y-119988094D01*
X141333390Y-119988094D02*
X141285771Y-120035713D01*
X141285771Y-120035713D02*
X141190533Y-120083332D01*
X141190533Y-120083332D02*
X141095295Y-120083332D01*
X141095295Y-120083332D02*
X141000057Y-120035713D01*
X141000057Y-120035713D02*
X140952438Y-119988094D01*
X140952438Y-119988094D02*
X140904819Y-119892856D01*
X140904819Y-119892856D02*
X140904819Y-119654761D01*
X140904819Y-119654761D02*
X140952438Y-119511904D01*
X140904819Y-119178570D02*
X141904819Y-118940475D01*
X141904819Y-118940475D02*
X141190533Y-118749999D01*
X141190533Y-118749999D02*
X141904819Y-118559523D01*
X141904819Y-118559523D02*
X140904819Y-118321428D01*
X140904819Y-118035713D02*
X140904819Y-117369047D01*
X140904819Y-117369047D02*
X141904819Y-117797618D01*
X183011905Y-103494819D02*
X183011905Y-102494819D01*
X183011905Y-102494819D02*
X183250000Y-102494819D01*
X183250000Y-102494819D02*
X183392857Y-102542438D01*
X183392857Y-102542438D02*
X183488095Y-102637676D01*
X183488095Y-102637676D02*
X183535714Y-102732914D01*
X183535714Y-102732914D02*
X183583333Y-102923390D01*
X183583333Y-102923390D02*
X183583333Y-103066247D01*
X183583333Y-103066247D02*
X183535714Y-103256723D01*
X183535714Y-103256723D02*
X183488095Y-103351961D01*
X183488095Y-103351961D02*
X183392857Y-103447200D01*
X183392857Y-103447200D02*
X183250000Y-103494819D01*
X183250000Y-103494819D02*
X183011905Y-103494819D01*
X184154762Y-102923390D02*
X184059524Y-102875771D01*
X184059524Y-102875771D02*
X184011905Y-102828152D01*
X184011905Y-102828152D02*
X183964286Y-102732914D01*
X183964286Y-102732914D02*
X183964286Y-102685295D01*
X183964286Y-102685295D02*
X184011905Y-102590057D01*
X184011905Y-102590057D02*
X184059524Y-102542438D01*
X184059524Y-102542438D02*
X184154762Y-102494819D01*
X184154762Y-102494819D02*
X184345238Y-102494819D01*
X184345238Y-102494819D02*
X184440476Y-102542438D01*
X184440476Y-102542438D02*
X184488095Y-102590057D01*
X184488095Y-102590057D02*
X184535714Y-102685295D01*
X184535714Y-102685295D02*
X184535714Y-102732914D01*
X184535714Y-102732914D02*
X184488095Y-102828152D01*
X184488095Y-102828152D02*
X184440476Y-102875771D01*
X184440476Y-102875771D02*
X184345238Y-102923390D01*
X184345238Y-102923390D02*
X184154762Y-102923390D01*
X184154762Y-102923390D02*
X184059524Y-102971009D01*
X184059524Y-102971009D02*
X184011905Y-103018628D01*
X184011905Y-103018628D02*
X183964286Y-103113866D01*
X183964286Y-103113866D02*
X183964286Y-103304342D01*
X183964286Y-103304342D02*
X184011905Y-103399580D01*
X184011905Y-103399580D02*
X184059524Y-103447200D01*
X184059524Y-103447200D02*
X184154762Y-103494819D01*
X184154762Y-103494819D02*
X184345238Y-103494819D01*
X184345238Y-103494819D02*
X184440476Y-103447200D01*
X184440476Y-103447200D02*
X184488095Y-103399580D01*
X184488095Y-103399580D02*
X184535714Y-103304342D01*
X184535714Y-103304342D02*
X184535714Y-103113866D01*
X184535714Y-103113866D02*
X184488095Y-103018628D01*
X184488095Y-103018628D02*
X184440476Y-102971009D01*
X184440476Y-102971009D02*
X184345238Y-102923390D01*
X54357200Y-120083332D02*
X54404819Y-119940475D01*
X54404819Y-119940475D02*
X54404819Y-119702380D01*
X54404819Y-119702380D02*
X54357200Y-119607142D01*
X54357200Y-119607142D02*
X54309580Y-119559523D01*
X54309580Y-119559523D02*
X54214342Y-119511904D01*
X54214342Y-119511904D02*
X54119104Y-119511904D01*
X54119104Y-119511904D02*
X54023866Y-119559523D01*
X54023866Y-119559523D02*
X53976247Y-119607142D01*
X53976247Y-119607142D02*
X53928628Y-119702380D01*
X53928628Y-119702380D02*
X53881009Y-119892856D01*
X53881009Y-119892856D02*
X53833390Y-119988094D01*
X53833390Y-119988094D02*
X53785771Y-120035713D01*
X53785771Y-120035713D02*
X53690533Y-120083332D01*
X53690533Y-120083332D02*
X53595295Y-120083332D01*
X53595295Y-120083332D02*
X53500057Y-120035713D01*
X53500057Y-120035713D02*
X53452438Y-119988094D01*
X53452438Y-119988094D02*
X53404819Y-119892856D01*
X53404819Y-119892856D02*
X53404819Y-119654761D01*
X53404819Y-119654761D02*
X53452438Y-119511904D01*
X53404819Y-119178570D02*
X54404819Y-118940475D01*
X54404819Y-118940475D02*
X53690533Y-118749999D01*
X53690533Y-118749999D02*
X54404819Y-118559523D01*
X54404819Y-118559523D02*
X53404819Y-118321428D01*
X53500057Y-117988094D02*
X53452438Y-117940475D01*
X53452438Y-117940475D02*
X53404819Y-117845237D01*
X53404819Y-117845237D02*
X53404819Y-117607142D01*
X53404819Y-117607142D02*
X53452438Y-117511904D01*
X53452438Y-117511904D02*
X53500057Y-117464285D01*
X53500057Y-117464285D02*
X53595295Y-117416666D01*
X53595295Y-117416666D02*
X53690533Y-117416666D01*
X53690533Y-117416666D02*
X53833390Y-117464285D01*
X53833390Y-117464285D02*
X54404819Y-118035713D01*
X54404819Y-118035713D02*
X54404819Y-117416666D01*
X130511905Y-103494819D02*
X130511905Y-102494819D01*
X130511905Y-102494819D02*
X130750000Y-102494819D01*
X130750000Y-102494819D02*
X130892857Y-102542438D01*
X130892857Y-102542438D02*
X130988095Y-102637676D01*
X130988095Y-102637676D02*
X131035714Y-102732914D01*
X131035714Y-102732914D02*
X131083333Y-102923390D01*
X131083333Y-102923390D02*
X131083333Y-103066247D01*
X131083333Y-103066247D02*
X131035714Y-103256723D01*
X131035714Y-103256723D02*
X130988095Y-103351961D01*
X130988095Y-103351961D02*
X130892857Y-103447200D01*
X130892857Y-103447200D02*
X130750000Y-103494819D01*
X130750000Y-103494819D02*
X130511905Y-103494819D01*
X131988095Y-102494819D02*
X131511905Y-102494819D01*
X131511905Y-102494819D02*
X131464286Y-102971009D01*
X131464286Y-102971009D02*
X131511905Y-102923390D01*
X131511905Y-102923390D02*
X131607143Y-102875771D01*
X131607143Y-102875771D02*
X131845238Y-102875771D01*
X131845238Y-102875771D02*
X131940476Y-102923390D01*
X131940476Y-102923390D02*
X131988095Y-102971009D01*
X131988095Y-102971009D02*
X132035714Y-103066247D01*
X132035714Y-103066247D02*
X132035714Y-103304342D01*
X132035714Y-103304342D02*
X131988095Y-103399580D01*
X131988095Y-103399580D02*
X131940476Y-103447200D01*
X131940476Y-103447200D02*
X131845238Y-103494819D01*
X131845238Y-103494819D02*
X131607143Y-103494819D01*
X131607143Y-103494819D02*
X131511905Y-103447200D01*
X131511905Y-103447200D02*
X131464286Y-103399580D01*
X96747200Y-76709523D02*
X96794819Y-76566666D01*
X96794819Y-76566666D02*
X96794819Y-76328571D01*
X96794819Y-76328571D02*
X96747200Y-76233333D01*
X96747200Y-76233333D02*
X96699580Y-76185714D01*
X96699580Y-76185714D02*
X96604342Y-76138095D01*
X96604342Y-76138095D02*
X96509104Y-76138095D01*
X96509104Y-76138095D02*
X96413866Y-76185714D01*
X96413866Y-76185714D02*
X96366247Y-76233333D01*
X96366247Y-76233333D02*
X96318628Y-76328571D01*
X96318628Y-76328571D02*
X96271009Y-76519047D01*
X96271009Y-76519047D02*
X96223390Y-76614285D01*
X96223390Y-76614285D02*
X96175771Y-76661904D01*
X96175771Y-76661904D02*
X96080533Y-76709523D01*
X96080533Y-76709523D02*
X95985295Y-76709523D01*
X95985295Y-76709523D02*
X95890057Y-76661904D01*
X95890057Y-76661904D02*
X95842438Y-76614285D01*
X95842438Y-76614285D02*
X95794819Y-76519047D01*
X95794819Y-76519047D02*
X95794819Y-76280952D01*
X95794819Y-76280952D02*
X95842438Y-76138095D01*
X95794819Y-75804761D02*
X96794819Y-75566666D01*
X96794819Y-75566666D02*
X96080533Y-75376190D01*
X96080533Y-75376190D02*
X96794819Y-75185714D01*
X96794819Y-75185714D02*
X95794819Y-74947619D01*
X95890057Y-74614285D02*
X95842438Y-74566666D01*
X95842438Y-74566666D02*
X95794819Y-74471428D01*
X95794819Y-74471428D02*
X95794819Y-74233333D01*
X95794819Y-74233333D02*
X95842438Y-74138095D01*
X95842438Y-74138095D02*
X95890057Y-74090476D01*
X95890057Y-74090476D02*
X95985295Y-74042857D01*
X95985295Y-74042857D02*
X96080533Y-74042857D01*
X96080533Y-74042857D02*
X96223390Y-74090476D01*
X96223390Y-74090476D02*
X96794819Y-74661904D01*
X96794819Y-74661904D02*
X96794819Y-74042857D01*
X95794819Y-73709523D02*
X95794819Y-73090476D01*
X95794819Y-73090476D02*
X96175771Y-73423809D01*
X96175771Y-73423809D02*
X96175771Y-73280952D01*
X96175771Y-73280952D02*
X96223390Y-73185714D01*
X96223390Y-73185714D02*
X96271009Y-73138095D01*
X96271009Y-73138095D02*
X96366247Y-73090476D01*
X96366247Y-73090476D02*
X96604342Y-73090476D01*
X96604342Y-73090476D02*
X96699580Y-73138095D01*
X96699580Y-73138095D02*
X96747200Y-73185714D01*
X96747200Y-73185714D02*
X96794819Y-73280952D01*
X96794819Y-73280952D02*
X96794819Y-73566666D01*
X96794819Y-73566666D02*
X96747200Y-73661904D01*
X96747200Y-73661904D02*
X96699580Y-73709523D01*
X106857200Y-150559523D02*
X106904819Y-150416666D01*
X106904819Y-150416666D02*
X106904819Y-150178571D01*
X106904819Y-150178571D02*
X106857200Y-150083333D01*
X106857200Y-150083333D02*
X106809580Y-150035714D01*
X106809580Y-150035714D02*
X106714342Y-149988095D01*
X106714342Y-149988095D02*
X106619104Y-149988095D01*
X106619104Y-149988095D02*
X106523866Y-150035714D01*
X106523866Y-150035714D02*
X106476247Y-150083333D01*
X106476247Y-150083333D02*
X106428628Y-150178571D01*
X106428628Y-150178571D02*
X106381009Y-150369047D01*
X106381009Y-150369047D02*
X106333390Y-150464285D01*
X106333390Y-150464285D02*
X106285771Y-150511904D01*
X106285771Y-150511904D02*
X106190533Y-150559523D01*
X106190533Y-150559523D02*
X106095295Y-150559523D01*
X106095295Y-150559523D02*
X106000057Y-150511904D01*
X106000057Y-150511904D02*
X105952438Y-150464285D01*
X105952438Y-150464285D02*
X105904819Y-150369047D01*
X105904819Y-150369047D02*
X105904819Y-150130952D01*
X105904819Y-150130952D02*
X105952438Y-149988095D01*
X105904819Y-149654761D02*
X106904819Y-149416666D01*
X106904819Y-149416666D02*
X106190533Y-149226190D01*
X106190533Y-149226190D02*
X106904819Y-149035714D01*
X106904819Y-149035714D02*
X105904819Y-148797619D01*
X106904819Y-147892857D02*
X106904819Y-148464285D01*
X106904819Y-148178571D02*
X105904819Y-148178571D01*
X105904819Y-148178571D02*
X106047676Y-148273809D01*
X106047676Y-148273809D02*
X106142914Y-148369047D01*
X106142914Y-148369047D02*
X106190533Y-148464285D01*
X105904819Y-147559523D02*
X105904819Y-146940476D01*
X105904819Y-146940476D02*
X106285771Y-147273809D01*
X106285771Y-147273809D02*
X106285771Y-147130952D01*
X106285771Y-147130952D02*
X106333390Y-147035714D01*
X106333390Y-147035714D02*
X106381009Y-146988095D01*
X106381009Y-146988095D02*
X106476247Y-146940476D01*
X106476247Y-146940476D02*
X106714342Y-146940476D01*
X106714342Y-146940476D02*
X106809580Y-146988095D01*
X106809580Y-146988095D02*
X106857200Y-147035714D01*
X106857200Y-147035714D02*
X106904819Y-147130952D01*
X106904819Y-147130952D02*
X106904819Y-147416666D01*
X106904819Y-147416666D02*
X106857200Y-147511904D01*
X106857200Y-147511904D02*
X106809580Y-147559523D01*
X106857200Y-120083332D02*
X106904819Y-119940475D01*
X106904819Y-119940475D02*
X106904819Y-119702380D01*
X106904819Y-119702380D02*
X106857200Y-119607142D01*
X106857200Y-119607142D02*
X106809580Y-119559523D01*
X106809580Y-119559523D02*
X106714342Y-119511904D01*
X106714342Y-119511904D02*
X106619104Y-119511904D01*
X106619104Y-119511904D02*
X106523866Y-119559523D01*
X106523866Y-119559523D02*
X106476247Y-119607142D01*
X106476247Y-119607142D02*
X106428628Y-119702380D01*
X106428628Y-119702380D02*
X106381009Y-119892856D01*
X106381009Y-119892856D02*
X106333390Y-119988094D01*
X106333390Y-119988094D02*
X106285771Y-120035713D01*
X106285771Y-120035713D02*
X106190533Y-120083332D01*
X106190533Y-120083332D02*
X106095295Y-120083332D01*
X106095295Y-120083332D02*
X106000057Y-120035713D01*
X106000057Y-120035713D02*
X105952438Y-119988094D01*
X105952438Y-119988094D02*
X105904819Y-119892856D01*
X105904819Y-119892856D02*
X105904819Y-119654761D01*
X105904819Y-119654761D02*
X105952438Y-119511904D01*
X105904819Y-119178570D02*
X106904819Y-118940475D01*
X106904819Y-118940475D02*
X106190533Y-118749999D01*
X106190533Y-118749999D02*
X106904819Y-118559523D01*
X106904819Y-118559523D02*
X105904819Y-118321428D01*
X105904819Y-117464285D02*
X105904819Y-117940475D01*
X105904819Y-117940475D02*
X106381009Y-117988094D01*
X106381009Y-117988094D02*
X106333390Y-117940475D01*
X106333390Y-117940475D02*
X106285771Y-117845237D01*
X106285771Y-117845237D02*
X106285771Y-117607142D01*
X106285771Y-117607142D02*
X106333390Y-117511904D01*
X106333390Y-117511904D02*
X106381009Y-117464285D01*
X106381009Y-117464285D02*
X106476247Y-117416666D01*
X106476247Y-117416666D02*
X106714342Y-117416666D01*
X106714342Y-117416666D02*
X106809580Y-117464285D01*
X106809580Y-117464285D02*
X106857200Y-117511904D01*
X106857200Y-117511904D02*
X106904819Y-117607142D01*
X106904819Y-117607142D02*
X106904819Y-117845237D01*
X106904819Y-117845237D02*
X106857200Y-117940475D01*
X106857200Y-117940475D02*
X106809580Y-117988094D01*
X96747200Y-87909523D02*
X96794819Y-87766666D01*
X96794819Y-87766666D02*
X96794819Y-87528571D01*
X96794819Y-87528571D02*
X96747200Y-87433333D01*
X96747200Y-87433333D02*
X96699580Y-87385714D01*
X96699580Y-87385714D02*
X96604342Y-87338095D01*
X96604342Y-87338095D02*
X96509104Y-87338095D01*
X96509104Y-87338095D02*
X96413866Y-87385714D01*
X96413866Y-87385714D02*
X96366247Y-87433333D01*
X96366247Y-87433333D02*
X96318628Y-87528571D01*
X96318628Y-87528571D02*
X96271009Y-87719047D01*
X96271009Y-87719047D02*
X96223390Y-87814285D01*
X96223390Y-87814285D02*
X96175771Y-87861904D01*
X96175771Y-87861904D02*
X96080533Y-87909523D01*
X96080533Y-87909523D02*
X95985295Y-87909523D01*
X95985295Y-87909523D02*
X95890057Y-87861904D01*
X95890057Y-87861904D02*
X95842438Y-87814285D01*
X95842438Y-87814285D02*
X95794819Y-87719047D01*
X95794819Y-87719047D02*
X95794819Y-87480952D01*
X95794819Y-87480952D02*
X95842438Y-87338095D01*
X95794819Y-87004761D02*
X96794819Y-86766666D01*
X96794819Y-86766666D02*
X96080533Y-86576190D01*
X96080533Y-86576190D02*
X96794819Y-86385714D01*
X96794819Y-86385714D02*
X95794819Y-86147619D01*
X95890057Y-85814285D02*
X95842438Y-85766666D01*
X95842438Y-85766666D02*
X95794819Y-85671428D01*
X95794819Y-85671428D02*
X95794819Y-85433333D01*
X95794819Y-85433333D02*
X95842438Y-85338095D01*
X95842438Y-85338095D02*
X95890057Y-85290476D01*
X95890057Y-85290476D02*
X95985295Y-85242857D01*
X95985295Y-85242857D02*
X96080533Y-85242857D01*
X96080533Y-85242857D02*
X96223390Y-85290476D01*
X96223390Y-85290476D02*
X96794819Y-85861904D01*
X96794819Y-85861904D02*
X96794819Y-85242857D01*
X95890057Y-84861904D02*
X95842438Y-84814285D01*
X95842438Y-84814285D02*
X95794819Y-84719047D01*
X95794819Y-84719047D02*
X95794819Y-84480952D01*
X95794819Y-84480952D02*
X95842438Y-84385714D01*
X95842438Y-84385714D02*
X95890057Y-84338095D01*
X95890057Y-84338095D02*
X95985295Y-84290476D01*
X95985295Y-84290476D02*
X96080533Y-84290476D01*
X96080533Y-84290476D02*
X96223390Y-84338095D01*
X96223390Y-84338095D02*
X96794819Y-84909523D01*
X96794819Y-84909523D02*
X96794819Y-84290476D01*
X71857200Y-120083332D02*
X71904819Y-119940475D01*
X71904819Y-119940475D02*
X71904819Y-119702380D01*
X71904819Y-119702380D02*
X71857200Y-119607142D01*
X71857200Y-119607142D02*
X71809580Y-119559523D01*
X71809580Y-119559523D02*
X71714342Y-119511904D01*
X71714342Y-119511904D02*
X71619104Y-119511904D01*
X71619104Y-119511904D02*
X71523866Y-119559523D01*
X71523866Y-119559523D02*
X71476247Y-119607142D01*
X71476247Y-119607142D02*
X71428628Y-119702380D01*
X71428628Y-119702380D02*
X71381009Y-119892856D01*
X71381009Y-119892856D02*
X71333390Y-119988094D01*
X71333390Y-119988094D02*
X71285771Y-120035713D01*
X71285771Y-120035713D02*
X71190533Y-120083332D01*
X71190533Y-120083332D02*
X71095295Y-120083332D01*
X71095295Y-120083332D02*
X71000057Y-120035713D01*
X71000057Y-120035713D02*
X70952438Y-119988094D01*
X70952438Y-119988094D02*
X70904819Y-119892856D01*
X70904819Y-119892856D02*
X70904819Y-119654761D01*
X70904819Y-119654761D02*
X70952438Y-119511904D01*
X70904819Y-119178570D02*
X71904819Y-118940475D01*
X71904819Y-118940475D02*
X71190533Y-118749999D01*
X71190533Y-118749999D02*
X71904819Y-118559523D01*
X71904819Y-118559523D02*
X70904819Y-118321428D01*
X70904819Y-118035713D02*
X70904819Y-117416666D01*
X70904819Y-117416666D02*
X71285771Y-117749999D01*
X71285771Y-117749999D02*
X71285771Y-117607142D01*
X71285771Y-117607142D02*
X71333390Y-117511904D01*
X71333390Y-117511904D02*
X71381009Y-117464285D01*
X71381009Y-117464285D02*
X71476247Y-117416666D01*
X71476247Y-117416666D02*
X71714342Y-117416666D01*
X71714342Y-117416666D02*
X71809580Y-117464285D01*
X71809580Y-117464285D02*
X71857200Y-117511904D01*
X71857200Y-117511904D02*
X71904819Y-117607142D01*
X71904819Y-117607142D02*
X71904819Y-117892856D01*
X71904819Y-117892856D02*
X71857200Y-117988094D01*
X71857200Y-117988094D02*
X71809580Y-118035713D01*
X63747200Y-99109523D02*
X63794819Y-98966666D01*
X63794819Y-98966666D02*
X63794819Y-98728571D01*
X63794819Y-98728571D02*
X63747200Y-98633333D01*
X63747200Y-98633333D02*
X63699580Y-98585714D01*
X63699580Y-98585714D02*
X63604342Y-98538095D01*
X63604342Y-98538095D02*
X63509104Y-98538095D01*
X63509104Y-98538095D02*
X63413866Y-98585714D01*
X63413866Y-98585714D02*
X63366247Y-98633333D01*
X63366247Y-98633333D02*
X63318628Y-98728571D01*
X63318628Y-98728571D02*
X63271009Y-98919047D01*
X63271009Y-98919047D02*
X63223390Y-99014285D01*
X63223390Y-99014285D02*
X63175771Y-99061904D01*
X63175771Y-99061904D02*
X63080533Y-99109523D01*
X63080533Y-99109523D02*
X62985295Y-99109523D01*
X62985295Y-99109523D02*
X62890057Y-99061904D01*
X62890057Y-99061904D02*
X62842438Y-99014285D01*
X62842438Y-99014285D02*
X62794819Y-98919047D01*
X62794819Y-98919047D02*
X62794819Y-98680952D01*
X62794819Y-98680952D02*
X62842438Y-98538095D01*
X62794819Y-98204761D02*
X63794819Y-97966666D01*
X63794819Y-97966666D02*
X63080533Y-97776190D01*
X63080533Y-97776190D02*
X63794819Y-97585714D01*
X63794819Y-97585714D02*
X62794819Y-97347619D01*
X62890057Y-97014285D02*
X62842438Y-96966666D01*
X62842438Y-96966666D02*
X62794819Y-96871428D01*
X62794819Y-96871428D02*
X62794819Y-96633333D01*
X62794819Y-96633333D02*
X62842438Y-96538095D01*
X62842438Y-96538095D02*
X62890057Y-96490476D01*
X62890057Y-96490476D02*
X62985295Y-96442857D01*
X62985295Y-96442857D02*
X63080533Y-96442857D01*
X63080533Y-96442857D02*
X63223390Y-96490476D01*
X63223390Y-96490476D02*
X63794819Y-97061904D01*
X63794819Y-97061904D02*
X63794819Y-96442857D01*
X63794819Y-95490476D02*
X63794819Y-96061904D01*
X63794819Y-95776190D02*
X62794819Y-95776190D01*
X62794819Y-95776190D02*
X62937676Y-95871428D01*
X62937676Y-95871428D02*
X63032914Y-95966666D01*
X63032914Y-95966666D02*
X63080533Y-96061904D01*
X141857200Y-150559523D02*
X141904819Y-150416666D01*
X141904819Y-150416666D02*
X141904819Y-150178571D01*
X141904819Y-150178571D02*
X141857200Y-150083333D01*
X141857200Y-150083333D02*
X141809580Y-150035714D01*
X141809580Y-150035714D02*
X141714342Y-149988095D01*
X141714342Y-149988095D02*
X141619104Y-149988095D01*
X141619104Y-149988095D02*
X141523866Y-150035714D01*
X141523866Y-150035714D02*
X141476247Y-150083333D01*
X141476247Y-150083333D02*
X141428628Y-150178571D01*
X141428628Y-150178571D02*
X141381009Y-150369047D01*
X141381009Y-150369047D02*
X141333390Y-150464285D01*
X141333390Y-150464285D02*
X141285771Y-150511904D01*
X141285771Y-150511904D02*
X141190533Y-150559523D01*
X141190533Y-150559523D02*
X141095295Y-150559523D01*
X141095295Y-150559523D02*
X141000057Y-150511904D01*
X141000057Y-150511904D02*
X140952438Y-150464285D01*
X140952438Y-150464285D02*
X140904819Y-150369047D01*
X140904819Y-150369047D02*
X140904819Y-150130952D01*
X140904819Y-150130952D02*
X140952438Y-149988095D01*
X140904819Y-149654761D02*
X141904819Y-149416666D01*
X141904819Y-149416666D02*
X141190533Y-149226190D01*
X141190533Y-149226190D02*
X141904819Y-149035714D01*
X141904819Y-149035714D02*
X140904819Y-148797619D01*
X141904819Y-147892857D02*
X141904819Y-148464285D01*
X141904819Y-148178571D02*
X140904819Y-148178571D01*
X140904819Y-148178571D02*
X141047676Y-148273809D01*
X141047676Y-148273809D02*
X141142914Y-148369047D01*
X141142914Y-148369047D02*
X141190533Y-148464285D01*
X140904819Y-146988095D02*
X140904819Y-147464285D01*
X140904819Y-147464285D02*
X141381009Y-147511904D01*
X141381009Y-147511904D02*
X141333390Y-147464285D01*
X141333390Y-147464285D02*
X141285771Y-147369047D01*
X141285771Y-147369047D02*
X141285771Y-147130952D01*
X141285771Y-147130952D02*
X141333390Y-147035714D01*
X141333390Y-147035714D02*
X141381009Y-146988095D01*
X141381009Y-146988095D02*
X141476247Y-146940476D01*
X141476247Y-146940476D02*
X141714342Y-146940476D01*
X141714342Y-146940476D02*
X141809580Y-146988095D01*
X141809580Y-146988095D02*
X141857200Y-147035714D01*
X141857200Y-147035714D02*
X141904819Y-147130952D01*
X141904819Y-147130952D02*
X141904819Y-147369047D01*
X141904819Y-147369047D02*
X141857200Y-147464285D01*
X141857200Y-147464285D02*
X141809580Y-147511904D01*
X69238095Y-126304819D02*
X69238095Y-125304819D01*
X69238095Y-125781009D02*
X69809523Y-125781009D01*
X69809523Y-126304819D02*
X69809523Y-125304819D01*
X70190476Y-125304819D02*
X70809523Y-125304819D01*
X70809523Y-125304819D02*
X70476190Y-125685771D01*
X70476190Y-125685771D02*
X70619047Y-125685771D01*
X70619047Y-125685771D02*
X70714285Y-125733390D01*
X70714285Y-125733390D02*
X70761904Y-125781009D01*
X70761904Y-125781009D02*
X70809523Y-125876247D01*
X70809523Y-125876247D02*
X70809523Y-126114342D01*
X70809523Y-126114342D02*
X70761904Y-126209580D01*
X70761904Y-126209580D02*
X70714285Y-126257200D01*
X70714285Y-126257200D02*
X70619047Y-126304819D01*
X70619047Y-126304819D02*
X70333333Y-126304819D01*
X70333333Y-126304819D02*
X70238095Y-126257200D01*
X70238095Y-126257200D02*
X70190476Y-126209580D01*
X71857200Y-150559523D02*
X71904819Y-150416666D01*
X71904819Y-150416666D02*
X71904819Y-150178571D01*
X71904819Y-150178571D02*
X71857200Y-150083333D01*
X71857200Y-150083333D02*
X71809580Y-150035714D01*
X71809580Y-150035714D02*
X71714342Y-149988095D01*
X71714342Y-149988095D02*
X71619104Y-149988095D01*
X71619104Y-149988095D02*
X71523866Y-150035714D01*
X71523866Y-150035714D02*
X71476247Y-150083333D01*
X71476247Y-150083333D02*
X71428628Y-150178571D01*
X71428628Y-150178571D02*
X71381009Y-150369047D01*
X71381009Y-150369047D02*
X71333390Y-150464285D01*
X71333390Y-150464285D02*
X71285771Y-150511904D01*
X71285771Y-150511904D02*
X71190533Y-150559523D01*
X71190533Y-150559523D02*
X71095295Y-150559523D01*
X71095295Y-150559523D02*
X71000057Y-150511904D01*
X71000057Y-150511904D02*
X70952438Y-150464285D01*
X70952438Y-150464285D02*
X70904819Y-150369047D01*
X70904819Y-150369047D02*
X70904819Y-150130952D01*
X70904819Y-150130952D02*
X70952438Y-149988095D01*
X70904819Y-149654761D02*
X71904819Y-149416666D01*
X71904819Y-149416666D02*
X71190533Y-149226190D01*
X71190533Y-149226190D02*
X71904819Y-149035714D01*
X71904819Y-149035714D02*
X70904819Y-148797619D01*
X71904819Y-147892857D02*
X71904819Y-148464285D01*
X71904819Y-148178571D02*
X70904819Y-148178571D01*
X70904819Y-148178571D02*
X71047676Y-148273809D01*
X71047676Y-148273809D02*
X71142914Y-148369047D01*
X71142914Y-148369047D02*
X71190533Y-148464285D01*
X71904819Y-146940476D02*
X71904819Y-147511904D01*
X71904819Y-147226190D02*
X70904819Y-147226190D01*
X70904819Y-147226190D02*
X71047676Y-147321428D01*
X71047676Y-147321428D02*
X71142914Y-147416666D01*
X71142914Y-147416666D02*
X71190533Y-147511904D01*
X113011905Y-103494819D02*
X113011905Y-102494819D01*
X113011905Y-102494819D02*
X113250000Y-102494819D01*
X113250000Y-102494819D02*
X113392857Y-102542438D01*
X113392857Y-102542438D02*
X113488095Y-102637676D01*
X113488095Y-102637676D02*
X113535714Y-102732914D01*
X113535714Y-102732914D02*
X113583333Y-102923390D01*
X113583333Y-102923390D02*
X113583333Y-103066247D01*
X113583333Y-103066247D02*
X113535714Y-103256723D01*
X113535714Y-103256723D02*
X113488095Y-103351961D01*
X113488095Y-103351961D02*
X113392857Y-103447200D01*
X113392857Y-103447200D02*
X113250000Y-103494819D01*
X113250000Y-103494819D02*
X113011905Y-103494819D01*
X114440476Y-102828152D02*
X114440476Y-103494819D01*
X114202381Y-102447200D02*
X113964286Y-103161485D01*
X113964286Y-103161485D02*
X114583333Y-103161485D01*
X182535714Y-133494819D02*
X182535714Y-132494819D01*
X182535714Y-132494819D02*
X182773809Y-132494819D01*
X182773809Y-132494819D02*
X182916666Y-132542438D01*
X182916666Y-132542438D02*
X183011904Y-132637676D01*
X183011904Y-132637676D02*
X183059523Y-132732914D01*
X183059523Y-132732914D02*
X183107142Y-132923390D01*
X183107142Y-132923390D02*
X183107142Y-133066247D01*
X183107142Y-133066247D02*
X183059523Y-133256723D01*
X183059523Y-133256723D02*
X183011904Y-133351961D01*
X183011904Y-133351961D02*
X182916666Y-133447200D01*
X182916666Y-133447200D02*
X182773809Y-133494819D01*
X182773809Y-133494819D02*
X182535714Y-133494819D01*
X184059523Y-133494819D02*
X183488095Y-133494819D01*
X183773809Y-133494819D02*
X183773809Y-132494819D01*
X183773809Y-132494819D02*
X183678571Y-132637676D01*
X183678571Y-132637676D02*
X183583333Y-132732914D01*
X183583333Y-132732914D02*
X183488095Y-132780533D01*
X184916666Y-132494819D02*
X184726190Y-132494819D01*
X184726190Y-132494819D02*
X184630952Y-132542438D01*
X184630952Y-132542438D02*
X184583333Y-132590057D01*
X184583333Y-132590057D02*
X184488095Y-132732914D01*
X184488095Y-132732914D02*
X184440476Y-132923390D01*
X184440476Y-132923390D02*
X184440476Y-133304342D01*
X184440476Y-133304342D02*
X184488095Y-133399580D01*
X184488095Y-133399580D02*
X184535714Y-133447200D01*
X184535714Y-133447200D02*
X184630952Y-133494819D01*
X184630952Y-133494819D02*
X184821428Y-133494819D01*
X184821428Y-133494819D02*
X184916666Y-133447200D01*
X184916666Y-133447200D02*
X184964285Y-133399580D01*
X184964285Y-133399580D02*
X185011904Y-133304342D01*
X185011904Y-133304342D02*
X185011904Y-133066247D01*
X185011904Y-133066247D02*
X184964285Y-132971009D01*
X184964285Y-132971009D02*
X184916666Y-132923390D01*
X184916666Y-132923390D02*
X184821428Y-132875771D01*
X184821428Y-132875771D02*
X184630952Y-132875771D01*
X184630952Y-132875771D02*
X184535714Y-132923390D01*
X184535714Y-132923390D02*
X184488095Y-132971009D01*
X184488095Y-132971009D02*
X184440476Y-133066247D01*
X176857200Y-120083332D02*
X176904819Y-119940475D01*
X176904819Y-119940475D02*
X176904819Y-119702380D01*
X176904819Y-119702380D02*
X176857200Y-119607142D01*
X176857200Y-119607142D02*
X176809580Y-119559523D01*
X176809580Y-119559523D02*
X176714342Y-119511904D01*
X176714342Y-119511904D02*
X176619104Y-119511904D01*
X176619104Y-119511904D02*
X176523866Y-119559523D01*
X176523866Y-119559523D02*
X176476247Y-119607142D01*
X176476247Y-119607142D02*
X176428628Y-119702380D01*
X176428628Y-119702380D02*
X176381009Y-119892856D01*
X176381009Y-119892856D02*
X176333390Y-119988094D01*
X176333390Y-119988094D02*
X176285771Y-120035713D01*
X176285771Y-120035713D02*
X176190533Y-120083332D01*
X176190533Y-120083332D02*
X176095295Y-120083332D01*
X176095295Y-120083332D02*
X176000057Y-120035713D01*
X176000057Y-120035713D02*
X175952438Y-119988094D01*
X175952438Y-119988094D02*
X175904819Y-119892856D01*
X175904819Y-119892856D02*
X175904819Y-119654761D01*
X175904819Y-119654761D02*
X175952438Y-119511904D01*
X175904819Y-119178570D02*
X176904819Y-118940475D01*
X176904819Y-118940475D02*
X176190533Y-118749999D01*
X176190533Y-118749999D02*
X176904819Y-118559523D01*
X176904819Y-118559523D02*
X175904819Y-118321428D01*
X176904819Y-117892856D02*
X176904819Y-117702380D01*
X176904819Y-117702380D02*
X176857200Y-117607142D01*
X176857200Y-117607142D02*
X176809580Y-117559523D01*
X176809580Y-117559523D02*
X176666723Y-117464285D01*
X176666723Y-117464285D02*
X176476247Y-117416666D01*
X176476247Y-117416666D02*
X176095295Y-117416666D01*
X176095295Y-117416666D02*
X176000057Y-117464285D01*
X176000057Y-117464285D02*
X175952438Y-117511904D01*
X175952438Y-117511904D02*
X175904819Y-117607142D01*
X175904819Y-117607142D02*
X175904819Y-117797618D01*
X175904819Y-117797618D02*
X175952438Y-117892856D01*
X175952438Y-117892856D02*
X176000057Y-117940475D01*
X176000057Y-117940475D02*
X176095295Y-117988094D01*
X176095295Y-117988094D02*
X176333390Y-117988094D01*
X176333390Y-117988094D02*
X176428628Y-117940475D01*
X176428628Y-117940475D02*
X176476247Y-117892856D01*
X176476247Y-117892856D02*
X176523866Y-117797618D01*
X176523866Y-117797618D02*
X176523866Y-117607142D01*
X176523866Y-117607142D02*
X176476247Y-117511904D01*
X176476247Y-117511904D02*
X176428628Y-117464285D01*
X176428628Y-117464285D02*
X176333390Y-117416666D01*
X159357200Y-120083332D02*
X159404819Y-119940475D01*
X159404819Y-119940475D02*
X159404819Y-119702380D01*
X159404819Y-119702380D02*
X159357200Y-119607142D01*
X159357200Y-119607142D02*
X159309580Y-119559523D01*
X159309580Y-119559523D02*
X159214342Y-119511904D01*
X159214342Y-119511904D02*
X159119104Y-119511904D01*
X159119104Y-119511904D02*
X159023866Y-119559523D01*
X159023866Y-119559523D02*
X158976247Y-119607142D01*
X158976247Y-119607142D02*
X158928628Y-119702380D01*
X158928628Y-119702380D02*
X158881009Y-119892856D01*
X158881009Y-119892856D02*
X158833390Y-119988094D01*
X158833390Y-119988094D02*
X158785771Y-120035713D01*
X158785771Y-120035713D02*
X158690533Y-120083332D01*
X158690533Y-120083332D02*
X158595295Y-120083332D01*
X158595295Y-120083332D02*
X158500057Y-120035713D01*
X158500057Y-120035713D02*
X158452438Y-119988094D01*
X158452438Y-119988094D02*
X158404819Y-119892856D01*
X158404819Y-119892856D02*
X158404819Y-119654761D01*
X158404819Y-119654761D02*
X158452438Y-119511904D01*
X158404819Y-119178570D02*
X159404819Y-118940475D01*
X159404819Y-118940475D02*
X158690533Y-118749999D01*
X158690533Y-118749999D02*
X159404819Y-118559523D01*
X159404819Y-118559523D02*
X158404819Y-118321428D01*
X158833390Y-117797618D02*
X158785771Y-117892856D01*
X158785771Y-117892856D02*
X158738152Y-117940475D01*
X158738152Y-117940475D02*
X158642914Y-117988094D01*
X158642914Y-117988094D02*
X158595295Y-117988094D01*
X158595295Y-117988094D02*
X158500057Y-117940475D01*
X158500057Y-117940475D02*
X158452438Y-117892856D01*
X158452438Y-117892856D02*
X158404819Y-117797618D01*
X158404819Y-117797618D02*
X158404819Y-117607142D01*
X158404819Y-117607142D02*
X158452438Y-117511904D01*
X158452438Y-117511904D02*
X158500057Y-117464285D01*
X158500057Y-117464285D02*
X158595295Y-117416666D01*
X158595295Y-117416666D02*
X158642914Y-117416666D01*
X158642914Y-117416666D02*
X158738152Y-117464285D01*
X158738152Y-117464285D02*
X158785771Y-117511904D01*
X158785771Y-117511904D02*
X158833390Y-117607142D01*
X158833390Y-117607142D02*
X158833390Y-117797618D01*
X158833390Y-117797618D02*
X158881009Y-117892856D01*
X158881009Y-117892856D02*
X158928628Y-117940475D01*
X158928628Y-117940475D02*
X159023866Y-117988094D01*
X159023866Y-117988094D02*
X159214342Y-117988094D01*
X159214342Y-117988094D02*
X159309580Y-117940475D01*
X159309580Y-117940475D02*
X159357200Y-117892856D01*
X159357200Y-117892856D02*
X159404819Y-117797618D01*
X159404819Y-117797618D02*
X159404819Y-117607142D01*
X159404819Y-117607142D02*
X159357200Y-117511904D01*
X159357200Y-117511904D02*
X159309580Y-117464285D01*
X159309580Y-117464285D02*
X159214342Y-117416666D01*
X159214342Y-117416666D02*
X159023866Y-117416666D01*
X159023866Y-117416666D02*
X158928628Y-117464285D01*
X158928628Y-117464285D02*
X158881009Y-117511904D01*
X158881009Y-117511904D02*
X158833390Y-117607142D01*
X148011905Y-103494819D02*
X148011905Y-102494819D01*
X148011905Y-102494819D02*
X148250000Y-102494819D01*
X148250000Y-102494819D02*
X148392857Y-102542438D01*
X148392857Y-102542438D02*
X148488095Y-102637676D01*
X148488095Y-102637676D02*
X148535714Y-102732914D01*
X148535714Y-102732914D02*
X148583333Y-102923390D01*
X148583333Y-102923390D02*
X148583333Y-103066247D01*
X148583333Y-103066247D02*
X148535714Y-103256723D01*
X148535714Y-103256723D02*
X148488095Y-103351961D01*
X148488095Y-103351961D02*
X148392857Y-103447200D01*
X148392857Y-103447200D02*
X148250000Y-103494819D01*
X148250000Y-103494819D02*
X148011905Y-103494819D01*
X149440476Y-102494819D02*
X149250000Y-102494819D01*
X149250000Y-102494819D02*
X149154762Y-102542438D01*
X149154762Y-102542438D02*
X149107143Y-102590057D01*
X149107143Y-102590057D02*
X149011905Y-102732914D01*
X149011905Y-102732914D02*
X148964286Y-102923390D01*
X148964286Y-102923390D02*
X148964286Y-103304342D01*
X148964286Y-103304342D02*
X149011905Y-103399580D01*
X149011905Y-103399580D02*
X149059524Y-103447200D01*
X149059524Y-103447200D02*
X149154762Y-103494819D01*
X149154762Y-103494819D02*
X149345238Y-103494819D01*
X149345238Y-103494819D02*
X149440476Y-103447200D01*
X149440476Y-103447200D02*
X149488095Y-103399580D01*
X149488095Y-103399580D02*
X149535714Y-103304342D01*
X149535714Y-103304342D02*
X149535714Y-103066247D01*
X149535714Y-103066247D02*
X149488095Y-102971009D01*
X149488095Y-102971009D02*
X149440476Y-102923390D01*
X149440476Y-102923390D02*
X149345238Y-102875771D01*
X149345238Y-102875771D02*
X149154762Y-102875771D01*
X149154762Y-102875771D02*
X149059524Y-102923390D01*
X149059524Y-102923390D02*
X149011905Y-102971009D01*
X149011905Y-102971009D02*
X148964286Y-103066247D01*
X159357200Y-150559523D02*
X159404819Y-150416666D01*
X159404819Y-150416666D02*
X159404819Y-150178571D01*
X159404819Y-150178571D02*
X159357200Y-150083333D01*
X159357200Y-150083333D02*
X159309580Y-150035714D01*
X159309580Y-150035714D02*
X159214342Y-149988095D01*
X159214342Y-149988095D02*
X159119104Y-149988095D01*
X159119104Y-149988095D02*
X159023866Y-150035714D01*
X159023866Y-150035714D02*
X158976247Y-150083333D01*
X158976247Y-150083333D02*
X158928628Y-150178571D01*
X158928628Y-150178571D02*
X158881009Y-150369047D01*
X158881009Y-150369047D02*
X158833390Y-150464285D01*
X158833390Y-150464285D02*
X158785771Y-150511904D01*
X158785771Y-150511904D02*
X158690533Y-150559523D01*
X158690533Y-150559523D02*
X158595295Y-150559523D01*
X158595295Y-150559523D02*
X158500057Y-150511904D01*
X158500057Y-150511904D02*
X158452438Y-150464285D01*
X158452438Y-150464285D02*
X158404819Y-150369047D01*
X158404819Y-150369047D02*
X158404819Y-150130952D01*
X158404819Y-150130952D02*
X158452438Y-149988095D01*
X158404819Y-149654761D02*
X159404819Y-149416666D01*
X159404819Y-149416666D02*
X158690533Y-149226190D01*
X158690533Y-149226190D02*
X159404819Y-149035714D01*
X159404819Y-149035714D02*
X158404819Y-148797619D01*
X159404819Y-147892857D02*
X159404819Y-148464285D01*
X159404819Y-148178571D02*
X158404819Y-148178571D01*
X158404819Y-148178571D02*
X158547676Y-148273809D01*
X158547676Y-148273809D02*
X158642914Y-148369047D01*
X158642914Y-148369047D02*
X158690533Y-148464285D01*
X158404819Y-147035714D02*
X158404819Y-147226190D01*
X158404819Y-147226190D02*
X158452438Y-147321428D01*
X158452438Y-147321428D02*
X158500057Y-147369047D01*
X158500057Y-147369047D02*
X158642914Y-147464285D01*
X158642914Y-147464285D02*
X158833390Y-147511904D01*
X158833390Y-147511904D02*
X159214342Y-147511904D01*
X159214342Y-147511904D02*
X159309580Y-147464285D01*
X159309580Y-147464285D02*
X159357200Y-147416666D01*
X159357200Y-147416666D02*
X159404819Y-147321428D01*
X159404819Y-147321428D02*
X159404819Y-147130952D01*
X159404819Y-147130952D02*
X159357200Y-147035714D01*
X159357200Y-147035714D02*
X159309580Y-146988095D01*
X159309580Y-146988095D02*
X159214342Y-146940476D01*
X159214342Y-146940476D02*
X158976247Y-146940476D01*
X158976247Y-146940476D02*
X158881009Y-146988095D01*
X158881009Y-146988095D02*
X158833390Y-147035714D01*
X158833390Y-147035714D02*
X158785771Y-147130952D01*
X158785771Y-147130952D02*
X158785771Y-147321428D01*
X158785771Y-147321428D02*
X158833390Y-147416666D01*
X158833390Y-147416666D02*
X158881009Y-147464285D01*
X158881009Y-147464285D02*
X158976247Y-147511904D01*
X165511905Y-103494819D02*
X165511905Y-102494819D01*
X165511905Y-102494819D02*
X165750000Y-102494819D01*
X165750000Y-102494819D02*
X165892857Y-102542438D01*
X165892857Y-102542438D02*
X165988095Y-102637676D01*
X165988095Y-102637676D02*
X166035714Y-102732914D01*
X166035714Y-102732914D02*
X166083333Y-102923390D01*
X166083333Y-102923390D02*
X166083333Y-103066247D01*
X166083333Y-103066247D02*
X166035714Y-103256723D01*
X166035714Y-103256723D02*
X165988095Y-103351961D01*
X165988095Y-103351961D02*
X165892857Y-103447200D01*
X165892857Y-103447200D02*
X165750000Y-103494819D01*
X165750000Y-103494819D02*
X165511905Y-103494819D01*
X166416667Y-102494819D02*
X167083333Y-102494819D01*
X167083333Y-102494819D02*
X166654762Y-103494819D01*
X78011905Y-103494819D02*
X78011905Y-102494819D01*
X78011905Y-102494819D02*
X78250000Y-102494819D01*
X78250000Y-102494819D02*
X78392857Y-102542438D01*
X78392857Y-102542438D02*
X78488095Y-102637676D01*
X78488095Y-102637676D02*
X78535714Y-102732914D01*
X78535714Y-102732914D02*
X78583333Y-102923390D01*
X78583333Y-102923390D02*
X78583333Y-103066247D01*
X78583333Y-103066247D02*
X78535714Y-103256723D01*
X78535714Y-103256723D02*
X78488095Y-103351961D01*
X78488095Y-103351961D02*
X78392857Y-103447200D01*
X78392857Y-103447200D02*
X78250000Y-103494819D01*
X78250000Y-103494819D02*
X78011905Y-103494819D01*
X78964286Y-102590057D02*
X79011905Y-102542438D01*
X79011905Y-102542438D02*
X79107143Y-102494819D01*
X79107143Y-102494819D02*
X79345238Y-102494819D01*
X79345238Y-102494819D02*
X79440476Y-102542438D01*
X79440476Y-102542438D02*
X79488095Y-102590057D01*
X79488095Y-102590057D02*
X79535714Y-102685295D01*
X79535714Y-102685295D02*
X79535714Y-102780533D01*
X79535714Y-102780533D02*
X79488095Y-102923390D01*
X79488095Y-102923390D02*
X78916667Y-103494819D01*
X78916667Y-103494819D02*
X79535714Y-103494819D01*
X60511905Y-103494819D02*
X60511905Y-102494819D01*
X60511905Y-102494819D02*
X60750000Y-102494819D01*
X60750000Y-102494819D02*
X60892857Y-102542438D01*
X60892857Y-102542438D02*
X60988095Y-102637676D01*
X60988095Y-102637676D02*
X61035714Y-102732914D01*
X61035714Y-102732914D02*
X61083333Y-102923390D01*
X61083333Y-102923390D02*
X61083333Y-103066247D01*
X61083333Y-103066247D02*
X61035714Y-103256723D01*
X61035714Y-103256723D02*
X60988095Y-103351961D01*
X60988095Y-103351961D02*
X60892857Y-103447200D01*
X60892857Y-103447200D02*
X60750000Y-103494819D01*
X60750000Y-103494819D02*
X60511905Y-103494819D01*
X62035714Y-103494819D02*
X61464286Y-103494819D01*
X61750000Y-103494819D02*
X61750000Y-102494819D01*
X61750000Y-102494819D02*
X61654762Y-102637676D01*
X61654762Y-102637676D02*
X61559524Y-102732914D01*
X61559524Y-102732914D02*
X61464286Y-102780533D01*
X124357200Y-150559523D02*
X124404819Y-150416666D01*
X124404819Y-150416666D02*
X124404819Y-150178571D01*
X124404819Y-150178571D02*
X124357200Y-150083333D01*
X124357200Y-150083333D02*
X124309580Y-150035714D01*
X124309580Y-150035714D02*
X124214342Y-149988095D01*
X124214342Y-149988095D02*
X124119104Y-149988095D01*
X124119104Y-149988095D02*
X124023866Y-150035714D01*
X124023866Y-150035714D02*
X123976247Y-150083333D01*
X123976247Y-150083333D02*
X123928628Y-150178571D01*
X123928628Y-150178571D02*
X123881009Y-150369047D01*
X123881009Y-150369047D02*
X123833390Y-150464285D01*
X123833390Y-150464285D02*
X123785771Y-150511904D01*
X123785771Y-150511904D02*
X123690533Y-150559523D01*
X123690533Y-150559523D02*
X123595295Y-150559523D01*
X123595295Y-150559523D02*
X123500057Y-150511904D01*
X123500057Y-150511904D02*
X123452438Y-150464285D01*
X123452438Y-150464285D02*
X123404819Y-150369047D01*
X123404819Y-150369047D02*
X123404819Y-150130952D01*
X123404819Y-150130952D02*
X123452438Y-149988095D01*
X123404819Y-149654761D02*
X124404819Y-149416666D01*
X124404819Y-149416666D02*
X123690533Y-149226190D01*
X123690533Y-149226190D02*
X124404819Y-149035714D01*
X124404819Y-149035714D02*
X123404819Y-148797619D01*
X124404819Y-147892857D02*
X124404819Y-148464285D01*
X124404819Y-148178571D02*
X123404819Y-148178571D01*
X123404819Y-148178571D02*
X123547676Y-148273809D01*
X123547676Y-148273809D02*
X123642914Y-148369047D01*
X123642914Y-148369047D02*
X123690533Y-148464285D01*
X123738152Y-147035714D02*
X124404819Y-147035714D01*
X123357200Y-147273809D02*
X124071485Y-147511904D01*
X124071485Y-147511904D02*
X124071485Y-146892857D01*
X63747200Y-76709523D02*
X63794819Y-76566666D01*
X63794819Y-76566666D02*
X63794819Y-76328571D01*
X63794819Y-76328571D02*
X63747200Y-76233333D01*
X63747200Y-76233333D02*
X63699580Y-76185714D01*
X63699580Y-76185714D02*
X63604342Y-76138095D01*
X63604342Y-76138095D02*
X63509104Y-76138095D01*
X63509104Y-76138095D02*
X63413866Y-76185714D01*
X63413866Y-76185714D02*
X63366247Y-76233333D01*
X63366247Y-76233333D02*
X63318628Y-76328571D01*
X63318628Y-76328571D02*
X63271009Y-76519047D01*
X63271009Y-76519047D02*
X63223390Y-76614285D01*
X63223390Y-76614285D02*
X63175771Y-76661904D01*
X63175771Y-76661904D02*
X63080533Y-76709523D01*
X63080533Y-76709523D02*
X62985295Y-76709523D01*
X62985295Y-76709523D02*
X62890057Y-76661904D01*
X62890057Y-76661904D02*
X62842438Y-76614285D01*
X62842438Y-76614285D02*
X62794819Y-76519047D01*
X62794819Y-76519047D02*
X62794819Y-76280952D01*
X62794819Y-76280952D02*
X62842438Y-76138095D01*
X62794819Y-75804761D02*
X63794819Y-75566666D01*
X63794819Y-75566666D02*
X63080533Y-75376190D01*
X63080533Y-75376190D02*
X63794819Y-75185714D01*
X63794819Y-75185714D02*
X62794819Y-74947619D01*
X63794819Y-74042857D02*
X63794819Y-74614285D01*
X63794819Y-74328571D02*
X62794819Y-74328571D01*
X62794819Y-74328571D02*
X62937676Y-74423809D01*
X62937676Y-74423809D02*
X63032914Y-74519047D01*
X63032914Y-74519047D02*
X63080533Y-74614285D01*
X63794819Y-73566666D02*
X63794819Y-73376190D01*
X63794819Y-73376190D02*
X63747200Y-73280952D01*
X63747200Y-73280952D02*
X63699580Y-73233333D01*
X63699580Y-73233333D02*
X63556723Y-73138095D01*
X63556723Y-73138095D02*
X63366247Y-73090476D01*
X63366247Y-73090476D02*
X62985295Y-73090476D01*
X62985295Y-73090476D02*
X62890057Y-73138095D01*
X62890057Y-73138095D02*
X62842438Y-73185714D01*
X62842438Y-73185714D02*
X62794819Y-73280952D01*
X62794819Y-73280952D02*
X62794819Y-73471428D01*
X62794819Y-73471428D02*
X62842438Y-73566666D01*
X62842438Y-73566666D02*
X62890057Y-73614285D01*
X62890057Y-73614285D02*
X62985295Y-73661904D01*
X62985295Y-73661904D02*
X63223390Y-73661904D01*
X63223390Y-73661904D02*
X63318628Y-73614285D01*
X63318628Y-73614285D02*
X63366247Y-73566666D01*
X63366247Y-73566666D02*
X63413866Y-73471428D01*
X63413866Y-73471428D02*
X63413866Y-73280952D01*
X63413866Y-73280952D02*
X63366247Y-73185714D01*
X63366247Y-73185714D02*
X63318628Y-73138095D01*
X63318628Y-73138095D02*
X63223390Y-73090476D01*
X112535714Y-133494819D02*
X112535714Y-132494819D01*
X112535714Y-132494819D02*
X112773809Y-132494819D01*
X112773809Y-132494819D02*
X112916666Y-132542438D01*
X112916666Y-132542438D02*
X113011904Y-132637676D01*
X113011904Y-132637676D02*
X113059523Y-132732914D01*
X113059523Y-132732914D02*
X113107142Y-132923390D01*
X113107142Y-132923390D02*
X113107142Y-133066247D01*
X113107142Y-133066247D02*
X113059523Y-133256723D01*
X113059523Y-133256723D02*
X113011904Y-133351961D01*
X113011904Y-133351961D02*
X112916666Y-133447200D01*
X112916666Y-133447200D02*
X112773809Y-133494819D01*
X112773809Y-133494819D02*
X112535714Y-133494819D01*
X114059523Y-133494819D02*
X113488095Y-133494819D01*
X113773809Y-133494819D02*
X113773809Y-132494819D01*
X113773809Y-132494819D02*
X113678571Y-132637676D01*
X113678571Y-132637676D02*
X113583333Y-132732914D01*
X113583333Y-132732914D02*
X113488095Y-132780533D01*
X114440476Y-132590057D02*
X114488095Y-132542438D01*
X114488095Y-132542438D02*
X114583333Y-132494819D01*
X114583333Y-132494819D02*
X114821428Y-132494819D01*
X114821428Y-132494819D02*
X114916666Y-132542438D01*
X114916666Y-132542438D02*
X114964285Y-132590057D01*
X114964285Y-132590057D02*
X115011904Y-132685295D01*
X115011904Y-132685295D02*
X115011904Y-132780533D01*
X115011904Y-132780533D02*
X114964285Y-132923390D01*
X114964285Y-132923390D02*
X114392857Y-133494819D01*
X114392857Y-133494819D02*
X115011904Y-133494819D01*
D11*
X116899523Y-75462419D02*
X116328095Y-75462419D01*
X116613809Y-75462419D02*
X116613809Y-74462419D01*
X116613809Y-74462419D02*
X116518571Y-74605276D01*
X116518571Y-74605276D02*
X116423333Y-74700514D01*
X116423333Y-74700514D02*
X116328095Y-74748133D01*
X117756666Y-74462419D02*
X117566190Y-74462419D01*
X117566190Y-74462419D02*
X117470952Y-74510038D01*
X117470952Y-74510038D02*
X117423333Y-74557657D01*
X117423333Y-74557657D02*
X117328095Y-74700514D01*
X117328095Y-74700514D02*
X117280476Y-74890990D01*
X117280476Y-74890990D02*
X117280476Y-75271942D01*
X117280476Y-75271942D02*
X117328095Y-75367180D01*
X117328095Y-75367180D02*
X117375714Y-75414800D01*
X117375714Y-75414800D02*
X117470952Y-75462419D01*
X117470952Y-75462419D02*
X117661428Y-75462419D01*
X117661428Y-75462419D02*
X117756666Y-75414800D01*
X117756666Y-75414800D02*
X117804285Y-75367180D01*
X117804285Y-75367180D02*
X117851904Y-75271942D01*
X117851904Y-75271942D02*
X117851904Y-75033847D01*
X117851904Y-75033847D02*
X117804285Y-74938609D01*
X117804285Y-74938609D02*
X117756666Y-74890990D01*
X117756666Y-74890990D02*
X117661428Y-74843371D01*
X117661428Y-74843371D02*
X117470952Y-74843371D01*
X117470952Y-74843371D02*
X117375714Y-74890990D01*
X117375714Y-74890990D02*
X117328095Y-74938609D01*
X117328095Y-74938609D02*
X117280476Y-75033847D01*
X134899524Y-75462419D02*
X135090000Y-75462419D01*
X135090000Y-75462419D02*
X135185238Y-75414800D01*
X135185238Y-75414800D02*
X135232857Y-75367180D01*
X135232857Y-75367180D02*
X135328095Y-75224323D01*
X135328095Y-75224323D02*
X135375714Y-75033847D01*
X135375714Y-75033847D02*
X135375714Y-74652895D01*
X135375714Y-74652895D02*
X135328095Y-74557657D01*
X135328095Y-74557657D02*
X135280476Y-74510038D01*
X135280476Y-74510038D02*
X135185238Y-74462419D01*
X135185238Y-74462419D02*
X134994762Y-74462419D01*
X134994762Y-74462419D02*
X134899524Y-74510038D01*
X134899524Y-74510038D02*
X134851905Y-74557657D01*
X134851905Y-74557657D02*
X134804286Y-74652895D01*
X134804286Y-74652895D02*
X134804286Y-74890990D01*
X134804286Y-74890990D02*
X134851905Y-74986228D01*
X134851905Y-74986228D02*
X134899524Y-75033847D01*
X134899524Y-75033847D02*
X134994762Y-75081466D01*
X134994762Y-75081466D02*
X135185238Y-75081466D01*
X135185238Y-75081466D02*
X135280476Y-75033847D01*
X135280476Y-75033847D02*
X135328095Y-74986228D01*
X135328095Y-74986228D02*
X135375714Y-74890990D01*
X117595714Y-94762419D02*
X117024286Y-94762419D01*
X117310000Y-94762419D02*
X117310000Y-93762419D01*
X117310000Y-93762419D02*
X117214762Y-93905276D01*
X117214762Y-93905276D02*
X117119524Y-94000514D01*
X117119524Y-94000514D02*
X117024286Y-94048133D01*
X134994762Y-94190990D02*
X134899524Y-94143371D01*
X134899524Y-94143371D02*
X134851905Y-94095752D01*
X134851905Y-94095752D02*
X134804286Y-94000514D01*
X134804286Y-94000514D02*
X134804286Y-93952895D01*
X134804286Y-93952895D02*
X134851905Y-93857657D01*
X134851905Y-93857657D02*
X134899524Y-93810038D01*
X134899524Y-93810038D02*
X134994762Y-93762419D01*
X134994762Y-93762419D02*
X135185238Y-93762419D01*
X135185238Y-93762419D02*
X135280476Y-93810038D01*
X135280476Y-93810038D02*
X135328095Y-93857657D01*
X135328095Y-93857657D02*
X135375714Y-93952895D01*
X135375714Y-93952895D02*
X135375714Y-94000514D01*
X135375714Y-94000514D02*
X135328095Y-94095752D01*
X135328095Y-94095752D02*
X135280476Y-94143371D01*
X135280476Y-94143371D02*
X135185238Y-94190990D01*
X135185238Y-94190990D02*
X134994762Y-94190990D01*
X134994762Y-94190990D02*
X134899524Y-94238609D01*
X134899524Y-94238609D02*
X134851905Y-94286228D01*
X134851905Y-94286228D02*
X134804286Y-94381466D01*
X134804286Y-94381466D02*
X134804286Y-94571942D01*
X134804286Y-94571942D02*
X134851905Y-94667180D01*
X134851905Y-94667180D02*
X134899524Y-94714800D01*
X134899524Y-94714800D02*
X134994762Y-94762419D01*
X134994762Y-94762419D02*
X135185238Y-94762419D01*
X135185238Y-94762419D02*
X135280476Y-94714800D01*
X135280476Y-94714800D02*
X135328095Y-94667180D01*
X135328095Y-94667180D02*
X135375714Y-94571942D01*
X135375714Y-94571942D02*
X135375714Y-94381466D01*
X135375714Y-94381466D02*
X135328095Y-94286228D01*
X135328095Y-94286228D02*
X135280476Y-94238609D01*
X135280476Y-94238609D02*
X135185238Y-94190990D01*
D10*
X60511905Y-133494819D02*
X60511905Y-132494819D01*
X60511905Y-132494819D02*
X60750000Y-132494819D01*
X60750000Y-132494819D02*
X60892857Y-132542438D01*
X60892857Y-132542438D02*
X60988095Y-132637676D01*
X60988095Y-132637676D02*
X61035714Y-132732914D01*
X61035714Y-132732914D02*
X61083333Y-132923390D01*
X61083333Y-132923390D02*
X61083333Y-133066247D01*
X61083333Y-133066247D02*
X61035714Y-133256723D01*
X61035714Y-133256723D02*
X60988095Y-133351961D01*
X60988095Y-133351961D02*
X60892857Y-133447200D01*
X60892857Y-133447200D02*
X60750000Y-133494819D01*
X60750000Y-133494819D02*
X60511905Y-133494819D01*
X61559524Y-133494819D02*
X61750000Y-133494819D01*
X61750000Y-133494819D02*
X61845238Y-133447200D01*
X61845238Y-133447200D02*
X61892857Y-133399580D01*
X61892857Y-133399580D02*
X61988095Y-133256723D01*
X61988095Y-133256723D02*
X62035714Y-133066247D01*
X62035714Y-133066247D02*
X62035714Y-132685295D01*
X62035714Y-132685295D02*
X61988095Y-132590057D01*
X61988095Y-132590057D02*
X61940476Y-132542438D01*
X61940476Y-132542438D02*
X61845238Y-132494819D01*
X61845238Y-132494819D02*
X61654762Y-132494819D01*
X61654762Y-132494819D02*
X61559524Y-132542438D01*
X61559524Y-132542438D02*
X61511905Y-132590057D01*
X61511905Y-132590057D02*
X61464286Y-132685295D01*
X61464286Y-132685295D02*
X61464286Y-132923390D01*
X61464286Y-132923390D02*
X61511905Y-133018628D01*
X61511905Y-133018628D02*
X61559524Y-133066247D01*
X61559524Y-133066247D02*
X61654762Y-133113866D01*
X61654762Y-133113866D02*
X61845238Y-133113866D01*
X61845238Y-133113866D02*
X61940476Y-133066247D01*
X61940476Y-133066247D02*
X61988095Y-133018628D01*
X61988095Y-133018628D02*
X62035714Y-132923390D01*
X176857200Y-80589523D02*
X176904819Y-80446666D01*
X176904819Y-80446666D02*
X176904819Y-80208571D01*
X176904819Y-80208571D02*
X176857200Y-80113333D01*
X176857200Y-80113333D02*
X176809580Y-80065714D01*
X176809580Y-80065714D02*
X176714342Y-80018095D01*
X176714342Y-80018095D02*
X176619104Y-80018095D01*
X176619104Y-80018095D02*
X176523866Y-80065714D01*
X176523866Y-80065714D02*
X176476247Y-80113333D01*
X176476247Y-80113333D02*
X176428628Y-80208571D01*
X176428628Y-80208571D02*
X176381009Y-80399047D01*
X176381009Y-80399047D02*
X176333390Y-80494285D01*
X176333390Y-80494285D02*
X176285771Y-80541904D01*
X176285771Y-80541904D02*
X176190533Y-80589523D01*
X176190533Y-80589523D02*
X176095295Y-80589523D01*
X176095295Y-80589523D02*
X176000057Y-80541904D01*
X176000057Y-80541904D02*
X175952438Y-80494285D01*
X175952438Y-80494285D02*
X175904819Y-80399047D01*
X175904819Y-80399047D02*
X175904819Y-80160952D01*
X175904819Y-80160952D02*
X175952438Y-80018095D01*
X175904819Y-79684761D02*
X176904819Y-79446666D01*
X176904819Y-79446666D02*
X176190533Y-79256190D01*
X176190533Y-79256190D02*
X176904819Y-79065714D01*
X176904819Y-79065714D02*
X175904819Y-78827619D01*
X176904819Y-77922857D02*
X176904819Y-78494285D01*
X176904819Y-78208571D02*
X175904819Y-78208571D01*
X175904819Y-78208571D02*
X176047676Y-78303809D01*
X176047676Y-78303809D02*
X176142914Y-78399047D01*
X176142914Y-78399047D02*
X176190533Y-78494285D01*
X176333390Y-77351428D02*
X176285771Y-77446666D01*
X176285771Y-77446666D02*
X176238152Y-77494285D01*
X176238152Y-77494285D02*
X176142914Y-77541904D01*
X176142914Y-77541904D02*
X176095295Y-77541904D01*
X176095295Y-77541904D02*
X176000057Y-77494285D01*
X176000057Y-77494285D02*
X175952438Y-77446666D01*
X175952438Y-77446666D02*
X175904819Y-77351428D01*
X175904819Y-77351428D02*
X175904819Y-77160952D01*
X175904819Y-77160952D02*
X175952438Y-77065714D01*
X175952438Y-77065714D02*
X176000057Y-77018095D01*
X176000057Y-77018095D02*
X176095295Y-76970476D01*
X176095295Y-76970476D02*
X176142914Y-76970476D01*
X176142914Y-76970476D02*
X176238152Y-77018095D01*
X176238152Y-77018095D02*
X176285771Y-77065714D01*
X176285771Y-77065714D02*
X176333390Y-77160952D01*
X176333390Y-77160952D02*
X176333390Y-77351428D01*
X176333390Y-77351428D02*
X176381009Y-77446666D01*
X176381009Y-77446666D02*
X176428628Y-77494285D01*
X176428628Y-77494285D02*
X176523866Y-77541904D01*
X176523866Y-77541904D02*
X176714342Y-77541904D01*
X176714342Y-77541904D02*
X176809580Y-77494285D01*
X176809580Y-77494285D02*
X176857200Y-77446666D01*
X176857200Y-77446666D02*
X176904819Y-77351428D01*
X176904819Y-77351428D02*
X176904819Y-77160952D01*
X176904819Y-77160952D02*
X176857200Y-77065714D01*
X176857200Y-77065714D02*
X176809580Y-77018095D01*
X176809580Y-77018095D02*
X176714342Y-76970476D01*
X176714342Y-76970476D02*
X176523866Y-76970476D01*
X176523866Y-76970476D02*
X176428628Y-77018095D01*
X176428628Y-77018095D02*
X176381009Y-77065714D01*
X176381009Y-77065714D02*
X176333390Y-77160952D01*
X89357200Y-120083332D02*
X89404819Y-119940475D01*
X89404819Y-119940475D02*
X89404819Y-119702380D01*
X89404819Y-119702380D02*
X89357200Y-119607142D01*
X89357200Y-119607142D02*
X89309580Y-119559523D01*
X89309580Y-119559523D02*
X89214342Y-119511904D01*
X89214342Y-119511904D02*
X89119104Y-119511904D01*
X89119104Y-119511904D02*
X89023866Y-119559523D01*
X89023866Y-119559523D02*
X88976247Y-119607142D01*
X88976247Y-119607142D02*
X88928628Y-119702380D01*
X88928628Y-119702380D02*
X88881009Y-119892856D01*
X88881009Y-119892856D02*
X88833390Y-119988094D01*
X88833390Y-119988094D02*
X88785771Y-120035713D01*
X88785771Y-120035713D02*
X88690533Y-120083332D01*
X88690533Y-120083332D02*
X88595295Y-120083332D01*
X88595295Y-120083332D02*
X88500057Y-120035713D01*
X88500057Y-120035713D02*
X88452438Y-119988094D01*
X88452438Y-119988094D02*
X88404819Y-119892856D01*
X88404819Y-119892856D02*
X88404819Y-119654761D01*
X88404819Y-119654761D02*
X88452438Y-119511904D01*
X88404819Y-119178570D02*
X89404819Y-118940475D01*
X89404819Y-118940475D02*
X88690533Y-118749999D01*
X88690533Y-118749999D02*
X89404819Y-118559523D01*
X89404819Y-118559523D02*
X88404819Y-118321428D01*
X88738152Y-117511904D02*
X89404819Y-117511904D01*
X88357200Y-117749999D02*
X89071485Y-117988094D01*
X89071485Y-117988094D02*
X89071485Y-117369047D01*
X54357200Y-150559523D02*
X54404819Y-150416666D01*
X54404819Y-150416666D02*
X54404819Y-150178571D01*
X54404819Y-150178571D02*
X54357200Y-150083333D01*
X54357200Y-150083333D02*
X54309580Y-150035714D01*
X54309580Y-150035714D02*
X54214342Y-149988095D01*
X54214342Y-149988095D02*
X54119104Y-149988095D01*
X54119104Y-149988095D02*
X54023866Y-150035714D01*
X54023866Y-150035714D02*
X53976247Y-150083333D01*
X53976247Y-150083333D02*
X53928628Y-150178571D01*
X53928628Y-150178571D02*
X53881009Y-150369047D01*
X53881009Y-150369047D02*
X53833390Y-150464285D01*
X53833390Y-150464285D02*
X53785771Y-150511904D01*
X53785771Y-150511904D02*
X53690533Y-150559523D01*
X53690533Y-150559523D02*
X53595295Y-150559523D01*
X53595295Y-150559523D02*
X53500057Y-150511904D01*
X53500057Y-150511904D02*
X53452438Y-150464285D01*
X53452438Y-150464285D02*
X53404819Y-150369047D01*
X53404819Y-150369047D02*
X53404819Y-150130952D01*
X53404819Y-150130952D02*
X53452438Y-149988095D01*
X53404819Y-149654761D02*
X54404819Y-149416666D01*
X54404819Y-149416666D02*
X53690533Y-149226190D01*
X53690533Y-149226190D02*
X54404819Y-149035714D01*
X54404819Y-149035714D02*
X53404819Y-148797619D01*
X54404819Y-147892857D02*
X54404819Y-148464285D01*
X54404819Y-148178571D02*
X53404819Y-148178571D01*
X53404819Y-148178571D02*
X53547676Y-148273809D01*
X53547676Y-148273809D02*
X53642914Y-148369047D01*
X53642914Y-148369047D02*
X53690533Y-148464285D01*
X53404819Y-147273809D02*
X53404819Y-147178571D01*
X53404819Y-147178571D02*
X53452438Y-147083333D01*
X53452438Y-147083333D02*
X53500057Y-147035714D01*
X53500057Y-147035714D02*
X53595295Y-146988095D01*
X53595295Y-146988095D02*
X53785771Y-146940476D01*
X53785771Y-146940476D02*
X54023866Y-146940476D01*
X54023866Y-146940476D02*
X54214342Y-146988095D01*
X54214342Y-146988095D02*
X54309580Y-147035714D01*
X54309580Y-147035714D02*
X54357200Y-147083333D01*
X54357200Y-147083333D02*
X54404819Y-147178571D01*
X54404819Y-147178571D02*
X54404819Y-147273809D01*
X54404819Y-147273809D02*
X54357200Y-147369047D01*
X54357200Y-147369047D02*
X54309580Y-147416666D01*
X54309580Y-147416666D02*
X54214342Y-147464285D01*
X54214342Y-147464285D02*
X54023866Y-147511904D01*
X54023866Y-147511904D02*
X53785771Y-147511904D01*
X53785771Y-147511904D02*
X53595295Y-147464285D01*
X53595295Y-147464285D02*
X53500057Y-147416666D01*
X53500057Y-147416666D02*
X53452438Y-147369047D01*
X53452438Y-147369047D02*
X53404819Y-147273809D01*
X165035714Y-133494819D02*
X165035714Y-132494819D01*
X165035714Y-132494819D02*
X165273809Y-132494819D01*
X165273809Y-132494819D02*
X165416666Y-132542438D01*
X165416666Y-132542438D02*
X165511904Y-132637676D01*
X165511904Y-132637676D02*
X165559523Y-132732914D01*
X165559523Y-132732914D02*
X165607142Y-132923390D01*
X165607142Y-132923390D02*
X165607142Y-133066247D01*
X165607142Y-133066247D02*
X165559523Y-133256723D01*
X165559523Y-133256723D02*
X165511904Y-133351961D01*
X165511904Y-133351961D02*
X165416666Y-133447200D01*
X165416666Y-133447200D02*
X165273809Y-133494819D01*
X165273809Y-133494819D02*
X165035714Y-133494819D01*
X166559523Y-133494819D02*
X165988095Y-133494819D01*
X166273809Y-133494819D02*
X166273809Y-132494819D01*
X166273809Y-132494819D02*
X166178571Y-132637676D01*
X166178571Y-132637676D02*
X166083333Y-132732914D01*
X166083333Y-132732914D02*
X165988095Y-132780533D01*
X167464285Y-132494819D02*
X166988095Y-132494819D01*
X166988095Y-132494819D02*
X166940476Y-132971009D01*
X166940476Y-132971009D02*
X166988095Y-132923390D01*
X166988095Y-132923390D02*
X167083333Y-132875771D01*
X167083333Y-132875771D02*
X167321428Y-132875771D01*
X167321428Y-132875771D02*
X167416666Y-132923390D01*
X167416666Y-132923390D02*
X167464285Y-132971009D01*
X167464285Y-132971009D02*
X167511904Y-133066247D01*
X167511904Y-133066247D02*
X167511904Y-133304342D01*
X167511904Y-133304342D02*
X167464285Y-133399580D01*
X167464285Y-133399580D02*
X167416666Y-133447200D01*
X167416666Y-133447200D02*
X167321428Y-133494819D01*
X167321428Y-133494819D02*
X167083333Y-133494819D01*
X167083333Y-133494819D02*
X166988095Y-133447200D01*
X166988095Y-133447200D02*
X166940476Y-133399580D01*
X95035714Y-133494819D02*
X95035714Y-132494819D01*
X95035714Y-132494819D02*
X95273809Y-132494819D01*
X95273809Y-132494819D02*
X95416666Y-132542438D01*
X95416666Y-132542438D02*
X95511904Y-132637676D01*
X95511904Y-132637676D02*
X95559523Y-132732914D01*
X95559523Y-132732914D02*
X95607142Y-132923390D01*
X95607142Y-132923390D02*
X95607142Y-133066247D01*
X95607142Y-133066247D02*
X95559523Y-133256723D01*
X95559523Y-133256723D02*
X95511904Y-133351961D01*
X95511904Y-133351961D02*
X95416666Y-133447200D01*
X95416666Y-133447200D02*
X95273809Y-133494819D01*
X95273809Y-133494819D02*
X95035714Y-133494819D01*
X96559523Y-133494819D02*
X95988095Y-133494819D01*
X96273809Y-133494819D02*
X96273809Y-132494819D01*
X96273809Y-132494819D02*
X96178571Y-132637676D01*
X96178571Y-132637676D02*
X96083333Y-132732914D01*
X96083333Y-132732914D02*
X95988095Y-132780533D01*
X97511904Y-133494819D02*
X96940476Y-133494819D01*
X97226190Y-133494819D02*
X97226190Y-132494819D01*
X97226190Y-132494819D02*
X97130952Y-132637676D01*
X97130952Y-132637676D02*
X97035714Y-132732914D01*
X97035714Y-132732914D02*
X96940476Y-132780533D01*
X176857200Y-150559523D02*
X176904819Y-150416666D01*
X176904819Y-150416666D02*
X176904819Y-150178571D01*
X176904819Y-150178571D02*
X176857200Y-150083333D01*
X176857200Y-150083333D02*
X176809580Y-150035714D01*
X176809580Y-150035714D02*
X176714342Y-149988095D01*
X176714342Y-149988095D02*
X176619104Y-149988095D01*
X176619104Y-149988095D02*
X176523866Y-150035714D01*
X176523866Y-150035714D02*
X176476247Y-150083333D01*
X176476247Y-150083333D02*
X176428628Y-150178571D01*
X176428628Y-150178571D02*
X176381009Y-150369047D01*
X176381009Y-150369047D02*
X176333390Y-150464285D01*
X176333390Y-150464285D02*
X176285771Y-150511904D01*
X176285771Y-150511904D02*
X176190533Y-150559523D01*
X176190533Y-150559523D02*
X176095295Y-150559523D01*
X176095295Y-150559523D02*
X176000057Y-150511904D01*
X176000057Y-150511904D02*
X175952438Y-150464285D01*
X175952438Y-150464285D02*
X175904819Y-150369047D01*
X175904819Y-150369047D02*
X175904819Y-150130952D01*
X175904819Y-150130952D02*
X175952438Y-149988095D01*
X175904819Y-149654761D02*
X176904819Y-149416666D01*
X176904819Y-149416666D02*
X176190533Y-149226190D01*
X176190533Y-149226190D02*
X176904819Y-149035714D01*
X176904819Y-149035714D02*
X175904819Y-148797619D01*
X176904819Y-147892857D02*
X176904819Y-148464285D01*
X176904819Y-148178571D02*
X175904819Y-148178571D01*
X175904819Y-148178571D02*
X176047676Y-148273809D01*
X176047676Y-148273809D02*
X176142914Y-148369047D01*
X176142914Y-148369047D02*
X176190533Y-148464285D01*
X175904819Y-147559523D02*
X175904819Y-146892857D01*
X175904819Y-146892857D02*
X176904819Y-147321428D01*
X147535714Y-133494819D02*
X147535714Y-132494819D01*
X147535714Y-132494819D02*
X147773809Y-132494819D01*
X147773809Y-132494819D02*
X147916666Y-132542438D01*
X147916666Y-132542438D02*
X148011904Y-132637676D01*
X148011904Y-132637676D02*
X148059523Y-132732914D01*
X148059523Y-132732914D02*
X148107142Y-132923390D01*
X148107142Y-132923390D02*
X148107142Y-133066247D01*
X148107142Y-133066247D02*
X148059523Y-133256723D01*
X148059523Y-133256723D02*
X148011904Y-133351961D01*
X148011904Y-133351961D02*
X147916666Y-133447200D01*
X147916666Y-133447200D02*
X147773809Y-133494819D01*
X147773809Y-133494819D02*
X147535714Y-133494819D01*
X149059523Y-133494819D02*
X148488095Y-133494819D01*
X148773809Y-133494819D02*
X148773809Y-132494819D01*
X148773809Y-132494819D02*
X148678571Y-132637676D01*
X148678571Y-132637676D02*
X148583333Y-132732914D01*
X148583333Y-132732914D02*
X148488095Y-132780533D01*
X149916666Y-132828152D02*
X149916666Y-133494819D01*
X149678571Y-132447200D02*
X149440476Y-133161485D01*
X149440476Y-133161485D02*
X150059523Y-133161485D01*
X174238095Y-126304819D02*
X174238095Y-125304819D01*
X174238095Y-125781009D02*
X174809523Y-125781009D01*
X174809523Y-126304819D02*
X174809523Y-125304819D01*
X175714285Y-125638152D02*
X175714285Y-126304819D01*
X175476190Y-125257200D02*
X175238095Y-125971485D01*
X175238095Y-125971485D02*
X175857142Y-125971485D01*
X89907142Y-93874819D02*
X89573809Y-93398628D01*
X89335714Y-93874819D02*
X89335714Y-92874819D01*
X89335714Y-92874819D02*
X89716666Y-92874819D01*
X89716666Y-92874819D02*
X89811904Y-92922438D01*
X89811904Y-92922438D02*
X89859523Y-92970057D01*
X89859523Y-92970057D02*
X89907142Y-93065295D01*
X89907142Y-93065295D02*
X89907142Y-93208152D01*
X89907142Y-93208152D02*
X89859523Y-93303390D01*
X89859523Y-93303390D02*
X89811904Y-93351009D01*
X89811904Y-93351009D02*
X89716666Y-93398628D01*
X89716666Y-93398628D02*
X89335714Y-93398628D01*
X90240476Y-92874819D02*
X90859523Y-92874819D01*
X90859523Y-92874819D02*
X90526190Y-93255771D01*
X90526190Y-93255771D02*
X90669047Y-93255771D01*
X90669047Y-93255771D02*
X90764285Y-93303390D01*
X90764285Y-93303390D02*
X90811904Y-93351009D01*
X90811904Y-93351009D02*
X90859523Y-93446247D01*
X90859523Y-93446247D02*
X90859523Y-93684342D01*
X90859523Y-93684342D02*
X90811904Y-93779580D01*
X90811904Y-93779580D02*
X90764285Y-93827200D01*
X90764285Y-93827200D02*
X90669047Y-93874819D01*
X90669047Y-93874819D02*
X90383333Y-93874819D01*
X90383333Y-93874819D02*
X90288095Y-93827200D01*
X90288095Y-93827200D02*
X90240476Y-93779580D01*
X91192857Y-92874819D02*
X91811904Y-92874819D01*
X91811904Y-92874819D02*
X91478571Y-93255771D01*
X91478571Y-93255771D02*
X91621428Y-93255771D01*
X91621428Y-93255771D02*
X91716666Y-93303390D01*
X91716666Y-93303390D02*
X91764285Y-93351009D01*
X91764285Y-93351009D02*
X91811904Y-93446247D01*
X91811904Y-93446247D02*
X91811904Y-93684342D01*
X91811904Y-93684342D02*
X91764285Y-93779580D01*
X91764285Y-93779580D02*
X91716666Y-93827200D01*
X91716666Y-93827200D02*
X91621428Y-93874819D01*
X91621428Y-93874819D02*
X91335714Y-93874819D01*
X91335714Y-93874819D02*
X91240476Y-93827200D01*
X91240476Y-93827200D02*
X91192857Y-93779580D01*
X90335714Y-97534819D02*
X89764286Y-97534819D01*
X90050000Y-97534819D02*
X90050000Y-96534819D01*
X90050000Y-96534819D02*
X89954762Y-96677676D01*
X89954762Y-96677676D02*
X89859524Y-96772914D01*
X89859524Y-96772914D02*
X89764286Y-96820533D01*
X90764286Y-97534819D02*
X90764286Y-96534819D01*
X91335714Y-97534819D02*
X90907143Y-96963390D01*
X91335714Y-96534819D02*
X90764286Y-97106247D01*
D11*
X166899524Y-75462419D02*
X167090000Y-75462419D01*
X167090000Y-75462419D02*
X167185238Y-75414800D01*
X167185238Y-75414800D02*
X167232857Y-75367180D01*
X167232857Y-75367180D02*
X167328095Y-75224323D01*
X167328095Y-75224323D02*
X167375714Y-75033847D01*
X167375714Y-75033847D02*
X167375714Y-74652895D01*
X167375714Y-74652895D02*
X167328095Y-74557657D01*
X167328095Y-74557657D02*
X167280476Y-74510038D01*
X167280476Y-74510038D02*
X167185238Y-74462419D01*
X167185238Y-74462419D02*
X166994762Y-74462419D01*
X166994762Y-74462419D02*
X166899524Y-74510038D01*
X166899524Y-74510038D02*
X166851905Y-74557657D01*
X166851905Y-74557657D02*
X166804286Y-74652895D01*
X166804286Y-74652895D02*
X166804286Y-74890990D01*
X166804286Y-74890990D02*
X166851905Y-74986228D01*
X166851905Y-74986228D02*
X166899524Y-75033847D01*
X166899524Y-75033847D02*
X166994762Y-75081466D01*
X166994762Y-75081466D02*
X167185238Y-75081466D01*
X167185238Y-75081466D02*
X167280476Y-75033847D01*
X167280476Y-75033847D02*
X167328095Y-74986228D01*
X167328095Y-74986228D02*
X167375714Y-74890990D01*
X166994762Y-94190990D02*
X166899524Y-94143371D01*
X166899524Y-94143371D02*
X166851905Y-94095752D01*
X166851905Y-94095752D02*
X166804286Y-94000514D01*
X166804286Y-94000514D02*
X166804286Y-93952895D01*
X166804286Y-93952895D02*
X166851905Y-93857657D01*
X166851905Y-93857657D02*
X166899524Y-93810038D01*
X166899524Y-93810038D02*
X166994762Y-93762419D01*
X166994762Y-93762419D02*
X167185238Y-93762419D01*
X167185238Y-93762419D02*
X167280476Y-93810038D01*
X167280476Y-93810038D02*
X167328095Y-93857657D01*
X167328095Y-93857657D02*
X167375714Y-93952895D01*
X167375714Y-93952895D02*
X167375714Y-94000514D01*
X167375714Y-94000514D02*
X167328095Y-94095752D01*
X167328095Y-94095752D02*
X167280476Y-94143371D01*
X167280476Y-94143371D02*
X167185238Y-94190990D01*
X167185238Y-94190990D02*
X166994762Y-94190990D01*
X166994762Y-94190990D02*
X166899524Y-94238609D01*
X166899524Y-94238609D02*
X166851905Y-94286228D01*
X166851905Y-94286228D02*
X166804286Y-94381466D01*
X166804286Y-94381466D02*
X166804286Y-94571942D01*
X166804286Y-94571942D02*
X166851905Y-94667180D01*
X166851905Y-94667180D02*
X166899524Y-94714800D01*
X166899524Y-94714800D02*
X166994762Y-94762419D01*
X166994762Y-94762419D02*
X167185238Y-94762419D01*
X167185238Y-94762419D02*
X167280476Y-94714800D01*
X167280476Y-94714800D02*
X167328095Y-94667180D01*
X167328095Y-94667180D02*
X167375714Y-94571942D01*
X167375714Y-94571942D02*
X167375714Y-94381466D01*
X167375714Y-94381466D02*
X167328095Y-94286228D01*
X167328095Y-94286228D02*
X167280476Y-94238609D01*
X167280476Y-94238609D02*
X167185238Y-94190990D01*
X149595714Y-94762419D02*
X149024286Y-94762419D01*
X149310000Y-94762419D02*
X149310000Y-93762419D01*
X149310000Y-93762419D02*
X149214762Y-93905276D01*
X149214762Y-93905276D02*
X149119524Y-94000514D01*
X149119524Y-94000514D02*
X149024286Y-94048133D01*
D12*
X147592858Y-66696678D02*
X146878572Y-66696678D01*
X146878572Y-66696678D02*
X146878572Y-65196678D01*
X148664287Y-66625250D02*
X148521430Y-66696678D01*
X148521430Y-66696678D02*
X148235716Y-66696678D01*
X148235716Y-66696678D02*
X148092858Y-66625250D01*
X148092858Y-66625250D02*
X148021430Y-66482392D01*
X148021430Y-66482392D02*
X148021430Y-65910964D01*
X148021430Y-65910964D02*
X148092858Y-65768107D01*
X148092858Y-65768107D02*
X148235716Y-65696678D01*
X148235716Y-65696678D02*
X148521430Y-65696678D01*
X148521430Y-65696678D02*
X148664287Y-65768107D01*
X148664287Y-65768107D02*
X148735716Y-65910964D01*
X148735716Y-65910964D02*
X148735716Y-66053821D01*
X148735716Y-66053821D02*
X148021430Y-66196678D01*
X150021430Y-66696678D02*
X150021430Y-65196678D01*
X150021430Y-66625250D02*
X149878572Y-66696678D01*
X149878572Y-66696678D02*
X149592858Y-66696678D01*
X149592858Y-66696678D02*
X149450001Y-66625250D01*
X149450001Y-66625250D02*
X149378572Y-66553821D01*
X149378572Y-66553821D02*
X149307144Y-66410964D01*
X149307144Y-66410964D02*
X149307144Y-65982392D01*
X149307144Y-65982392D02*
X149378572Y-65839535D01*
X149378572Y-65839535D02*
X149450001Y-65768107D01*
X149450001Y-65768107D02*
X149592858Y-65696678D01*
X149592858Y-65696678D02*
X149878572Y-65696678D01*
X149878572Y-65696678D02*
X150021430Y-65768107D01*
X151878572Y-66696678D02*
X151878572Y-65196678D01*
X151878572Y-65196678D02*
X152378572Y-66268107D01*
X152378572Y-66268107D02*
X152878572Y-65196678D01*
X152878572Y-65196678D02*
X152878572Y-66696678D01*
X154235716Y-66696678D02*
X154235716Y-65910964D01*
X154235716Y-65910964D02*
X154164287Y-65768107D01*
X154164287Y-65768107D02*
X154021430Y-65696678D01*
X154021430Y-65696678D02*
X153735716Y-65696678D01*
X153735716Y-65696678D02*
X153592858Y-65768107D01*
X154235716Y-66625250D02*
X154092858Y-66696678D01*
X154092858Y-66696678D02*
X153735716Y-66696678D01*
X153735716Y-66696678D02*
X153592858Y-66625250D01*
X153592858Y-66625250D02*
X153521430Y-66482392D01*
X153521430Y-66482392D02*
X153521430Y-66339535D01*
X153521430Y-66339535D02*
X153592858Y-66196678D01*
X153592858Y-66196678D02*
X153735716Y-66125250D01*
X153735716Y-66125250D02*
X154092858Y-66125250D01*
X154092858Y-66125250D02*
X154235716Y-66053821D01*
X154735716Y-65696678D02*
X155307144Y-65696678D01*
X154950001Y-65196678D02*
X154950001Y-66482392D01*
X154950001Y-66482392D02*
X155021430Y-66625250D01*
X155021430Y-66625250D02*
X155164287Y-66696678D01*
X155164287Y-66696678D02*
X155307144Y-66696678D01*
X155807144Y-66696678D02*
X155807144Y-65696678D01*
X155807144Y-65982392D02*
X155878573Y-65839535D01*
X155878573Y-65839535D02*
X155950002Y-65768107D01*
X155950002Y-65768107D02*
X156092859Y-65696678D01*
X156092859Y-65696678D02*
X156235716Y-65696678D01*
X156735715Y-66696678D02*
X156735715Y-65696678D01*
X156735715Y-65196678D02*
X156664287Y-65268107D01*
X156664287Y-65268107D02*
X156735715Y-65339535D01*
X156735715Y-65339535D02*
X156807144Y-65268107D01*
X156807144Y-65268107D02*
X156735715Y-65196678D01*
X156735715Y-65196678D02*
X156735715Y-65339535D01*
X157307144Y-66696678D02*
X158092859Y-65696678D01*
X157307144Y-65696678D02*
X158092859Y-66696678D01*
X160235716Y-67268107D02*
X160164287Y-67196678D01*
X160164287Y-67196678D02*
X160021430Y-66982392D01*
X160021430Y-66982392D02*
X159950002Y-66839535D01*
X159950002Y-66839535D02*
X159878573Y-66625250D01*
X159878573Y-66625250D02*
X159807144Y-66268107D01*
X159807144Y-66268107D02*
X159807144Y-65982392D01*
X159807144Y-65982392D02*
X159878573Y-65625250D01*
X159878573Y-65625250D02*
X159950002Y-65410964D01*
X159950002Y-65410964D02*
X160021430Y-65268107D01*
X160021430Y-65268107D02*
X160164287Y-65053821D01*
X160164287Y-65053821D02*
X160235716Y-64982392D01*
X161592859Y-66696678D02*
X160735716Y-66696678D01*
X161164287Y-66696678D02*
X161164287Y-65196678D01*
X161164287Y-65196678D02*
X161021430Y-65410964D01*
X161021430Y-65410964D02*
X160878573Y-65553821D01*
X160878573Y-65553821D02*
X160735716Y-65625250D01*
X162521430Y-65196678D02*
X162664287Y-65196678D01*
X162664287Y-65196678D02*
X162807144Y-65268107D01*
X162807144Y-65268107D02*
X162878573Y-65339535D01*
X162878573Y-65339535D02*
X162950001Y-65482392D01*
X162950001Y-65482392D02*
X163021430Y-65768107D01*
X163021430Y-65768107D02*
X163021430Y-66125250D01*
X163021430Y-66125250D02*
X162950001Y-66410964D01*
X162950001Y-66410964D02*
X162878573Y-66553821D01*
X162878573Y-66553821D02*
X162807144Y-66625250D01*
X162807144Y-66625250D02*
X162664287Y-66696678D01*
X162664287Y-66696678D02*
X162521430Y-66696678D01*
X162521430Y-66696678D02*
X162378573Y-66625250D01*
X162378573Y-66625250D02*
X162307144Y-66553821D01*
X162307144Y-66553821D02*
X162235715Y-66410964D01*
X162235715Y-66410964D02*
X162164287Y-66125250D01*
X162164287Y-66125250D02*
X162164287Y-65768107D01*
X162164287Y-65768107D02*
X162235715Y-65482392D01*
X162235715Y-65482392D02*
X162307144Y-65339535D01*
X162307144Y-65339535D02*
X162378573Y-65268107D01*
X162378573Y-65268107D02*
X162521430Y-65196678D01*
X163878572Y-65839535D02*
X163735715Y-65768107D01*
X163735715Y-65768107D02*
X163664286Y-65696678D01*
X163664286Y-65696678D02*
X163592858Y-65553821D01*
X163592858Y-65553821D02*
X163592858Y-65482392D01*
X163592858Y-65482392D02*
X163664286Y-65339535D01*
X163664286Y-65339535D02*
X163735715Y-65268107D01*
X163735715Y-65268107D02*
X163878572Y-65196678D01*
X163878572Y-65196678D02*
X164164286Y-65196678D01*
X164164286Y-65196678D02*
X164307144Y-65268107D01*
X164307144Y-65268107D02*
X164378572Y-65339535D01*
X164378572Y-65339535D02*
X164450001Y-65482392D01*
X164450001Y-65482392D02*
X164450001Y-65553821D01*
X164450001Y-65553821D02*
X164378572Y-65696678D01*
X164378572Y-65696678D02*
X164307144Y-65768107D01*
X164307144Y-65768107D02*
X164164286Y-65839535D01*
X164164286Y-65839535D02*
X163878572Y-65839535D01*
X163878572Y-65839535D02*
X163735715Y-65910964D01*
X163735715Y-65910964D02*
X163664286Y-65982392D01*
X163664286Y-65982392D02*
X163592858Y-66125250D01*
X163592858Y-66125250D02*
X163592858Y-66410964D01*
X163592858Y-66410964D02*
X163664286Y-66553821D01*
X163664286Y-66553821D02*
X163735715Y-66625250D01*
X163735715Y-66625250D02*
X163878572Y-66696678D01*
X163878572Y-66696678D02*
X164164286Y-66696678D01*
X164164286Y-66696678D02*
X164307144Y-66625250D01*
X164307144Y-66625250D02*
X164378572Y-66553821D01*
X164378572Y-66553821D02*
X164450001Y-66410964D01*
X164450001Y-66410964D02*
X164450001Y-66125250D01*
X164450001Y-66125250D02*
X164378572Y-65982392D01*
X164378572Y-65982392D02*
X164307144Y-65910964D01*
X164307144Y-65910964D02*
X164164286Y-65839535D01*
X165307143Y-65839535D02*
X165164286Y-65768107D01*
X165164286Y-65768107D02*
X165092857Y-65696678D01*
X165092857Y-65696678D02*
X165021429Y-65553821D01*
X165021429Y-65553821D02*
X165021429Y-65482392D01*
X165021429Y-65482392D02*
X165092857Y-65339535D01*
X165092857Y-65339535D02*
X165164286Y-65268107D01*
X165164286Y-65268107D02*
X165307143Y-65196678D01*
X165307143Y-65196678D02*
X165592857Y-65196678D01*
X165592857Y-65196678D02*
X165735715Y-65268107D01*
X165735715Y-65268107D02*
X165807143Y-65339535D01*
X165807143Y-65339535D02*
X165878572Y-65482392D01*
X165878572Y-65482392D02*
X165878572Y-65553821D01*
X165878572Y-65553821D02*
X165807143Y-65696678D01*
X165807143Y-65696678D02*
X165735715Y-65768107D01*
X165735715Y-65768107D02*
X165592857Y-65839535D01*
X165592857Y-65839535D02*
X165307143Y-65839535D01*
X165307143Y-65839535D02*
X165164286Y-65910964D01*
X165164286Y-65910964D02*
X165092857Y-65982392D01*
X165092857Y-65982392D02*
X165021429Y-66125250D01*
X165021429Y-66125250D02*
X165021429Y-66410964D01*
X165021429Y-66410964D02*
X165092857Y-66553821D01*
X165092857Y-66553821D02*
X165164286Y-66625250D01*
X165164286Y-66625250D02*
X165307143Y-66696678D01*
X165307143Y-66696678D02*
X165592857Y-66696678D01*
X165592857Y-66696678D02*
X165735715Y-66625250D01*
X165735715Y-66625250D02*
X165807143Y-66553821D01*
X165807143Y-66553821D02*
X165878572Y-66410964D01*
X165878572Y-66410964D02*
X165878572Y-66125250D01*
X165878572Y-66125250D02*
X165807143Y-65982392D01*
X165807143Y-65982392D02*
X165735715Y-65910964D01*
X165735715Y-65910964D02*
X165592857Y-65839535D01*
X166450000Y-66268107D02*
X167164286Y-66268107D01*
X166307143Y-66696678D02*
X166807143Y-65196678D01*
X166807143Y-65196678D02*
X167307143Y-66696678D01*
X167735714Y-66625250D02*
X167950000Y-66696678D01*
X167950000Y-66696678D02*
X168307142Y-66696678D01*
X168307142Y-66696678D02*
X168450000Y-66625250D01*
X168450000Y-66625250D02*
X168521428Y-66553821D01*
X168521428Y-66553821D02*
X168592857Y-66410964D01*
X168592857Y-66410964D02*
X168592857Y-66268107D01*
X168592857Y-66268107D02*
X168521428Y-66125250D01*
X168521428Y-66125250D02*
X168450000Y-66053821D01*
X168450000Y-66053821D02*
X168307142Y-65982392D01*
X168307142Y-65982392D02*
X168021428Y-65910964D01*
X168021428Y-65910964D02*
X167878571Y-65839535D01*
X167878571Y-65839535D02*
X167807142Y-65768107D01*
X167807142Y-65768107D02*
X167735714Y-65625250D01*
X167735714Y-65625250D02*
X167735714Y-65482392D01*
X167735714Y-65482392D02*
X167807142Y-65339535D01*
X167807142Y-65339535D02*
X167878571Y-65268107D01*
X167878571Y-65268107D02*
X168021428Y-65196678D01*
X168021428Y-65196678D02*
X168378571Y-65196678D01*
X168378571Y-65196678D02*
X168592857Y-65268107D01*
X169092856Y-67268107D02*
X169164285Y-67196678D01*
X169164285Y-67196678D02*
X169307142Y-66982392D01*
X169307142Y-66982392D02*
X169378571Y-66839535D01*
X169378571Y-66839535D02*
X169449999Y-66625250D01*
X169449999Y-66625250D02*
X169521428Y-66268107D01*
X169521428Y-66268107D02*
X169521428Y-65982392D01*
X169521428Y-65982392D02*
X169449999Y-65625250D01*
X169449999Y-65625250D02*
X169378571Y-65410964D01*
X169378571Y-65410964D02*
X169307142Y-65268107D01*
X169307142Y-65268107D02*
X169164285Y-65053821D01*
X169164285Y-65053821D02*
X169092856Y-64982392D01*
D11*
X148899523Y-75462419D02*
X148328095Y-75462419D01*
X148613809Y-75462419D02*
X148613809Y-74462419D01*
X148613809Y-74462419D02*
X148518571Y-74605276D01*
X148518571Y-74605276D02*
X148423333Y-74700514D01*
X148423333Y-74700514D02*
X148328095Y-74748133D01*
X149756666Y-74462419D02*
X149566190Y-74462419D01*
X149566190Y-74462419D02*
X149470952Y-74510038D01*
X149470952Y-74510038D02*
X149423333Y-74557657D01*
X149423333Y-74557657D02*
X149328095Y-74700514D01*
X149328095Y-74700514D02*
X149280476Y-74890990D01*
X149280476Y-74890990D02*
X149280476Y-75271942D01*
X149280476Y-75271942D02*
X149328095Y-75367180D01*
X149328095Y-75367180D02*
X149375714Y-75414800D01*
X149375714Y-75414800D02*
X149470952Y-75462419D01*
X149470952Y-75462419D02*
X149661428Y-75462419D01*
X149661428Y-75462419D02*
X149756666Y-75414800D01*
X149756666Y-75414800D02*
X149804285Y-75367180D01*
X149804285Y-75367180D02*
X149851904Y-75271942D01*
X149851904Y-75271942D02*
X149851904Y-75033847D01*
X149851904Y-75033847D02*
X149804285Y-74938609D01*
X149804285Y-74938609D02*
X149756666Y-74890990D01*
X149756666Y-74890990D02*
X149661428Y-74843371D01*
X149661428Y-74843371D02*
X149470952Y-74843371D01*
X149470952Y-74843371D02*
X149375714Y-74890990D01*
X149375714Y-74890990D02*
X149328095Y-74938609D01*
X149328095Y-74938609D02*
X149280476Y-75033847D01*
D10*
X100238095Y-61804819D02*
X100238095Y-60804819D01*
X100238095Y-61281009D02*
X100809523Y-61281009D01*
X100809523Y-61804819D02*
X100809523Y-60804819D01*
X101809523Y-61804819D02*
X101238095Y-61804819D01*
X101523809Y-61804819D02*
X101523809Y-60804819D01*
X101523809Y-60804819D02*
X101428571Y-60947676D01*
X101428571Y-60947676D02*
X101333333Y-61042914D01*
X101333333Y-61042914D02*
X101238095Y-61090533D01*
X89357200Y-150559523D02*
X89404819Y-150416666D01*
X89404819Y-150416666D02*
X89404819Y-150178571D01*
X89404819Y-150178571D02*
X89357200Y-150083333D01*
X89357200Y-150083333D02*
X89309580Y-150035714D01*
X89309580Y-150035714D02*
X89214342Y-149988095D01*
X89214342Y-149988095D02*
X89119104Y-149988095D01*
X89119104Y-149988095D02*
X89023866Y-150035714D01*
X89023866Y-150035714D02*
X88976247Y-150083333D01*
X88976247Y-150083333D02*
X88928628Y-150178571D01*
X88928628Y-150178571D02*
X88881009Y-150369047D01*
X88881009Y-150369047D02*
X88833390Y-150464285D01*
X88833390Y-150464285D02*
X88785771Y-150511904D01*
X88785771Y-150511904D02*
X88690533Y-150559523D01*
X88690533Y-150559523D02*
X88595295Y-150559523D01*
X88595295Y-150559523D02*
X88500057Y-150511904D01*
X88500057Y-150511904D02*
X88452438Y-150464285D01*
X88452438Y-150464285D02*
X88404819Y-150369047D01*
X88404819Y-150369047D02*
X88404819Y-150130952D01*
X88404819Y-150130952D02*
X88452438Y-149988095D01*
X88404819Y-149654761D02*
X89404819Y-149416666D01*
X89404819Y-149416666D02*
X88690533Y-149226190D01*
X88690533Y-149226190D02*
X89404819Y-149035714D01*
X89404819Y-149035714D02*
X88404819Y-148797619D01*
X89404819Y-147892857D02*
X89404819Y-148464285D01*
X89404819Y-148178571D02*
X88404819Y-148178571D01*
X88404819Y-148178571D02*
X88547676Y-148273809D01*
X88547676Y-148273809D02*
X88642914Y-148369047D01*
X88642914Y-148369047D02*
X88690533Y-148464285D01*
X88500057Y-147511904D02*
X88452438Y-147464285D01*
X88452438Y-147464285D02*
X88404819Y-147369047D01*
X88404819Y-147369047D02*
X88404819Y-147130952D01*
X88404819Y-147130952D02*
X88452438Y-147035714D01*
X88452438Y-147035714D02*
X88500057Y-146988095D01*
X88500057Y-146988095D02*
X88595295Y-146940476D01*
X88595295Y-146940476D02*
X88690533Y-146940476D01*
X88690533Y-146940476D02*
X88833390Y-146988095D01*
X88833390Y-146988095D02*
X89404819Y-147559523D01*
X89404819Y-147559523D02*
X89404819Y-146940476D01*
X63747200Y-87909523D02*
X63794819Y-87766666D01*
X63794819Y-87766666D02*
X63794819Y-87528571D01*
X63794819Y-87528571D02*
X63747200Y-87433333D01*
X63747200Y-87433333D02*
X63699580Y-87385714D01*
X63699580Y-87385714D02*
X63604342Y-87338095D01*
X63604342Y-87338095D02*
X63509104Y-87338095D01*
X63509104Y-87338095D02*
X63413866Y-87385714D01*
X63413866Y-87385714D02*
X63366247Y-87433333D01*
X63366247Y-87433333D02*
X63318628Y-87528571D01*
X63318628Y-87528571D02*
X63271009Y-87719047D01*
X63271009Y-87719047D02*
X63223390Y-87814285D01*
X63223390Y-87814285D02*
X63175771Y-87861904D01*
X63175771Y-87861904D02*
X63080533Y-87909523D01*
X63080533Y-87909523D02*
X62985295Y-87909523D01*
X62985295Y-87909523D02*
X62890057Y-87861904D01*
X62890057Y-87861904D02*
X62842438Y-87814285D01*
X62842438Y-87814285D02*
X62794819Y-87719047D01*
X62794819Y-87719047D02*
X62794819Y-87480952D01*
X62794819Y-87480952D02*
X62842438Y-87338095D01*
X62794819Y-87004761D02*
X63794819Y-86766666D01*
X63794819Y-86766666D02*
X63080533Y-86576190D01*
X63080533Y-86576190D02*
X63794819Y-86385714D01*
X63794819Y-86385714D02*
X62794819Y-86147619D01*
X62890057Y-85814285D02*
X62842438Y-85766666D01*
X62842438Y-85766666D02*
X62794819Y-85671428D01*
X62794819Y-85671428D02*
X62794819Y-85433333D01*
X62794819Y-85433333D02*
X62842438Y-85338095D01*
X62842438Y-85338095D02*
X62890057Y-85290476D01*
X62890057Y-85290476D02*
X62985295Y-85242857D01*
X62985295Y-85242857D02*
X63080533Y-85242857D01*
X63080533Y-85242857D02*
X63223390Y-85290476D01*
X63223390Y-85290476D02*
X63794819Y-85861904D01*
X63794819Y-85861904D02*
X63794819Y-85242857D01*
X62794819Y-84623809D02*
X62794819Y-84528571D01*
X62794819Y-84528571D02*
X62842438Y-84433333D01*
X62842438Y-84433333D02*
X62890057Y-84385714D01*
X62890057Y-84385714D02*
X62985295Y-84338095D01*
X62985295Y-84338095D02*
X63175771Y-84290476D01*
X63175771Y-84290476D02*
X63413866Y-84290476D01*
X63413866Y-84290476D02*
X63604342Y-84338095D01*
X63604342Y-84338095D02*
X63699580Y-84385714D01*
X63699580Y-84385714D02*
X63747200Y-84433333D01*
X63747200Y-84433333D02*
X63794819Y-84528571D01*
X63794819Y-84528571D02*
X63794819Y-84623809D01*
X63794819Y-84623809D02*
X63747200Y-84719047D01*
X63747200Y-84719047D02*
X63699580Y-84766666D01*
X63699580Y-84766666D02*
X63604342Y-84814285D01*
X63604342Y-84814285D02*
X63413866Y-84861904D01*
X63413866Y-84861904D02*
X63175771Y-84861904D01*
X63175771Y-84861904D02*
X62985295Y-84814285D01*
X62985295Y-84814285D02*
X62890057Y-84766666D01*
X62890057Y-84766666D02*
X62842438Y-84719047D01*
X62842438Y-84719047D02*
X62794819Y-84623809D01*
X130035714Y-133494819D02*
X130035714Y-132494819D01*
X130035714Y-132494819D02*
X130273809Y-132494819D01*
X130273809Y-132494819D02*
X130416666Y-132542438D01*
X130416666Y-132542438D02*
X130511904Y-132637676D01*
X130511904Y-132637676D02*
X130559523Y-132732914D01*
X130559523Y-132732914D02*
X130607142Y-132923390D01*
X130607142Y-132923390D02*
X130607142Y-133066247D01*
X130607142Y-133066247D02*
X130559523Y-133256723D01*
X130559523Y-133256723D02*
X130511904Y-133351961D01*
X130511904Y-133351961D02*
X130416666Y-133447200D01*
X130416666Y-133447200D02*
X130273809Y-133494819D01*
X130273809Y-133494819D02*
X130035714Y-133494819D01*
X131559523Y-133494819D02*
X130988095Y-133494819D01*
X131273809Y-133494819D02*
X131273809Y-132494819D01*
X131273809Y-132494819D02*
X131178571Y-132637676D01*
X131178571Y-132637676D02*
X131083333Y-132732914D01*
X131083333Y-132732914D02*
X130988095Y-132780533D01*
X131892857Y-132494819D02*
X132511904Y-132494819D01*
X132511904Y-132494819D02*
X132178571Y-132875771D01*
X132178571Y-132875771D02*
X132321428Y-132875771D01*
X132321428Y-132875771D02*
X132416666Y-132923390D01*
X132416666Y-132923390D02*
X132464285Y-132971009D01*
X132464285Y-132971009D02*
X132511904Y-133066247D01*
X132511904Y-133066247D02*
X132511904Y-133304342D01*
X132511904Y-133304342D02*
X132464285Y-133399580D01*
X132464285Y-133399580D02*
X132416666Y-133447200D01*
X132416666Y-133447200D02*
X132321428Y-133494819D01*
X132321428Y-133494819D02*
X132035714Y-133494819D01*
X132035714Y-133494819D02*
X131940476Y-133447200D01*
X131940476Y-133447200D02*
X131892857Y-133399580D01*
X95511905Y-103494819D02*
X95511905Y-102494819D01*
X95511905Y-102494819D02*
X95750000Y-102494819D01*
X95750000Y-102494819D02*
X95892857Y-102542438D01*
X95892857Y-102542438D02*
X95988095Y-102637676D01*
X95988095Y-102637676D02*
X96035714Y-102732914D01*
X96035714Y-102732914D02*
X96083333Y-102923390D01*
X96083333Y-102923390D02*
X96083333Y-103066247D01*
X96083333Y-103066247D02*
X96035714Y-103256723D01*
X96035714Y-103256723D02*
X95988095Y-103351961D01*
X95988095Y-103351961D02*
X95892857Y-103447200D01*
X95892857Y-103447200D02*
X95750000Y-103494819D01*
X95750000Y-103494819D02*
X95511905Y-103494819D01*
X96416667Y-102494819D02*
X97035714Y-102494819D01*
X97035714Y-102494819D02*
X96702381Y-102875771D01*
X96702381Y-102875771D02*
X96845238Y-102875771D01*
X96845238Y-102875771D02*
X96940476Y-102923390D01*
X96940476Y-102923390D02*
X96988095Y-102971009D01*
X96988095Y-102971009D02*
X97035714Y-103066247D01*
X97035714Y-103066247D02*
X97035714Y-103304342D01*
X97035714Y-103304342D02*
X96988095Y-103399580D01*
X96988095Y-103399580D02*
X96940476Y-103447200D01*
X96940476Y-103447200D02*
X96845238Y-103494819D01*
X96845238Y-103494819D02*
X96559524Y-103494819D01*
X96559524Y-103494819D02*
X96464286Y-103447200D01*
X96464286Y-103447200D02*
X96416667Y-103399580D01*
X77535714Y-133494819D02*
X77535714Y-132494819D01*
X77535714Y-132494819D02*
X77773809Y-132494819D01*
X77773809Y-132494819D02*
X77916666Y-132542438D01*
X77916666Y-132542438D02*
X78011904Y-132637676D01*
X78011904Y-132637676D02*
X78059523Y-132732914D01*
X78059523Y-132732914D02*
X78107142Y-132923390D01*
X78107142Y-132923390D02*
X78107142Y-133066247D01*
X78107142Y-133066247D02*
X78059523Y-133256723D01*
X78059523Y-133256723D02*
X78011904Y-133351961D01*
X78011904Y-133351961D02*
X77916666Y-133447200D01*
X77916666Y-133447200D02*
X77773809Y-133494819D01*
X77773809Y-133494819D02*
X77535714Y-133494819D01*
X79059523Y-133494819D02*
X78488095Y-133494819D01*
X78773809Y-133494819D02*
X78773809Y-132494819D01*
X78773809Y-132494819D02*
X78678571Y-132637676D01*
X78678571Y-132637676D02*
X78583333Y-132732914D01*
X78583333Y-132732914D02*
X78488095Y-132780533D01*
X79678571Y-132494819D02*
X79773809Y-132494819D01*
X79773809Y-132494819D02*
X79869047Y-132542438D01*
X79869047Y-132542438D02*
X79916666Y-132590057D01*
X79916666Y-132590057D02*
X79964285Y-132685295D01*
X79964285Y-132685295D02*
X80011904Y-132875771D01*
X80011904Y-132875771D02*
X80011904Y-133113866D01*
X80011904Y-133113866D02*
X79964285Y-133304342D01*
X79964285Y-133304342D02*
X79916666Y-133399580D01*
X79916666Y-133399580D02*
X79869047Y-133447200D01*
X79869047Y-133447200D02*
X79773809Y-133494819D01*
X79773809Y-133494819D02*
X79678571Y-133494819D01*
X79678571Y-133494819D02*
X79583333Y-133447200D01*
X79583333Y-133447200D02*
X79535714Y-133399580D01*
X79535714Y-133399580D02*
X79488095Y-133304342D01*
X79488095Y-133304342D02*
X79440476Y-133113866D01*
X79440476Y-133113866D02*
X79440476Y-132875771D01*
X79440476Y-132875771D02*
X79488095Y-132685295D01*
X79488095Y-132685295D02*
X79535714Y-132590057D01*
X79535714Y-132590057D02*
X79583333Y-132542438D01*
X79583333Y-132542438D02*
X79678571Y-132494819D01*
D13*
%TO.C,SW6*%
X125050000Y-114150000D02*
X126650000Y-112550000D01*
X125050000Y-123350000D02*
X125050000Y-114150000D01*
X126650000Y-124950000D02*
X125050000Y-123350000D01*
X127800000Y-112550000D02*
X126650000Y-112550000D01*
X127800000Y-124950000D02*
X126650000Y-124950000D01*
X129700000Y-112550000D02*
X132800000Y-112550000D01*
X129700000Y-124950000D02*
X132800000Y-124950000D01*
X134700000Y-112550000D02*
X135850000Y-112550000D01*
X134700000Y-124950000D02*
X135850000Y-124950000D01*
X135850000Y-124950000D02*
X137450000Y-123350000D01*
X137450000Y-114150000D02*
X135850000Y-112550000D01*
X137450000Y-123350000D02*
X137450000Y-114150000D01*
%TO.C,SW7*%
X142550000Y-114150000D02*
X144150000Y-112550000D01*
X142550000Y-123350000D02*
X142550000Y-114150000D01*
X144150000Y-124950000D02*
X142550000Y-123350000D01*
X145300000Y-112550000D02*
X144150000Y-112550000D01*
X145300000Y-124950000D02*
X144150000Y-124950000D01*
X147200000Y-112550000D02*
X150300000Y-112550000D01*
X147200000Y-124950000D02*
X150300000Y-124950000D01*
X152200000Y-112550000D02*
X153350000Y-112550000D01*
X152200000Y-124950000D02*
X153350000Y-124950000D01*
X153350000Y-124950000D02*
X154950000Y-123350000D01*
X154950000Y-114150000D02*
X153350000Y-112550000D01*
X154950000Y-123350000D02*
X154950000Y-114150000D01*
%TO.C,D8*%
X186250000Y-107000000D02*
G75*
G02*
X181250000Y-107000000I-2500000J0D01*
G01*
X181250000Y-107000000D02*
G75*
G02*
X186250000Y-107000000I2500000J0D01*
G01*
%TO.C,SW2*%
X55050000Y-114150000D02*
X56650000Y-112550000D01*
X55050000Y-123350000D02*
X55050000Y-114150000D01*
X56650000Y-124950000D02*
X55050000Y-123350000D01*
X57800000Y-112550000D02*
X56650000Y-112550000D01*
X57800000Y-124950000D02*
X56650000Y-124950000D01*
X59700000Y-112550000D02*
X62800000Y-112550000D01*
X59700000Y-124950000D02*
X62800000Y-124950000D01*
X64700000Y-112550000D02*
X65850000Y-112550000D01*
X64700000Y-124950000D02*
X65850000Y-124950000D01*
X65850000Y-124950000D02*
X67450000Y-123350000D01*
X67450000Y-114150000D02*
X65850000Y-112550000D01*
X67450000Y-123350000D02*
X67450000Y-114150000D01*
%TO.C,D5*%
X133750000Y-107000000D02*
G75*
G02*
X128750000Y-107000000I-2500000J0D01*
G01*
X128750000Y-107000000D02*
G75*
G02*
X133750000Y-107000000I2500000J0D01*
G01*
%TO.C,SW23*%
X88890000Y-71690000D02*
X88890000Y-78110000D01*
X88890000Y-78110000D02*
X89300000Y-78110000D01*
X89300000Y-71690000D02*
X88890000Y-71690000D01*
X90900000Y-78110000D02*
X93300000Y-78110000D01*
X93300000Y-71690000D02*
X90900000Y-71690000D01*
X94900000Y-78110000D02*
X95310000Y-78110000D01*
X95310000Y-71690000D02*
X95030000Y-71690000D01*
X95310000Y-78110000D02*
X95310000Y-71690000D01*
%TO.C,SW13*%
X107550000Y-144150000D02*
X109150000Y-142550000D01*
X107550000Y-153350000D02*
X107550000Y-144150000D01*
X109150000Y-154950000D02*
X107550000Y-153350000D01*
X110300000Y-142550000D02*
X109150000Y-142550000D01*
X110300000Y-154950000D02*
X109150000Y-154950000D01*
X112200000Y-142550000D02*
X115300000Y-142550000D01*
X112200000Y-154950000D02*
X115300000Y-154950000D01*
X117200000Y-142550000D02*
X118350000Y-142550000D01*
X117200000Y-154950000D02*
X118350000Y-154950000D01*
X118350000Y-154950000D02*
X119950000Y-153350000D01*
X119950000Y-144150000D02*
X118350000Y-142550000D01*
X119950000Y-153350000D02*
X119950000Y-144150000D01*
%TO.C,SW5*%
X107550000Y-114150000D02*
X109150000Y-112550000D01*
X107550000Y-123350000D02*
X107550000Y-114150000D01*
X109150000Y-124950000D02*
X107550000Y-123350000D01*
X110300000Y-112550000D02*
X109150000Y-112550000D01*
X110300000Y-124950000D02*
X109150000Y-124950000D01*
X112200000Y-112550000D02*
X115300000Y-112550000D01*
X112200000Y-124950000D02*
X115300000Y-124950000D01*
X117200000Y-112550000D02*
X118350000Y-112550000D01*
X117200000Y-124950000D02*
X118350000Y-124950000D01*
X118350000Y-124950000D02*
X119950000Y-123350000D01*
X119950000Y-114150000D02*
X118350000Y-112550000D01*
X119950000Y-123350000D02*
X119950000Y-114150000D01*
%TO.C,SW22*%
X88890000Y-82890000D02*
X88890000Y-89310000D01*
X88890000Y-89310000D02*
X89300000Y-89310000D01*
X89300000Y-82890000D02*
X88890000Y-82890000D01*
X90900000Y-89310000D02*
X93300000Y-89310000D01*
X93300000Y-82890000D02*
X90900000Y-82890000D01*
X94900000Y-89310000D02*
X95310000Y-89310000D01*
X95310000Y-82890000D02*
X95030000Y-82890000D01*
X95310000Y-89310000D02*
X95310000Y-82890000D01*
%TO.C,SW3*%
X72550000Y-114150000D02*
X74150000Y-112550000D01*
X72550000Y-123350000D02*
X72550000Y-114150000D01*
X74150000Y-124950000D02*
X72550000Y-123350000D01*
X75300000Y-112550000D02*
X74150000Y-112550000D01*
X75300000Y-124950000D02*
X74150000Y-124950000D01*
X77200000Y-112550000D02*
X80300000Y-112550000D01*
X77200000Y-124950000D02*
X80300000Y-124950000D01*
X82200000Y-112550000D02*
X83350000Y-112550000D01*
X82200000Y-124950000D02*
X83350000Y-124950000D01*
X83350000Y-124950000D02*
X84950000Y-123350000D01*
X84950000Y-114150000D02*
X83350000Y-112550000D01*
X84950000Y-123350000D02*
X84950000Y-114150000D01*
%TO.C,SW21*%
X55890000Y-94090000D02*
X55890000Y-100510000D01*
X55890000Y-100510000D02*
X56300000Y-100510000D01*
X56300000Y-94090000D02*
X55890000Y-94090000D01*
X57900000Y-100510000D02*
X60300000Y-100510000D01*
X60300000Y-94090000D02*
X57900000Y-94090000D01*
X61900000Y-100510000D02*
X62310000Y-100510000D01*
X62310000Y-94090000D02*
X62030000Y-94090000D01*
X62310000Y-100510000D02*
X62310000Y-94090000D01*
%TO.C,SW15*%
X142550000Y-144150000D02*
X144150000Y-142550000D01*
X142550000Y-153350000D02*
X142550000Y-144150000D01*
X144150000Y-154950000D02*
X142550000Y-153350000D01*
X145300000Y-142550000D02*
X144150000Y-142550000D01*
X145300000Y-154950000D02*
X144150000Y-154950000D01*
X147200000Y-142550000D02*
X150300000Y-142550000D01*
X147200000Y-154950000D02*
X150300000Y-154950000D01*
X152200000Y-142550000D02*
X153350000Y-142550000D01*
X152200000Y-154950000D02*
X153350000Y-154950000D01*
X153350000Y-154950000D02*
X154950000Y-153350000D01*
X154950000Y-144150000D02*
X153350000Y-142550000D01*
X154950000Y-153350000D02*
X154950000Y-144150000D01*
%TO.C,SW11*%
X72550000Y-144150000D02*
X74150000Y-142550000D01*
X72550000Y-153350000D02*
X72550000Y-144150000D01*
X74150000Y-154950000D02*
X72550000Y-153350000D01*
X75300000Y-142550000D02*
X74150000Y-142550000D01*
X75300000Y-154950000D02*
X74150000Y-154950000D01*
X77200000Y-142550000D02*
X80300000Y-142550000D01*
X77200000Y-154950000D02*
X80300000Y-154950000D01*
X82200000Y-142550000D02*
X83350000Y-142550000D01*
X82200000Y-154950000D02*
X83350000Y-154950000D01*
X83350000Y-154950000D02*
X84950000Y-153350000D01*
X84950000Y-144150000D02*
X83350000Y-142550000D01*
X84950000Y-153350000D02*
X84950000Y-144150000D01*
%TO.C,D4*%
X116250000Y-107000000D02*
G75*
G02*
X111250000Y-107000000I-2500000J0D01*
G01*
X111250000Y-107000000D02*
G75*
G02*
X116250000Y-107000000I2500000J0D01*
G01*
%TO.C,D16*%
X186250000Y-137000000D02*
G75*
G02*
X181250000Y-137000000I-2500000J0D01*
G01*
X181250000Y-137000000D02*
G75*
G02*
X186250000Y-137000000I2500000J0D01*
G01*
%TO.C,SW9*%
X177550000Y-114150000D02*
X179150000Y-112550000D01*
X177550000Y-123350000D02*
X177550000Y-114150000D01*
X179150000Y-124950000D02*
X177550000Y-123350000D01*
X180300000Y-112550000D02*
X179150000Y-112550000D01*
X180300000Y-124950000D02*
X179150000Y-124950000D01*
X182200000Y-112550000D02*
X185300000Y-112550000D01*
X182200000Y-124950000D02*
X185300000Y-124950000D01*
X187200000Y-112550000D02*
X188350000Y-112550000D01*
X187200000Y-124950000D02*
X188350000Y-124950000D01*
X188350000Y-124950000D02*
X189950000Y-123350000D01*
X189950000Y-114150000D02*
X188350000Y-112550000D01*
X189950000Y-123350000D02*
X189950000Y-114150000D01*
%TO.C,SW8*%
X160050000Y-114150000D02*
X161650000Y-112550000D01*
X160050000Y-123350000D02*
X160050000Y-114150000D01*
X161650000Y-124950000D02*
X160050000Y-123350000D01*
X162800000Y-112550000D02*
X161650000Y-112550000D01*
X162800000Y-124950000D02*
X161650000Y-124950000D01*
X164700000Y-112550000D02*
X167800000Y-112550000D01*
X164700000Y-124950000D02*
X167800000Y-124950000D01*
X169700000Y-112550000D02*
X170850000Y-112550000D01*
X169700000Y-124950000D02*
X170850000Y-124950000D01*
X170850000Y-124950000D02*
X172450000Y-123350000D01*
X172450000Y-114150000D02*
X170850000Y-112550000D01*
X172450000Y-123350000D02*
X172450000Y-114150000D01*
%TO.C,D6*%
X151250000Y-107000000D02*
G75*
G02*
X146250000Y-107000000I-2500000J0D01*
G01*
X146250000Y-107000000D02*
G75*
G02*
X151250000Y-107000000I2500000J0D01*
G01*
%TO.C,SW16*%
X160050000Y-144150000D02*
X161650000Y-142550000D01*
X160050000Y-153350000D02*
X160050000Y-144150000D01*
X161650000Y-154950000D02*
X160050000Y-153350000D01*
X162800000Y-142550000D02*
X161650000Y-142550000D01*
X162800000Y-154950000D02*
X161650000Y-154950000D01*
X164700000Y-142550000D02*
X167800000Y-142550000D01*
X164700000Y-154950000D02*
X167800000Y-154950000D01*
X169700000Y-142550000D02*
X170850000Y-142550000D01*
X169700000Y-154950000D02*
X170850000Y-154950000D01*
X170850000Y-154950000D02*
X172450000Y-153350000D01*
X172450000Y-144150000D02*
X170850000Y-142550000D01*
X172450000Y-153350000D02*
X172450000Y-144150000D01*
%TO.C,D7*%
X168750000Y-107000000D02*
G75*
G02*
X163750000Y-107000000I-2500000J0D01*
G01*
X163750000Y-107000000D02*
G75*
G02*
X168750000Y-107000000I2500000J0D01*
G01*
%TO.C,D2*%
X81250000Y-107000000D02*
G75*
G02*
X76250000Y-107000000I-2500000J0D01*
G01*
X76250000Y-107000000D02*
G75*
G02*
X81250000Y-107000000I2500000J0D01*
G01*
%TO.C,D1*%
X63750000Y-107000000D02*
G75*
G02*
X58750000Y-107000000I-2500000J0D01*
G01*
X58750000Y-107000000D02*
G75*
G02*
X63750000Y-107000000I2500000J0D01*
G01*
%TO.C,SW14*%
X125050000Y-144150000D02*
X126650000Y-142550000D01*
X125050000Y-153350000D02*
X125050000Y-144150000D01*
X126650000Y-154950000D02*
X125050000Y-153350000D01*
X127800000Y-142550000D02*
X126650000Y-142550000D01*
X127800000Y-154950000D02*
X126650000Y-154950000D01*
X129700000Y-142550000D02*
X132800000Y-142550000D01*
X129700000Y-154950000D02*
X132800000Y-154950000D01*
X134700000Y-142550000D02*
X135850000Y-142550000D01*
X134700000Y-154950000D02*
X135850000Y-154950000D01*
X135850000Y-154950000D02*
X137450000Y-153350000D01*
X137450000Y-144150000D02*
X135850000Y-142550000D01*
X137450000Y-153350000D02*
X137450000Y-144150000D01*
%TO.C,SW19*%
X55890000Y-71690000D02*
X55890000Y-78110000D01*
X55890000Y-78110000D02*
X56300000Y-78110000D01*
X56300000Y-71690000D02*
X55890000Y-71690000D01*
X57900000Y-78110000D02*
X60300000Y-78110000D01*
X60300000Y-71690000D02*
X57900000Y-71690000D01*
X61900000Y-78110000D02*
X62310000Y-78110000D01*
X62310000Y-71690000D02*
X62030000Y-71690000D01*
X62310000Y-78110000D02*
X62310000Y-71690000D01*
%TO.C,D12*%
X116250000Y-137000000D02*
G75*
G02*
X111250000Y-137000000I-2500000J0D01*
G01*
X111250000Y-137000000D02*
G75*
G02*
X116250000Y-137000000I2500000J0D01*
G01*
D11*
%TO.C,U9*%
X110200000Y-67890000D02*
X111300000Y-67890000D01*
X111700000Y-67890000D02*
X112800000Y-67890000D01*
X113200000Y-67890000D02*
X114300000Y-67890000D01*
X114700000Y-67890000D02*
X115800000Y-67890000D01*
X116200000Y-67890000D02*
X117300000Y-67890000D01*
X117700000Y-67890000D02*
X118800000Y-67890000D01*
X119200000Y-67890000D02*
X120300000Y-67890000D01*
X120700000Y-67890000D02*
X121800000Y-67890000D01*
X122200000Y-67890000D02*
X123300000Y-67890000D01*
X123700000Y-67890000D02*
X124800000Y-67890000D01*
X125200000Y-67890000D02*
X126300000Y-67890000D01*
X126700000Y-67890000D02*
X127800000Y-67890000D01*
X128200000Y-67890000D02*
X129300000Y-67890000D01*
X129700000Y-67890000D02*
X130800000Y-67890000D01*
X131200000Y-67890000D02*
X132300000Y-67890000D01*
X132700000Y-67890000D02*
X133800000Y-67890000D01*
X134200000Y-67890000D02*
X135300000Y-67890000D01*
X135700000Y-67890000D02*
X136800000Y-67890000D01*
X137200000Y-67890000D02*
X138300000Y-67890000D01*
X138700000Y-67890000D02*
X139800000Y-67890000D01*
X140200000Y-67890000D02*
X141300000Y-67890000D01*
X141700000Y-67890000D02*
X142200000Y-67890000D01*
X142200000Y-67890000D02*
X142200000Y-68990000D01*
X142200000Y-69390000D02*
X142200000Y-70490000D01*
X142200000Y-70890000D02*
X142200000Y-71990000D01*
X142200000Y-72390000D02*
X142200000Y-73490000D01*
X142200000Y-73890000D02*
X142200000Y-74990000D01*
X142200000Y-75390000D02*
X142200000Y-76490000D01*
X142200000Y-76890000D02*
X142200000Y-77990000D01*
X142200000Y-78390000D02*
X142200000Y-79490000D01*
X142200000Y-79890000D02*
X142200000Y-80990000D01*
X142200000Y-81390000D02*
X142200000Y-82490000D01*
X142200000Y-82890000D02*
X142200000Y-83990000D01*
X142200000Y-84390000D02*
X142200000Y-85490000D01*
X142200000Y-85890000D02*
X142200000Y-86990000D01*
X142200000Y-87390000D02*
X142200000Y-88490000D01*
X142200000Y-88890000D02*
X142200000Y-89990000D01*
X142200000Y-90390000D02*
X142200000Y-91490000D01*
X142200000Y-91890000D02*
X142200000Y-92990000D01*
X142200000Y-93390000D02*
X142200000Y-94490000D01*
X142200000Y-94890000D02*
X142200000Y-95990000D01*
X142200000Y-96390000D02*
X142200000Y-97490000D01*
X142200000Y-97890000D02*
X142200000Y-98990000D01*
X142200000Y-99390000D02*
X142200000Y-99890000D01*
X142200000Y-99890000D02*
X141100000Y-99890000D01*
X140700000Y-99890000D02*
X139600000Y-99890000D01*
X139200000Y-99890000D02*
X138100000Y-99890000D01*
X137700000Y-99890000D02*
X136600000Y-99890000D01*
X136200000Y-99890000D02*
X135100000Y-99890000D01*
X134700000Y-99890000D02*
X133600000Y-99890000D01*
X133200000Y-99890000D02*
X132100000Y-99890000D01*
X131700000Y-99890000D02*
X130600000Y-99890000D01*
X130200000Y-99890000D02*
X129100000Y-99890000D01*
X128700000Y-99890000D02*
X127600000Y-99890000D01*
X127200000Y-99890000D02*
X126100000Y-99890000D01*
X125700000Y-99890000D02*
X124600000Y-99890000D01*
X124200000Y-99890000D02*
X123100000Y-99890000D01*
X122700000Y-99890000D02*
X121600000Y-99890000D01*
X121200000Y-99890000D02*
X120100000Y-99890000D01*
X119700000Y-99890000D02*
X118600000Y-99890000D01*
X118200000Y-99890000D02*
X117100000Y-99890000D01*
X116700000Y-99890000D02*
X115600000Y-99890000D01*
X115200000Y-99890000D02*
X114100000Y-99890000D01*
X113700000Y-99890000D02*
X112600000Y-99890000D01*
X112200000Y-99890000D02*
X111100000Y-99890000D01*
X110700000Y-99890000D02*
X110200000Y-99890000D01*
X110200000Y-99890000D02*
X110200000Y-98790000D01*
X110200000Y-98390000D02*
X110200000Y-97290000D01*
X110200000Y-96890000D02*
X110200000Y-95790000D01*
X110200000Y-95390000D02*
X110200000Y-94290000D01*
X110200000Y-93890000D02*
X110200000Y-92790000D01*
X110200000Y-92390000D02*
X110200000Y-91290000D01*
X110200000Y-90890000D02*
X110200000Y-89790000D01*
X110200000Y-89390000D02*
X110200000Y-88290000D01*
X110200000Y-87890000D02*
X110200000Y-86790000D01*
X110200000Y-86390000D02*
X110200000Y-85290000D01*
X110200000Y-84890000D02*
X110200000Y-83790000D01*
X110200000Y-83390000D02*
X110200000Y-82290000D01*
X110200000Y-81890000D02*
X110200000Y-80790000D01*
X110200000Y-80390000D02*
X110200000Y-79290000D01*
X110200000Y-78890000D02*
X110200000Y-77790000D01*
X110200000Y-77390000D02*
X110200000Y-76290000D01*
X110200000Y-75890000D02*
X110200000Y-74790000D01*
X110200000Y-74390000D02*
X110200000Y-73290000D01*
X110200000Y-72890000D02*
X110200000Y-71790000D01*
X110200000Y-71390000D02*
X110200000Y-70290000D01*
X110200000Y-69890000D02*
X110200000Y-68790000D01*
X110200000Y-68390000D02*
X110200000Y-67890000D01*
D13*
%TO.C,D9*%
X63750000Y-137000000D02*
G75*
G02*
X58750000Y-137000000I-2500000J0D01*
G01*
X58750000Y-137000000D02*
G75*
G02*
X63750000Y-137000000I2500000J0D01*
G01*
%TO.C,SW18*%
X177550000Y-74180000D02*
X179150000Y-72580000D01*
X177550000Y-83380000D02*
X177550000Y-74180000D01*
X179150000Y-84980000D02*
X177550000Y-83380000D01*
X180300000Y-72580000D02*
X179150000Y-72580000D01*
X180300000Y-84980000D02*
X179150000Y-84980000D01*
X182200000Y-72580000D02*
X185300000Y-72580000D01*
X182200000Y-84980000D02*
X185300000Y-84980000D01*
X187200000Y-72580000D02*
X188350000Y-72580000D01*
X187200000Y-84980000D02*
X188350000Y-84980000D01*
X188350000Y-84980000D02*
X189950000Y-83380000D01*
X189950000Y-74180000D02*
X188350000Y-72580000D01*
X189950000Y-83380000D02*
X189950000Y-74180000D01*
%TO.C,SW4*%
X90050000Y-114150000D02*
X91650000Y-112550000D01*
X90050000Y-123350000D02*
X90050000Y-114150000D01*
X91650000Y-124950000D02*
X90050000Y-123350000D01*
X92800000Y-112550000D02*
X91650000Y-112550000D01*
X92800000Y-124950000D02*
X91650000Y-124950000D01*
X94700000Y-112550000D02*
X97800000Y-112550000D01*
X94700000Y-124950000D02*
X97800000Y-124950000D01*
X99700000Y-112550000D02*
X100850000Y-112550000D01*
X99700000Y-124950000D02*
X100850000Y-124950000D01*
X100850000Y-124950000D02*
X102450000Y-123350000D01*
X102450000Y-114150000D02*
X100850000Y-112550000D01*
X102450000Y-123350000D02*
X102450000Y-114150000D01*
%TO.C,SW10*%
X55050000Y-144150000D02*
X56650000Y-142550000D01*
X55050000Y-153350000D02*
X55050000Y-144150000D01*
X56650000Y-154950000D02*
X55050000Y-153350000D01*
X57800000Y-142550000D02*
X56650000Y-142550000D01*
X57800000Y-154950000D02*
X56650000Y-154950000D01*
X59700000Y-142550000D02*
X62800000Y-142550000D01*
X59700000Y-154950000D02*
X62800000Y-154950000D01*
X64700000Y-142550000D02*
X65850000Y-142550000D01*
X64700000Y-154950000D02*
X65850000Y-154950000D01*
X65850000Y-154950000D02*
X67450000Y-153350000D01*
X67450000Y-144150000D02*
X65850000Y-142550000D01*
X67450000Y-153350000D02*
X67450000Y-144150000D01*
%TO.C,D15*%
X168750000Y-137000000D02*
G75*
G02*
X163750000Y-137000000I-2500000J0D01*
G01*
X163750000Y-137000000D02*
G75*
G02*
X168750000Y-137000000I2500000J0D01*
G01*
%TO.C,D11*%
X98750000Y-137000000D02*
G75*
G02*
X93750000Y-137000000I-2500000J0D01*
G01*
X93750000Y-137000000D02*
G75*
G02*
X98750000Y-137000000I2500000J0D01*
G01*
%TO.C,SW17*%
X177550000Y-144150000D02*
X179150000Y-142550000D01*
X177550000Y-153350000D02*
X177550000Y-144150000D01*
X179150000Y-154950000D02*
X177550000Y-153350000D01*
X180300000Y-142550000D02*
X179150000Y-142550000D01*
X180300000Y-154950000D02*
X179150000Y-154950000D01*
X182200000Y-142550000D02*
X185300000Y-142550000D01*
X182200000Y-154950000D02*
X185300000Y-154950000D01*
X187200000Y-142550000D02*
X188350000Y-142550000D01*
X187200000Y-154950000D02*
X188350000Y-154950000D01*
X188350000Y-154950000D02*
X189950000Y-153350000D01*
X189950000Y-144150000D02*
X188350000Y-142550000D01*
X189950000Y-153350000D02*
X189950000Y-144150000D01*
%TO.C,D14*%
X151250000Y-137000000D02*
G75*
G02*
X146250000Y-137000000I-2500000J0D01*
G01*
X146250000Y-137000000D02*
G75*
G02*
X151250000Y-137000000I2500000J0D01*
G01*
%TO.C,R33*%
X89822936Y-94340000D02*
X91277064Y-94340000D01*
X89822936Y-96160000D02*
X91277064Y-96160000D01*
D11*
%TO.C,U10*%
X142200000Y-67890000D02*
X143300000Y-67890000D01*
X143700000Y-67890000D02*
X144800000Y-67890000D01*
X145200000Y-67890000D02*
X146300000Y-67890000D01*
X146700000Y-67890000D02*
X147800000Y-67890000D01*
X148200000Y-67890000D02*
X149300000Y-67890000D01*
X149700000Y-67890000D02*
X150800000Y-67890000D01*
X151200000Y-67890000D02*
X152300000Y-67890000D01*
X152700000Y-67890000D02*
X153800000Y-67890000D01*
X154200000Y-67890000D02*
X155300000Y-67890000D01*
X155700000Y-67890000D02*
X156800000Y-67890000D01*
X157200000Y-67890000D02*
X158300000Y-67890000D01*
X158700000Y-67890000D02*
X159800000Y-67890000D01*
X160200000Y-67890000D02*
X161300000Y-67890000D01*
X161700000Y-67890000D02*
X162800000Y-67890000D01*
X163200000Y-67890000D02*
X164300000Y-67890000D01*
X164700000Y-67890000D02*
X165800000Y-67890000D01*
X166200000Y-67890000D02*
X167300000Y-67890000D01*
X167700000Y-67890000D02*
X168800000Y-67890000D01*
X169200000Y-67890000D02*
X170300000Y-67890000D01*
X170700000Y-67890000D02*
X171800000Y-67890000D01*
X172200000Y-67890000D02*
X173300000Y-67890000D01*
X173700000Y-67890000D02*
X174200000Y-67890000D01*
X174200000Y-67890000D02*
X174200000Y-68990000D01*
X174200000Y-69390000D02*
X174200000Y-70490000D01*
X174200000Y-70890000D02*
X174200000Y-71990000D01*
X174200000Y-72390000D02*
X174200000Y-73490000D01*
X174200000Y-73890000D02*
X174200000Y-74990000D01*
X174200000Y-75390000D02*
X174200000Y-76490000D01*
X174200000Y-76890000D02*
X174200000Y-77990000D01*
X174200000Y-78390000D02*
X174200000Y-79490000D01*
X174200000Y-79890000D02*
X174200000Y-80990000D01*
X174200000Y-81390000D02*
X174200000Y-82490000D01*
X174200000Y-82890000D02*
X174200000Y-83990000D01*
X174200000Y-84390000D02*
X174200000Y-85490000D01*
X174200000Y-85890000D02*
X174200000Y-86990000D01*
X174200000Y-87390000D02*
X174200000Y-88490000D01*
X174200000Y-88890000D02*
X174200000Y-89990000D01*
X174200000Y-90390000D02*
X174200000Y-91490000D01*
X174200000Y-91890000D02*
X174200000Y-92990000D01*
X174200000Y-93390000D02*
X174200000Y-94490000D01*
X174200000Y-94890000D02*
X174200000Y-95990000D01*
X174200000Y-96390000D02*
X174200000Y-97490000D01*
X174200000Y-97890000D02*
X174200000Y-98990000D01*
X174200000Y-99390000D02*
X174200000Y-99890000D01*
X174200000Y-99890000D02*
X173100000Y-99890000D01*
X172700000Y-99890000D02*
X171600000Y-99890000D01*
X171200000Y-99890000D02*
X170100000Y-99890000D01*
X169700000Y-99890000D02*
X168600000Y-99890000D01*
X168200000Y-99890000D02*
X167100000Y-99890000D01*
X166700000Y-99890000D02*
X165600000Y-99890000D01*
X165200000Y-99890000D02*
X164100000Y-99890000D01*
X163700000Y-99890000D02*
X162600000Y-99890000D01*
X162200000Y-99890000D02*
X161100000Y-99890000D01*
X160700000Y-99890000D02*
X159600000Y-99890000D01*
X159200000Y-99890000D02*
X158100000Y-99890000D01*
X157700000Y-99890000D02*
X156600000Y-99890000D01*
X156200000Y-99890000D02*
X155100000Y-99890000D01*
X154700000Y-99890000D02*
X153600000Y-99890000D01*
X153200000Y-99890000D02*
X152100000Y-99890000D01*
X151700000Y-99890000D02*
X150600000Y-99890000D01*
X150200000Y-99890000D02*
X149100000Y-99890000D01*
X148700000Y-99890000D02*
X147600000Y-99890000D01*
X147200000Y-99890000D02*
X146100000Y-99890000D01*
X145700000Y-99890000D02*
X144600000Y-99890000D01*
X144200000Y-99890000D02*
X143100000Y-99890000D01*
X142700000Y-99890000D02*
X142200000Y-99890000D01*
X142200000Y-99890000D02*
X142200000Y-98790000D01*
X142200000Y-98390000D02*
X142200000Y-97290000D01*
X142200000Y-96890000D02*
X142200000Y-95790000D01*
X142200000Y-95390000D02*
X142200000Y-94290000D01*
X142200000Y-93890000D02*
X142200000Y-92790000D01*
X142200000Y-92390000D02*
X142200000Y-91290000D01*
X142200000Y-90890000D02*
X142200000Y-89790000D01*
X142200000Y-89390000D02*
X142200000Y-88290000D01*
X142200000Y-87890000D02*
X142200000Y-86790000D01*
X142200000Y-86390000D02*
X142200000Y-85290000D01*
X142200000Y-84890000D02*
X142200000Y-83790000D01*
X142200000Y-83390000D02*
X142200000Y-82290000D01*
X142200000Y-81890000D02*
X142200000Y-80790000D01*
X142200000Y-80390000D02*
X142200000Y-79290000D01*
X142200000Y-78890000D02*
X142200000Y-77790000D01*
X142200000Y-77390000D02*
X142200000Y-76290000D01*
X142200000Y-75890000D02*
X142200000Y-74790000D01*
X142200000Y-74390000D02*
X142200000Y-73290000D01*
X142200000Y-72890000D02*
X142200000Y-71790000D01*
X142200000Y-71390000D02*
X142200000Y-70290000D01*
X142200000Y-69890000D02*
X142200000Y-68790000D01*
X142200000Y-68390000D02*
X142200000Y-67890000D01*
D13*
%TO.C,SW12*%
X90050000Y-144150000D02*
X91650000Y-142550000D01*
X90050000Y-153350000D02*
X90050000Y-144150000D01*
X91650000Y-154950000D02*
X90050000Y-153350000D01*
X92800000Y-142550000D02*
X91650000Y-142550000D01*
X92800000Y-154950000D02*
X91650000Y-154950000D01*
X94700000Y-142550000D02*
X97800000Y-142550000D01*
X94700000Y-154950000D02*
X97800000Y-154950000D01*
X99700000Y-142550000D02*
X100850000Y-142550000D01*
X99700000Y-154950000D02*
X100850000Y-154950000D01*
X100850000Y-154950000D02*
X102450000Y-153350000D01*
X102450000Y-144150000D02*
X100850000Y-142550000D01*
X102450000Y-153350000D02*
X102450000Y-144150000D01*
%TO.C,SW20*%
X55890000Y-82890000D02*
X55890000Y-89310000D01*
X55890000Y-89310000D02*
X56300000Y-89310000D01*
X56300000Y-82890000D02*
X55890000Y-82890000D01*
X57900000Y-89310000D02*
X60300000Y-89310000D01*
X60300000Y-82890000D02*
X57900000Y-82890000D01*
X61900000Y-89310000D02*
X62310000Y-89310000D01*
X62310000Y-82890000D02*
X62030000Y-82890000D01*
X62310000Y-89310000D02*
X62310000Y-82890000D01*
%TO.C,D13*%
X133750000Y-137000000D02*
G75*
G02*
X128750000Y-137000000I-2500000J0D01*
G01*
X128750000Y-137000000D02*
G75*
G02*
X133750000Y-137000000I2500000J0D01*
G01*
%TO.C,D3*%
X98750000Y-107000000D02*
G75*
G02*
X93750000Y-107000000I-2500000J0D01*
G01*
X93750000Y-107000000D02*
G75*
G02*
X98750000Y-107000000I2500000J0D01*
G01*
%TO.C,D10*%
X81250000Y-137000000D02*
G75*
G02*
X76250000Y-137000000I-2500000J0D01*
G01*
X76250000Y-137000000D02*
G75*
G02*
X81250000Y-137000000I2500000J0D01*
G01*
%TD*%
M02*
